<svg width="20" height="21" viewBox="0 0 20 21" fill="none" xmlns="http://www.w3.org/2000/svg">
<path d="M9.53265 10.7298C12.3575 10.7298 14.6476 8.43982 14.6476 5.61492C14.6476 2.79003 12.3575 0.5 9.53265 0.5C6.70775 0.5 4.41772 2.79003 4.41772 5.61492C4.41772 8.43982 6.70775 10.7298 9.53265 10.7298Z" fill="#3A3A3A"/>
<path fill-rule="evenodd" clip-rule="evenodd" d="M15.1122 12.3047C13.2838 12.3047 11.7996 13.7889 11.7996 15.6173C11.7996 17.4457 13.2838 18.9308 15.1122 18.9308C16.9405 18.9308 18.4257 17.4457 18.4257 15.6173C18.4257 13.7889 16.9405 12.3047 15.1122 12.3047ZM15.1122 13.6997C16.1705 13.6997 17.0307 14.559 17.0307 15.6173C17.0307 16.6756 16.1705 17.5359 15.1122 17.5359C14.0538 17.5359 13.1936 16.6756 13.1936 15.6173C13.1936 14.559 14.0538 13.6997 15.1122 13.6997Z" fill="#3A3A3A"/>
<path fill-rule="evenodd" clip-rule="evenodd" d="M15.8098 13.0027V11.4338C15.8098 11.0488 15.4973 10.7363 15.1123 10.7363C14.7273 10.7363 14.4148 11.0488 14.4148 11.4338V13.0036C14.4148 13.3877 14.7273 13.7011 15.1123 13.7011C15.4973 13.7002 15.8098 13.3877 15.8098 13.0027Z" fill="#3A3A3A"/>
<path fill-rule="evenodd" clip-rule="evenodd" d="M17.4548 14.2615L18.5643 13.1511C18.8367 12.8795 18.8367 12.4369 18.5643 12.1653C18.2927 11.8928 17.85 11.8928 17.5785 12.1653L16.4681 13.2748C16.1965 13.5473 16.1965 13.989 16.4681 14.2615C16.7406 14.533 17.1823 14.533 17.4548 14.2615Z" fill="#3A3A3A"/>
<path fill-rule="evenodd" clip-rule="evenodd" d="M17.7273 16.3149H19.2971C19.6822 16.3149 19.9946 16.0024 19.9946 15.6174C19.9946 15.2324 19.6822 14.9199 19.2971 14.9199H17.7273C17.3432 14.9199 17.0308 15.2324 17.0308 15.6174C17.0298 16.0024 17.3432 16.3149 17.7273 16.3149Z" fill="#3A3A3A"/>
<path fill-rule="evenodd" clip-rule="evenodd" d="M16.4681 17.9599L17.5785 19.0694C17.85 19.3419 18.2927 19.3419 18.5643 19.0694C18.8367 18.7978 18.8367 18.3552 18.5643 18.0836L17.4548 16.9732C17.1823 16.7016 16.7406 16.7016 16.4681 16.9732C16.1965 17.2457 16.1965 17.6874 16.4681 17.9599Z" fill="#3A3A3A"/>
<path fill-rule="evenodd" clip-rule="evenodd" d="M14.4148 18.2326V19.8025C14.4148 20.1875 14.7273 20.5 15.1123 20.5C15.4973 20.5 15.8098 20.1875 15.8098 19.8025V18.2326C15.8098 17.8486 15.4973 17.5361 15.1123 17.5352C14.7273 17.5352 14.4148 17.8486 14.4148 18.2326Z" fill="#3A3A3A"/>
<path fill-rule="evenodd" clip-rule="evenodd" d="M12.7696 16.9732L11.6602 18.0836C11.3877 18.3552 11.3877 18.7978 11.6602 19.0694C11.9317 19.3419 12.3744 19.3419 12.646 19.0694L13.7564 17.9599C14.0279 17.6874 14.0279 17.2457 13.7564 16.9732C13.4839 16.7016 13.0421 16.7016 12.7696 16.9732Z" fill="#3A3A3A"/>
<path fill-rule="evenodd" clip-rule="evenodd" d="M12.4965 14.9199H10.9276C10.5426 14.9199 10.2301 15.2324 10.2301 15.6174C10.2301 16.0024 10.5426 16.3149 10.9276 16.3149H12.4965C12.8815 16.3149 13.1949 16.0024 13.194 15.6174C13.194 15.2324 12.8815 14.9199 12.4965 14.9199Z" fill="#3A3A3A"/>
<path fill-rule="evenodd" clip-rule="evenodd" d="M13.7564 13.2748L12.646 12.1653C12.3744 11.8928 11.9317 11.8928 11.6602 12.1653C11.3877 12.4369 11.3877 12.8795 11.6602 13.1511L12.7696 14.2615C13.0421 14.533 13.4839 14.533 13.7564 14.2615C14.0279 13.989 14.0279 13.5473 13.7564 13.2748Z" fill="#3A3A3A"/>
<path fill-rule="evenodd" clip-rule="evenodd" d="M10.8678 19.5756C10.3712 18.9377 10.4158 18.0123 11.0027 17.4264L11.1831 17.2451H10.9273C10.029 17.2451 9.29986 16.516 9.29986 15.6176C9.29986 14.7192 10.029 13.9901 10.9273 13.9901H11.1831L11.0027 13.8088C10.3926 13.1996 10.3684 12.2241 10.9301 11.5852C10.4744 11.5498 10.0076 11.5312 9.53236 11.5312C6.44294 11.5312 3.70785 12.3041 2.0097 13.4619C0.714229 14.3454 0 15.4679 0 16.6462V17.9947C0 18.4141 0.166468 18.8168 0.463133 19.1125C0.759799 19.4092 1.16155 19.5756 1.58098 19.5756H10.8678Z" fill="#3A3A3A"/>
</svg>
