<svg width="30" height="30" viewBox="0 0 30 30" fill="none" xmlns="http://www.w3.org/2000/svg">
<circle cx="15" cy="15" r="15" fill="#47A1D9"/>
<path fill-rule="evenodd" clip-rule="evenodd" d="M9.4 8C8.07452 8 7 9.04467 7 10.3333V20.4444C7 21.3036 7.71634 22 8.6 22H21.4C22.2837 22 23 21.3036 23 20.4444V12.6667C23 11.8076 22.2837 11.1111 21.4 11.1111V9.55556C21.4 8.69645 20.6837 8 19.8 8H9.4ZM8.6 10.3333C8.6 9.90378 8.95818 9.55556 9.4 9.55556H19.8V11.1111H9.4C8.95818 11.1111 8.6 10.7629 8.6 10.3333ZM19.4 17.7222C20.0627 17.7222 20.6 17.1999 20.6 16.5556C20.6 15.9112 20.0627 15.3889 19.4 15.3889C18.7373 15.3889 18.2 15.9112 18.2 16.5556C18.2 17.1999 18.7373 17.7222 19.4 17.7222Z" fill="white"/>
</svg>
