<svg width="14" height="12" viewBox="0 0 14 12" fill="none" xmlns="http://www.w3.org/2000/svg">
<path d="M14 1.28571C14 1.72048 13.6092 2.07143 13.125 2.07143H0.875C0.390833 2.07143 0 1.72048 0 1.28571C0 0.850952 0.390833 0.5 0.875 0.5H13.125C13.6092 0.5 14 0.850952 14 1.28571ZM8.45833 9.92857H5.54167C5.0575 9.92857 4.66667 10.2795 4.66667 10.7143C4.66667 11.149 5.0575 11.5 5.54167 11.5H8.45833C8.9425 11.5 9.33333 11.149 9.33333 10.7143C9.33333 10.2795 8.9425 9.92857 8.45833 9.92857ZM10.7917 5.21429H3.20833C2.72417 5.21429 2.33333 5.56524 2.33333 6C2.33333 6.43476 2.72417 6.78571 3.20833 6.78571H10.7917C11.2758 6.78571 11.6667 6.43476 11.6667 6C11.6667 5.56524 11.2758 5.21429 10.7917 5.21429Z" fill="white"/>
</svg>
