<svg width="10" height="13" viewBox="0 0 10 13" fill="none" xmlns="http://www.w3.org/2000/svg">
<path d="M8.67647 3.63086H1.32353C0.588235 3.63086 0 4.21909 0 4.95439V11.2779C0 12.0132 0.588235 12.6014 1.32353 12.6014H8.67647C9.41177 12.6014 10 12.0132 10 11.2779V4.95439C10 4.21909 9.41177 3.63086 8.67647 3.63086ZM7.10294 7.20439C7.10294 7.45439 6.91176 7.64557 6.66176 7.64557H3.33823C3.08823 7.64557 2.89706 7.45439 2.89706 7.20439V6.08674C2.89706 5.83674 3.08823 5.64557 3.33823 5.64557C3.58823 5.64557 3.77941 5.83674 3.77941 6.08674V6.76321H6.22059V6.08674C6.22059 5.83674 6.41176 5.64557 6.66176 5.64557C6.91176 5.64557 7.10294 5.83674 7.10294 6.08674V7.20439Z" fill="#47A1D9"/>
<path d="M8.67669 2.01367H1.32374C1.07374 2.01367 0.882568 2.20485 0.882568 2.45485C0.882568 2.70485 1.07374 2.89602 1.32374 2.89602H8.67669C8.92669 2.89602 9.11786 2.70485 9.11786 2.45485C9.11786 2.20485 8.92669 2.01367 8.67669 2.01367Z" fill="#47A1D9"/>
<path d="M7.94121 0.396484H2.05885C1.80885 0.396484 1.61768 0.587661 1.61768 0.837661C1.61768 1.08766 1.80885 1.27884 2.05885 1.27884H7.94121C8.19121 1.27884 8.38238 1.08766 8.38238 0.837661C8.38238 0.587661 8.19121 0.396484 7.94121 0.396484Z" fill="#47A1D9"/>
</svg>
