<svg width="9" height="6" viewBox="0 0 9 6" fill="none" xmlns="http://www.w3.org/2000/svg">
<path d="M5.60562 4.71375L8.05145 2.14765C8.20145 1.99019 8.28569 1.77667 8.28564 1.55404C8.28559 1.33142 8.20126 1.11794 8.05118 0.960558C7.90111 0.803177 7.69759 0.714791 7.4854 0.714844C7.27321 0.714896 7.06974 0.803383 6.91973 0.960838L4.47444 3.52694C4.44967 3.55299 4.42024 3.57367 4.38785 3.58777C4.35545 3.60187 4.32072 3.60913 4.28564 3.60913C4.25057 3.60913 4.21584 3.60187 4.18344 3.58777C4.15105 3.57367 4.12162 3.55299 4.09685 3.52694L1.65156 0.960838C1.50155 0.803383 1.29807 0.714896 1.08589 0.714843C0.8737 0.714791 0.670184 0.803177 0.520109 0.960557C0.370034 1.11794 0.285694 1.33142 0.285644 1.55404C0.285594 1.77667 0.369837 1.99019 0.519841 2.14765L2.96567 4.71375C3.31608 5.08038 3.79077 5.28627 4.28564 5.28627C4.78052 5.28627 5.25521 5.08038 5.60562 4.71375Z" fill="#265285"/>
</svg>
