<svg width="14" height="15" viewBox="0 0 14 15" fill="none" xmlns="http://www.w3.org/2000/svg">
<path d="M13.601 7.26912L6.42711 0.0952281C6.36585 0.0340868 6.28278 -0.000152272 6.19624 5.80686e-07H0.326678C0.146587 -0.000335696 0.000336783 0.145425 5.05995e-07 0.325517C-0.000152347 0.412337 0.0343313 0.495642 0.0958089 0.556967L7.0395 7.50002L0.0958089 14.443C-0.0317012 14.5702 -0.0319458 14.7767 0.0952281 14.9042C0.156553 14.9657 0.239858 15.0002 0.326678 15H6.19624C6.28278 15.0002 6.36585 14.9659 6.42711 14.9048L13.601 7.73085C13.7285 7.60368 13.7288 7.39721 13.6016 7.2697C13.6014 7.26951 13.6012 7.26933 13.601 7.26912Z" fill="#265285"/>
</svg>
