<svg width="5" height="8" viewBox="0 0 5 8" fill="none" xmlns="http://www.w3.org/2000/svg">
<path d="M3.9989 2.68002L1.4328 0.234197C1.27535 0.0841932 1.06182 -4.99866e-05 0.8392 2.22522e-08C0.616578 5.00311e-05 0.403095 0.084389 0.245714 0.234464C0.0883335 0.384538 -5.24448e-05 0.588055 2.33464e-08 0.800243C5.24914e-05 1.01243 0.0885395 1.21591 0.245994 1.36591L2.8121 3.8112C2.83815 3.83597 2.85882 3.8654 2.87293 3.8978C2.88703 3.93019 2.89429 3.96492 2.89429 4C2.89429 4.03508 2.88703 4.06981 2.87293 4.1022C2.85882 4.1346 2.83815 4.16403 2.8121 4.1888L0.245994 6.63409C0.0885395 6.78409 5.24914e-05 6.98757 2.33464e-08 7.19976C-5.24448e-05 7.41194 0.0883335 7.61546 0.245714 7.76554C0.403095 7.91561 0.616578 7.99995 0.8392 8C1.06182 8.00005 1.27535 7.91581 1.4328 7.7658L3.9989 5.31998C4.36554 4.96956 4.57143 4.49488 4.57143 4C4.57143 3.50512 4.36554 3.03044 3.9989 2.68002Z" fill="#3A3A3A"/>
</svg>
