<svg width="20" height="20" viewBox="0 0 20 20" fill="none" xmlns="http://www.w3.org/2000/svg">
<path d="M20 10C20 11.9778 19.4135 13.9112 18.3147 15.5557C17.2159 17.2002 15.6541 18.4819 13.8268 19.2388C11.9996 19.9957 9.98891 20.1937 8.0491 19.8078C6.10929 19.422 4.32746 18.4696 2.92894 17.0711C1.53041 15.6725 0.578004 13.8907 0.192152 11.9509C-0.1937 10.0111 0.00433286 8.00043 0.761209 6.17316C1.51809 4.3459 2.79981 2.78412 4.4443 1.6853C6.08879 0.58649 8.02219 0 10 0C12.6513 0.00286757 15.1932 1.05736 17.0679 2.9321C18.9426 4.80684 19.9971 7.34871 20 10ZM2.5 10C2.5 11.4834 2.93987 12.9334 3.76398 14.1668C4.58809 15.4001 5.75943 16.3614 7.12988 16.9291C8.50032 17.4968 10.0083 17.6453 11.4632 17.3559C12.918 17.0665 14.2544 16.3522 15.3033 15.3033C16.3522 14.2544 17.0665 12.918 17.3559 11.4632C17.6453 10.0083 17.4968 8.50032 16.9291 7.12987C16.3614 5.75943 15.4001 4.58809 14.1668 3.76398C12.9334 2.93987 11.4834 2.5 10 2.5C8.01156 2.50221 6.10518 3.29309 4.69914 4.69913C3.29309 6.10518 2.50221 8.01155 2.5 10Z" fill="url(#paint0_linear_1791_20)"/>
<path d="M13.3401 9.99989C13.343 10.7624 13.0465 11.4955 12.5143 12.0416L9.97262 14.6249C9.85959 14.7497 9.7225 14.8504 9.56958 14.921C9.41667 14.9915 9.25107 15.0304 9.08274 15.0354C8.91441 15.0403 8.74682 15.0112 8.59002 14.9498C8.43322 14.8883 8.29045 14.7959 8.17029 14.6779C8.05012 14.5599 7.95503 14.4189 7.89072 14.2632C7.82642 14.1076 7.79422 13.9406 7.79608 13.7722C7.79793 13.6038 7.83379 13.4375 7.9015 13.2833C7.96921 13.1291 8.06738 12.9902 8.19012 12.8749L10.7259 10.2916C10.8013 10.2132 10.8434 10.1086 10.8434 9.99989C10.8434 9.89114 10.8013 9.78662 10.7259 9.70822L8.18928 7.12489C8.06655 7.00958 7.96838 6.87067 7.90067 6.71648C7.83295 6.56229 7.79709 6.39601 7.79524 6.22761C7.79339 6.05922 7.82558 5.89219 7.88989 5.73655C7.95419 5.58091 8.04928 5.43987 8.16945 5.32189C8.28962 5.20391 8.43239 5.11143 8.58919 5.05C8.74599 4.98857 8.91358 4.95946 9.08191 4.96441C9.25024 4.96936 9.41583 5.00827 9.56875 5.07881C9.72167 5.14935 9.85875 5.25005 9.97178 5.37489L12.5151 7.95822C13.0468 8.50454 13.343 9.23758 13.3401 9.99989Z" fill="url(#paint1_linear_1791_20)"/>
<defs>
<linearGradient id="paint0_linear_1791_20" x1="10" y1="0" x2="10" y2="20" gradientUnits="userSpaceOnUse">
<stop stop-color="#CE0695"/>
<stop offset="1" stop-color="#47A1D9"/>
</linearGradient>
<linearGradient id="paint1_linear_1791_20" x1="10.5677" y1="4.96387" x2="10.5677" y2="15.0359" gradientUnits="userSpaceOnUse">
<stop stop-color="#CE0695"/>
<stop offset="1" stop-color="#265285"/>
</linearGradient>
</defs>
</svg>
