<svg width="45" height="45" viewBox="0 0 45 45" fill="none" xmlns="http://www.w3.org/2000/svg">
<path d="M42.75 2.25H36V0H9V2.25H2.25C0.9 2.25 0 3.15 0 4.5V9.9C0 15.075 3.825 19.35 9 20.025V20.25C9 26.775 13.5 32.175 19.575 33.525L18 38.25H12.825C11.925 38.25 11.025 38.925 10.8 39.825L9 45H36L34.2 39.825C33.975 38.925 33.075 38.25 32.175 38.25H27L25.425 33.525C31.5 32.175 36 26.775 36 20.25V20.025C41.175 19.35 45 15.075 45 9.9V4.5C45 3.15 44.1 2.25 42.75 2.25ZM9 15.525C6.525 14.85 4.5 12.6 4.5 9.9V6.75H9V15.525ZM27 22.5L22.5 20.025L18 22.5L19.125 18L15.75 13.5H20.475L22.5 9L24.525 13.5H29.25L25.875 18L27 22.5ZM40.5 9.9C40.5 12.6 38.475 15.075 36 15.525V6.75H40.5V9.9Z" fill="url(#paint0_linear_1866_2640)"/>
<defs>
<linearGradient id="paint0_linear_1866_2640" x1="22.5" y1="3.88613e-08" x2="23.804" y2="125.489" gradientUnits="userSpaceOnUse">
<stop stop-color="#265285"/>
<stop offset="1" stop-color="#CE0695"/>
</linearGradient>
</defs>
</svg>
