<svg width="160" height="152" viewBox="0 0 160 152" fill="none" xmlns="http://www.w3.org/2000/svg">
<path d="M97.1212 3.39649C100.068 3.9161 102.708 4.47203 104.748 5.00841C104.814 5.02489 104.881 5.03334 104.949 5.03355C105.142 5.03428 105.329 4.96436 105.475 4.83693C105.62 4.70949 105.714 4.53332 105.739 4.34152C105.763 4.14972 105.717 3.9555 105.609 3.79536C105.5 3.63523 105.337 3.52021 105.15 3.47191C103.066 2.91319 100.387 2.35446 97.3978 1.83485C97.2942 1.81407 97.1876 1.81417 97.0841 1.83513C96.9806 1.8561 96.8823 1.89752 96.7951 1.95695C96.7078 2.01639 96.6332 2.09265 96.5758 2.18127C96.5184 2.26988 96.4792 2.36907 96.4606 2.47301C96.442 2.57696 96.4444 2.68357 96.4675 2.7866C96.4907 2.88963 96.5341 2.987 96.5954 3.07301C96.6567 3.15901 96.7345 3.23193 96.8243 3.28748C96.9141 3.34302 97.0141 3.38008 97.1184 3.39649H97.1212Z" fill="#265285"/>
<path d="M80.5391 1.59516C83.3143 1.6367 86.0852 1.83163 88.8389 2.17903H88.9339C89.1358 2.17789 89.3296 2.09982 89.476 1.96073C89.6223 1.82165 89.7101 1.632 89.7215 1.43043C89.7329 1.22886 89.667 1.03053 89.5373 0.875839C89.4076 0.721145 89.2238 0.621727 89.0233 0.597836C86.2085 0.241705 83.376 0.0421189 80.5391 0C80.3364 0.0120194 80.146 0.100991 80.0068 0.248722C79.8676 0.396453 79.79 0.591786 79.79 0.794787C79.79 0.997787 79.8676 1.19312 80.0068 1.34085C80.146 1.48858 80.3364 1.57755 80.5391 1.58957V1.59516Z" fill="#265285"/>
<path d="M16.5376 111.155C16.4326 110.98 16.2646 110.853 16.0683 110.799C15.872 110.745 15.6625 110.768 15.483 110.865C15.3036 110.961 15.168 111.122 15.1043 111.316C15.0406 111.509 15.0537 111.719 15.1408 111.903C16.3895 114.239 17.7752 116.552 19.2614 118.773C19.3784 118.948 19.5601 119.069 19.7666 119.11C19.973 119.151 20.1872 119.108 20.362 118.991C20.5369 118.874 20.6581 118.692 20.6989 118.486C20.7398 118.279 20.697 118.065 20.5799 117.89C19.1189 115.711 17.7612 113.446 16.5376 111.155Z" fill="#265285"/>
<path d="M7.90236 81.5203C7.88754 81.3103 7.78988 81.1147 7.63088 80.9767C7.47187 80.8386 7.26454 80.7694 7.05449 80.7842C6.84444 80.799 6.64889 80.8967 6.51084 81.0557C6.37279 81.2147 6.30356 81.422 6.31838 81.6321C6.50079 84.202 6.8169 86.7607 7.26541 89.2978C7.29756 89.4813 7.39327 89.6477 7.53578 89.7677C7.67829 89.8877 7.8585 89.9538 8.04483 89.9543C8.09172 89.9539 8.13848 89.9492 8.18451 89.9403C8.28755 89.9224 8.38605 89.8844 8.47432 89.8283C8.5626 89.7722 8.63892 89.6992 8.6989 89.6136C8.75887 89.5279 8.80131 89.4312 8.82379 89.3291C8.84626 89.2269 8.84831 89.1213 8.82983 89.0184C8.38948 86.537 8.07989 84.0342 7.90236 81.5203Z" fill="#265285"/>
<path d="M10.6172 96.6455C10.5586 96.4433 10.4221 96.2725 10.2377 96.1709C10.0533 96.0692 9.83607 96.045 9.6338 96.1036C9.43153 96.1621 9.2608 96.2986 9.15916 96.483C9.05752 96.6674 9.03331 96.8846 9.09184 97.0869C9.83977 99.6568 10.7219 102.186 11.7346 104.663C11.7948 104.809 11.8967 104.933 12.0274 105.02C12.1582 105.108 12.312 105.155 12.4693 105.155C12.5727 105.155 12.6751 105.135 12.771 105.096C12.8675 105.057 12.9552 104.999 13.0293 104.926C13.1033 104.853 13.1621 104.765 13.2023 104.669C13.2425 104.573 13.2634 104.47 13.2637 104.366C13.264 104.262 13.2437 104.159 13.204 104.063C12.2133 101.637 11.3498 99.1612 10.6172 96.6455Z" fill="#265285"/>
<path d="M42.5819 140.083C40.4308 138.608 38.3244 137.01 36.3186 135.334C36.2388 135.266 36.1463 135.214 36.0465 135.182C35.9466 135.15 35.8414 135.139 35.7369 135.147C35.6325 135.156 35.5308 135.186 35.4378 135.234C35.3448 135.283 35.2623 135.349 35.1951 135.429C35.1279 135.51 35.0773 135.603 35.0463 135.703C35.0153 135.803 35.0044 135.909 35.0143 136.013C35.0242 136.117 35.0547 136.219 35.1041 136.311C35.1534 136.404 35.2206 136.486 35.3018 136.552C37.3467 138.259 39.4922 139.885 41.6852 141.388C41.7711 141.447 41.8678 141.489 41.9699 141.51C42.072 141.532 42.1774 141.533 42.28 141.514C42.3826 141.495 42.4803 141.456 42.5676 141.399C42.6549 141.341 42.73 141.267 42.7886 141.181C42.9059 141.008 42.95 140.795 42.9113 140.59C42.8726 140.384 42.7542 140.202 42.5819 140.083Z" fill="#265285"/>
<path d="M25.2579 124.198C25.1931 124.114 25.1121 124.044 25.0196 123.991C24.9271 123.939 24.825 123.906 24.7195 123.894C24.6139 123.882 24.507 123.891 24.4051 123.921C24.3032 123.951 24.2084 124.001 24.1262 124.069C24.0441 124.136 23.9763 124.219 23.9269 124.313C23.8775 124.407 23.8475 124.51 23.8387 124.616C23.8299 124.722 23.8424 124.829 23.8755 124.929C23.9086 125.03 23.9617 125.124 24.0315 125.204C25.7077 127.254 27.5208 129.254 29.3981 131.149C29.5468 131.296 29.7472 131.381 29.9568 131.383C30.113 131.382 30.2653 131.334 30.3947 131.246C30.5241 131.159 30.6248 131.035 30.6844 130.891C30.744 130.746 30.7597 130.587 30.7297 130.434C30.6997 130.281 30.6252 130.14 30.5155 130.028C28.6801 128.173 26.909 126.209 25.2579 124.198Z" fill="#265285"/>
<path d="M132.601 133.007C130.448 134.904 128.188 136.676 125.832 138.315C125.693 138.412 125.589 138.55 125.535 138.71C125.48 138.87 125.478 139.043 125.529 139.204C125.58 139.366 125.681 139.506 125.817 139.606C125.954 139.706 126.118 139.76 126.287 139.759C126.449 139.76 126.607 139.71 126.74 139.617C129.146 137.943 131.453 136.133 133.651 134.194C133.809 134.055 133.905 133.859 133.918 133.649C133.931 133.439 133.86 133.232 133.721 133.074C133.582 132.916 133.386 132.82 133.175 132.807C132.965 132.794 132.759 132.865 132.601 133.004V133.007Z" fill="#265285"/>
<path d="M153.452 104.775C153.257 104.695 153.039 104.696 152.846 104.777C152.652 104.859 152.498 105.013 152.418 105.208C151.329 107.864 150.086 110.455 148.697 112.968C148.596 113.153 148.573 113.37 148.631 113.572C148.69 113.774 148.826 113.945 149.01 114.047C149.127 114.112 149.259 114.147 149.393 114.147C149.535 114.147 149.674 114.109 149.797 114.037C149.919 113.965 150.02 113.861 150.088 113.737C151.506 111.17 152.773 108.524 153.885 105.811C153.925 105.715 153.945 105.611 153.945 105.507C153.944 105.403 153.924 105.299 153.883 105.203C153.843 105.107 153.784 105.019 153.71 104.946C153.636 104.872 153.548 104.814 153.452 104.775Z" fill="#265285"/>
<path d="M145.219 120.064C145.134 120.002 145.037 119.957 144.935 119.933C144.832 119.908 144.726 119.905 144.622 119.922C144.518 119.939 144.418 119.977 144.329 120.033C144.24 120.089 144.162 120.162 144.102 120.248C142.432 122.583 140.632 124.821 138.71 126.953C138.638 127.03 138.582 127.121 138.545 127.22C138.508 127.319 138.491 127.424 138.496 127.529C138.5 127.635 138.526 127.738 138.571 127.834C138.616 127.93 138.679 128.015 138.758 128.086C138.836 128.156 138.928 128.211 139.028 128.245C139.127 128.28 139.233 128.295 139.338 128.288C139.444 128.281 139.547 128.254 139.641 128.207C139.736 128.16 139.82 128.095 139.889 128.015C141.853 125.838 143.69 123.551 145.392 121.165C145.514 120.995 145.564 120.785 145.532 120.579C145.499 120.373 145.387 120.188 145.219 120.064Z" fill="#265285"/>
<path d="M117.451 78.7294C114.358 78.6029 111.325 77.8422 108.539 76.4945L81.0163 62.9343C79.8964 62.3824 79.0281 61.4253 78.5877 60.257C78.1472 59.0888 78.1673 57.7967 78.6441 56.6428C79.1209 55.4888 80.0186 54.5594 81.1553 54.0427C82.2919 53.5261 83.5825 53.461 84.7654 53.8606L107.285 61.5207C107.16 61.0504 107.097 60.5658 107.097 60.0792C107.099 58.5845 107.693 57.1514 108.75 56.0945C109.807 55.0376 111.24 54.4431 112.735 54.4417H129.497C130.593 53.6423 131.791 52.9922 133.059 52.5085C131.551 49.42 129.76 46.4778 127.709 43.7197C124.358 46.3281 120.277 47.8255 116.035 48.0031C111.792 48.1807 107.6 47.0297 104.043 44.7105C100.486 42.3913 97.7419 39.0197 96.1931 35.066C94.6443 31.1124 94.3683 26.7739 95.4034 22.6558C91.9643 21.8809 88.4593 21.4347 84.9358 21.3232C85.5554 25.9237 84.5593 30.5966 82.1175 34.5445C79.6757 38.4923 75.9396 41.4704 71.5467 42.9706C67.1538 44.4707 62.3764 44.3999 58.03 42.7701C53.6835 41.1404 50.0373 38.0528 47.7136 34.0342C41.649 39.0575 36.7179 45.3092 33.2455 52.3772C35.6432 51.9516 38.0737 51.7375 40.5089 51.7374C51.1098 51.7124 61.3069 55.8015 68.9535 63.1438L70.2525 64.4456L70.2665 64.4596C70.8727 65.0965 71.4705 65.7642 72.0376 66.4431L72.0516 66.4598L73.3925 68.1528L73.4065 68.1695C74.0379 69.0151 74.6385 69.8876 75.2084 70.7872C75.6777 71.5247 76.1247 72.279 76.541 73.0444C76.6417 73.2296 76.6648 73.4473 76.605 73.6495C76.5453 73.8518 76.4077 74.022 76.2225 74.1227C76.0373 74.2235 75.8196 74.2466 75.6174 74.1868C75.4151 74.1271 75.2449 73.9895 75.1441 73.8043L74.9346 73.4299L71.8281 73.4439C67.6824 75.0083 64.0311 74.3826 61.014 73.4998L52.2644 73.5445L52.1862 73.6925C51.1973 75.6285 49.6385 76.6538 47.7695 76.6538C47.1731 76.6489 46.5808 76.5547 46.0123 76.3744C44.4518 75.8776 43.0848 74.9071 42.1013 73.5975L27.6695 73.6702C27.6117 74.7113 27.5819 75.7598 27.5801 76.8158C27.5801 106.012 50.105 129.945 78.7256 132.185C78.7717 127.94 80.2016 123.826 82.7982 120.467C85.3948 117.109 89.0163 114.689 93.113 113.575C97.2097 112.462 101.558 112.715 105.498 114.297C109.437 115.879 112.753 118.703 114.942 122.341C122.183 117.286 128.113 110.577 132.238 102.769C136.364 94.962 138.566 86.2826 138.663 77.4527C133.143 78.3888 127.552 78.845 121.954 78.816C120.511 78.816 119.009 78.7872 117.451 78.7294ZM66.0733 57.0788C66.0613 57.2815 65.9723 57.4719 65.8246 57.6111C65.6768 57.7503 65.4815 57.8279 65.2785 57.8279C65.0755 57.8279 64.8802 57.7503 64.7324 57.6111C64.5847 57.4719 64.4957 57.2815 64.4837 57.0788V53.0197C64.4957 52.8171 64.5847 52.6267 64.7324 52.4874C64.8802 52.3482 65.0755 52.2707 65.2785 52.2707C65.4815 52.2707 65.6768 52.3482 65.8246 52.4874C65.9723 52.6267 66.0613 52.8171 66.0733 53.0197V57.0788ZM66.0733 48.9606C66.0613 49.1632 65.9723 49.3536 65.8246 49.4928C65.6768 49.6321 65.4815 49.7096 65.2785 49.7096C65.0755 49.7096 64.8802 49.6321 64.7324 49.4928C64.5847 49.3536 64.4957 49.1632 64.4837 48.9606V44.8986C64.4957 44.696 64.5847 44.5056 64.7324 44.3664C64.8802 44.2271 65.0755 44.1496 65.2785 44.1496C65.4815 44.1496 65.6768 44.2271 65.8246 44.3664C65.9723 44.5056 66.0613 44.696 66.0733 44.8986V48.9606ZM68.0288 122.712C64.17 122.712 60.3978 121.568 57.1893 119.424C53.9808 117.28 51.4801 114.233 50.0034 110.668C48.5267 107.103 48.1403 103.18 48.8931 99.3952C49.6459 95.6105 51.5041 92.1341 54.2327 89.4054C56.9613 86.6768 60.4378 84.8186 64.2225 84.0658C68.0072 83.313 71.9301 83.6994 75.4952 85.1761C79.0603 86.6528 82.1074 89.1535 84.2513 92.362C86.3951 95.5705 87.5394 99.3427 87.5394 103.202C87.535 108.377 85.4766 113.34 81.8164 116.999C78.1561 120.658 73.1933 122.715 68.0176 122.718L68.0288 122.712ZM116.079 113.901C116.079 114.112 115.995 114.313 115.847 114.462C115.698 114.611 115.496 114.695 115.286 114.695C115.075 114.695 114.873 114.611 114.725 114.462C114.576 114.313 114.492 114.112 114.492 113.901V99.8967C114.486 97.7661 113.635 95.725 112.124 94.222C110.614 92.7191 108.569 91.8774 106.438 91.8818H101.058V94.9548C101.057 95.094 101.021 95.2308 100.951 95.3514C100.881 95.4719 100.781 95.5722 100.661 95.642C100.54 95.7117 100.404 95.7483 100.264 95.7483C100.125 95.7483 99.9882 95.7117 99.8676 95.642L93.163 91.7868C93.0423 91.7168 92.9422 91.6164 92.8726 91.4955C92.803 91.3747 92.7664 91.2377 92.7664 91.0982C92.7664 90.9587 92.803 90.8217 92.8726 90.7009C92.9422 90.58 93.0423 90.4796 93.163 90.4096L99.8676 86.5544C99.9883 86.485 100.125 86.4485 100.264 86.4485C100.404 86.4485 100.54 86.485 100.661 86.5544C100.782 86.6233 100.882 86.723 100.951 86.8432C101.021 86.9634 101.058 87.0999 101.058 87.2388V90.3118H106.438C108.987 90.3118 111.432 91.3226 113.237 93.1225C115.041 94.9225 116.058 97.3647 116.065 99.9135L116.079 113.901Z" fill="#47A1D9" fill-opacity="0.5"/>
<path d="M123.2 65.7168H122.876L127.346 66.6219C126.045 66.0267 124.631 65.718 123.2 65.7168Z" fill="#47A1D9" fill-opacity="0.5"/>
<path d="M46.4926 74.8712C47.6827 75.2371 49.2862 75.2707 50.4428 73.5693L44.2354 73.6001C44.8945 74.1715 45.6622 74.6038 46.4926 74.8712Z" fill="#47A1D9" fill-opacity="0.5"/>
<path d="M116.168 132.417C116.169 128.872 115.118 125.406 113.149 122.458C111.179 119.51 108.38 117.212 105.105 115.855C101.83 114.498 98.2262 114.143 94.7491 114.834C91.272 115.526 88.078 117.232 85.5711 119.739C83.0641 122.246 81.3567 125.439 80.6649 128.916C79.9731 132.393 80.3279 135.997 81.6844 139.273C83.041 142.548 85.3383 145.347 88.2859 147.317C91.2335 149.287 94.699 150.338 98.2441 150.338C102.996 150.333 107.551 148.443 110.911 145.084C114.272 141.724 116.162 137.169 116.168 132.417ZM106.133 126.961C106.133 126.46 105.933 125.979 105.579 125.624C105.224 125.27 104.743 125.07 104.242 125.07H102.205V139.764H104.242C104.743 139.763 105.224 139.564 105.579 139.209C105.933 138.855 106.133 138.374 106.133 137.873C106.133 137.662 106.217 137.461 106.366 137.312C106.514 137.163 106.716 137.079 106.927 137.079C107.137 137.079 107.339 137.163 107.488 137.312C107.636 137.461 107.72 137.662 107.72 137.873C107.719 138.795 107.352 139.679 106.7 140.331C106.048 140.983 105.164 141.349 104.242 141.351H102.205V144.024C102.193 144.227 102.104 144.417 101.957 144.557C101.809 144.696 101.614 144.773 101.411 144.773C101.208 144.773 101.012 144.696 100.865 144.557C100.717 144.417 100.628 144.227 100.616 144.024V141.351H95.8668V144.024C95.8548 144.227 95.7658 144.417 95.6181 144.557C95.4703 144.696 95.275 144.773 95.072 144.773C94.869 144.773 94.6737 144.696 94.5259 144.557C94.3782 144.417 94.2892 144.227 94.2772 144.024V141.351H92.2463C91.3243 141.349 90.4405 140.983 89.7885 140.331C89.1366 139.679 88.7697 138.795 88.7682 137.873V126.961C88.7689 126.039 89.1356 125.155 89.7877 124.502C90.4398 123.85 91.324 123.484 92.2463 123.483H94.2828V120.809C94.2948 120.607 94.3838 120.416 94.5315 120.277C94.6792 120.138 94.8746 120.06 95.0776 120.06C95.2806 120.06 95.4759 120.138 95.6236 120.277C95.7714 120.416 95.8603 120.607 95.8724 120.809V123.483H100.622V120.809C100.634 120.607 100.722 120.416 100.87 120.277C101.018 120.138 101.213 120.06 101.416 120.06C101.619 120.06 101.815 120.138 101.962 120.277C102.11 120.416 102.199 120.607 102.211 120.809V123.483H104.248C105.17 123.484 106.054 123.85 106.706 124.502C107.358 125.155 107.725 126.039 107.726 126.961C107.726 127.171 107.642 127.373 107.493 127.522C107.345 127.671 107.143 127.754 106.932 127.754C106.722 127.754 106.52 127.671 106.371 127.522C106.222 127.373 106.139 127.171 106.139 126.961H106.133Z" fill="white"/>
<path d="M94.2833 125.07H92.2468C91.7454 125.071 91.2648 125.271 90.9102 125.625C90.5557 125.98 90.3562 126.46 90.3555 126.962V137.873C90.3562 138.375 90.5557 138.855 90.9102 139.21C91.2648 139.565 91.7454 139.764 92.2468 139.765H94.2833V125.07Z" fill="white"/>
<path d="M100.619 125.07H95.873V139.765H100.619V125.07Z" fill="white"/>
<path d="M98.2441 112.906C93.1094 112.912 88.1836 114.94 84.5327 118.551C80.8818 122.162 78.7995 127.065 78.7363 132.199C78.7363 132.272 78.7363 132.344 78.7363 132.417C78.7374 136.274 79.8822 140.045 82.0258 143.251C84.1695 146.458 87.2158 148.957 90.7797 150.433C94.3435 151.908 98.2649 152.294 102.048 151.541C105.831 150.789 109.306 148.931 112.033 146.204C114.761 143.476 116.619 140.001 117.371 136.218C118.124 132.435 117.738 128.513 116.263 124.95C114.787 121.386 112.288 118.339 109.081 116.196C105.875 114.052 102.104 112.907 98.2469 112.906H98.2441ZM80.3203 132.417C80.3198 128.872 81.3705 125.406 83.3397 122.458C85.3088 119.51 88.1079 117.212 91.383 115.855C94.6582 114.498 98.2621 114.143 101.739 114.834C105.216 115.526 108.41 117.232 110.917 119.739C113.424 122.246 115.132 125.439 115.823 128.916C116.515 132.393 116.16 135.997 114.804 139.273C113.447 142.548 111.15 145.347 108.202 147.317C105.255 149.287 101.789 150.338 98.2441 150.338C93.4925 150.333 88.9369 148.443 85.5768 145.084C82.2166 141.724 80.3262 137.169 80.3203 132.417Z" fill="#265285"/>
<path d="M67.3027 149.595L71.6133 147.112L67.3027 144.631V149.595Z" fill="white"/>
<path d="M73.5994 146.424L66.8947 142.569C66.7738 142.501 66.6371 142.465 66.4981 142.465C66.359 142.465 66.2223 142.501 66.1014 142.569C65.9809 142.639 65.8809 142.739 65.8113 142.86C65.7417 142.981 65.7049 143.117 65.7047 143.257V146.33H60.3437C58.2158 146.33 56.1744 145.487 54.6676 143.984C53.1608 142.482 52.3117 140.443 52.3065 138.315V124.293C52.3065 124.083 52.2229 123.881 52.0741 123.732C51.9253 123.584 51.7235 123.5 51.5131 123.5C51.3027 123.5 51.1009 123.584 50.9521 123.732C50.8033 123.881 50.7197 124.083 50.7197 124.293V138.303C50.7256 140.852 51.7422 143.294 53.5464 145.094C55.3506 146.894 57.7951 147.905 60.3437 147.905H65.727V150.978C65.7269 151.117 65.7636 151.254 65.8332 151.374C65.9029 151.494 66.0031 151.594 66.1237 151.663C66.2438 151.734 66.3808 151.771 66.5204 151.771C66.6596 151.771 66.7963 151.734 66.9171 151.665L73.6218 147.81C73.7431 147.741 73.8439 147.64 73.9141 147.52C73.9842 147.399 74.0211 147.261 74.0211 147.121C74.0211 146.982 73.9842 146.844 73.9141 146.723C73.8439 146.603 73.7431 146.502 73.6218 146.433L73.5994 146.424ZM67.3026 149.595V144.631L71.6132 147.126L67.3026 149.595Z" fill="#265285"/>
<path d="M106.438 90.2949H101.058V87.2219C101.058 87.083 101.021 86.9465 100.952 86.8263C100.882 86.7061 100.782 86.6065 100.661 86.5375C100.541 86.4681 100.404 86.4316 100.265 86.4316C100.125 86.4316 99.9885 86.4681 99.8678 86.5375L93.1632 90.3927C93.0425 90.4627 92.9424 90.5632 92.8728 90.684C92.8032 90.8049 92.7666 90.9419 92.7666 91.0813C92.7666 91.2208 92.8032 91.3578 92.8728 91.4787C92.9424 91.5995 93.0425 91.7 93.1632 91.77L99.8678 95.6252C99.9884 95.6948 100.125 95.7315 100.265 95.7315C100.404 95.7315 100.541 95.6948 100.661 95.6252C100.782 95.5553 100.882 95.4551 100.951 95.3345C101.021 95.2139 101.058 95.0772 101.058 94.9379V91.8649H106.438C108.567 91.8642 110.608 92.7076 112.116 94.2101C113.623 95.7126 114.473 97.7516 114.478 99.8799V113.89C114.478 114.1 114.562 114.302 114.711 114.451C114.86 114.6 115.061 114.683 115.272 114.683C115.482 114.683 115.684 114.6 115.833 114.451C115.982 114.302 116.065 114.1 116.065 113.89V99.8966C116.059 97.3478 115.041 94.9056 113.237 93.1057C111.432 91.3057 108.987 90.2949 106.438 90.2949ZM99.4711 88.6048V93.5691L95.1578 91.0883L99.4711 88.6048Z" fill="#265285"/>
<path d="M99.4715 88.6055L95.1582 91.089L99.4715 93.5697V88.6055Z" fill="white"/>
<path d="M106.928 127.755C107.138 127.755 107.34 127.671 107.489 127.522C107.638 127.373 107.721 127.172 107.721 126.961C107.721 126.039 107.354 125.155 106.702 124.503C106.05 123.851 105.166 123.484 104.243 123.483H102.207V120.81C102.195 120.607 102.106 120.417 101.958 120.277C101.81 120.138 101.615 120.061 101.412 120.061C101.209 120.061 101.014 120.138 100.866 120.277C100.718 120.417 100.629 120.607 100.617 120.81V123.483H95.8681V120.81C95.8561 120.607 95.7671 120.417 95.6194 120.277C95.4717 120.138 95.2763 120.061 95.0733 120.061C94.8703 120.061 94.675 120.138 94.5273 120.277C94.3795 120.417 94.2906 120.607 94.2785 120.81V123.483H92.2476C91.3254 123.484 90.4411 123.851 89.789 124.503C89.1369 125.155 88.7703 126.039 88.7695 126.961V137.873C88.771 138.795 89.1379 139.679 89.7899 140.331C90.4418 140.983 91.3256 141.35 92.2476 141.351H94.2841V144.025C94.2961 144.227 94.3851 144.418 94.5328 144.557C94.6806 144.696 94.8759 144.774 95.0789 144.774C95.2819 144.774 95.4772 144.696 95.625 144.557C95.7727 144.418 95.8617 144.227 95.8737 144.025V141.351H100.623V144.025C100.635 144.227 100.724 144.418 100.872 144.557C101.019 144.696 101.215 144.774 101.418 144.774C101.621 144.774 101.816 144.696 101.964 144.557C102.111 144.418 102.2 144.227 102.212 144.025V141.351H104.249C105.171 141.35 106.055 140.983 106.707 140.331C107.359 139.679 107.726 138.795 107.727 137.873C107.727 137.663 107.643 137.461 107.495 137.312C107.346 137.163 107.144 137.08 106.934 137.08C106.723 137.08 106.521 137.163 106.373 137.312C106.224 137.461 106.14 137.663 106.14 137.873C106.139 138.374 105.94 138.855 105.585 139.21C105.231 139.564 104.75 139.764 104.249 139.764H102.212V125.07H104.249C104.75 125.071 105.231 125.27 105.585 125.625C105.94 125.979 106.139 126.46 106.14 126.961C106.14 127.171 106.223 127.372 106.371 127.52C106.518 127.669 106.719 127.753 106.928 127.755ZM92.2476 139.767C91.7462 139.766 91.2656 139.567 90.9111 139.212C90.5565 138.858 90.357 138.377 90.3563 137.876V126.961C90.357 126.46 90.5565 125.979 90.9111 125.625C91.2656 125.27 91.7462 125.071 92.2476 125.07H94.2841V139.764L92.2476 139.767ZM100.628 139.767H95.8793V125.073H100.628V139.767Z" fill="#265285"/>
<path d="M85.9414 103.207C85.942 99.6618 84.8912 96.1962 82.9221 93.2482C80.9529 90.3003 78.1538 88.0025 74.8787 86.6455C71.6036 85.2884 67.9996 84.9331 64.5225 85.6243C61.0455 86.3156 57.8515 88.0225 55.3445 90.5291C52.8375 93.0357 51.1302 96.2294 50.4384 99.7064C49.7465 103.183 50.1013 106.787 51.4579 110.063C52.8144 113.338 55.1117 116.138 58.0594 118.107C61.007 120.077 64.4725 121.128 68.0176 121.128C72.7692 121.123 77.3248 119.233 80.6849 115.874C84.0451 112.514 85.9355 107.959 85.9414 103.207ZM65.8944 102.428H70.1407C72.4902 102.428 74.401 104.081 74.401 106.112V109.657C74.401 111.688 72.4902 113.342 70.1407 113.342H68.811V116.002C68.811 116.212 68.7274 116.414 68.5786 116.563C68.4298 116.712 68.228 116.795 68.0176 116.795C67.8072 116.795 67.6054 116.712 67.4566 116.563C67.3078 116.414 67.2242 116.212 67.2242 116.002V113.323H65.8944C63.545 113.323 61.6342 111.669 61.6342 109.638V109.493C61.6342 109.282 61.7178 109.08 61.8666 108.932C62.0153 108.783 62.2171 108.699 62.4276 108.699C62.638 108.699 62.8398 108.783 62.9886 108.932C63.1374 109.08 63.2209 109.282 63.2209 109.493V109.638C63.2209 110.794 64.4194 111.736 65.8944 111.736H70.1407C71.6158 111.736 72.8142 110.794 72.8142 109.638V106.098C72.8142 104.942 71.6158 104 70.1407 104H65.8944C63.545 104 61.6342 102.347 61.6342 100.313V96.7705C61.6342 94.7367 63.545 93.0829 65.8944 93.0829H67.2242V90.415C67.2242 90.2045 67.3078 90.0027 67.4566 89.854C67.6054 89.7052 67.8072 89.6216 68.0176 89.6216C68.228 89.6216 68.4298 89.7052 68.5786 89.854C68.7274 90.0027 68.811 90.2045 68.811 90.415V93.0745H70.1407C72.4902 93.0745 74.401 94.7283 74.401 96.7621C74.401 96.9725 74.3174 97.1743 74.1686 97.3231C74.0198 97.4719 73.818 97.5555 73.6076 97.5555C73.3972 97.5555 73.1954 97.4719 73.0466 97.3231C72.8978 97.1743 72.8142 96.9725 72.8142 96.7621C72.8142 95.6055 71.6158 94.6641 70.1407 94.6641H65.8944C64.4194 94.6641 63.2209 95.6055 63.2209 96.7621V100.304C63.2209 101.472 64.4194 102.428 65.8944 102.428Z" fill="#78B0ED" fill-opacity="0.1"/>
<path d="M68.0174 83.7109C64.1586 83.7109 60.3864 84.8552 57.1779 86.9991C53.9694 89.1429 51.4687 92.1901 49.992 95.7552C48.5153 99.3203 48.1289 103.243 48.8817 107.028C49.6346 110.813 51.4928 114.289 54.2214 117.018C56.95 119.746 60.4264 121.605 64.2111 122.357C67.9958 123.11 71.9187 122.724 75.4838 121.247C79.0489 119.77 82.0961 117.27 84.2399 114.061C86.3838 110.853 87.528 107.08 87.528 103.222C87.5221 98.0489 85.4647 93.0897 81.807 89.432C78.1493 85.7743 73.1902 83.7169 68.0174 83.7109ZM50.0964 103.222C50.0959 99.6764 51.1467 96.2106 53.116 93.2626C55.0852 90.3146 57.8845 88.0168 61.1598 86.6598C64.4351 85.3029 68.0392 84.9477 71.5163 85.6392C74.9935 86.3307 78.1874 88.0378 80.6943 90.5447C83.2012 93.0516 84.9083 96.2456 85.5998 99.7227C86.2913 103.2 85.9361 106.804 84.5792 110.079C83.2222 113.355 80.9244 116.154 77.9764 118.123C75.0284 120.092 71.5627 121.143 68.0174 121.143C63.2639 121.137 58.7069 119.245 55.347 115.882C51.987 112.52 50.0986 107.961 50.0964 103.208V103.222Z" fill="#265285"/>
<path d="M65.895 94.672H70.1413C71.6164 94.672 72.8148 95.6134 72.8148 96.77C72.8148 96.9804 72.8984 97.1822 73.0472 97.331C73.196 97.4798 73.3978 97.5634 73.6082 97.5634C73.8186 97.5634 74.0204 97.4798 74.1692 97.331C74.318 97.1822 74.4016 96.9804 74.4016 96.77C74.4016 94.7362 72.4908 93.0824 70.1413 93.0824H68.8116V90.4145C68.8116 90.2041 68.728 90.0023 68.5792 89.8535C68.4304 89.7047 68.2286 89.6211 68.0182 89.6211C67.8078 89.6211 67.606 89.7047 67.4572 89.8535C67.3084 90.0023 67.2248 90.2041 67.2248 90.4145V93.074H65.895C63.5456 93.074 61.6348 94.7278 61.6348 96.7616V100.304C61.6348 102.338 63.5456 103.991 65.895 103.991H70.1413C71.6164 103.991 72.8148 104.933 72.8148 106.09V109.635C72.8148 110.791 71.6164 111.733 70.1413 111.733H65.895C64.42 111.733 63.2215 110.791 63.2215 109.635V109.489C63.2215 109.279 63.138 109.077 62.9892 108.928C62.8404 108.78 62.6386 108.696 62.4282 108.696C62.2177 108.696 62.0159 108.78 61.8671 108.928C61.7184 109.077 61.6348 109.279 61.6348 109.489V109.635C61.6348 111.666 63.5456 113.319 65.895 113.319H67.2248V115.979C67.2248 116.189 67.3084 116.391 67.4572 116.54C67.606 116.689 67.8078 116.772 68.0182 116.772C68.2286 116.772 68.4304 116.689 68.5792 116.54C68.728 116.391 68.8116 116.189 68.8116 115.979V113.322H70.1413C72.4908 113.322 74.4016 111.668 74.4016 109.637V106.098C74.4016 104.067 72.4908 102.413 70.1413 102.413H65.895C64.42 102.413 63.2215 101.472 63.2215 100.312V96.77C63.2215 95.6134 64.42 94.672 65.895 94.672Z" fill="#265285"/>
<path d="M10.5223 70.1365C9.54456 69.7426 8.30699 70.2762 7.90471 70.4745C7.17651 71.5417 6.49766 72.6489 5.86816 73.7961L12.8997 73.7598C12.397 73.2302 12.0274 72.5886 11.8214 71.8881C11.556 70.9662 11.1202 70.3767 10.5223 70.1365Z" fill="white"/>
<path d="M20.8119 72.8715C20.7532 70.5612 21.7226 68.5358 23.287 67.7089C24.3039 67.1726 26.0052 66.8708 28.3351 68.547C28.5893 68.7286 29.3659 69.2873 30.5085 68.3962C31.8746 67.3318 32.7127 65.0159 32.1847 63.7168C31.9053 62.9877 31.1539 62.6692 29.9805 62.7782C25.561 63.1861 20.6331 62.5463 19.5827 60.2052C19.4665 59.9473 19.4011 59.6694 19.3899 59.3867C15.5613 61.796 12.1786 64.8498 9.3916 68.4129C9.97218 68.3593 10.5573 68.4406 11.1013 68.6504C12.1768 69.0834 12.9255 70.0193 13.3362 71.444C13.6323 72.4748 14.4955 73.2571 15.5711 73.7432L20.4068 73.718C20.5363 73.6189 20.6405 73.4905 20.7109 73.3434C20.7814 73.1963 20.8159 73.0346 20.8119 72.8715ZM19.4654 65.3511V62.4318C19.4654 62.2213 19.549 62.0195 19.6977 61.8708C19.8465 61.722 20.0483 61.6384 20.2588 61.6384C20.4692 61.6384 20.671 61.722 20.8198 61.8708C20.9686 62.0195 21.0521 62.2213 21.0521 62.4318V65.3511C21.0521 65.5615 20.9686 65.7633 20.8198 65.9121C20.671 66.0609 20.4692 66.1445 20.2588 66.1445C20.0483 66.1445 19.8465 66.0609 19.6977 65.9121C19.549 65.7633 19.4654 65.5615 19.4654 65.3511Z" fill="white"/>
<path d="M41.3475 71.3603C41.4118 70.8351 41.8029 69.6031 43.9987 69.4942C46.6079 69.3685 48.1751 67.9968 48.773 66.7564C49.0747 66.1334 49.0523 65.7032 48.9965 65.5831C48.8609 65.5879 48.7282 65.6233 48.6081 65.6865C47.1946 66.3122 45.9458 66.1418 45.2698 65.2311C44.3563 64.0019 44.8228 61.8536 46.4068 60.007C47.3482 58.9091 47.7421 57.8308 47.5801 56.8055C47.3007 54.9645 45.3452 53.7465 45.3145 53.7325C45.2536 53.6945 45.1982 53.6485 45.1497 53.5957C37.096 52.6538 28.9468 54.1938 21.7922 58.0096C21.3145 58.4677 20.8173 59.0907 21.0352 59.574C21.5436 60.7138 25.2032 61.6441 29.8379 61.2167C32.4052 60.982 33.3383 62.3341 33.6623 63.1526C34.5199 65.3205 33.1958 68.3264 31.4721 69.6702C30.1507 70.6982 28.6785 70.7653 27.3962 69.8545C26.4855 69.1841 25.1446 68.5192 24.0271 69.1114C23.0103 69.6506 22.351 71.1452 22.3985 72.8326C22.4073 73.1309 22.3648 73.4286 22.2727 73.7125L27.6812 73.6846L42.113 73.612C41.5654 72.8521 41.2693 72.0559 41.3475 71.3603Z" fill="white"/>
<path d="M71.8418 73.4575L74.9483 73.4435C74.7341 73.0598 74.5116 72.6799 74.2806 72.3037C73.5 72.7532 72.6844 73.139 71.8418 73.4575Z" fill="white"/>
<path d="M70.8224 67.4658C70.2805 66.8177 69.705 66.1807 69.1463 65.5717L67.8612 64.2839C67.282 63.7251 66.6907 63.1925 66.0873 62.6859V65.0102C66.0752 65.2128 65.9863 65.4032 65.8385 65.5425C65.6908 65.6817 65.4955 65.7592 65.2925 65.7592C65.0895 65.7592 64.8941 65.6817 64.7464 65.5425C64.5987 65.4032 64.5097 65.2128 64.4977 65.0102V61.4092C59.6488 57.6965 53.9985 55.1699 47.9986 54.0312C48.6013 54.7533 49.0056 55.6198 49.1719 56.5455C49.415 58.0569 48.8926 59.5682 47.6382 61.0377C46.3839 62.5071 46.2414 63.8536 46.5683 64.2839C46.7722 64.5632 47.303 64.5409 47.993 64.2364C49.13 63.7307 49.8005 64.1274 50.1022 64.4096C50.6917 64.9683 50.8034 65.9405 50.4067 67.0244C49.7586 68.7844 47.7193 70.902 44.1015 71.0807C43.7691 71.0975 42.9841 71.1757 42.945 71.5585C42.8863 72.0362 43.4003 72.8659 44.2496 73.6006L50.457 73.5699C50.5841 73.382 50.6989 73.186 50.8006 72.9832C52.7561 69.1392 56.0051 70.2091 59.4385 71.3433C63.2098 72.5865 67.8668 74.1202 73.4456 70.9606C73.035 70.3432 72.6076 69.7342 72.1634 69.142L70.8224 67.4658Z" fill="white"/>
<path d="M52.2783 73.5587L61.0279 73.514C60.2904 73.2989 59.5864 73.067 58.9271 72.8491C55.2675 71.6423 53.5578 71.2009 52.2783 73.5587Z" fill="white"/>
<path d="M24.026 69.111C25.1435 68.5187 26.4844 69.1836 27.4063 69.8485C28.6746 70.7592 30.1608 70.6866 31.4822 69.6641C33.2058 68.3204 34.53 65.3144 33.6724 63.1466C33.3483 62.3225 32.4152 60.9759 29.8479 61.2106C25.2133 61.638 21.5537 60.7077 21.0452 59.5679C20.8273 59.0846 21.3246 58.4505 21.8023 58.0035C28.9578 54.1906 37.1069 52.6536 45.1597 53.598C45.2082 53.6508 45.2637 53.6968 45.3245 53.7348C45.3441 53.7348 47.2996 54.964 47.5902 56.8078C47.7522 57.8331 47.3583 58.9114 46.4168 60.0093C44.8329 61.8559 44.3663 64.0042 45.2798 65.2334C45.9559 66.1441 47.2046 66.3145 48.6182 65.6888C48.7382 65.6256 48.871 65.5902 49.0065 65.5854C49.0568 65.7055 49.0847 66.1441 48.783 66.7587C48.1852 67.9991 46.618 69.3708 44.0088 69.4965C41.813 69.6054 41.4219 70.8374 41.3576 71.3626C41.2682 72.0582 41.5643 72.8544 42.1119 73.6143C43.0954 74.9238 44.4624 75.8944 46.0229 76.3911C46.5914 76.5714 47.1837 76.6656 47.7801 76.6705C49.6491 76.6705 51.2079 75.6452 52.1968 73.7093L52.2751 73.5612C53.5545 71.2034 55.2642 71.6448 58.9239 72.8516C59.5831 73.0695 60.2871 73.3014 61.0247 73.5165C64.0418 74.3993 67.693 75.0251 71.8387 73.4606C72.6814 73.1422 73.4969 72.7564 74.2776 72.3069C74.5066 72.6793 74.7292 73.0593 74.9452 73.4467L75.1547 73.821C75.2555 74.0062 75.4257 74.1438 75.628 74.2036C75.8302 74.2633 76.0479 74.2402 76.2331 74.1395C76.4183 74.0387 76.5559 73.8685 76.6156 73.6663C76.6754 73.464 76.6523 73.2464 76.5515 73.0611C76.1353 72.2957 75.6883 71.5414 75.219 70.8039C74.6491 69.9081 74.0485 69.0355 73.4171 68.1863L73.4032 68.1695L72.0622 66.4766L72.0482 66.4598C71.4895 65.781 70.8833 65.1133 70.2771 64.4763L70.2631 64.4624L68.9641 63.1605C61.3174 55.8094 51.1154 51.714 40.5084 51.7374C38.0732 51.7375 35.6427 51.9516 33.245 52.3771C28.9826 53.1379 24.8672 54.5672 21.0508 56.6123V54.3187C21.0508 54.1083 20.9672 53.9065 20.8185 53.7577C20.6697 53.6089 20.4679 53.5253 20.2574 53.5253C20.047 53.5253 19.8452 53.6089 19.6964 53.7577C19.5476 53.9065 19.4641 54.1083 19.4641 54.3187V57.509C13.0357 61.3269 7.7774 66.8345 4.26121 73.4327C4.16751 73.6171 4.14923 73.8307 4.21023 74.0283C4.27124 74.2259 4.40674 74.392 4.58807 74.4915C4.70281 74.5513 4.83019 74.5829 4.95962 74.5837C5.10357 74.5843 5.24496 74.5456 5.36853 74.4717C5.4921 74.3979 5.59316 74.2917 5.66081 74.1646L5.86754 73.7847C6.49704 72.6356 7.17588 71.5284 7.90409 70.4631C8.30637 70.2647 9.54394 69.7311 10.5217 70.125C11.1195 70.3653 11.5553 70.9631 11.8207 71.8766C12.0268 72.5772 12.3964 73.2187 12.8991 73.7484C14.1841 75.1312 16.2682 75.8855 18.2069 75.8855C18.568 75.8869 18.9285 75.8598 19.2853 75.8045C20.8441 75.5642 21.9141 74.7876 22.2633 73.7009C22.3553 73.4169 22.3978 73.1193 22.389 72.8209C22.3499 71.1391 23.0092 69.6501 24.026 69.111ZM59.4239 71.3459C55.9906 70.2116 52.7472 69.1417 50.7861 72.9857C50.6843 73.1885 50.5696 73.3845 50.4424 73.5724C49.2831 75.2737 47.6824 75.2485 46.4923 74.8742C45.6619 74.6069 44.8941 74.1745 44.235 73.6031C43.3969 72.8684 42.8717 72.0387 42.9304 71.561C42.9807 71.1782 43.7685 71.1 44.087 71.0833C47.7047 70.9045 49.744 68.7869 50.3922 67.0269C50.7889 65.943 50.6715 64.9652 50.0877 64.4121C49.7859 64.1327 49.1155 63.7332 47.9785 64.2389C47.2885 64.5434 46.7577 64.5601 46.5537 64.2864C46.2325 63.8561 46.3498 62.5264 47.6237 61.0402C48.8976 59.554 49.4004 58.0594 49.1574 56.548C48.9911 55.6223 48.5867 54.7558 47.9841 54.0338C53.984 55.1724 59.6343 57.699 64.4831 61.4117V65.0127C64.4952 65.2154 64.5841 65.4058 64.7319 65.545C64.8796 65.6842 65.0749 65.7617 65.2779 65.7617C65.4809 65.7617 65.6763 65.6842 65.824 65.545C65.9717 65.4058 66.0607 65.2154 66.0727 65.0127V62.6884C66.6761 63.2024 67.2674 63.7351 67.8467 64.2864L69.1317 65.5742C69.71 66.1832 70.2799 66.8202 70.8079 67.4683L72.1348 69.1445C72.579 69.7367 73.0065 70.3457 73.4171 70.9631C67.8522 74.1199 63.1953 72.5862 59.4239 71.3431V71.3459ZM19.0506 74.2484C17.8673 74.4121 16.6618 74.2388 15.5726 73.7484C14.5054 73.2623 13.6422 72.4801 13.3377 71.4492C12.9298 70.0328 12.1811 69.097 11.1028 68.6556C10.5588 68.4458 9.97366 68.3646 9.39308 68.4181C12.1846 64.8591 15.5711 61.81 19.4026 59.4059C19.4137 59.6886 19.4792 59.9665 19.5954 60.2244C20.6458 62.5655 25.5737 63.2052 29.9932 62.7974C31.1665 62.6884 31.9068 63.0069 32.1973 63.736C32.7114 65.0351 31.8733 67.351 30.5212 68.4153C29.3786 69.3065 28.602 68.7478 28.3477 68.5662C26.0179 66.89 24.3166 67.1694 23.2997 67.7281C21.7353 68.5662 20.7659 70.5804 20.8245 72.8907C20.8298 73.0545 20.7961 73.2171 20.7261 73.3653C20.6562 73.5134 20.552 73.6428 20.4223 73.7428C20.0145 74.0233 19.5429 74.1972 19.0506 74.2484Z" fill="#265285"/>
<path d="M21.0516 65.3514V62.4321C21.0516 62.2216 20.968 62.0198 20.8192 61.8711C20.6704 61.7223 20.4687 61.6387 20.2582 61.6387C20.0478 61.6387 19.846 61.7223 19.6972 61.8711C19.5484 62.0198 19.4648 62.2216 19.4648 62.4321V65.3514C19.4648 65.5618 19.5484 65.7636 19.6972 65.9124C19.846 66.0612 20.0478 66.1448 20.2582 66.1448C20.4687 66.1448 20.6704 66.0612 20.8192 65.9124C20.968 65.7636 21.0516 65.5618 21.0516 65.3514Z" fill="#265285"/>
<path d="M65.2806 44.1055C65.0699 44.1055 64.8678 44.189 64.7186 44.3377C64.5693 44.4864 64.4851 44.6882 64.4844 44.8989V48.9608C64.4964 49.1634 64.5854 49.3538 64.7331 49.4931C64.8808 49.6323 65.0762 49.7098 65.2792 49.7098C65.4822 49.7098 65.6775 49.6323 65.8252 49.4931C65.973 49.3538 66.0619 49.1634 66.0739 48.9608V44.8989C66.0739 44.6884 65.9903 44.4866 65.8416 44.3378C65.6928 44.1891 65.491 44.1055 65.2806 44.1055Z" fill="#265285"/>
<path d="M65.2796 52.2266C65.0689 52.2266 64.8668 52.3101 64.7176 52.4588C64.5683 52.6075 64.4841 52.8093 64.4834 53.02V57.0791C64.4954 57.2817 64.5844 57.4721 64.7321 57.6114C64.8798 57.7506 65.0752 57.8281 65.2782 57.8281C65.4812 57.8281 65.6765 57.7506 65.8242 57.6114C65.972 57.4721 66.0609 57.2817 66.073 57.0791V53.02C66.073 52.8095 65.9894 52.6077 65.8406 52.4589C65.6918 52.3102 65.49 52.2266 65.2796 52.2266Z" fill="#265285"/>
<path d="M20.2576 48.8152C23.9501 48.8152 27.5597 47.7202 30.63 45.6688C33.7002 43.6173 36.0931 40.7015 37.5062 37.29C38.9193 33.8785 39.289 30.1247 38.5686 26.5031C37.8482 22.8815 36.0701 19.5549 33.4591 16.9438C30.8481 14.3328 27.5215 12.5547 23.8999 11.8343C20.2783 11.114 16.5245 11.4837 13.113 12.8967C9.70157 14.3098 6.78576 16.7028 4.73431 19.773C2.68285 22.8432 1.58789 26.4528 1.58789 30.1454C1.59307 35.0953 3.56171 39.8411 7.06184 43.3412C10.562 46.8414 15.3077 48.81 20.2576 48.8152ZM9.96594 24.8571C9.96816 23.0709 10.6789 21.3586 11.9421 20.0959C13.2054 18.8331 14.918 18.1231 16.7041 18.1216H26.8813C26.9856 18.1213 27.0889 18.1415 27.1853 18.1813C27.2817 18.221 27.3694 18.2794 27.4431 18.3532C27.5168 18.4269 27.5753 18.5145 27.615 18.611C27.6548 18.7074 27.675 18.8107 27.6747 18.915C27.6812 19.2549 27.7661 19.5888 27.9225 19.8906C28.079 20.1925 28.303 20.4542 28.577 20.6554C29.8146 21.6137 30.4962 23.0999 30.4962 24.8459V31.4332C30.8778 31.9443 31.1245 32.5432 31.2133 33.1748C31.3021 33.8063 31.2303 34.4501 31.0045 35.0466C30.7787 35.643 30.4061 36.1729 29.9213 36.5873C29.4364 37.0016 28.8549 37.2871 28.2306 37.4172C28.1087 39.2755 27.2851 41.0181 25.9267 42.292C24.5682 43.5659 22.7764 44.2759 20.9141 44.2783H19.5564C17.6923 44.2758 15.8989 43.5642 14.5402 42.2879C13.1815 41.0117 12.3591 39.2663 12.2399 37.406C11.3982 37.2165 10.6455 36.7474 10.1047 36.0752C9.56385 35.4029 9.26678 34.5672 9.26195 33.7045C9.26278 32.9189 9.5089 32.1532 9.96594 31.5143V24.8571Z" fill="#78B0ED" fill-opacity="0.1"/>
<path d="M19.4757 50.3848C19.5087 50.5679 19.6049 50.7335 19.7476 50.8529C19.8904 50.9722 20.0705 51.0375 20.2565 51.0375C20.4425 51.0375 20.6226 50.9722 20.7653 50.8529C20.9081 50.7335 21.0043 50.5679 21.0373 50.3848C26.3381 50.1803 31.3472 47.9046 34.9881 44.0467C38.6291 40.1888 40.6115 35.0566 40.5092 29.7528C40.407 24.449 38.2283 19.397 34.4413 15.6823C30.6543 11.9676 25.5612 9.88672 20.2565 9.88672C14.9518 9.88672 9.85871 11.9676 6.07172 15.6823C2.28473 19.397 0.106027 24.449 0.00376843 29.7528C-0.0984897 35.0566 1.88386 40.1888 5.52485 44.0467C9.16584 47.9046 14.1749 50.1803 19.4757 50.3848ZM20.2579 11.478C23.9505 11.478 27.5602 12.573 30.6305 14.6246C33.7008 16.6762 36.0938 19.5922 37.5067 23.0038C38.9197 26.4154 39.2893 30.1695 38.5687 33.7911C37.8481 37.4128 36.0697 40.7394 33.4584 43.3503C30.8471 45.9612 27.5202 47.7391 23.8985 48.4592C20.2767 49.1793 16.5228 48.8091 13.1114 47.3956C9.69997 45.9821 6.78435 43.5887 4.73323 40.5181C2.68211 37.4475 1.58762 33.8377 1.58817 30.145C1.59409 25.1955 3.56306 20.4505 7.06311 16.951C10.5632 13.4514 15.3084 11.4832 20.2579 11.478Z" fill="#265285"/>
<path d="M65.0929 42.4632C68.7445 42.4632 72.3141 41.3804 75.3504 39.3517C78.3866 37.3229 80.753 34.4394 82.1505 31.0657C83.5479 27.692 83.9135 23.9797 83.2011 20.3982C82.4887 16.8167 80.7303 13.5269 78.1482 10.9448C75.5661 8.36272 72.2763 6.60428 68.6948 5.89188C65.1134 5.17948 61.4011 5.54511 58.0274 6.94253C54.6537 8.33996 51.7702 10.7064 49.7415 13.7427C47.7127 16.7789 46.6299 20.3485 46.6299 24.0002C46.6351 28.8953 48.5819 33.5884 52.0433 37.0498C55.5046 40.5112 60.1978 42.4581 65.0929 42.4632ZM54.6196 18.2006C54.6218 16.3865 55.3433 14.6474 56.6257 13.3643C57.9082 12.0813 59.6471 11.3592 61.4612 11.3562H71.8255C71.9298 11.3559 72.0331 11.3761 72.1295 11.4159C72.226 11.4556 72.3136 11.514 72.3873 11.5878C72.4611 11.6615 72.5195 11.7491 72.5592 11.8456C72.599 11.942 72.6192 12.0453 72.6189 12.1496C72.6261 12.4981 72.7132 12.8403 72.8735 13.1498C73.0338 13.4593 73.2631 13.7278 73.5436 13.9348C74.8007 14.9069 75.4991 16.4155 75.4991 18.1811V24.8858C75.8899 25.4048 76.143 26.0144 76.2348 26.6576C76.3266 27.3008 76.2541 27.9568 76.024 28.5645C75.7939 29.1721 75.4138 29.7116 74.919 30.1328C74.4243 30.5539 73.8309 30.843 73.1944 30.9731C73.0731 32.8638 72.2371 34.6375 70.8561 35.9345C69.475 37.2315 67.6523 37.9546 65.7578 37.9571H64.3777C62.4829 37.9553 60.6599 37.2324 59.2787 35.9353C57.8975 34.6382 57.0618 32.864 56.9411 30.9731C56.0834 30.7824 55.3159 30.3058 54.7646 29.6215C54.2133 28.9373 53.911 28.086 53.9072 27.2073C53.9066 26.4055 54.1577 25.6237 54.6252 24.9724L54.6196 18.2006Z" fill="#265285"/>
<path d="M65.093 44.0414C69.512 44.0451 73.8085 42.59 77.3159 39.9019C80.8232 37.2139 83.3452 33.4433 84.4905 29.1753C85.6357 24.9074 85.3401 20.3807 83.6495 16.2979C81.959 12.2152 78.968 8.80458 75.1408 6.59553C71.3137 4.38648 66.8644 3.50251 62.4835 4.08081C58.1025 4.65911 54.035 6.66733 50.9121 9.79381C47.7893 12.9203 45.7858 16.9902 45.2126 21.3718C44.6393 25.7534 45.5284 30.2017 47.7419 34.0263C49.5035 37.0691 52.0335 39.5958 55.0786 41.3534C58.1237 43.111 61.5771 44.038 65.093 44.0414ZM65.093 5.52853C68.7447 5.52853 72.3143 6.61137 75.3505 8.64011C78.3867 10.6689 80.7532 13.5524 82.1506 16.9261C83.548 20.2998 83.9137 24.0121 83.2013 27.5936C82.4889 31.175 80.7304 34.4648 78.1483 37.0469C75.5662 39.6291 72.2764 41.3875 68.695 42.0999C65.1135 42.8123 61.4012 42.4467 58.0275 41.0492C54.6539 39.6518 51.7703 37.2854 49.7416 34.2491C47.7129 31.2129 46.63 27.6432 46.63 23.9916C46.6374 19.0979 48.5853 14.4069 52.0464 10.9474C55.5075 7.4878 60.1994 5.54208 65.093 5.53691V5.52853Z" fill="#265285"/>
<path d="M56.207 18.2005V23.6732C56.4372 23.5713 56.6767 23.4917 56.9222 23.4358V23.3212C56.9237 21.4961 57.6494 19.7461 58.9399 18.4555C60.2305 17.1649 61.9805 16.4392 63.8057 16.4378H66.3199C68.1434 16.4422 69.8908 17.1691 71.1794 18.4593C72.468 19.7495 73.1928 21.4978 73.195 23.3212V23.4246C73.4373 23.4758 73.6741 23.5507 73.9018 23.6481V18.181C73.9018 16.9155 73.4269 15.8539 72.5664 15.189C71.8355 14.6371 71.3214 13.8462 71.1138 12.9541H61.4618C60.0703 12.9563 58.7363 13.5095 57.7515 14.4927C56.7668 15.4759 56.2115 16.809 56.207 18.2005Z" fill="white"/>
<path d="M74.6771 27.1953C74.6756 26.5942 74.4362 26.018 74.0111 25.593C73.586 25.1679 73.0099 24.9284 72.4087 24.9269C72.1983 24.9269 71.9965 24.8433 71.8477 24.6945C71.6989 24.5457 71.6153 24.3439 71.6153 24.1335V23.3206C71.6153 21.9128 71.0561 20.5628 70.0607 19.5673C69.0653 18.5719 67.7152 18.0127 66.3075 18.0127H63.7932C62.3855 18.0127 61.0354 18.5719 60.04 19.5673C59.0446 20.5628 58.4853 21.9128 58.4853 23.3206V24.1363C58.4854 24.3448 58.4033 24.5449 58.2569 24.6934C58.1105 24.8419 57.9116 24.9268 57.7031 24.9297C57.1022 24.9297 56.526 25.1684 56.1011 25.5933C55.6762 26.0182 55.4375 26.5945 55.4375 27.1953C55.4375 27.7962 55.6762 28.3725 56.1011 28.7974C56.526 29.2223 57.1022 29.461 57.7031 29.461C57.9116 29.4639 58.1105 29.5488 58.2569 29.6973C58.4033 29.8457 58.4854 30.0459 58.4853 30.2544V30.5058C58.4853 32.0617 59.1034 33.5539 60.2036 34.6541C61.3038 35.7543 62.796 36.3724 64.3519 36.3724H65.732C67.2879 36.3724 68.7801 35.7543 69.8803 34.6541C70.9805 33.5539 71.5986 32.0617 71.5986 30.5058V30.2572C71.5986 30.0467 71.6821 29.8449 71.8309 29.6961C71.9797 29.5473 72.1815 29.4638 72.3919 29.4638C72.6911 29.4656 72.9878 29.4083 73.2647 29.2952C73.5417 29.182 73.7936 29.0153 74.006 28.8045C74.2183 28.5937 74.3869 28.343 74.5021 28.0669C74.6173 27.7907 74.6768 27.4945 74.6771 27.1953Z" fill="white"/>
<path d="M56.9351 30.961C57.0557 32.8519 57.8915 34.6261 59.2727 35.9232C60.6539 37.2204 62.4769 37.9432 64.3717 37.9451H65.7517C67.6463 37.9426 69.469 37.2195 70.8501 35.9225C72.2311 34.6255 73.0671 32.8517 73.1883 30.961C73.8238 30.8306 74.416 30.5418 74.9099 30.1214C75.4039 29.701 75.7836 29.1625 76.0138 28.5561C76.244 27.9497 76.3172 27.2949 76.2267 26.6526C76.1361 26.0103 75.8847 25.4012 75.4959 24.8821V18.1774C75.4959 16.4118 74.803 14.9032 73.5403 13.9311C73.2598 13.7241 73.0306 13.4556 72.8703 13.1461C72.71 12.8366 72.6229 12.4944 72.6157 12.1459C72.616 12.0416 72.5958 11.9383 72.556 11.8419C72.5163 11.7455 72.4578 11.6578 72.3841 11.5841C72.3104 11.5104 72.2227 11.4519 72.1263 11.4122C72.0299 11.3724 71.9266 11.3522 71.8223 11.3525H61.4608C59.6462 11.3548 57.9066 12.0766 56.6235 13.3597C55.3404 14.6428 54.6186 16.3824 54.6164 18.1969V24.9659C54.1489 25.6172 53.8978 26.399 53.8984 27.2008C53.9036 28.0789 54.2069 28.9292 54.7586 29.6124C55.3103 30.2956 56.0778 30.7711 56.9351 30.961ZM71.1211 12.9421C71.3287 13.8342 71.8428 14.6251 72.5737 15.177C73.4342 15.8419 73.9091 16.9035 73.9091 18.169V23.6473C73.6814 23.5498 73.4446 23.475 73.2023 23.4238V23.3204C73.2001 21.4955 72.4742 19.7459 71.1837 18.4555C69.8933 17.1651 68.1438 16.4392 66.3188 16.4369H63.8046C61.9794 16.4384 60.2295 17.1641 58.9389 18.4547C57.6483 19.7453 56.9226 21.4953 56.9211 23.3204V23.435C56.6757 23.4909 56.4362 23.5704 56.206 23.6724V18.1997C56.2074 16.8063 56.7615 15.4702 57.7465 14.4847C58.7316 13.4991 60.0673 12.9443 61.4608 12.9421H71.1211ZM71.6155 30.2626V30.5112C71.6155 32.0671 70.9975 33.5593 69.8973 34.6595C68.7971 35.7597 67.3049 36.3778 65.749 36.3778H64.3689C62.813 36.3778 61.3208 35.7597 60.2206 34.6595C59.1204 33.5593 58.5023 32.0671 58.5023 30.5112V30.2598C58.5023 30.0513 58.4203 29.8512 58.2739 29.7027C58.1275 29.5542 57.9286 29.4693 57.7201 29.4664C57.1192 29.4664 56.543 29.2277 56.1181 28.8028C55.6932 28.3779 55.4545 27.8017 55.4545 27.2008C55.4545 26.5999 55.6932 26.0236 56.1181 25.5987C56.543 25.1738 57.1192 24.9351 57.7201 24.9351C57.9286 24.9322 58.1275 24.8473 58.2739 24.6989C58.4203 24.5504 58.5023 24.3503 58.5023 24.1418V23.326C58.5023 21.9183 59.0615 20.5682 60.057 19.5728C61.0524 18.5774 62.4024 18.0181 63.8102 18.0181H66.3244C67.7322 18.0181 69.0822 18.5774 70.0777 19.5728C71.0731 20.5682 71.6323 21.9183 71.6323 23.326V24.139C71.6323 24.3494 71.7159 24.5512 71.8647 24.7C72.0135 24.8488 72.2153 24.9324 72.4257 24.9324C73.0273 24.9324 73.6043 25.1713 74.0297 25.5968C74.4551 26.0222 74.6941 26.5992 74.6941 27.2008C74.6941 27.8024 74.4551 28.3794 74.0297 28.8048C73.6043 29.2302 73.0273 29.4692 72.4257 29.4692C72.3206 29.467 72.216 29.4857 72.1182 29.5242C72.0204 29.5627 71.9312 29.6203 71.8558 29.6936C71.7804 29.7669 71.7204 29.8545 71.6791 29.9512C71.6379 30.0479 71.6163 30.1519 71.6155 30.257V30.2626Z" fill="#265285"/>
<path d="M11.5537 24.8567V30.2092C11.771 30.1148 11.9963 30.04 12.227 29.9858V29.8852C12.2292 28.0896 12.9433 26.3682 14.2126 25.0983C15.482 23.8284 17.2031 23.1136 18.9987 23.1106H21.4655C23.2615 23.1129 24.9833 23.8273 26.2533 25.0973C27.5233 26.3673 28.2377 28.0891 28.24 29.8852V29.9746C28.4676 30.0237 28.6902 30.0938 28.9048 30.1841V24.8399C28.9048 23.5995 28.4411 22.5603 27.6002 21.9122C26.8807 21.3675 26.3755 20.5873 26.1727 19.708H16.7051C15.3398 19.7095 14.0308 20.2523 13.0651 21.2175C12.0995 22.1826 11.5559 23.4914 11.5537 24.8567Z" fill="white"/>
<path d="M27.4508 31.4696C27.3466 31.4696 27.2434 31.4491 27.1472 31.4092C27.0509 31.3693 26.9634 31.3109 26.8898 31.2372C26.8161 31.1635 26.7577 31.0761 26.7178 30.9798C26.6779 30.8836 26.6574 30.7804 26.6574 30.6762V29.8772C26.6552 28.502 26.1079 27.1838 25.1355 26.2114C24.1631 25.2389 22.8448 24.6917 21.4697 24.6895H18.9973C17.6219 24.6917 16.3033 25.2389 15.3305 26.2112C14.3576 27.1835 13.8097 28.5018 13.8068 29.8772V30.679C13.8075 30.8877 13.7257 31.0882 13.5792 31.2369C13.4326 31.3855 13.2333 31.4702 13.0246 31.4724C12.4517 31.4927 11.9092 31.7346 11.5111 32.1471C11.1131 32.5595 10.8906 33.1103 10.8906 33.6835C10.8906 34.2567 11.1131 34.8075 11.5111 35.22C11.9092 35.6324 12.4517 35.8743 13.0246 35.8947C13.233 35.8976 13.432 35.9825 13.5784 36.131C13.7247 36.2794 13.8068 36.4796 13.8068 36.6881V36.9339C13.8068 38.459 14.4124 39.9216 15.4905 41.0003C16.5686 42.0789 18.031 42.6852 19.556 42.686H20.9137C22.4366 42.6845 23.8967 42.0789 24.9735 41.0021C26.0503 39.9252 26.6559 38.4652 26.6574 36.9423V36.6992C26.6574 36.5951 26.6779 36.4919 26.7178 36.3956C26.7577 36.2994 26.8161 36.2119 26.8898 36.1382C26.9634 36.0646 27.0509 36.0061 27.1472 35.9662C27.2434 35.9264 27.3466 35.9059 27.4508 35.9059C28.0243 35.8855 28.5676 35.6433 28.9662 35.2303C29.3647 34.8174 29.5875 34.2658 29.5875 33.6919C29.5875 33.118 29.3647 32.5665 28.9662 32.1535C28.5676 31.7405 28.0243 31.4983 27.4508 31.478V31.4696Z" fill="white"/>
<path d="M12.2407 37.4006C12.3599 39.2609 13.1822 41.0063 14.541 42.2825C15.8997 43.5588 17.6931 44.2704 19.5572 44.2729H20.9149C22.7772 44.2705 24.569 43.5605 25.9275 42.2866C27.2859 41.0127 28.1095 39.2701 28.2314 37.4118C28.8557 37.2817 29.4372 36.9962 29.922 36.5819C30.4069 36.1675 30.7794 35.6376 31.0053 35.0412C31.2311 34.4447 31.3029 33.8009 31.2141 33.1694C31.1252 32.5378 30.8786 31.9388 30.497 31.4278V24.8405C30.497 23.1 29.8153 21.6138 28.5778 20.65C28.3037 20.4488 28.0798 20.1871 27.9233 19.8852C27.7668 19.5834 27.682 19.2495 27.6754 18.9096C27.6758 18.8053 27.6555 18.702 27.6158 18.6056C27.576 18.5091 27.5176 18.4215 27.4439 18.3478C27.3701 18.274 27.2825 18.2156 27.1861 18.1759C27.0897 18.1361 26.9863 18.1158 26.882 18.1162H16.7049C14.9188 18.1177 13.2062 18.8277 11.9429 20.0904C10.6796 21.3532 9.96893 23.0655 9.96671 24.8516V31.4977C9.50633 32.1413 9.26004 32.9133 9.26272 33.7046C9.26881 34.5665 9.56645 35.4008 10.1072 36.0719C10.6479 36.7431 11.3999 37.2113 12.2407 37.4006ZM26.178 19.7086C26.3808 20.5879 26.8861 21.3681 27.6056 21.9128C28.4437 22.5609 28.9102 23.5889 28.9102 24.8405V30.1847C28.6955 30.0944 28.473 30.0243 28.2453 29.9752V29.8858C28.2431 28.0897 27.5287 26.3679 26.2587 25.0979C24.9887 23.8279 23.2668 23.1134 21.4708 23.1112H18.9985C17.2019 23.1127 15.4794 23.8268 14.2088 25.0969C12.9382 26.367 12.2234 28.0892 12.2212 29.8858V29.9863C11.9905 30.0406 11.7652 30.1154 11.5479 30.2098V24.8572C11.5501 23.491 12.0944 22.1814 13.0613 21.2161C14.0282 20.2508 15.3386 19.7086 16.7049 19.7086H26.178ZM27.4519 35.9116C27.3477 35.9116 27.2446 35.9321 27.1483 35.972C27.0521 36.0119 26.9646 36.0703 26.8909 36.144C26.8173 36.2177 26.7588 36.3051 26.7189 36.4014C26.6791 36.4976 26.6585 36.6008 26.6585 36.705V36.948C26.6571 38.4709 26.0515 39.931 24.9746 41.0078C23.8978 42.0846 22.4377 42.6903 20.9149 42.6917H19.5572C18.0345 42.6895 16.5749 42.0837 15.4982 41.007C14.4216 39.9303 13.8157 38.4707 13.8135 36.948V36.7022C13.8135 36.4937 13.7315 36.2936 13.5851 36.1451C13.4387 35.9966 13.2398 35.9117 13.0313 35.9088C12.4585 35.8884 11.9159 35.6466 11.5179 35.2341C11.1198 34.8217 10.8974 34.2709 10.8974 33.6977C10.8974 33.1245 11.1198 32.5736 11.5179 32.1612C11.9159 31.7487 12.4585 31.5069 13.0313 31.4865C13.24 31.4843 13.4394 31.3996 13.5859 31.251C13.7324 31.1024 13.8143 30.9018 13.8135 30.6931V29.8913C13.815 28.5159 14.3615 27.1971 15.3333 26.2237C16.3051 25.2503 17.623 24.7017 18.9985 24.698H21.4652C22.8404 24.7002 24.1586 25.2475 25.1311 26.2199C26.1035 27.1923 26.6507 28.5106 26.653 29.8858V30.6847C26.6552 30.8947 26.7405 31.0952 26.8903 31.2423C27.04 31.3894 27.242 31.4712 27.4519 31.4697C28.0255 31.4901 28.5688 31.7323 28.9673 32.1453C29.3659 32.5582 29.5886 33.1098 29.5886 33.6837C29.5886 34.2576 29.3659 34.8091 28.9673 35.2221C28.5688 35.6351 28.0255 35.8773 27.4519 35.8976V35.9116Z" fill="#265285"/>
<path d="M151.086 64.1073C151.065 60.8141 150.589 57.5396 149.67 54.3772C149.578 54.2682 149.488 54.1593 149.39 54.0503C147.806 53.5782 137.112 50.6644 130.254 55.8773C130.116 55.9819 129.947 56.0388 129.774 56.0394H112.733C112 56.0388 111.281 56.2369 110.652 56.6127C110.024 56.9885 109.509 57.5278 109.162 58.1732C108.816 58.8186 108.651 59.5459 108.686 60.2775C108.72 61.0092 108.952 61.7178 109.358 62.3278C109.416 62.3885 109.465 62.4571 109.503 62.5317C109.88 63.0316 110.368 63.4371 110.929 63.7163C111.489 63.9955 112.106 64.1409 112.733 64.1409H123.2C125.401 64.1399 127.557 64.7679 129.413 65.9511L130.204 66.454C130.297 66.5075 130.379 66.5795 130.443 66.6655C130.508 66.7515 130.554 66.8498 130.58 66.9543C130.605 67.0589 130.609 67.1675 130.592 67.2736C130.574 67.3798 130.535 67.4812 130.476 67.5716C130.418 67.6621 130.342 67.7398 130.253 67.8C130.164 67.8602 130.063 67.9016 129.957 67.9217C129.852 67.9418 129.743 67.9402 129.638 67.9169C129.533 67.8937 129.434 67.8493 129.346 67.7866L128.556 67.2837C128.168 67.0377 127.764 66.8183 127.346 66.6272L122.876 65.7221H112.741C111.883 65.7223 111.036 65.5264 110.265 65.1492C109.494 64.772 108.82 64.2236 108.294 63.5458L84.2684 55.3689C83.4678 55.1007 82.5952 55.1463 81.8269 55.4967C81.0586 55.847 80.452 56.476 80.1295 57.2564C79.8071 58.0368 79.7929 58.9105 80.0898 59.7009C80.3867 60.4914 80.9726 61.1397 81.729 61.5149L109.232 75.0751C111.822 76.324 114.64 77.0276 117.512 77.1424C135.657 77.8408 146.175 73.994 146.287 73.9549L149.675 72.6363C150.62 69.8924 151.097 67.0093 151.086 64.1073Z" fill="white"/>
<path d="M158.354 77.2293L149.267 77.2461C151.474 73.6144 152.678 69.0133 152.678 64.1161C152.678 59.6463 151.577 53.5003 149.462 49.5389H158.357C158.568 49.5389 158.769 49.4553 158.918 49.3066C159.067 49.1578 159.151 48.956 159.151 48.7455C159.151 48.5351 159.067 48.3333 158.918 48.1845C158.769 48.0357 158.568 47.9521 158.357 47.9521H148.063C147.918 47.952 147.777 47.9912 147.653 48.0656C147.529 48.14 147.428 48.2468 147.36 48.3744C147.293 48.502 147.261 48.6456 147.27 48.7898C147.278 48.934 147.325 49.0732 147.406 49.1925C148.036 50.156 148.557 51.1867 148.959 52.2655C146.255 51.5531 139.232 50.1284 133.078 52.5085C131.81 52.9923 130.612 53.6424 129.516 54.4417H112.754C111.26 54.4432 109.826 55.0376 108.77 56.0946C107.713 57.1515 107.118 58.5846 107.117 60.0793C107.116 60.5659 107.179 61.0505 107.304 61.5208L84.7846 53.8607C83.5974 53.4402 82.2942 53.4911 81.1435 54.0028C79.9927 54.5144 79.082 55.4479 78.5989 56.611C78.1159 57.7741 78.0973 59.0781 78.5469 60.2545C78.9966 61.4309 79.8803 62.39 81.016 62.9344L108.533 76.503C111.319 77.8506 114.352 78.6113 117.445 78.7379C119.004 78.7956 120.505 78.8245 121.948 78.8245C127.546 78.8534 133.137 78.3973 138.657 77.4612C143.794 76.5617 146.61 75.5308 146.839 75.447L148.837 74.6704C148.361 75.6852 147.794 76.654 147.141 77.5646C147.055 77.683 147.003 77.8229 146.992 77.9689C146.98 78.1148 147.009 78.2611 147.076 78.3915C147.142 78.522 147.244 78.6315 147.368 78.7079C147.493 78.7843 147.637 78.8246 147.783 78.8245L158.352 78.8049C158.562 78.8049 158.764 78.7213 158.913 78.5726C159.061 78.4238 159.145 78.222 159.145 78.0115C159.145 77.8011 159.061 77.5993 158.913 77.4505C158.764 77.3018 158.562 77.2182 158.352 77.2182L158.354 77.2293ZM117.512 77.1427C114.639 77.0279 111.821 76.3243 109.231 75.0754L81.7228 61.5124C80.9663 61.1373 80.3804 60.4889 80.0835 59.6985C79.7866 58.908 79.8008 58.0343 80.1232 57.2539C80.4457 56.4735 81.0523 55.8446 81.8206 55.4942C82.5889 55.1439 83.4615 55.0982 84.2622 55.3664L108.287 63.5434C108.814 64.2211 109.488 64.7695 110.259 65.1467C111.03 65.5239 111.877 65.7199 112.735 65.7196H123.2C124.632 65.72 126.048 66.0287 127.351 66.6247C127.768 66.8159 128.173 67.0352 128.56 67.2812L129.345 67.7869C129.433 67.8456 129.532 67.8862 129.636 67.9062C129.74 67.9263 129.846 67.9254 129.95 67.9036C130.053 67.8819 130.151 67.8397 130.238 67.7796C130.325 67.7194 130.399 67.6425 130.456 67.5534C130.512 67.4642 130.551 67.3647 130.568 67.2605C130.586 67.1563 130.583 67.0497 130.559 66.9468C130.535 66.8439 130.491 66.7468 130.428 66.6613C130.366 66.5758 130.288 66.5035 130.198 66.4487L129.407 65.9459C127.553 64.7617 125.399 64.1318 123.2 64.13H112.74C112.114 64.13 111.497 63.9847 110.936 63.7055C110.376 63.4262 109.888 63.0207 109.511 62.5209C109.472 62.4463 109.424 62.3776 109.366 62.317C108.96 61.7069 108.728 60.9983 108.693 60.2667C108.659 59.535 108.824 58.8077 109.17 58.1623C109.516 57.517 110.031 56.9776 110.66 56.6018C111.289 56.2261 112.008 56.0279 112.74 56.0285H129.781C129.955 56.0279 130.123 55.9711 130.262 55.8665C137.12 50.6536 147.814 53.5673 149.398 54.0395C149.493 54.1484 149.582 54.2574 149.677 54.3663C150.597 57.5324 151.074 60.8107 151.094 64.1077C151.102 67.0101 150.622 69.8932 149.675 72.6366L146.286 73.9552C146.174 73.9943 135.656 77.8439 117.512 77.1427Z" fill="#265285"/>
<path d="M96.3984 27.6089C96.3984 31.3307 97.5021 34.9689 99.5698 38.0635C101.638 41.1581 104.576 43.57 108.015 44.9943C111.453 46.4186 115.237 46.7912 118.887 46.0651C122.538 45.3391 125.891 43.5468 128.522 40.9151C131.154 38.2834 132.946 34.9304 133.672 31.2801C134.399 27.6297 134.026 23.8461 132.602 20.4076C131.177 16.9691 128.765 14.0301 125.671 11.9624C122.576 9.89466 118.938 8.79102 115.216 8.79102C110.227 8.79619 105.444 10.7804 101.916 14.3084C98.3879 17.8363 96.4036 22.6197 96.3984 27.6089ZM108.565 20.8539C108.565 18.7447 110.551 17.0294 112.99 17.0294H114.423V14.2162C114.423 14.0058 114.506 13.804 114.655 13.6552C114.804 13.5064 115.006 13.4228 115.216 13.4228C115.427 13.4228 115.628 13.5064 115.777 13.6552C115.926 13.804 116.01 14.0058 116.01 14.2162V17.0406H117.443C119.882 17.0406 121.868 18.7559 121.868 20.8651C121.868 21.0755 121.784 21.2773 121.635 21.4261C121.487 21.5749 121.285 21.6585 121.074 21.6585C120.864 21.6585 120.662 21.5749 120.513 21.4261C120.365 21.2773 120.281 21.0755 120.281 20.8651C120.281 19.6331 119.007 18.6302 117.443 18.6302H112.99C111.425 18.6302 110.151 19.6359 110.151 20.8651V24.5806C110.151 25.8126 111.425 26.8155 112.99 26.8155H117.443C119.882 26.8155 121.868 28.5308 121.868 30.64V34.3555C121.868 36.4619 119.882 38.1771 117.443 38.1771H116.01V41.0043C116.01 41.2147 115.926 41.4165 115.777 41.5653C115.628 41.7141 115.427 41.7977 115.216 41.7977C115.006 41.7977 114.804 41.7141 114.655 41.5653C114.506 41.4165 114.423 41.2147 114.423 41.0043V38.1744H112.99C110.551 38.1744 108.565 36.4591 108.565 34.3527V34.2018C108.565 33.9914 108.648 33.7896 108.797 33.6408C108.946 33.492 109.148 33.4084 109.358 33.4084C109.568 33.4084 109.77 33.492 109.919 33.6408C110.068 33.7896 110.151 33.9914 110.151 34.2018V34.3527C110.151 35.5847 111.425 36.5876 112.99 36.5876H117.443C119.007 36.5876 120.281 35.5847 120.281 34.3527V30.6316C120.281 29.3996 119.007 28.3967 117.443 28.3967H112.99C110.551 28.3967 108.565 26.6814 108.565 24.575V20.8539Z" fill="#78B0ED" fill-opacity="0.1"/>
<path d="M115.216 48.0165C119.255 48.0203 123.204 46.8259 126.564 44.5844C129.924 42.3429 132.543 39.155 134.091 35.4242C135.638 31.6934 136.044 27.5874 135.257 23.6259C134.47 19.6643 132.525 16.0253 129.669 13.1693C126.814 10.3133 123.174 8.36873 119.213 7.58172C115.251 6.7947 111.145 7.20059 107.415 8.74803C103.684 10.2955 100.496 12.9149 98.2545 16.2748C96.013 19.6347 94.8186 23.584 94.8224 27.623C94.8114 30.3042 95.3313 32.9611 96.3522 35.4403C97.3731 37.9196 98.8749 40.1722 100.771 42.0681C102.667 43.964 104.919 45.4657 107.399 46.4867C109.878 47.5076 112.535 48.0275 115.216 48.0165ZM115.216 8.79118C118.938 8.79118 122.576 9.89482 125.67 11.9626C128.765 14.0303 131.177 16.9692 132.601 20.4078C134.025 23.8463 134.398 27.6299 133.672 31.2802C132.946 34.9305 131.154 38.2835 128.522 40.9153C125.89 43.547 122.537 45.3392 118.887 46.0653C115.237 46.7914 111.453 46.4187 108.015 44.9945C104.576 43.5702 101.637 41.1582 99.5694 38.0637C97.5017 34.9691 96.398 31.3308 96.398 27.609C96.4039 22.62 98.3884 17.8371 101.916 14.3093C105.444 10.7816 110.227 8.79709 115.216 8.79118Z" fill="#265285"/>
<path d="M112.99 28.3967H117.443C119.007 28.3967 120.281 29.4024 120.281 30.6316V34.3471C120.281 35.5791 119.007 36.582 117.443 36.582H112.99C111.425 36.582 110.151 35.5791 110.151 34.3471V34.1962C110.151 33.9858 110.068 33.784 109.919 33.6352C109.77 33.4864 109.568 33.4029 109.358 33.4029C109.147 33.4029 108.946 33.4864 108.797 33.6352C108.648 33.784 108.564 33.9858 108.564 34.1962V34.3471C108.564 36.4535 110.551 38.1688 112.99 38.1688H114.423V40.9959C114.423 41.2063 114.506 41.4081 114.655 41.5569C114.804 41.7057 115.006 41.7893 115.216 41.7893C115.426 41.7893 115.628 41.7057 115.777 41.5569C115.926 41.4081 116.009 41.2063 116.009 40.9959V38.1744H117.443C119.881 38.1744 121.868 36.4591 121.868 34.3527V30.6316C121.868 28.5224 119.881 26.8071 117.443 26.8071H112.99C111.425 26.8071 110.151 25.8042 110.151 24.5722V20.8539C110.151 19.6219 111.425 18.619 112.99 18.619H117.443C119.007 18.619 120.281 19.6247 120.281 20.8539C120.281 21.0643 120.364 21.2661 120.513 21.4149C120.662 21.5637 120.864 21.6473 121.074 21.6473C121.285 21.6473 121.486 21.5637 121.635 21.4149C121.784 21.2661 121.868 21.0643 121.868 20.8539C121.868 18.7447 119.881 17.0294 117.443 17.0294H116.009V14.2162C116.009 14.0058 115.926 13.804 115.777 13.6552C115.628 13.5064 115.426 13.4229 115.216 13.4229C115.006 13.4229 114.804 13.5064 114.655 13.6552C114.506 13.804 114.423 14.0058 114.423 14.2162V17.0406H112.99C110.551 17.0406 108.564 18.7559 108.564 20.8651V24.5806C108.564 26.687 110.551 28.3967 112.99 28.3967Z" fill="#265285"/>
</svg>
