<svg width="146" height="149" viewBox="0 0 146 149" fill="none" xmlns="http://www.w3.org/2000/svg">
<path d="M91.4018 45.0028V109.756C91.4102 109.956 91.4953 110.144 91.6392 110.282C91.7831 110.419 91.9748 110.496 92.174 110.496H113.721C105.485 119.5 94.4301 125.434 82.3743 127.324V125.216H87.2213C87.3555 125.216 87.4874 125.182 87.6039 125.115C87.7203 125.048 87.8173 124.952 87.8851 124.837C87.9511 124.72 87.9858 124.589 87.9858 124.455C87.9858 124.321 87.9511 124.189 87.8851 124.073L82.3066 113.988C82.2552 113.87 82.174 113.766 82.0709 113.688L81.995 113.636L81.9679 113.623C81.9309 113.602 81.8919 113.584 81.8514 113.571L81.7837 113.55H81.7295C81.6907 113.547 81.6518 113.547 81.613 113.55H37.2962C35.6038 111.974 34.0138 110.291 32.5359 108.513C32.9661 108.049 33.2659 107.48 33.4051 106.862C33.5442 106.245 33.5177 105.602 33.3281 104.999C33.1386 104.395 32.7928 103.852 32.3258 103.426C31.8588 102.999 31.2873 102.703 30.6691 102.569V99.2496H39.5422C39.7341 102.575 41.1905 105.702 43.6129 107.988C46.0352 110.275 49.2403 111.549 52.5715 111.549C55.9027 111.549 59.1077 110.275 61.5301 107.988C63.9525 105.702 65.4088 102.575 65.6007 99.2496H75.2948V102.574C74.4295 102.764 73.6649 103.266 73.1477 103.986C72.6304 104.705 72.3971 105.59 72.4925 106.47C72.588 107.351 73.0054 108.165 73.6646 108.757C74.3239 109.349 75.1784 109.676 76.0642 109.676C76.95 109.676 77.8046 109.349 78.4639 108.757C79.1231 108.165 79.5405 107.351 79.6359 106.47C79.7313 105.59 79.4981 104.705 78.9809 103.986C78.4636 103.266 77.699 102.764 76.8337 102.574V99.255H80.9356C81.1254 100.12 81.6281 100.885 82.3472 101.402C83.0663 101.919 83.9512 102.153 84.8318 102.057C85.7125 101.962 86.5269 101.544 87.1186 100.885C87.7102 100.226 88.0375 99.3713 88.0375 98.4855C88.0375 97.5997 87.7102 96.7451 87.1186 96.0859C86.5269 95.4266 85.7125 95.0092 84.8318 94.9138C83.9512 94.8184 83.0663 95.0517 82.3472 95.5689C81.6281 96.0861 81.1254 96.8508 80.9356 97.7161H65.6007C65.4762 95.6364 64.8559 93.6167 63.7917 91.8257C62.7274 90.0346 61.2501 88.5242 59.483 87.4205C60.6681 86.0884 61.4428 84.4421 61.7138 82.6798C61.9848 80.9176 61.7405 79.1146 61.0105 77.4879C60.2804 75.8613 59.0956 74.4804 57.5989 73.5116C56.1021 72.5428 54.3572 72.0273 52.5742 72.0273C50.7913 72.0273 49.0463 72.5428 47.5495 73.5116C46.0528 74.4804 44.868 75.8613 44.138 77.4879C43.4079 79.1146 43.1636 80.9176 43.4346 82.6798C43.7056 84.4421 44.4803 86.0884 45.6654 87.4205C43.8983 88.5242 42.421 90.0346 41.3567 91.8257C40.2925 93.6167 39.6722 95.6364 39.5477 97.7161H25.562C22.022 90.4271 20.1691 82.4343 20.141 74.3312C20.1128 66.228 21.9101 58.2226 25.3995 50.9092C25.5566 51.2584 25.7844 51.5711 26.0687 51.8277C26.5732 52.2824 27.2291 52.5326 27.9083 52.5294H28.0627L31.7908 52.2585C33.5992 55.9305 36.1723 59.1731 39.3374 61.7685C42.5025 64.3639 46.1862 66.2521 50.1413 67.3063C54.0964 68.3604 58.2313 68.5562 62.2682 67.8803C66.3052 67.2045 70.1508 65.6727 73.5469 63.3878C76.943 61.1029 79.8109 58.1179 81.9581 54.6331C84.1052 51.1483 85.4819 47.2444 85.9957 43.1837C86.5095 39.1229 86.1485 34.9991 84.937 31.0894C83.7254 27.1796 81.6913 23.5743 78.9714 20.5156C86.5284 21.2119 93.8526 23.4992 100.463 27.2274C107.073 30.9555 112.82 36.0401 117.325 42.1471H94.2575C93.5004 42.1479 92.7744 42.4489 92.2391 42.9843C91.7037 43.5197 91.4026 44.2456 91.4018 45.0028Z" fill="#78B0ED" fill-opacity="0.5"/>
<path d="M29.1299 99.25H26.3447C26.9877 100.467 27.6741 101.655 28.4038 102.813C28.6367 102.707 28.8801 102.625 29.1299 102.569V99.25Z" fill="#78B0ED" fill-opacity="0.5"/>
<path d="M144.46 108.987V51.1426H92.9395V108.987H144.46ZM135.452 65.1825C135.553 65.1793 135.654 65.196 135.748 65.2317C135.843 65.2674 135.929 65.3214 136.003 65.3906C136.077 65.4598 136.136 65.5428 136.178 65.6349C136.219 65.7271 136.242 65.8265 136.246 65.9275C136.249 66.0286 136.232 66.1293 136.196 66.2239C136.161 66.3184 136.107 66.4051 136.038 66.4788C135.968 66.5525 135.885 66.6119 135.793 66.6535C135.701 66.6951 135.602 66.7182 135.501 66.7214L133.414 66.7864H133.39C133.186 66.7896 132.989 66.7117 132.842 66.5697C132.696 66.4276 132.612 66.2332 132.608 66.0291C132.605 65.8251 132.683 65.6281 132.825 65.4815C132.967 65.3349 133.162 65.2507 133.366 65.2475L135.452 65.1825ZM133.19 74.0367C133.05 74.1844 132.858 74.271 132.655 74.2776C132.452 74.2842 132.255 74.2102 132.106 74.0719L130.586 72.644C130.507 72.5765 130.442 72.4936 130.396 72.4003C130.35 72.3071 130.323 72.2055 130.317 72.1016C130.312 71.9977 130.327 71.8938 130.362 71.796C130.398 71.6983 130.453 71.6087 130.524 71.5328C130.595 71.4569 130.681 71.3962 130.776 71.3544C130.872 71.3126 130.974 71.2905 131.078 71.2896C131.182 71.2886 131.286 71.3087 131.382 71.3487C131.478 71.3887 131.564 71.4478 131.637 71.5224L133.16 72.9502C133.233 73.0195 133.292 73.1025 133.334 73.1947C133.375 73.2869 133.398 73.3863 133.4 73.4872C133.403 73.5882 133.386 73.6887 133.35 73.783C133.314 73.8773 133.259 73.9635 133.19 74.0367ZM130.166 59.612L131.594 58.0894C131.733 57.9403 131.927 57.8528 132.131 57.8462C132.335 57.8396 132.534 57.9144 132.683 58.0542C132.832 58.1939 132.919 58.3872 132.926 58.5914C132.933 58.7957 132.858 58.9942 132.718 59.1433L131.288 60.6633C131.22 60.7424 131.137 60.8069 131.044 60.8531C130.951 60.8992 130.849 60.926 130.745 60.9318C130.641 60.9375 130.537 60.9222 130.44 60.8866C130.342 60.8511 130.252 60.7961 130.176 60.7249C130.1 60.6538 130.04 60.568 129.998 60.4727C129.956 60.3775 129.934 60.2747 129.933 60.1707C129.932 60.0667 129.952 59.9635 129.992 59.8675C130.032 59.7715 130.091 59.6846 130.166 59.612ZM104.806 58.0514C104.955 57.9124 105.152 57.838 105.356 57.8446C105.559 57.8512 105.751 57.9383 105.89 58.0867L107.321 59.6093C107.46 59.7584 107.535 59.9568 107.528 60.1608C107.521 60.3648 107.433 60.5577 107.284 60.6971C107.135 60.8365 106.937 60.911 106.733 60.9041C106.529 60.8973 106.336 60.8097 106.196 60.6606L104.768 59.1406C104.699 59.0667 104.645 58.9798 104.61 58.885C104.574 58.7902 104.558 58.6893 104.561 58.5882C104.565 58.487 104.588 58.3875 104.63 58.2954C104.672 58.2033 104.732 58.1204 104.806 58.0514ZM106.909 72.6413L105.386 74.0692C105.238 74.2082 105.04 74.2826 104.837 74.276C104.634 74.2694 104.441 74.1823 104.302 74.0339C104.163 73.8859 104.088 73.6886 104.094 73.4853C104.1 73.2821 104.187 73.0896 104.335 72.9502L105.858 71.5224C105.931 71.4532 106.018 71.3991 106.112 71.3634C106.207 71.3276 106.308 71.3109 106.409 71.314C106.51 71.3172 106.609 71.3402 106.701 71.3817C106.793 71.4233 106.876 71.4826 106.945 71.5562C107.015 71.6299 107.069 71.7164 107.104 71.811C107.14 71.9055 107.157 72.0061 107.154 72.1072C107.151 72.2082 107.128 72.3076 107.086 72.3997C107.045 72.4918 106.985 72.5748 106.912 72.644L106.909 72.6413ZM102.032 65.1933L104.118 65.2583C104.322 65.2612 104.517 65.345 104.659 65.4914C104.801 65.6377 104.88 65.8346 104.877 66.0386C104.874 66.2427 104.79 66.4373 104.644 66.5795C104.497 66.7218 104.301 66.8001 104.097 66.7972H104.069L101.983 66.7322C101.779 66.7258 101.586 66.6385 101.446 66.4896C101.307 66.3407 101.232 66.1425 101.238 65.9384C101.245 65.7343 101.332 65.5412 101.481 65.4014C101.63 65.2617 101.828 65.1868 102.032 65.1933ZM111.515 100.922C110.67 100.92 109.861 100.584 109.264 99.9866C108.668 99.3893 108.332 98.5798 108.331 97.7354V95.6113C106.467 94.5459 104.95 92.9655 103.961 91.0595L98.77 88.9381C98.352 88.7697 97.9942 88.4799 97.7426 88.1061C97.4909 87.7323 97.3572 87.2917 97.3584 86.8411V83.5194C97.3598 82.9187 97.5993 82.343 98.0243 81.9184C98.4494 81.4939 99.0254 81.2551 99.6261 81.2544H103.761C104.81 78.9914 106.591 77.1476 108.816 76.0199V70.2002C108.034 68.3286 107.796 66.2739 108.131 64.2731C108.466 62.2723 109.36 60.4069 110.709 58.8922C112.058 57.3775 113.809 56.2753 115.758 55.7125C117.707 55.1498 119.775 55.1496 121.724 55.712C123.673 56.2743 125.424 57.3762 126.774 58.8907C128.123 60.4051 129.018 62.2703 129.353 64.271C129.688 66.2718 129.451 68.3265 128.669 70.1983C127.886 72.07 126.591 73.6824 124.931 74.8495C127.377 75.0496 129.688 76.0505 131.508 77.6972C133.327 79.344 134.552 81.5446 134.994 83.9583C134.993 83.9637 134.993 83.9692 134.994 83.9746C135.076 84.4012 135.312 84.7829 135.657 85.0465C136.002 85.3102 136.432 85.4374 136.865 85.4039C137.298 85.3704 137.704 85.1785 138.004 84.8648C138.305 84.5512 138.479 84.1378 138.494 83.7036V83.5926C138.488 83.3684 138.393 83.1559 138.23 83.002C138.066 82.848 137.849 82.7652 137.625 82.7716C137.401 82.7781 137.188 82.8734 137.034 83.0365C136.88 83.1996 136.797 83.4171 136.804 83.6413C136.792 83.8379 136.706 84.0225 136.563 84.1575C136.419 84.2926 136.23 84.3678 136.033 84.3678C135.836 84.3678 135.647 84.2926 135.503 84.1575C135.36 84.0225 135.274 83.8379 135.262 83.6413C135.265 83.019 135.51 82.4223 135.947 81.9784C136.383 81.5346 136.975 81.2786 137.598 81.2652C138.22 81.2518 138.823 81.4819 139.278 81.9065C139.733 82.3312 140.004 82.9167 140.033 83.5384V83.7118C140.035 83.7198 140.035 83.7281 140.033 83.7362C140.014 84.5979 139.657 85.4175 139.039 86.0186C138.422 86.6196 137.593 86.9539 136.731 86.9495C136.179 86.9482 135.636 86.8095 135.151 86.5458C135.047 88.3987 134.482 90.1964 133.507 91.7754C132.532 93.3544 131.178 94.6646 129.567 95.5869V97.7056C129.569 98.4625 129.302 99.1954 128.812 99.7729C128.323 100.35 127.644 100.735 126.897 100.857C126.15 100.979 125.384 100.83 124.736 100.439C124.088 100.047 123.601 99.4372 123.363 98.7189L122.821 97.0662H115.091L114.549 98.7189C114.339 99.3588 113.932 99.9157 113.386 100.31C112.84 100.703 112.183 100.914 111.509 100.911L111.515 100.922Z" fill="white"/>
<path d="M144.46 49.6033V44.9974C144.46 44.6484 144.321 44.3139 144.074 44.0671C143.827 43.8203 143.493 43.6814 143.144 43.6807H94.2562C93.9072 43.6814 93.5727 43.8203 93.3259 44.0671C93.0791 44.3139 92.9402 44.6484 92.9395 44.9974V49.6033H144.46ZM136.755 45.8102H141.038C141.235 45.8219 141.42 45.9082 141.555 46.0514C141.69 46.1947 141.765 46.3842 141.765 46.581C141.765 46.7779 141.69 46.9674 141.555 47.1106C141.42 47.2539 141.235 47.3402 141.038 47.3518H136.755C136.558 47.3402 136.374 47.2539 136.239 47.1106C136.104 46.9674 136.029 46.7779 136.029 46.581C136.029 46.3842 136.104 46.1947 136.239 46.0514C136.374 45.9082 136.558 45.8219 136.755 45.8102ZM128.586 45.8102H132.867C133.064 45.8219 133.248 45.9082 133.383 46.0514C133.518 46.1947 133.594 46.3842 133.594 46.581C133.594 46.7779 133.518 46.9674 133.383 47.1106C133.248 47.2539 133.064 47.3402 132.867 47.3518H128.586C128.39 47.3402 128.205 47.2539 128.07 47.1106C127.935 46.9674 127.86 46.7779 127.86 46.581C127.86 46.3842 127.935 46.1947 128.07 46.0514C128.205 45.9082 128.39 45.8219 128.586 45.8102Z" fill="white"/>
<path d="M146 50.3729V44.9894C145.999 44.2323 145.698 43.5064 145.163 42.971C144.628 42.4356 143.902 42.1345 143.145 42.1338H94.257C93.4999 42.1345 92.774 42.4356 92.2386 42.971C91.7032 43.5064 91.4021 44.2323 91.4014 44.9894V109.757C91.4014 109.961 91.4824 110.157 91.6266 110.302C91.7708 110.446 91.9665 110.528 92.1708 110.529H145.231C145.435 110.528 145.631 110.446 145.775 110.302C145.919 110.157 146 109.961 146 109.757V50.3729ZM94.2516 43.6727H143.145C143.494 43.6734 143.828 43.8124 144.075 44.0592C144.322 44.3059 144.461 44.6404 144.461 44.9894V49.5954H92.9403V44.9894C92.941 44.6404 93.08 44.3059 93.3268 44.0592C93.5735 43.8124 93.908 43.6734 94.257 43.6727H94.2516ZM92.9403 51.1424H144.461V108.987H92.9403V51.1424Z" fill="#265285"/>
<path d="M109.866 96.334V97.7239C109.865 98.1149 110.004 98.4934 110.256 98.7916C110.509 99.0898 110.86 99.2881 111.246 99.3511C111.632 99.414 112.028 99.3375 112.362 99.1351C112.697 98.9327 112.948 98.6178 113.071 98.2468L113.464 97.0764C112.232 97.0311 111.016 96.7802 109.866 96.334Z" fill="white"/>
<path d="M124.434 97.0655L124.829 98.2387C124.952 98.6097 125.204 98.9246 125.538 99.127C125.873 99.3293 126.269 99.4059 126.655 99.343C127.04 99.28 127.391 99.0816 127.644 98.7834C127.897 98.4852 128.035 98.1067 128.034 97.7158V96.334C126.883 96.776 125.666 97.0232 124.434 97.0655Z" fill="white"/>
<path d="M109.524 66.05C109.522 67.1546 109.719 68.2507 110.107 69.2849C110.948 69.3598 111.76 69.6294 112.478 70.0724C113.197 70.5154 113.802 71.1196 114.247 71.8372C114.809 72.7306 115.115 73.7618 115.13 74.8174H121.608L121.643 74.8039H121.66C123.267 74.2661 124.694 73.2953 125.785 71.9984C126.876 70.7015 127.588 69.1287 127.843 67.4532C128.098 65.7777 127.886 64.0644 127.23 62.5018C126.573 60.9392 125.499 59.5879 124.124 58.5966C122.75 57.6053 121.128 57.0124 119.438 56.8833C117.749 56.7541 116.056 57.0935 114.547 57.8643C113.037 58.6352 111.77 59.8074 110.884 61.2521C109.998 62.6968 109.527 64.3579 109.524 66.0527V66.05ZM114.9 68.1443C114.9 67.9402 114.981 67.7445 115.125 67.6002C115.269 67.4559 115.465 67.3748 115.669 67.3748C115.873 67.3748 116.069 67.4559 116.213 67.6002C116.358 67.7445 116.439 67.9402 116.439 68.1443V69.0736C116.439 69.3014 116.529 69.5198 116.69 69.6809C116.851 69.842 117.07 69.9325 117.298 69.9325H120.194C120.307 69.9325 120.418 69.9103 120.523 69.8671C120.627 69.8239 120.721 69.7607 120.801 69.6809C120.881 69.6012 120.944 69.5065 120.987 69.4023C121.031 69.2981 121.053 69.1864 121.053 69.0736V67.7379C121.053 67.6251 121.031 67.5134 120.987 67.4092C120.944 67.305 120.881 67.2103 120.801 67.1306C120.721 67.0508 120.627 66.9876 120.523 66.9444C120.418 66.9012 120.307 66.879 120.194 66.879H117.298C116.662 66.8783 116.052 66.6255 115.603 66.1759C115.153 65.7264 114.901 65.117 114.9 64.4812V63.1428C114.901 62.5074 115.153 61.8982 115.603 61.4491C116.053 61 116.662 60.7478 117.298 60.7478H117.975V59.347C117.975 59.1429 118.056 58.9472 118.2 58.8029C118.345 58.6586 118.54 58.5776 118.744 58.5776C118.948 58.5776 119.144 58.6586 119.288 58.8029C119.433 58.9472 119.514 59.1429 119.514 59.347V60.7613H120.194C120.829 60.7613 121.439 61.0135 121.888 61.4626C122.338 61.9117 122.591 62.5209 122.592 63.1564V64.0586C122.592 64.2627 122.511 64.4584 122.366 64.6027C122.222 64.747 122.026 64.828 121.822 64.828C121.618 64.828 121.422 64.747 121.278 64.6027C121.134 64.4584 121.053 64.2627 121.053 64.0586V63.1564C121.052 62.9291 120.961 62.7113 120.8 62.5508C120.639 62.3903 120.421 62.3002 120.194 62.3002H117.298C117.07 62.3002 116.852 62.3903 116.691 62.5508C116.53 62.7113 116.439 62.9291 116.439 63.1564V64.4948C116.439 64.7226 116.529 64.941 116.69 65.1021C116.851 65.2632 117.07 65.3537 117.298 65.3537H120.194C120.83 65.3544 121.439 65.6072 121.889 66.0567C122.338 66.5063 122.591 67.1157 122.592 67.7514V69.0872C122.591 69.7229 122.338 70.3323 121.889 70.7819C121.439 71.2314 120.83 71.4842 120.194 71.4849H119.514V72.8857C119.514 73.0897 119.433 73.2855 119.288 73.4298C119.144 73.5741 118.948 73.6551 118.744 73.6551C118.54 73.6551 118.345 73.5741 118.2 73.4298C118.056 73.2855 117.975 73.0897 117.975 72.8857V71.4849H117.298C116.662 71.4842 116.052 71.2314 115.603 70.7819C115.153 70.3323 114.901 69.7229 114.9 69.0872V68.1443Z" fill="#78B0ED" fill-opacity="0.5"/>
<path d="M113.857 95.545H124.044C126.589 95.545 129.029 94.5342 130.828 92.735C132.627 90.9358 133.638 88.4956 133.638 85.9512C133.638 83.4067 132.627 80.9665 130.828 79.1673C129.029 77.3681 126.589 76.3573 124.044 76.3573H114.943C114.881 76.5949 114.804 76.8284 114.713 77.0563L114.128 78.4896C114.09 78.5832 114.033 78.6683 113.962 78.7401C113.891 78.8119 113.806 78.869 113.713 78.9081C113.62 78.9473 113.52 78.9676 113.419 78.9681C113.318 78.9686 113.218 78.9491 113.124 78.9109C113.031 78.8726 112.945 78.8163 112.874 78.7452C112.802 78.674 112.745 78.5894 112.706 78.4962C112.666 78.403 112.646 78.303 112.646 78.2019C112.645 78.1008 112.665 78.0007 112.703 77.9071L113.288 76.4765C113.538 75.8586 113.637 75.1901 113.577 74.5262C113.517 73.8624 113.3 73.2224 112.944 72.6591C112.66 72.1979 112.283 71.8007 111.838 71.4924C111.393 71.1842 110.888 70.9716 110.357 70.8682V76.5063C110.356 76.6294 110.326 76.7504 110.267 76.8586L110.235 76.9236L110.189 76.9805C110.172 76.9994 110.159 77.0211 110.14 77.0401L110.086 77.0888L110.029 77.1349C110.004 77.1528 109.978 77.1683 109.95 77.181L109.904 77.2081C107.668 78.2175 105.905 80.0465 104.978 82.3179C104.92 82.4587 104.821 82.579 104.694 82.6639C104.567 82.7487 104.418 82.7942 104.266 82.7948H99.6275C99.4354 82.7948 99.2511 82.8709 99.115 83.0065C98.9789 83.1421 98.9021 83.326 98.9014 83.5182V86.829C98.9006 86.9731 98.943 87.1142 99.0232 87.234C99.1033 87.3537 99.2176 87.4467 99.3511 87.5009L104.808 89.728C104.984 89.7998 105.127 89.9352 105.209 90.1073C105.998 91.7315 107.226 93.1019 108.755 94.0631C110.284 95.0242 112.051 95.5376 113.857 95.545ZM111.465 80.5812C112.327 79.7355 113.486 79.2595 114.694 79.2544C115.902 79.2494 117.065 79.7156 117.935 80.5541L118.04 80.6381L118.146 80.5514C119.016 79.7139 120.179 79.2486 121.387 79.2542C122.595 79.2597 123.753 79.7357 124.616 80.5812C125.042 81.0023 125.381 81.5039 125.612 82.0569C125.843 82.6099 125.962 83.2033 125.962 83.8026C125.962 84.402 125.843 84.9954 125.612 85.5483C125.381 86.1013 125.042 86.6029 124.616 87.0241L118.585 93.0849C118.441 93.2278 118.246 93.3081 118.043 93.3081C117.84 93.3081 117.645 93.2278 117.501 93.0849L111.467 87.0187C111.042 86.5976 110.704 86.0964 110.473 85.5439C110.243 84.9914 110.124 84.3986 110.124 83.7999C110.124 83.2012 110.243 82.6085 110.473 82.056C110.704 81.5035 111.042 81.0022 111.467 80.5812H111.465Z" fill="white"/>
<path d="M122.814 97.0848L123.356 98.7375C123.594 99.4557 124.081 100.065 124.729 100.457C125.377 100.849 126.143 100.997 126.89 100.875C127.637 100.753 128.316 100.369 128.805 99.7915C129.294 99.214 129.562 98.4811 129.56 97.7242V95.6054C131.17 94.6831 132.525 93.3729 133.5 91.7939C134.475 90.215 135.04 88.4173 135.144 86.5643C135.629 86.828 136.172 86.9668 136.723 86.968C137.585 86.9725 138.415 86.6382 139.032 86.0371C139.65 85.4361 140.007 84.6164 140.026 83.7547C140.027 83.7466 140.027 83.7384 140.026 83.7303V83.5569C139.997 82.9353 139.725 82.3497 139.27 81.9251C138.815 81.5005 138.213 81.2703 137.59 81.2838C136.968 81.2972 136.376 81.5531 135.94 81.997C135.503 82.4408 135.258 83.0375 135.255 83.6599C135.267 83.8564 135.353 84.0411 135.496 84.1761C135.639 84.3111 135.829 84.3863 136.026 84.3863C136.223 84.3863 136.412 84.3111 136.555 84.1761C136.699 84.0411 136.785 83.8564 136.797 83.6599C136.79 83.4357 136.873 83.2181 137.027 83.055C137.181 82.8919 137.393 82.7966 137.618 82.7902C137.842 82.7837 138.059 82.8666 138.222 83.0205C138.386 83.1745 138.481 83.3869 138.487 83.6111V83.7222C138.472 84.1563 138.298 84.5697 137.997 84.8834C137.697 85.197 137.291 85.389 136.858 85.4225C136.425 85.456 135.995 85.3288 135.65 85.0651C135.304 84.8014 135.068 84.4198 134.987 83.9931C134.986 83.9878 134.986 83.9822 134.987 83.9769C134.549 81.561 133.327 79.357 131.509 77.7066C129.691 76.0563 127.379 75.0519 124.932 74.8491C126.593 73.6826 127.89 72.0705 128.674 70.1986C129.457 68.3268 129.696 66.2715 129.361 64.2699C129.027 62.2683 128.134 60.4021 126.784 58.8865C125.435 57.3709 123.684 56.2678 121.735 55.7043C119.785 55.1409 117.716 55.1402 115.766 55.7023C113.816 56.2643 112.065 57.3662 110.715 58.8809C109.364 60.3955 108.469 62.2611 108.134 64.2625C107.798 66.2638 108.035 68.3192 108.817 70.1917V76.0141C106.592 77.1417 104.811 78.9856 103.762 81.2486H99.6271C99.0264 81.2493 98.4504 81.4881 98.0253 81.9126C97.6003 82.3371 97.3608 82.9128 97.3594 83.5136V86.8244C97.3581 87.275 97.4919 87.7156 97.7435 88.0894C97.9951 88.4632 98.353 88.753 98.7709 88.9215L103.957 91.0402C104.945 92.9461 106.463 94.5265 108.327 95.5919V97.716C108.325 98.4729 108.592 99.2059 109.082 99.7833C109.571 100.361 110.25 100.745 110.997 100.867C111.744 100.989 112.51 100.841 113.158 100.449C113.806 100.057 114.292 99.4476 114.531 98.7293L115.073 97.0766L122.814 97.0848ZM111.51 99.3715C111.074 99.3707 110.656 99.1969 110.347 98.888C110.039 98.5792 109.866 98.1606 109.866 97.7242V96.3343C111.015 96.7804 112.231 97.0313 113.464 97.0766L113.071 98.2471C112.962 98.5746 112.752 98.8594 112.472 99.0612C112.192 99.263 111.856 99.3715 111.51 99.3715ZM104.807 89.7316L99.3507 87.5045C99.2172 87.4503 99.1029 87.3573 99.0228 87.2375C98.9426 87.1177 98.9002 86.9767 98.901 86.8325V83.519C98.901 83.3264 98.9775 83.1417 99.1136 83.0056C99.2498 82.8694 99.4345 82.7929 99.6271 82.7929H104.266C104.418 82.7924 104.567 82.7468 104.694 82.662C104.82 82.5772 104.919 82.4568 104.978 82.316C105.905 80.0447 107.668 78.2156 109.904 77.2062L109.95 77.1791C109.977 77.1664 110.004 77.151 110.028 77.133L110.085 77.087L110.139 77.0382C110.158 77.0192 110.172 76.9976 110.188 76.9786L110.234 76.9217L110.267 76.8567C110.325 76.7485 110.356 76.6275 110.356 76.5045V70.869C110.888 70.9725 111.392 71.185 111.838 71.4933C112.283 71.8015 112.659 72.1987 112.944 72.6599C113.299 73.2229 113.516 73.8625 113.576 74.5258C113.636 75.1891 113.537 75.8571 113.288 76.4747L112.702 77.9052C112.664 77.9988 112.645 78.099 112.645 78.2001C112.646 78.3012 112.666 78.4012 112.705 78.4944C112.744 78.5876 112.801 78.6722 112.873 78.7433C112.945 78.8145 113.03 78.8708 113.124 78.909C113.217 78.9473 113.317 78.9667 113.419 78.9662C113.52 78.9658 113.62 78.9454 113.713 78.9063C113.806 78.8671 113.891 78.81 113.962 78.7382C114.033 78.6664 114.089 78.5813 114.128 78.4877L114.713 77.0545C114.804 76.8265 114.881 76.5931 114.943 76.3555H124.044C126.588 76.3555 129.028 77.3662 130.828 79.1654C132.627 80.9646 133.638 83.4049 133.638 85.9493C133.638 88.4937 132.627 90.934 130.828 92.7332C129.028 94.5323 126.588 95.5431 124.044 95.5431H113.857C112.051 95.536 110.284 95.023 108.755 94.0624C107.227 93.1017 105.998 91.7318 105.208 90.1082C105.126 89.937 104.983 89.8027 104.807 89.7316ZM127.967 66.0491C127.969 67.9856 127.36 69.8735 126.228 71.4445C125.096 73.0155 123.497 74.1897 121.66 74.8003H121.643L121.608 74.8138H115.13C115.115 73.7581 114.809 72.727 114.247 71.8335C113.802 71.116 113.197 70.5118 112.478 70.0688C111.759 69.6258 110.948 69.3562 110.107 69.2813C109.644 68.02 109.463 66.6728 109.576 65.3342C109.689 63.9955 110.094 62.6977 110.761 61.5319C111.429 60.366 112.343 59.3603 113.441 58.5853C114.538 57.8102 115.792 57.2845 117.114 57.0451C118.435 56.8056 119.794 56.8582 121.093 57.1992C122.393 57.5401 123.602 58.1612 124.636 59.0188C125.67 59.8764 126.504 60.9499 127.079 62.1638C127.655 63.3778 127.958 64.7029 127.967 66.0464V66.0491ZM126.39 99.3742C126.045 99.3743 125.708 99.2657 125.428 99.0639C125.148 98.8621 124.939 98.5773 124.829 98.2498L124.434 97.0766C125.666 97.0344 126.883 96.7871 128.035 96.3451V97.7269C128.033 98.1626 127.859 98.5801 127.551 98.8882C127.243 99.1963 126.826 99.37 126.39 99.3715V99.3742Z" fill="#265285"/>
<path d="M117.297 71.47H117.975V72.8707C117.975 73.0748 118.056 73.2705 118.2 73.4148C118.344 73.5591 118.54 73.6402 118.744 73.6402C118.948 73.6402 119.144 73.5591 119.288 73.4148C119.432 73.2705 119.513 73.0748 119.513 72.8707V71.47H120.193C120.829 71.4693 121.439 71.2164 121.888 70.7669C122.338 70.3174 122.591 69.7079 122.591 69.0722V67.7365C122.591 67.1008 122.338 66.4913 121.888 66.0418C121.439 65.5923 120.829 65.3394 120.193 65.3387H117.297C117.069 65.3387 116.851 65.2482 116.69 65.0872C116.529 64.9261 116.438 64.7077 116.438 64.4799V63.1414C116.439 62.9141 116.53 62.6964 116.691 62.5359C116.852 62.3754 117.07 62.2853 117.297 62.2853H120.193C120.421 62.2853 120.639 62.3754 120.8 62.5359C120.961 62.6964 121.052 62.9141 121.052 63.1414V64.0437C121.052 64.2477 121.133 64.4434 121.278 64.5877C121.422 64.732 121.618 64.8131 121.822 64.8131C122.026 64.8131 122.222 64.732 122.366 64.5877C122.51 64.4434 122.591 64.2477 122.591 64.0437V63.1414C122.591 62.506 122.338 61.8968 121.888 61.4477C121.438 60.9986 120.829 60.7464 120.193 60.7464H119.513V59.3456C119.513 59.1416 119.432 58.9458 119.288 58.8015C119.144 58.6572 118.948 58.5762 118.744 58.5762C118.54 58.5762 118.344 58.6572 118.2 58.8015C118.056 58.9458 117.975 59.1416 117.975 59.3456V60.7599H117.297C116.662 60.7599 116.052 61.0122 115.603 61.4612C115.153 61.9103 114.9 62.5195 114.899 63.155V64.4934C114.9 65.1291 115.153 65.7386 115.602 66.1881C116.052 66.6376 116.661 66.8905 117.297 66.8912H120.193C120.306 66.8912 120.418 66.9134 120.522 66.9566C120.626 66.9997 120.721 67.063 120.801 67.1427C120.881 67.2225 120.944 67.3172 120.987 67.4214C121.03 67.5256 121.052 67.6373 121.052 67.7501V69.0858C121.052 69.3136 120.962 69.532 120.801 69.6931C120.64 69.8541 120.421 69.9446 120.193 69.9446H117.297C117.069 69.9446 116.851 69.8541 116.69 69.6931C116.529 69.532 116.438 69.3136 116.438 69.0858V68.1565C116.438 67.9524 116.357 67.7567 116.213 67.6124C116.069 67.4681 115.873 67.387 115.669 67.387C115.465 67.387 115.269 67.4681 115.125 67.6124C114.98 67.7567 114.899 67.9524 114.899 68.1565V69.0858C114.904 69.7191 115.158 70.3251 115.607 70.7717C116.056 71.2183 116.664 71.4693 117.297 71.47Z" fill="#265285"/>
<path d="M132.621 66.0399C132.628 66.2397 132.712 66.4292 132.855 66.5683C132.999 66.7074 133.191 66.7851 133.391 66.785H133.415L135.501 66.72C135.602 66.7168 135.702 66.6937 135.794 66.6521C135.886 66.6104 135.969 66.5511 136.038 66.4774C136.108 66.4036 136.162 66.317 136.197 66.2224C136.233 66.1279 136.25 66.0272 136.247 65.9261C136.243 65.8251 136.22 65.7256 136.179 65.6335C136.137 65.5414 136.078 65.4584 136.004 65.3892C135.93 65.32 135.844 65.266 135.749 65.2303C135.654 65.1946 135.554 65.1778 135.453 65.1811L133.366 65.2461C133.163 65.2531 132.97 65.3406 132.83 65.4893C132.691 65.6381 132.616 65.836 132.621 66.0399Z" fill="#265285"/>
<path d="M130.727 60.8924C130.832 60.8927 130.937 60.8712 131.033 60.8292C131.13 60.7873 131.216 60.7257 131.288 60.6485L132.718 59.1286C132.858 58.9795 132.933 58.781 132.926 58.5767C132.92 58.3724 132.832 58.1792 132.683 58.0394C132.534 57.8997 132.336 57.8249 132.131 57.8315C131.927 57.8381 131.734 57.9255 131.594 58.0746L130.166 59.5973C130.027 59.7457 129.953 59.9432 129.959 60.1465C129.966 60.3497 130.053 60.542 130.201 60.681C130.343 60.8167 130.531 60.8924 130.727 60.8924Z" fill="#265285"/>
<path d="M131.632 71.5082C131.56 71.4337 131.473 71.3746 131.377 71.3346C131.281 71.2946 131.178 71.2744 131.074 71.2754C130.97 71.2764 130.867 71.2985 130.772 71.3403C130.676 71.3821 130.591 71.4428 130.52 71.5187C130.448 71.5946 130.393 71.6841 130.358 71.7819C130.322 71.8797 130.307 71.9836 130.313 72.0875C130.318 72.1914 130.345 72.293 130.391 72.3862C130.438 72.4794 130.502 72.5623 130.581 72.6299L132.101 74.0577C132.175 74.1269 132.261 74.181 132.356 74.2167C132.45 74.2525 132.551 74.2692 132.652 74.2661C132.753 74.263 132.852 74.2399 132.945 74.1984C133.037 74.1568 133.12 74.0975 133.189 74.0239C133.258 73.9502 133.312 73.8637 133.348 73.7691C133.384 73.6746 133.4 73.574 133.397 73.473C133.394 73.3719 133.371 73.2725 133.33 73.1804C133.288 73.0883 133.229 73.0053 133.155 72.9361L131.632 71.5082Z" fill="#265285"/>
<path d="M101.987 66.72L104.073 66.785H104.1C104.304 66.7879 104.501 66.7095 104.647 66.5673C104.794 66.425 104.877 66.2304 104.88 66.0264C104.883 65.8223 104.805 65.6254 104.663 65.4791C104.52 65.3328 104.326 65.2489 104.122 65.2461L102.035 65.1811C101.934 65.1778 101.834 65.1946 101.739 65.2303C101.645 65.266 101.558 65.32 101.484 65.3892C101.335 65.5289 101.248 65.7221 101.242 65.9261C101.235 66.1302 101.31 66.3285 101.45 66.4774C101.589 66.6262 101.783 66.7135 101.987 66.72Z" fill="#265285"/>
<path d="M106.199 60.6495C106.338 60.7986 106.531 60.8862 106.735 60.8931C106.939 60.8999 107.138 60.8255 107.287 60.6861C107.436 60.5467 107.524 60.3537 107.53 60.1497C107.537 59.9457 107.463 59.7474 107.323 59.5983L105.893 58.0756C105.824 58.002 105.741 57.9427 105.649 57.9011C105.556 57.8595 105.457 57.8365 105.356 57.8334C105.255 57.8302 105.154 57.847 105.06 57.8828C104.965 57.9185 104.879 57.9725 104.805 58.0417C104.731 58.1109 104.672 58.194 104.631 58.2861C104.589 58.3782 104.566 58.4776 104.563 58.5786C104.56 58.6796 104.577 58.7803 104.612 58.8748C104.648 58.9693 104.702 59.0559 104.771 59.1296L106.199 60.6495Z" fill="#265285"/>
<path d="M105.855 71.5085L104.333 72.9364C104.219 73.0428 104.141 73.1812 104.108 73.3331C104.074 73.4851 104.088 73.6436 104.147 73.7876C104.205 73.9317 104.306 74.0546 104.436 74.1401C104.566 74.2256 104.719 74.2697 104.875 74.2667C105.07 74.2675 105.258 74.1927 105.4 74.058L106.923 72.6302C107.072 72.4904 107.159 72.2973 107.165 72.0933C107.171 71.8893 107.096 71.6911 106.957 71.5424C106.817 71.3937 106.624 71.3065 106.42 71.3002C106.216 71.2938 106.018 71.3688 105.869 71.5085H105.855Z" fill="#265285"/>
<path d="M111.656 83.8037C111.656 84.1995 111.734 84.5914 111.887 84.9565C112.039 85.3217 112.263 85.6528 112.545 85.9306L118.04 91.4522L123.529 85.9333C123.812 85.6558 124.037 85.3247 124.19 84.9592C124.343 84.5938 124.423 84.2014 124.423 83.8051C124.423 83.4087 124.343 83.0163 124.19 82.6509C124.037 82.2855 123.812 81.9543 123.529 81.6769C122.949 81.1103 122.171 80.793 121.361 80.793C120.551 80.793 119.773 81.1103 119.194 81.6769L119.137 81.7256L118.519 82.2296C118.382 82.3399 118.21 82.4001 118.034 82.4001C117.858 82.4001 117.687 82.3399 117.549 82.2296L116.931 81.7283L116.874 81.6769C116.295 81.1109 115.517 80.7941 114.707 80.7941C113.897 80.7941 113.119 81.1109 112.54 81.6769C112.259 81.9551 112.036 82.2864 111.884 82.6515C111.733 83.0167 111.655 83.4083 111.656 83.8037Z" fill="#265285"/>
<path d="M117.492 93.0857C117.636 93.2286 117.831 93.3088 118.034 93.3088C118.237 93.3088 118.432 93.2286 118.576 93.0857L124.607 87.0248C125.033 86.6037 125.372 86.1021 125.603 85.5491C125.834 84.9961 125.953 84.4028 125.953 83.8034C125.953 83.2041 125.834 82.6107 125.603 82.0577C125.372 81.5047 125.033 81.0031 124.607 80.582C123.744 79.7365 122.586 79.2605 121.378 79.2549C120.17 79.2494 119.008 79.7147 118.137 80.5522L118.031 80.6389L117.926 80.5549C117.056 79.7164 115.893 79.2502 114.685 79.2552C113.477 79.2603 112.319 79.7363 111.456 80.582C111.03 81.003 110.692 81.5043 110.462 82.0568C110.231 82.6093 110.112 83.202 110.112 83.8007C110.112 84.3994 110.231 84.9922 110.462 85.5446C110.692 86.0971 111.03 86.5984 111.456 87.0194L117.492 93.0857ZM116.88 81.6766L116.937 81.7281L117.555 82.2293C117.692 82.3397 117.863 82.3998 118.04 82.3998C118.216 82.3998 118.387 82.3397 118.525 82.2293L119.142 81.7253L119.199 81.6766C119.778 81.11 120.556 80.7927 121.367 80.7927C122.177 80.7927 122.955 81.11 123.534 81.6766C123.817 81.954 124.042 82.2852 124.195 82.6506C124.349 83.016 124.428 83.4084 124.428 83.8048C124.428 84.2011 124.349 84.5935 124.195 84.9589C124.042 85.3244 123.817 85.6555 123.534 85.933L118.045 91.4519L112.55 85.9303C112.268 85.6528 112.043 85.3219 111.89 84.9567C111.737 84.5915 111.658 84.1994 111.658 83.8034C111.658 83.4074 111.737 83.0153 111.89 82.6502C112.043 82.285 112.268 81.954 112.55 81.6766C113.13 81.1106 113.908 80.7938 114.718 80.7938C115.528 80.7938 116.306 81.1106 116.885 81.6766H116.88Z" fill="#265285"/>
<path d="M136.757 47.36H141.04C141.237 47.3483 141.421 47.262 141.556 47.1188C141.691 46.9755 141.767 46.786 141.767 46.5892C141.767 46.3923 141.691 46.2028 141.556 46.0596C141.421 45.9163 141.237 45.83 141.04 45.8184H136.757C136.56 45.83 136.376 45.9163 136.241 46.0596C136.105 46.2028 136.03 46.3923 136.03 46.5892C136.03 46.786 136.105 46.9755 136.241 47.1188C136.376 47.262 136.56 47.3483 136.757 47.36Z" fill="#265285"/>
<path d="M128.587 47.36H132.868C133.064 47.3483 133.249 47.262 133.384 47.1188C133.519 46.9755 133.594 46.786 133.594 46.5892C133.594 46.3923 133.519 46.2028 133.384 46.0596C133.249 45.9163 133.064 45.83 132.868 45.8184H128.587C128.39 45.83 128.206 45.9163 128.071 46.0596C127.936 46.2028 127.86 46.3923 127.86 46.5892C127.86 46.786 127.936 46.9755 128.071 47.1188C128.206 47.262 128.39 47.3483 128.587 47.36Z" fill="#265285"/>
<path d="M89.3674 3.16983C92.0809 3.75554 94.7585 4.49641 97.3871 5.38879C97.467 5.41761 97.5514 5.43228 97.6363 5.43214C97.818 5.43016 97.9931 5.36421 98.1309 5.24588C98.2688 5.12756 98.3605 4.96443 98.3899 4.78518C98.4194 4.60593 98.3846 4.42204 98.2919 4.26584C98.1992 4.10964 98.0544 3.99113 97.8829 3.93116C95.1977 3.01931 92.4621 2.26305 89.6898 1.66613C89.5896 1.64074 89.4852 1.63582 89.383 1.65167C89.2808 1.66752 89.1828 1.70381 89.0949 1.75838C89.0071 1.81295 88.9311 1.88467 88.8716 1.96927C88.8121 2.05386 88.7702 2.14959 88.7485 2.25072C88.7269 2.35186 88.7258 2.45632 88.7454 2.55788C88.765 2.65944 88.8049 2.756 88.8626 2.8418C88.9204 2.9276 88.9949 3.00086 89.0816 3.05723C89.1683 3.11359 89.2656 3.15188 89.3674 3.16983Z" fill="#265285"/>
<path d="M105.1 8.51906C107.607 9.71134 110.044 11.0456 112.399 12.5154C112.521 12.5913 112.661 12.6316 112.805 12.6319C112.972 12.6323 113.135 12.5782 113.269 12.4777C113.403 12.3773 113.5 12.2359 113.547 12.0751C113.593 11.9143 113.585 11.7428 113.525 11.5866C113.465 11.4304 113.356 11.298 113.214 11.2095C110.809 9.70803 108.319 8.34569 105.758 7.12916C105.666 7.08164 105.566 7.05308 105.463 7.04521C105.36 7.03733 105.256 7.05029 105.158 7.08332C105.06 7.11635 104.97 7.16876 104.893 7.23743C104.816 7.30611 104.753 7.38964 104.709 7.48303C104.665 7.57643 104.64 7.67778 104.635 7.78104C104.631 7.8843 104.648 7.98735 104.684 8.08404C104.721 8.18073 104.776 8.26908 104.848 8.34382C104.919 8.41857 105.005 8.47816 105.1 8.51906Z" fill="#265285"/>
<path d="M72.8502 1.58497C73.5547 1.54704 73.8933 1.54162 74.0071 1.54162C76.3859 1.54162 78.7864 1.65813 81.1408 1.88842H81.2167C81.4115 1.88424 81.5975 1.80629 81.7371 1.67031C81.8767 1.53434 81.9595 1.35046 81.9688 1.1558C81.9781 0.961153 81.9132 0.770228 81.7871 0.621579C81.6611 0.47293 81.4834 0.377633 81.2899 0.354925C78.8867 0.119211 76.4347 0 74.0044 0C73.7335 0 73.2892 0.0162561 72.769 0.0433497C72.5649 0.0541282 72.3734 0.145532 72.2368 0.297455C72.1001 0.449378 72.0294 0.649374 72.0401 0.853447C72.0509 1.05752 72.1423 1.24895 72.2942 1.38563C72.4462 1.52231 72.6462 1.59304 72.8502 1.58227V1.58497Z" fill="#265285"/>
<path d="M135.055 34.84C135.124 34.9487 135.22 35.0382 135.333 35.1002C135.446 35.1623 135.573 35.1948 135.702 35.1949C135.851 35.1951 135.996 35.1517 136.12 35.0703C136.205 35.0159 136.278 34.9451 136.336 34.8622C136.393 34.7793 136.434 34.6858 136.455 34.5871C136.477 34.4884 136.479 34.3865 136.46 34.2872C136.442 34.1878 136.405 34.093 136.35 34.0082C135.049 31.9898 133.641 30.0119 132.137 28.1262C132.074 28.0471 131.996 27.981 131.908 27.9319C131.82 27.8828 131.723 27.8516 131.622 27.84C131.522 27.8285 131.42 27.8368 131.323 27.8645C131.226 27.8922 131.135 27.9388 131.056 28.0016C130.977 28.0644 130.911 28.1422 130.862 28.2305C130.813 28.3188 130.781 28.4159 130.77 28.5163C130.758 28.6167 130.766 28.7184 130.794 28.8155C130.822 28.9127 130.868 29.0035 130.931 29.0826C132.394 30.9277 133.781 32.8541 135.055 34.84Z" fill="#265285"/>
<path d="M40.2921 9.49956C40.418 9.49958 40.5419 9.4679 40.6524 9.40744C43.1053 8.12759 45.6566 7.04582 48.2819 6.17247C48.3776 6.13992 48.466 6.08883 48.542 6.02212C48.6179 5.95542 48.68 5.87441 48.7247 5.78371C48.7693 5.69301 48.7957 5.59441 48.8022 5.49353C48.8088 5.39264 48.7954 5.29146 48.7628 5.19575C48.7303 5.10004 48.6792 5.01168 48.6125 4.93571C48.5458 4.85975 48.4648 4.79766 48.3741 4.75301C48.2834 4.70835 48.1848 4.68199 48.0839 4.67545C47.983 4.6689 47.8818 4.68228 47.7861 4.71484C45.0817 5.61361 42.4542 6.72896 39.929 8.05006C39.7769 8.13056 39.6562 8.25971 39.5862 8.41688C39.5161 8.57404 39.5008 8.75015 39.5426 8.91706C39.5844 9.08397 39.6809 9.23206 39.8168 9.33765C39.9527 9.44324 40.12 9.50025 40.2921 9.49956Z" fill="#265285"/>
<path d="M119.194 17.319C121.366 19.0491 123.437 20.9017 125.398 22.8677C125.546 22.9907 125.734 23.0541 125.926 23.0455C126.118 23.0368 126.299 22.9567 126.435 22.8209C126.571 22.6851 126.651 22.5034 126.66 22.3115C126.669 22.1197 126.605 21.9315 126.482 21.784C124.48 19.7778 122.365 17.8872 120.148 16.1214C120.069 16.0557 119.978 16.0063 119.88 15.9762C119.782 15.9462 119.679 15.936 119.577 15.9463C119.475 15.9566 119.376 15.9872 119.286 16.0363C119.196 16.0854 119.117 16.152 119.053 16.2322C118.989 16.3123 118.941 16.4045 118.914 16.5032C118.886 16.6019 118.878 16.7051 118.891 16.8069C118.903 16.9087 118.936 17.0068 118.987 17.0957C119.039 17.1846 119.107 17.2623 119.189 17.3244L119.194 17.319Z" fill="#265285"/>
<path d="M56.1446 3.95887C56.2011 3.95911 56.2576 3.95274 56.3126 3.9399C58.938 3.34926 61.7042 2.85616 64.5382 2.43892C64.6402 2.42692 64.7388 2.39461 64.8281 2.34389C64.9175 2.29318 64.9958 2.22508 65.0584 2.14363C65.121 2.06217 65.1666 1.969 65.1926 1.86962C65.2187 1.77024 65.2245 1.66665 65.2099 1.56496C65.1952 1.46328 65.1603 1.36556 65.1073 1.27757C65.0543 1.18958 64.9842 1.1131 64.9011 1.05264C64.8181 0.992176 64.7237 0.948961 64.6237 0.925538C64.5237 0.902116 64.42 0.898962 64.3187 0.916261C61.4468 1.32537 58.6291 1.83744 55.9766 2.43892C55.7922 2.48065 55.6295 2.58886 55.5198 2.74288C55.41 2.8969 55.3608 3.08595 55.3816 3.27394C55.4024 3.46192 55.4917 3.63567 55.6324 3.76201C55.7731 3.88835 55.9555 3.95843 56.1446 3.95887Z" fill="#265285"/>
<path d="M4.51641 95.2038C4.48724 95.107 4.43928 95.0169 4.37529 94.9387C4.3113 94.8604 4.23252 94.7956 4.14346 94.7478C4.0544 94.7 3.9568 94.6702 3.85622 94.6601C3.75565 94.65 3.65408 94.6598 3.55731 94.689C3.46053 94.7182 3.37044 94.7661 3.29219 94.8301C3.21395 94.8941 3.14908 94.9729 3.10128 95.062C3.05348 95.151 3.02368 95.2486 3.0136 95.3492C3.00352 95.4498 3.01335 95.5513 3.04253 95.6481C3.88465 98.4281 4.89068 101.156 6.05532 103.817C6.11462 103.954 6.21295 104.072 6.33814 104.154C6.46334 104.236 6.6099 104.28 6.75974 104.28C6.86605 104.28 6.97116 104.258 7.06861 104.215C7.2549 104.133 7.40102 103.98 7.47511 103.79C7.54921 103.6 7.54528 103.389 7.46418 103.202C6.32606 100.596 5.34178 97.9251 4.51641 95.2038Z" fill="#265285"/>
<path d="M0.719988 70.6497H0.766042C0.96216 70.6487 1.15055 70.5731 1.29295 70.4382C1.43535 70.3034 1.5211 70.1194 1.53279 69.9236C1.69566 67.0846 2.02405 64.2576 2.51629 61.4569C2.55221 61.2557 2.50674 61.0484 2.38988 60.8808C2.27302 60.7131 2.09434 60.5987 1.89314 60.5628C1.69194 60.5269 1.48471 60.5723 1.31704 60.6892C1.14937 60.8061 1.03499 60.9847 0.999059 61.1859C0.502112 64.048 0.171912 66.9365 0.0101402 69.8369C-0.00181207 70.0384 0.0659025 70.2366 0.19869 70.3886C0.331477 70.5407 0.518699 70.6344 0.719988 70.6497Z" fill="#265285"/>
<path d="M1.53759 78.45C1.52538 78.2463 1.43274 78.0558 1.28005 77.9203C1.12737 77.7849 0.927145 77.7157 0.723433 77.7279C0.51972 77.7402 0.329193 77.8328 0.193784 77.9855C0.0583747 78.1382 -0.0108346 78.3384 0.00138096 78.5421C0.171082 81.4404 0.51033 84.3263 1.01739 87.185C1.03329 87.2861 1.06925 87.3831 1.12312 87.4702C1.17699 87.5573 1.2477 87.6328 1.33112 87.6922C1.41453 87.7516 1.50896 87.7937 1.60888 87.8162C1.7088 87.8386 1.8122 87.8409 1.91301 87.8229C2.01381 87.8048 2.11 87.7669 2.19595 87.7112C2.28189 87.6555 2.35586 87.5832 2.4135 87.4985C2.47114 87.4139 2.5113 87.3186 2.53164 87.2182C2.55197 87.1178 2.55207 87.0144 2.53192 86.914C2.03578 84.1145 1.70377 81.2883 1.53759 78.45Z" fill="#265285"/>
<path d="M11.3343 110.797C11.2845 110.707 11.2173 110.628 11.1367 110.565C11.056 110.502 10.9635 110.456 10.8647 110.429C10.7658 110.402 10.6626 110.395 10.561 110.408C10.4594 110.421 10.3616 110.455 10.2731 110.507C10.1847 110.559 10.1076 110.628 10.0461 110.71C9.98471 110.792 9.94029 110.885 9.91548 110.984C9.89067 111.084 9.88596 111.187 9.90164 111.289C9.91731 111.39 9.95306 111.487 10.0068 111.574C11.475 114.08 13.0889 116.497 14.8402 118.814C14.9118 118.908 15.0043 118.985 15.1105 119.038C15.2167 119.092 15.3338 119.119 15.4526 119.12C15.6201 119.12 15.783 119.065 15.9159 118.963C15.9973 118.902 16.0657 118.825 16.1173 118.737C16.1689 118.65 16.2026 118.553 16.2165 118.452C16.2304 118.351 16.2241 118.248 16.1981 118.15C16.172 118.052 16.1268 117.96 16.0649 117.879C14.3512 115.612 12.7716 113.248 11.3343 110.797Z" fill="#265285"/>
<path d="M109.988 137.202C107.857 138.42 105.666 139.529 103.423 140.524C103.261 140.595 103.128 140.72 103.048 140.877C102.967 141.035 102.943 141.216 102.98 141.389C103.017 141.562 103.112 141.717 103.25 141.828C103.388 141.939 103.56 141.999 103.737 141.998C103.844 141.997 103.95 141.975 104.049 141.933C106.339 140.915 108.576 139.782 110.752 138.538C110.841 138.488 110.919 138.422 110.982 138.342C111.045 138.262 111.092 138.17 111.119 138.072C111.147 137.974 111.154 137.871 111.142 137.77C111.129 137.669 111.096 137.572 111.046 137.483C110.995 137.395 110.928 137.317 110.847 137.255C110.766 137.193 110.674 137.148 110.575 137.121C110.477 137.095 110.374 137.089 110.273 137.103C110.172 137.117 110.075 137.15 109.988 137.202Z" fill="#265285"/>
<path d="M121.944 128.654C120.102 130.276 118.179 131.804 116.182 133.23C116.015 133.349 115.903 133.529 115.869 133.73C115.835 133.932 115.883 134.138 116.001 134.305C116.12 134.471 116.3 134.583 116.501 134.617C116.703 134.651 116.909 134.603 117.076 134.485C119.114 133.026 121.078 131.466 122.96 129.811C123.114 129.676 123.207 129.486 123.221 129.283C123.234 129.079 123.166 128.878 123.031 128.725C122.964 128.649 122.883 128.587 122.792 128.542C122.702 128.497 122.603 128.471 122.502 128.465C122.298 128.451 122.098 128.52 121.944 128.654Z" fill="#265285"/>
<path d="M133.023 117.733C132.942 117.671 132.85 117.626 132.752 117.601C132.653 117.575 132.551 117.569 132.45 117.582C132.349 117.596 132.253 117.63 132.165 117.681C132.077 117.733 132 117.801 131.939 117.882C130.459 119.84 128.881 121.722 127.211 123.52C127.074 123.67 127.001 123.867 127.008 124.07C127.016 124.273 127.104 124.465 127.252 124.604C127.394 124.737 127.581 124.81 127.775 124.81C127.881 124.809 127.985 124.787 128.082 124.745C128.179 124.703 128.266 124.641 128.339 124.563C130.044 122.727 131.656 120.805 133.167 118.806C133.289 118.644 133.342 118.441 133.315 118.24C133.288 118.039 133.183 117.857 133.023 117.733Z" fill="#265285"/>
<path d="M96.5574 143.16C94.2255 143.922 91.8563 144.564 89.4589 145.084C89.2721 145.123 89.1064 145.23 88.9941 145.384C88.8818 145.538 88.8308 145.729 88.851 145.918C88.8713 146.108 88.9614 146.284 89.1037 146.411C89.2461 146.538 89.4306 146.607 89.6215 146.606C89.6762 146.607 89.7308 146.6 89.784 146.587C92.2323 146.056 94.6522 145.402 97.0342 144.626C97.2286 144.562 97.3899 144.425 97.4826 144.242C97.5754 144.06 97.5919 143.849 97.5287 143.654C97.4655 143.46 97.3276 143.299 97.1455 143.206C96.9633 143.113 96.7518 143.097 96.5574 143.16Z" fill="#265285"/>
<path d="M82.1975 146.275C79.7753 146.546 77.3044 146.698 74.8525 146.728C74.6484 146.728 74.4527 146.809 74.3084 146.953C74.1641 147.097 74.083 147.293 74.083 147.497C74.083 147.701 74.1641 147.897 74.3084 148.041C74.4527 148.186 74.6484 148.267 74.8525 148.267C77.3584 148.237 79.8614 148.083 82.3519 147.803C82.4551 147.795 82.5555 147.767 82.6473 147.719C82.7391 147.672 82.8204 147.606 82.8863 147.526C82.9522 147.447 83.0013 147.354 83.0308 147.255C83.0603 147.156 83.0694 147.052 83.0578 146.949C83.0461 146.847 83.0139 146.747 82.9629 146.657C82.912 146.567 82.8435 146.488 82.7614 146.425C82.6793 146.363 82.5854 146.317 82.4853 146.291C82.3851 146.265 82.2808 146.26 82.1785 146.275H82.1975Z" fill="#265285"/>
<path d="M26.6986 49.8419C26.7066 50.0002 26.7458 50.1553 26.8139 50.2984C26.882 50.4415 26.9777 50.5698 27.0956 50.6757C27.2134 50.7817 27.351 50.8634 27.5005 50.9161C27.65 50.9687 27.8084 50.9913 27.9666 50.9825L31.104 50.7631C28.5217 44.6529 28.1218 37.84 29.9715 31.4697L26.956 31.7109H26.9371C26.7785 31.7188 26.6231 31.7581 26.4799 31.8264C26.3366 31.8946 26.2082 31.9906 26.1022 32.1087C25.9962 32.2268 25.9146 32.3648 25.8621 32.5146C25.8096 32.6644 25.7873 32.8231 25.7964 32.9815L25.8208 33.4774C25.827 33.5785 25.8131 33.6799 25.7799 33.7757C25.7467 33.8714 25.6948 33.9597 25.6273 34.0352C25.5598 34.1108 25.478 34.1723 25.3865 34.216C25.2951 34.2598 25.1959 34.285 25.0947 34.2902L12.0221 34.9892C10.1387 35.1142 8.38038 35.9761 7.12793 37.3882C5.87547 38.8004 5.22974 40.6491 5.33057 42.5339C5.4314 44.4188 6.27069 46.188 7.66665 47.4585C9.06262 48.7289 10.9029 49.3983 12.7888 49.3217L25.8614 48.6227H25.9021C26.0919 48.6217 26.2753 48.6912 26.4169 48.8177C26.4931 48.8867 26.5549 48.9701 26.5987 49.0631C26.6424 49.1561 26.6672 49.2569 26.6715 49.3596L26.6986 49.8419Z" fill="#78B0ED" fill-opacity="0.5"/>
<path d="M26.0684 51.8196C26.5746 52.2772 27.2338 52.5285 27.9162 52.524H28.0706L31.7987 52.2531C33.6124 55.9174 36.1882 59.1518 39.3538 61.7396C42.5193 64.3274 46.2013 66.2087 50.1531 67.2575C54.105 68.3063 58.2353 68.4985 62.2674 67.821C66.2995 67.1435 70.1403 65.6121 73.5323 63.3294C76.9244 61.0466 79.7894 58.0653 81.9354 54.5851C84.0814 51.1049 85.4588 47.2063 85.9754 43.1504C86.4919 39.0945 86.1356 34.975 84.9305 31.068C83.7253 27.1611 81.699 23.5568 78.9874 20.4967C78.265 19.6835 77.498 18.911 76.6899 18.1829C73.1872 15.0328 68.9627 12.7937 64.3896 11.6634C59.8164 10.533 55.0352 10.5461 50.4684 11.7017C45.9015 12.8572 41.6894 15.1195 38.2041 18.2888C34.7189 21.4581 32.0677 25.4369 30.4846 29.8738L26.8324 30.1772C26.1536 30.2149 25.5131 30.5037 25.0354 30.9874C24.5577 31.4711 24.2769 32.1152 24.2477 32.7945L11.931 33.4528C9.66708 33.579 7.54142 34.5826 6.00525 36.2504C4.46907 37.9182 3.64331 40.119 3.70324 42.3857C3.76318 44.6524 4.7041 46.8065 6.32627 48.3908C7.94844 49.9751 10.1242 50.8649 12.3916 50.8713C12.5488 50.8713 12.7059 50.8713 12.8631 50.8713L25.1906 50.194C25.2278 50.4371 25.298 50.6741 25.3992 50.8984C25.556 51.2485 25.7839 51.5622 26.0684 51.8196ZM26.4179 48.8149C26.2764 48.6884 26.093 48.6189 25.9031 48.6198H25.8625L12.7899 49.3188C10.9039 49.3955 9.06366 48.7261 7.6677 47.4556C6.27173 46.1852 5.43245 44.4159 5.33161 42.5311C5.23078 40.6462 5.87652 38.7975 7.12897 37.3854C8.38143 35.9732 10.1398 35.1113 12.0232 34.9863L25.0958 34.2873C25.197 34.2821 25.2962 34.2569 25.3876 34.2132C25.479 34.1694 25.5608 34.108 25.6284 34.0324C25.6959 33.9568 25.7478 33.8686 25.781 33.7728C25.8142 33.6771 25.8281 33.5757 25.8219 33.4745L25.7975 32.9787C25.7883 32.8202 25.8106 32.6615 25.8631 32.5117C25.9156 32.3619 25.9972 32.224 26.1032 32.1059C26.2093 31.9878 26.3376 31.8918 26.4809 31.8235C26.6242 31.7552 26.7796 31.716 26.9381 31.708H26.9571L29.9726 31.4669C28.1229 37.8372 28.5228 44.6501 31.1051 50.7602L27.9677 50.9797C27.8094 50.9884 27.651 50.9658 27.5015 50.9132C27.352 50.8605 27.2144 50.7789 27.0966 50.6729C26.9788 50.5669 26.883 50.4387 26.8149 50.2956C26.7468 50.1525 26.7077 49.9973 26.6997 49.839L26.6726 49.3486C26.6609 49.145 26.5694 48.9542 26.4179 48.8176V48.8149ZM75.6522 19.3289C79.6472 22.9179 82.4884 27.6109 83.8163 32.8145C85.1441 38.0181 84.8992 43.4987 83.1123 48.5631C81.3254 53.6275 78.0769 58.0483 73.7776 61.2664C69.4782 64.4846 64.3212 66.3556 58.9585 66.6428C53.5958 66.93 48.2684 65.6205 43.6499 62.88C39.0314 60.1395 35.3294 56.0909 33.0118 51.2463C30.6942 46.4018 29.8653 40.9787 30.6298 35.6631C31.3943 30.3474 33.7179 25.3777 37.3068 21.3826C42.1247 16.0341 48.8672 12.8146 56.0555 12.4301C63.2438 12.0456 70.2912 14.5276 75.6522 19.3317V19.3289Z" fill="#265285"/>
<path d="M37.3061 21.3849C33.7172 25.38 31.3936 30.3496 30.6291 35.6653C29.8646 40.981 30.6935 46.404 33.0111 51.2486C35.3287 56.0932 39.0308 60.1417 43.6492 62.8823C48.2677 65.6228 53.5951 66.9323 58.9578 66.6451C64.3205 66.3579 69.4776 64.4869 73.7769 61.2687C78.0762 58.0505 81.3247 53.6297 83.1116 48.5653C84.8985 43.5009 85.1435 38.0204 83.8156 32.8168C82.4877 27.6131 79.6465 22.9201 75.6515 19.3312C70.2911 14.5254 63.243 12.0426 56.0541 12.4276C48.8651 12.8126 42.1225 16.0341 37.3061 21.3849ZM74.8441 40.6024C73.5721 44.472 71.111 47.8413 67.8115 50.2299C64.512 52.6185 60.5426 53.9045 56.4693 53.9045C52.396 53.9045 48.4266 52.6185 45.1272 50.2299C41.8277 47.8413 39.3665 44.472 38.0945 40.6024C38.0431 40.4467 38.0431 40.2785 38.0945 40.1228C39.3665 36.2532 41.8277 32.8839 45.1272 30.4953C48.4266 28.1067 52.396 26.8207 56.4693 26.8207C60.5426 26.8207 64.512 28.1067 67.8115 30.4953C71.111 32.8839 73.5721 36.2532 74.8441 40.1228C74.8956 40.2785 74.8956 40.4467 74.8441 40.6024Z" fill="#265285"/>
<path d="M73.3031 40.3608C72.095 36.8574 69.824 33.8182 66.8066 31.6669C63.7892 29.5156 60.1757 28.3594 56.4699 28.3594C52.7641 28.3594 49.1506 29.5156 46.1332 31.6669C43.1158 33.8182 40.8448 36.8574 39.6367 40.3608C40.8448 43.8642 43.1158 46.9033 46.1332 49.0546C49.1506 51.206 52.7641 52.3622 56.4699 52.3622C60.1757 52.3622 63.7892 51.206 66.8066 49.0546C69.824 46.9033 72.095 43.8642 73.3031 40.3608ZM56.4699 49.2583C54.9121 49.2575 53.3818 48.8478 52.032 48.0701C50.6821 47.2925 49.5601 46.1742 48.7779 44.8271C47.9957 43.4799 47.5807 41.951 47.5746 40.3932C47.5684 38.8354 47.9713 37.3033 48.7428 35.95C48.7081 35.3513 48.8004 34.7521 49.0138 34.1918C49.2272 33.6314 49.5568 33.1226 49.981 32.6987C50.5516 32.1295 51.2721 31.734 52.0586 31.5579C52.8452 31.3819 53.6655 31.4327 54.4243 31.7044C54.4696 31.6842 54.5168 31.6688 54.5652 31.6583C55.7858 31.3911 57.0489 31.3839 58.2724 31.6372C59.4959 31.8906 60.6523 32.3988 61.6664 33.1287C62.6804 33.8587 63.5294 34.794 64.1579 35.8739C64.7865 36.9537 65.1806 38.1538 65.3145 39.3961C65.4485 40.6384 65.3193 41.8949 64.9354 43.0839C64.5514 44.2729 63.9214 45.3678 63.0863 46.2971C62.2511 47.2264 61.2296 47.9695 60.0882 48.4778C58.9469 48.9862 57.7112 49.2484 56.4618 49.2475L56.4699 49.2583Z" fill="white"/>
<path d="M56.47 26.8242C52.3955 26.8179 48.4234 28.1012 45.1227 30.4903C41.822 32.8794 39.3621 36.2518 38.0952 40.1245C38.0438 40.2802 38.0438 40.4483 38.0952 40.604C39.3672 44.4737 41.8284 47.843 45.1279 50.2316C48.4274 52.6202 52.3967 53.9062 56.47 53.9062C60.5434 53.9062 64.5127 52.6202 67.8122 50.2316C71.1117 47.843 73.5728 44.4737 74.8448 40.604C74.8963 40.4483 74.8963 40.2802 74.8448 40.1245C73.5783 36.2516 71.1185 32.879 67.8177 30.4898C64.517 28.1006 60.5447 26.8175 56.47 26.8242ZM39.6369 40.371C40.8449 36.8677 43.1159 33.8285 46.1333 31.6772C49.1508 29.5259 52.7642 28.3696 56.47 28.3696C60.1758 28.3696 63.7893 29.5259 66.8067 31.6772C69.8242 33.8285 72.0952 36.8677 73.3032 40.371C72.0952 43.8744 69.8242 46.9136 66.8067 49.0649C63.7893 51.2162 60.1758 52.3724 56.47 52.3724C52.7642 52.3724 49.1508 51.2162 46.1333 49.0649C43.1159 46.9136 40.8449 43.8744 39.6369 40.371Z" fill="#265285"/>
<path d="M63.8291 40.3618C63.8262 38.4113 63.05 36.5415 61.6705 35.1626C60.291 33.7836 58.421 33.008 56.4705 33.0059H56.2673C56.9711 33.8474 57.3224 34.9284 57.2476 36.023C57.1728 37.1175 56.6777 38.1407 55.8659 38.8786C55.0542 39.6166 53.9885 40.0121 52.8918 39.9825C51.7952 39.9529 50.7524 39.5005 49.9816 38.7199C49.7924 38.53 49.6211 38.3233 49.4696 38.1022C49.2363 38.8309 49.1165 39.5912 49.1146 40.3563C49.0959 41.3344 49.2723 42.3064 49.6336 43.2154C49.9949 44.1245 50.5338 44.9524 51.2189 45.6507C51.9039 46.349 52.7213 46.9037 53.6233 47.2824C54.5252 47.6611 55.4937 47.8562 56.4719 47.8562C57.4501 47.8562 58.4185 47.6611 59.3205 47.2824C60.2224 46.9037 61.0398 46.349 61.7249 45.6507C62.4099 44.9524 62.9488 44.1245 63.3101 43.2154C63.6714 42.3064 63.8479 41.3344 63.8291 40.3563V40.3618Z" fill="#78B0ED" fill-opacity="0.5"/>
<path d="M56.4708 31.4668C55.8332 31.4669 55.1975 31.5351 54.5743 31.67C54.5259 31.6804 54.4786 31.6959 54.4334 31.7161C53.6746 31.4444 52.8543 31.3936 52.0677 31.5696C51.2812 31.7456 50.5607 32.1412 49.9901 32.7104C49.5659 33.1342 49.2363 33.6431 49.0229 34.2034C48.8095 34.7638 48.7172 35.363 48.7519 35.9616C47.7812 37.6608 47.3978 39.6325 47.6609 41.5716C47.924 43.5107 48.8191 45.3089 50.2075 46.6879C51.5958 48.0669 53.4001 48.9498 55.3409 49.1998C57.2817 49.4498 59.2508 49.053 60.9433 48.0708C62.6358 47.0887 63.9574 45.5759 64.7033 43.7668C65.4492 41.9577 65.5779 39.9532 65.0695 38.0635C64.5611 36.1738 63.4439 34.5045 61.891 33.3139C60.338 32.1233 58.4358 31.4779 56.479 31.4776L56.4708 31.4668ZM49.115 40.3616C49.1169 39.5965 49.2366 38.8362 49.4699 38.1074C49.6214 38.3285 49.7928 38.5353 49.9819 38.7252C50.7527 39.5058 51.7955 39.9582 52.8922 39.9878C53.9888 40.0174 55.0545 39.6218 55.8663 38.8839C56.678 38.146 57.1731 37.1227 57.2479 36.0282C57.3227 34.9337 56.9715 33.8527 56.2676 33.0111H56.4708C57.9265 33.0106 59.3495 33.4418 60.5601 34.2502C61.7706 35.0585 62.7142 36.2078 63.2715 37.5525C63.8287 38.8972 63.9747 40.377 63.6909 41.8047C63.407 43.2324 62.7061 44.5438 61.6768 45.5731C60.6476 46.6024 59.3361 47.3033 57.9085 47.5871C56.4808 47.8709 55.001 47.725 53.6563 47.1677C52.3116 46.6104 51.1623 45.6668 50.354 44.4563C49.5456 43.2457 49.1144 41.8227 49.115 40.367V40.3616ZM51.0711 33.7996C51.4503 33.4213 51.9331 33.164 52.4584 33.06C52.9838 32.956 53.5282 33.01 54.0229 33.2153C54.5175 33.4206 54.9403 33.7678 55.2377 34.2133C55.5351 34.6587 55.6938 35.1822 55.6938 35.7178C55.6938 36.2533 55.5351 36.7769 55.2377 37.2223C54.9403 37.6677 54.5175 38.015 54.0229 38.2202C53.5282 38.4255 52.9838 38.4796 52.4584 38.3756C51.9331 38.2716 51.4503 38.0142 51.0711 37.636C50.8188 37.3843 50.6186 37.0853 50.482 36.7562C50.3454 36.427 50.2751 36.0742 50.2751 35.7178C50.2751 35.3614 50.3454 35.0085 50.482 34.6794C50.6186 34.3502 50.8188 34.0512 51.0711 33.7996Z" fill="#265285"/>
<path d="M51.0704 37.6354C51.4496 38.0136 51.9324 38.271 52.4577 38.375C52.9831 38.479 53.5275 38.4249 54.0222 38.2196C54.5168 38.0144 54.9396 37.6671 55.237 37.2217C55.5344 36.7763 55.6931 36.2527 55.6931 35.7172C55.6931 35.1816 55.5344 34.658 55.237 34.2126C54.9396 33.7672 54.5168 33.42 54.0222 33.2147C53.5275 33.0094 52.9831 32.9554 52.4577 33.0594C51.9324 33.1634 51.4496 33.4207 51.0704 33.7989C50.8181 34.0506 50.6179 34.3496 50.4813 34.6788C50.3447 35.0079 50.2744 35.3608 50.2744 35.7172C50.2744 36.0735 50.3447 36.4264 50.4813 36.7556C50.6179 37.0847 50.8181 37.3837 51.0704 37.6354Z" fill="white"/>
<path d="M73.4794 91.4852L70.3961 91.962C71.3506 90.7835 72.0057 89.3915 72.3057 87.905C72.6057 86.4184 72.5417 84.8814 72.119 83.4249C71.6963 81.9685 70.9276 80.6359 69.8784 79.5409C68.8292 78.4459 67.5307 77.6209 66.0937 77.1364C65.997 77.0999 65.8939 77.0833 65.7906 77.0876C65.6873 77.0918 65.5859 77.1168 65.4925 77.1611C65.3991 77.2054 65.3155 77.2681 65.2469 77.3454C65.1782 77.4227 65.1259 77.513 65.0929 77.611C65.0599 77.709 65.0471 77.8126 65.055 77.9157C65.063 78.0188 65.0917 78.1192 65.1393 78.2109C65.1869 78.3027 65.2526 78.3839 65.3323 78.4497C65.412 78.5155 65.5042 78.5646 65.6033 78.594C66.8437 79.0115 67.9601 79.7321 68.8513 80.6906C69.7425 81.649 70.3802 82.8149 70.7064 84.0824C71.0326 85.3498 71.037 86.6787 70.7193 87.9483C70.4016 89.2179 69.7717 90.388 68.887 91.3524L69.0469 87.4563C69.0551 87.2523 68.982 87.0533 68.8435 86.9031C68.7051 86.753 68.5126 86.664 68.3086 86.6557C68.1045 86.6475 67.9055 86.7206 67.7553 86.8591C67.6052 86.9975 67.5162 87.1899 67.508 87.394L67.2777 93.0837V93.1081C67.2777 93.1406 67.2777 93.1731 67.2777 93.2029V93.2544C67.2832 93.2848 67.2914 93.3147 67.302 93.3438C67.3008 93.36 67.3008 93.3763 67.302 93.3925C67.3177 93.4312 67.3368 93.4683 67.3589 93.5036L67.3752 93.528C67.3945 93.5586 67.4162 93.5877 67.4402 93.6147L67.4673 93.6445L67.5405 93.7095L67.573 93.7339C67.6089 93.7597 67.647 93.7823 67.6868 93.8017L67.8006 93.8423H67.8412C67.876 93.8504 67.9113 93.8558 67.9469 93.8586H68.001C68.0407 93.8612 68.0806 93.8612 68.1203 93.8586L73.6744 92.997C73.776 92.9833 73.8738 92.9496 73.9622 92.8976C74.0505 92.8457 74.1276 92.7766 74.1889 92.6944C74.2501 92.6123 74.2944 92.5187 74.319 92.4192C74.3436 92.3198 74.3481 92.2164 74.3323 92.1151C74.3164 92.0139 74.2804 91.9168 74.2265 91.8297C74.1726 91.7425 74.1018 91.667 74.0184 91.6075C73.9349 91.5481 73.8404 91.5059 73.7403 91.4835C73.6403 91.4611 73.5369 91.4589 73.436 91.477L73.4794 91.4852Z" fill="#265285"/>
<path d="M47.06 86.6535C48.7866 85.8448 50.6697 85.4256 52.5763 85.4256C54.4828 85.4256 56.366 85.8448 58.0925 86.6535C59.1518 85.5682 59.8673 84.1945 60.1496 82.7045C60.4319 81.2145 60.2684 79.6742 59.6796 78.2767C59.0907 76.8791 58.1027 75.6863 56.8392 74.8476C55.5756 74.0089 54.0928 73.5615 52.5763 73.5615C51.0597 73.5615 49.5769 74.0089 48.3133 74.8476C47.0498 75.6863 46.0618 76.8791 45.473 78.2767C44.8841 79.6742 44.7206 81.2145 45.0029 82.7045C45.2852 84.1945 46.0008 85.5682 47.06 86.6535ZM48.8509 78.4875C48.8516 77.869 49.0976 77.2761 49.5349 76.8388C49.9722 76.4015 50.5652 76.1555 51.1837 76.1548H51.8068V75.0846C51.8068 74.8805 51.8879 74.6848 52.0322 74.5405C52.1765 74.3962 52.3722 74.3151 52.5763 74.3151C52.7803 74.3151 52.976 74.3962 53.1204 74.5405C53.2647 74.6848 53.3457 74.8805 53.3457 75.0846V76.1548H53.9689C54.5873 76.1555 55.1802 76.4015 55.6176 76.8388C56.0549 77.2761 56.3009 77.869 56.3016 78.4875V79.3518C56.3016 79.5559 56.2206 79.7516 56.0763 79.8959C55.932 80.0402 55.7362 80.1213 55.5322 80.1213C55.3281 80.1213 55.1324 80.0402 54.9881 79.8959C54.8438 79.7516 54.7627 79.5559 54.7627 79.3518V78.4875C54.762 78.2772 54.6781 78.0757 54.5294 77.927C54.3807 77.7783 54.1792 77.6944 53.9689 77.6937H51.1837C50.9733 77.6944 50.7718 77.7783 50.6231 77.927C50.4744 78.0757 50.3905 78.2772 50.3898 78.4875V79.7745C50.3905 79.9845 50.4745 80.1858 50.6233 80.334C50.7721 80.4823 50.9736 80.5656 51.1837 80.5656H53.9689C54.5876 80.567 55.1805 80.8136 55.6177 81.2514C56.055 81.6891 56.3009 82.2823 56.3016 82.9011V84.6025C56.3016 84.8066 56.2206 85.0023 56.0763 85.1466C55.932 85.2909 55.7362 85.372 55.5322 85.372C55.3281 85.372 55.1324 85.2909 54.9881 85.1466C54.8438 85.0023 54.7627 84.8066 54.7627 84.6025V82.9146C54.7627 82.7041 54.6791 82.5022 54.5302 82.3533C54.3813 82.2044 54.1794 82.1208 53.9689 82.1208H51.1837C50.5654 82.1193 49.9729 81.8731 49.5357 81.4359C49.0986 80.9988 48.8523 80.4063 48.8509 79.788V78.4875ZM48.8509 83.2939C48.8509 83.0898 48.932 82.8941 49.0763 82.7498C49.2206 82.6055 49.4163 82.5245 49.6204 82.5245C49.8244 82.5245 50.0201 82.6055 50.1644 82.7498C50.3087 82.8941 50.3898 83.0898 50.3898 83.2939V84.6025C50.3898 84.8066 50.3087 85.0023 50.1644 85.1466C50.0201 85.2909 49.8244 85.372 49.6204 85.372C49.4163 85.372 49.2206 85.2909 49.0763 85.1466C48.932 85.0023 48.8509 84.8066 48.8509 84.6025V83.2939Z" fill="#78B0ED" fill-opacity="0.5"/>
<path d="M49.6212 85.3585C49.7222 85.3603 49.8226 85.3422 49.9167 85.3052C50.0107 85.2682 50.0965 85.213 50.1692 85.1428C50.242 85.0726 50.3001 84.9887 50.3404 84.8961C50.3807 84.8034 50.4024 84.7037 50.4042 84.6026V83.3075C50.4042 83.1035 50.3231 82.9078 50.1788 82.7635C50.0345 82.6192 49.8388 82.5381 49.6347 82.5381C49.4306 82.5381 49.2349 82.6192 49.0906 82.7635C48.9463 82.9078 48.8652 83.1035 48.8652 83.3075V84.6026C48.8687 84.802 48.9495 84.9923 49.0905 85.1333C49.2315 85.2743 49.4218 85.355 49.6212 85.3585Z" fill="#265285"/>
<path d="M51.1843 82.1077H53.9695C54.1801 82.1077 54.382 82.1913 54.5308 82.3402C54.6797 82.4891 54.7633 82.691 54.7633 82.9015V84.603C54.7633 84.8071 54.8444 85.0028 54.9887 85.1471C55.133 85.2914 55.3287 85.3724 55.5328 85.3724C55.7369 85.3724 55.9326 85.2914 56.0769 85.1471C56.2212 85.0028 56.3023 84.8071 56.3023 84.603V82.9151C56.3016 82.2963 56.0556 81.7031 55.6184 81.2654C55.1811 80.8276 54.5882 80.581 53.9695 80.5796H51.1843C50.9742 80.5796 50.7727 80.4963 50.6239 80.348C50.4751 80.1997 50.3912 79.9985 50.3905 79.7885V78.5015C50.3912 78.2912 50.475 78.0897 50.6238 77.941C50.7725 77.7923 50.974 77.7084 51.1843 77.7077H53.9695C54.1798 77.7084 54.3813 77.7923 54.53 77.941C54.6788 78.0897 54.7626 78.2912 54.7633 78.5015V79.3658C54.7633 79.5699 54.8444 79.7656 54.9887 79.9099C55.133 80.0542 55.3287 80.1353 55.5328 80.1353C55.7369 80.1353 55.9326 80.0542 56.0769 79.9099C56.2212 79.7656 56.3023 79.5699 56.3023 79.3658V78.5015C56.3015 77.8831 56.0555 77.2901 55.6182 76.8528C55.1809 76.4155 54.588 76.1695 53.9695 76.1688H53.3464V75.0986C53.3464 74.8945 53.2653 74.6988 53.121 74.5545C52.9767 74.4102 52.781 74.3291 52.5769 74.3291C52.3728 74.3291 52.1771 74.4102 52.0328 74.5545C51.8885 74.6988 51.8075 74.8945 51.8075 75.0986V76.1688H51.1843C50.5658 76.1695 49.9729 76.4155 49.5356 76.8528C49.0983 77.2901 48.8523 77.8831 48.8516 78.5015V79.7885C48.8566 80.4044 49.1044 80.9934 49.5411 81.4276C49.9779 81.8619 50.5684 82.1063 51.1843 82.1077Z" fill="#265285"/>
<path d="M52.5714 109.995C54.8488 109.995 57.075 109.32 58.9686 108.055C60.8622 106.79 62.3381 104.991 63.2096 102.887C64.0811 100.783 64.3091 98.4678 63.8648 96.2342C63.4205 94.0005 62.3239 91.9488 60.7135 90.3384C59.1031 88.7281 57.0514 87.6314 54.8178 87.1871C52.5842 86.7428 50.2689 86.9708 48.1649 87.8423C46.0608 88.7139 44.2625 90.1897 42.9972 92.0833C41.732 93.9769 41.0566 96.2032 41.0566 98.4806C41.0602 101.533 42.2745 104.46 44.4332 106.619C46.5918 108.777 49.5186 109.992 52.5714 109.995ZM46.134 94.9178C46.1347 94.249 46.4006 93.6079 46.8735 93.135C47.3464 92.6621 47.9876 92.3961 48.6564 92.3954H49.9054V90.9025C49.9054 90.6985 49.9864 90.5027 50.1307 90.3584C50.275 90.2141 50.4708 90.1331 50.6748 90.1331C50.8789 90.1331 51.0746 90.2141 51.2189 90.3584C51.3632 90.5027 51.4443 90.6985 51.4443 90.9025V92.3954H53.6985V90.9025C53.6985 90.6985 53.7795 90.5027 53.9238 90.3584C54.0681 90.2141 54.2638 90.1331 54.4679 90.1331C54.672 90.1331 54.8677 90.2141 55.012 90.3584C55.1563 90.5027 55.2374 90.6985 55.2374 90.9025V92.3954H56.4864C57.1551 92.3961 57.7963 92.6621 58.2692 93.135C58.7421 93.6079 59.0081 94.249 59.0088 94.9178C59.0088 95.1219 58.9277 95.3176 58.7834 95.4619C58.6391 95.6062 58.4434 95.6873 58.2393 95.6873C58.0353 95.6873 57.8395 95.6062 57.6952 95.4619C57.5509 95.3176 57.4699 95.1219 57.4699 94.9178C57.4691 94.6572 57.3653 94.4074 57.181 94.2231C56.9967 94.0389 56.747 93.935 56.4864 93.9343H55.2374V103.027H56.4864C56.747 103.026 56.9967 102.922 57.181 102.738C57.3653 102.554 57.4691 102.304 57.4699 102.043C57.4699 101.839 57.5509 101.644 57.6952 101.499C57.8395 101.355 58.0353 101.274 58.2393 101.274C58.4434 101.274 58.6391 101.355 58.7834 101.499C58.9277 101.644 59.0088 101.839 59.0088 102.043C59.0088 102.712 58.743 103.354 58.27 103.827C57.7969 104.3 57.1553 104.566 56.4864 104.566H55.2374V106.061C55.2374 106.265 55.1563 106.461 55.012 106.605C54.8677 106.75 54.672 106.831 54.4679 106.831C54.2638 106.831 54.0681 106.75 53.9238 106.605C53.7795 106.461 53.6985 106.265 53.6985 106.061V104.566H51.4443V106.061C51.4443 106.265 51.3632 106.461 51.2189 106.605C51.0746 106.75 50.8789 106.831 50.6748 106.831C50.4708 106.831 50.275 106.75 50.1307 106.605C49.9864 106.461 49.9054 106.265 49.9054 106.061V104.566H48.6564C47.9874 104.566 47.3458 104.3 46.8727 103.827C46.3997 103.354 46.134 102.712 46.134 102.043V94.9178Z" fill="white"/>
<path d="M53.7034 93.9336H51.4492V103.026H53.7034V93.9336Z" fill="white"/>
<path d="M48.6612 103.026H49.9103V93.9336H48.6612C48.4004 93.9336 48.1502 94.0372 47.9658 94.2217C47.7814 94.4061 47.6777 94.6563 47.6777 94.9171V102.043C47.6777 102.304 47.7814 102.554 47.9658 102.738C48.1502 102.923 48.4004 103.026 48.6612 103.026Z" fill="white"/>
<path d="M48.6611 104.566H49.9101V106.061C49.9101 106.265 49.9912 106.461 50.1355 106.605C50.2798 106.75 50.4755 106.831 50.6795 106.831C50.8836 106.831 51.0793 106.75 51.2236 106.605C51.3679 106.461 51.449 106.265 51.449 106.061V104.566H53.7032V106.061C53.7032 106.265 53.7842 106.461 53.9285 106.605C54.0728 106.75 54.2686 106.831 54.4726 106.831C54.6767 106.831 54.8724 106.75 55.0167 106.605C55.161 106.461 55.2421 106.265 55.2421 106.061V104.566H56.4911C57.1601 104.566 57.8017 104.3 58.2747 103.827C58.7478 103.354 59.0135 102.712 59.0135 102.043C59.0135 101.839 58.9324 101.643 58.7881 101.499C58.6438 101.355 58.4481 101.274 58.244 101.274C58.0399 101.274 57.8442 101.355 57.6999 101.499C57.5556 101.643 57.4746 101.839 57.4746 102.043C57.4739 102.304 57.37 102.554 57.1857 102.738C57.0015 102.922 56.7517 103.026 56.4911 103.027H55.2421V93.934H56.4911C56.7517 93.9348 57.0015 94.0386 57.1857 94.2229C57.37 94.4072 57.4739 94.6569 57.4746 94.9175C57.4746 95.1216 57.5556 95.3173 57.6999 95.4616C57.8442 95.6059 58.0399 95.687 58.244 95.687C58.4481 95.687 58.6438 95.6059 58.7881 95.4616C58.9324 95.3173 59.0135 95.1216 59.0135 94.9175C59.0128 94.2488 58.7468 93.6076 58.2739 93.1347C57.801 92.6618 57.1598 92.3958 56.4911 92.3951H55.2421V90.9023C55.2421 90.6982 55.161 90.5025 55.0167 90.3582C54.8724 90.2139 54.6767 90.1328 54.4726 90.1328C54.2686 90.1328 54.0728 90.2139 53.9285 90.3582C53.7842 90.5025 53.7032 90.6982 53.7032 90.9023V92.3951H51.449V90.9023C51.449 90.6982 51.3679 90.5025 51.2236 90.3582C51.0793 90.2139 50.8836 90.1328 50.6795 90.1328C50.4755 90.1328 50.2798 90.2139 50.1355 90.3582C49.9912 90.5025 49.9101 90.6982 49.9101 90.9023V92.3951H48.6611C47.9923 92.3958 47.3511 92.6618 46.8783 93.1347C46.4054 93.6076 46.1394 94.2488 46.1387 94.9175V102.043C46.1387 102.712 46.4044 103.354 46.8775 103.827C47.3505 104.3 47.9921 104.566 48.6611 104.566ZM47.6776 94.9175C47.6776 94.6567 47.7812 94.4065 47.9656 94.2221C48.1501 94.0377 48.4002 93.934 48.6611 93.934H49.9101V103.027H48.6611C48.4002 103.027 48.1501 102.923 47.9656 102.739C47.7812 102.554 47.6776 102.304 47.6776 102.043V94.9175ZM53.7032 103.027H51.449V93.934H53.7032V103.027Z" fill="#265285"/>
<path d="M21.5212 96.4287C21.1148 96.4282 20.7174 96.5482 20.3793 96.7737C20.0411 96.9991 19.7775 97.3199 19.6217 97.6952C19.4659 98.0706 19.425 98.4838 19.5042 98.8824C19.5833 99.281 19.779 99.6472 20.0664 99.9346C20.3537 100.222 20.7199 100.418 21.1186 100.497C21.5172 100.576 21.9303 100.535 22.3057 100.379C22.6811 100.223 23.0018 99.9598 23.2272 99.6217C23.4527 99.2835 23.5727 98.8861 23.5722 98.4797C23.5715 97.936 23.3552 97.4147 22.9707 97.0302C22.5862 96.6457 22.065 96.4294 21.5212 96.4287Z" fill="white"/>
<path d="M29.8994 104.023C29.4932 104.023 29.0962 104.144 28.7584 104.37C28.4207 104.595 28.1575 104.916 28.002 105.291C27.8466 105.666 27.8059 106.079 27.8852 106.478C27.9644 106.876 28.16 107.242 28.4472 107.529C28.7344 107.817 29.1004 108.012 29.4987 108.091C29.8971 108.171 30.31 108.13 30.6853 107.974C31.0606 107.819 31.3813 107.556 31.607 107.218C31.8326 106.88 31.9531 106.483 31.9531 106.077C31.9524 105.533 31.7358 105.011 31.3508 104.626C30.9658 104.241 30.4438 104.024 29.8994 104.023Z" fill="white"/>
<path d="M30.6687 102.568V99.2491H39.5472C39.7391 102.575 41.1954 105.701 43.6178 107.988C46.0402 110.274 49.2453 111.548 52.5765 111.548C55.9076 111.548 59.1127 110.274 61.5351 107.988C63.9575 105.701 65.4138 102.575 65.6057 99.2491H75.2998V102.568C74.4345 102.758 73.6698 103.26 73.1526 103.98C72.6354 104.699 72.4021 105.584 72.4975 106.464C72.5929 107.345 73.0104 108.159 73.6696 108.751C74.3288 109.343 75.1834 109.67 76.0692 109.67C76.955 109.67 77.8096 109.343 78.4689 108.751C79.1281 108.159 79.5455 107.345 79.6409 106.464C79.7363 105.584 79.503 104.699 78.9858 103.98C78.4686 103.26 77.7039 102.758 76.8387 102.568V99.2491H80.9406C81.1303 100.114 81.633 100.879 82.3522 101.396C83.0713 101.913 83.9562 102.147 84.8368 102.051C85.7175 101.956 86.5319 101.539 87.1235 100.879C87.7152 100.22 88.0424 99.3655 88.0424 98.4797C88.0424 97.5938 87.7152 96.7392 87.1235 96.08C86.5319 95.4208 85.7175 95.0034 84.8368 94.9079C83.9562 94.8125 83.0713 95.0458 82.3522 95.563C81.633 96.0803 81.1303 96.8449 80.9406 97.7102H65.6057C65.4812 95.6305 64.8609 93.6108 63.7966 91.8198C62.7324 90.0287 61.2551 88.5183 59.488 87.4146C60.674 86.0823 61.4495 84.4355 61.7211 82.6725C61.9926 80.9096 61.7486 79.1057 61.0185 77.4783C60.2884 75.8508 59.1033 74.4692 57.6059 73.4998C56.1086 72.5304 54.3629 72.0146 52.5792 72.0146C50.7954 72.0146 49.0497 72.5304 47.5524 73.4998C46.0551 74.4692 44.8699 75.8508 44.1398 77.4783C43.4097 79.1057 43.1657 80.9096 43.4373 82.6725C43.7088 84.4355 44.4843 86.0823 45.6703 87.4146C43.9033 88.5183 42.426 90.0287 41.3617 91.8198C40.2975 93.6108 39.6772 95.6305 39.5526 97.7102H25.0305C24.8408 96.8449 24.3381 96.0803 23.619 95.563C22.8999 95.0458 22.015 94.8125 21.1343 94.9079C20.2537 95.0034 19.4393 95.4208 18.8476 96.08C18.256 96.7392 17.9287 97.5938 17.9287 98.4797C17.9287 99.3655 18.256 100.22 18.8476 100.879C19.4393 101.539 20.2537 101.956 21.1343 102.051C22.015 102.147 22.8999 101.913 23.619 101.396C24.3381 100.879 24.8408 100.114 25.0305 99.2491H29.1298V102.568C28.8799 102.624 28.6366 102.706 28.4037 102.812C27.6292 103.167 27.0064 103.786 26.6465 104.559C26.2867 105.331 26.2133 106.206 26.4395 107.028C26.6657 107.849 27.1767 108.564 27.8812 109.043C28.5857 109.522 29.4377 109.735 30.2848 109.644C31.132 109.553 31.9191 109.163 32.5054 108.545C33.0918 107.927 33.439 107.12 33.4852 106.269C33.5313 105.418 33.2734 104.579 32.7574 103.901C32.2414 103.223 31.501 102.75 30.6687 102.568ZM74.0182 106.077C74.0182 105.671 74.1387 105.273 74.3644 104.936C74.59 104.598 74.9107 104.335 75.286 104.179C75.6613 104.024 76.0742 103.983 76.4726 104.062C76.8709 104.142 77.2369 104.337 77.5241 104.625C77.8113 104.912 78.0069 105.278 78.0861 105.676C78.1654 106.074 78.1247 106.487 77.9693 106.863C77.8139 107.238 77.5506 107.559 77.2129 107.784C76.8751 108.01 76.4781 108.13 76.0719 108.13C75.527 108.13 75.0044 107.914 74.6188 107.529C74.2332 107.144 74.0163 106.622 74.0155 106.077H74.0182ZM21.5219 100.533C21.1156 100.534 20.7183 100.414 20.3802 100.189C20.0421 99.9632 19.7785 99.6427 19.6226 99.2674C19.4668 98.8922 19.4257 98.4792 19.5047 98.0807C19.5836 97.6821 19.779 97.3159 20.0661 97.0284C20.3532 96.7409 20.7191 96.5451 21.1176 96.4656C21.516 96.3862 21.9291 96.4267 22.3045 96.582C22.6799 96.7374 23.0008 97.0006 23.2266 97.3384C23.4524 97.6762 23.5729 98.0734 23.5729 98.4797C23.5722 99.0236 23.356 99.5452 22.9716 99.9301C22.5872 100.315 22.0659 100.532 21.5219 100.533ZM52.571 73.5617C54.0875 73.5618 55.5703 74.0091 56.8337 74.8478C58.0971 75.6865 59.0851 76.8793 59.674 78.2768C60.2628 79.6743 60.4263 81.2144 60.1441 82.7044C59.8619 84.1944 59.1464 85.568 58.0873 86.6533C56.3608 85.8446 54.4776 85.4254 52.571 85.4254C50.6645 85.4254 48.7813 85.8446 47.0548 86.6533C45.9957 85.568 45.2802 84.1944 44.998 82.7044C44.7158 81.2144 44.8793 79.6743 45.4681 78.2768C46.057 76.8793 47.045 75.6865 48.3084 74.8478C49.5718 74.0091 51.0546 73.5618 52.571 73.5617ZM52.571 86.9649C54.8484 86.9649 57.0747 87.6402 58.9683 88.9055C60.8619 90.1707 62.3377 91.9691 63.2093 94.0731C64.0808 96.1772 64.3088 98.4924 63.8645 100.726C63.4202 102.96 62.3235 105.011 60.7132 106.622C59.1028 108.232 57.0511 109.329 54.8175 109.773C52.5838 110.217 50.2686 109.989 48.1646 109.118C46.0605 108.246 44.2622 106.771 42.9969 104.877C41.7317 102.983 41.0563 100.757 41.0563 98.4797C41.0599 95.4268 42.2742 92.5001 44.4329 90.3414C46.5915 88.1828 49.5183 86.9685 52.571 86.9649ZM86.4948 98.4797C86.4953 98.8861 86.3753 99.2835 86.1498 99.6216C85.9244 99.9598 85.6036 100.223 85.2283 100.379C84.8529 100.535 84.4397 100.576 84.0411 100.497C83.6425 100.418 83.2763 100.222 82.9889 99.9345C82.7015 99.6472 82.5059 99.281 82.4268 98.8823C82.3476 98.4837 82.3885 98.0706 82.5443 97.6952C82.7 97.3198 82.9637 96.9991 83.3018 96.7736C83.64 96.5482 84.0374 96.4281 84.4438 96.4287C84.9883 96.4287 85.5105 96.6446 85.896 97.0291C86.2815 97.4135 86.4988 97.9352 86.5002 98.4797H86.4948ZM29.8992 108.13C29.4931 108.13 29.096 108.01 28.7583 107.784C28.4205 107.559 28.1573 107.238 28.0019 106.863C27.8464 106.487 27.8058 106.074 27.885 105.676C27.9642 105.278 28.1598 104.912 28.4471 104.625C28.7343 104.337 29.1002 104.142 29.4986 104.062C29.8969 103.983 30.3099 104.024 30.6851 104.179C31.0604 104.335 31.3812 104.598 31.6068 104.936C31.8325 105.273 31.9529 105.671 31.9529 106.077C31.9522 106.621 31.7356 107.143 31.3506 107.528C30.9656 107.913 30.4437 108.13 29.8992 108.13Z" fill="#265285"/>
<path d="M82.3965 98.4797C82.396 98.886 82.5159 99.2833 82.7413 99.6214C82.9666 99.9595 83.2872 100.223 83.6624 100.379C84.0376 100.535 84.4506 100.576 84.8492 100.497C85.2477 100.418 85.6139 100.223 85.9014 99.9355C86.1889 99.6484 86.3847 99.2825 86.4642 98.8841C86.5437 98.4856 86.5032 98.0725 86.3478 97.6971C86.1924 97.3217 85.9292 97.0008 85.5914 96.775C85.2537 96.5492 84.8565 96.4287 84.4502 96.4287C83.9062 96.4294 83.3846 96.6457 82.9997 97.0301C82.6148 97.4145 82.3979 97.9357 82.3965 98.4797Z" fill="white"/>
<path d="M78.123 106.077C78.123 105.671 78.0026 105.274 77.7769 104.936C77.5512 104.598 77.2305 104.335 76.8552 104.18C76.48 104.024 76.067 103.984 75.6687 104.063C75.2703 104.142 74.9043 104.338 74.6171 104.625C74.3299 104.912 74.1343 105.278 74.0551 105.676C73.9758 106.075 74.0165 106.488 74.172 106.863C74.3274 107.238 74.5906 107.559 74.9283 107.785C75.2661 108.01 75.6631 108.131 76.0693 108.131C76.6138 108.13 77.1357 107.914 77.5207 107.529C77.9057 107.144 78.1223 106.622 78.123 106.077Z" fill="white"/>
<path d="M69.5473 129.36H68.198C67.5067 129.36 66.9463 129.921 66.9463 130.612V135.332C66.9463 136.023 67.5067 136.583 68.198 136.583H69.5473C70.2386 136.583 70.799 136.023 70.799 135.332V130.612C70.799 129.921 70.2386 129.36 69.5473 129.36Z" fill="white"/>
<path d="M44.6978 140.489V117.315L40.5281 124.85C40.4621 124.971 40.3649 125.071 40.2467 125.141C40.1285 125.211 39.9936 125.248 39.8562 125.248H25.0713V139.245C25.072 139.575 25.2033 139.89 25.4363 140.124C25.6694 140.357 25.9853 140.488 26.3149 140.489H44.6978Z" fill="white"/>
<path d="M80.832 125.243H51.0075C50.8693 125.243 50.7337 125.206 50.615 125.135C50.4962 125.064 50.3988 124.963 50.3329 124.842L46.2363 117.334V140.483H79.5884C79.918 140.482 80.2339 140.351 80.4669 140.118C80.7 139.885 80.8313 139.569 80.832 139.239V125.243ZM56.2961 137.348C56.2961 137.552 56.2151 137.748 56.0708 137.892C55.9265 138.036 55.7308 138.117 55.5267 138.117C55.3226 138.117 55.1269 138.036 54.9826 137.892C54.8383 137.748 54.7572 137.552 54.7572 137.348V128.591C54.7572 128.387 54.8383 128.192 54.9826 128.047C55.1269 127.903 55.3226 127.822 55.5267 127.822C55.7308 127.822 55.9265 127.903 56.0708 128.047C56.2151 128.192 56.2961 128.387 56.2961 128.591V137.348ZM60.1786 136.579H61.5333C61.8655 136.579 62.1842 136.447 62.4194 136.212C62.6545 135.977 62.787 135.659 62.7877 135.327C62.7877 135.123 62.8688 134.927 63.0131 134.783C63.1574 134.638 63.3531 134.557 63.5572 134.557C63.7613 134.557 63.957 134.638 64.1013 134.783C64.2456 134.927 64.3266 135.123 64.3266 135.327C64.3259 136.067 64.0313 136.777 63.5075 137.3C62.9837 137.824 62.2737 138.117 61.5333 138.117H60.1786C59.4385 138.117 58.7288 137.823 58.2052 137.299C57.6816 136.776 57.3867 136.067 57.3853 135.327V130.613C57.3867 129.872 57.6816 129.163 58.2052 128.64C58.7288 128.117 59.4385 127.823 60.1786 127.822H61.5333C62.2737 127.822 62.9837 128.116 63.5075 128.639C64.0313 129.162 64.3259 129.872 64.3266 130.613C64.3266 130.817 64.2456 131.012 64.1013 131.157C63.957 131.301 63.7613 131.382 63.5572 131.382C63.3531 131.382 63.1574 131.301 63.0131 131.157C62.8688 131.012 62.7877 130.817 62.7877 130.613C62.787 130.28 62.6545 129.962 62.4194 129.727C62.1842 129.493 61.8655 129.361 61.5333 129.361H60.1786C59.8464 129.361 59.5277 129.493 59.2926 129.727C59.0574 129.962 58.9249 130.28 58.9242 130.613V135.332C58.9249 135.664 59.0574 135.983 59.2926 136.218C59.5277 136.452 59.8464 136.584 60.1786 136.584V136.579ZM72.3382 135.327C72.3375 136.067 72.0432 136.776 71.52 137.299C70.9969 137.823 70.2875 138.117 69.5476 138.117H68.1929C67.453 138.117 66.7436 137.823 66.2204 137.299C65.6972 136.776 65.403 136.067 65.4022 135.327V130.613C65.403 129.873 65.6972 129.163 66.2204 128.64C66.7436 128.117 67.453 127.823 68.1929 127.822H69.5476C70.2875 127.823 70.9969 128.117 71.52 128.64C72.0432 129.163 72.3375 129.873 72.3382 130.613V135.327Z" fill="white"/>
<path d="M39.3997 123.709L44.1682 115.091H24.6636L19.9629 123.709H39.3997Z" fill="#78B0ED" fill-opacity="0.5"/>
<path d="M51.4634 123.709H85.9101L81.1443 115.091H46.7627L51.4634 123.709Z" fill="#78B0ED" fill-opacity="0.5"/>
<path d="M87.2154 125.243C87.3495 125.243 87.4814 125.208 87.5979 125.142C87.7144 125.075 87.8113 124.979 87.8791 124.863C87.9451 124.747 87.9799 124.615 87.9799 124.481C87.9799 124.347 87.9451 124.216 87.8791 124.099L82.3006 114.015C82.2492 113.896 82.168 113.793 82.0649 113.714L81.989 113.663L81.9619 113.649C81.9249 113.628 81.8859 113.611 81.8454 113.598L81.7777 113.576H81.7235C81.6847 113.574 81.6458 113.574 81.607 113.576H24.2095C24.0711 113.576 23.9352 113.614 23.8161 113.684C23.697 113.755 23.5989 113.856 23.5322 113.977L17.9915 124.137C17.9284 124.255 17.8967 124.387 17.8996 124.52C17.9025 124.653 17.9399 124.783 18.0081 124.898C18.0763 125.013 18.173 125.108 18.2888 125.174C18.4046 125.24 18.5355 125.275 18.6689 125.275H23.5457V139.272C23.5507 140.005 23.844 140.706 24.3622 141.224C24.8804 141.742 25.5818 142.036 26.3147 142.041H79.5885C79.9551 142.04 80.318 141.968 80.6565 141.827C80.9949 141.686 81.3023 141.48 81.561 141.22C81.8197 140.961 82.0247 140.652 82.1641 140.313C82.3036 139.974 82.3748 139.611 82.3738 139.245V125.243H87.2154ZM79.5885 140.483H46.2365V117.34L50.333 124.847C50.3989 124.969 50.4964 125.07 50.6151 125.141C50.7339 125.211 50.8695 125.248 51.0076 125.248H80.8321V139.245C80.8314 139.574 80.7002 139.89 80.4671 140.123C80.234 140.356 79.9181 140.488 79.5885 140.488V140.483ZM25.0711 139.245V125.243H39.856C39.9934 125.243 40.1282 125.206 40.2465 125.136C40.3647 125.065 40.4619 124.965 40.5279 124.844L44.6976 117.31V140.483H26.3147C25.986 140.482 25.6709 140.352 25.438 140.12C25.2051 139.888 25.0732 139.573 25.0711 139.245ZM24.6647 115.091H44.172L39.4035 123.709H19.964L24.6647 115.091ZM81.1437 115.091L85.9095 123.709H51.4655L46.7621 115.091H81.1437Z" fill="#265285"/>
<path d="M55.5273 127.822C55.4262 127.822 55.3262 127.842 55.2328 127.881C55.1395 127.92 55.0547 127.976 54.9832 128.048C54.9118 128.119 54.8551 128.204 54.8164 128.297C54.7777 128.391 54.7578 128.491 54.7578 128.592V137.354C54.7578 137.558 54.8389 137.754 54.9832 137.898C55.1275 138.042 55.3232 138.123 55.5273 138.123C55.7314 138.123 55.9271 138.042 56.0714 137.898C56.2157 137.754 56.2967 137.558 56.2967 137.354V128.592C56.2967 128.491 56.2768 128.391 56.2382 128.297C56.1995 128.204 56.1428 128.119 56.0714 128.048C55.9999 127.976 55.9151 127.92 55.8217 127.881C55.7284 127.842 55.6283 127.822 55.5273 127.822Z" fill="#265285"/>
<path d="M60.1791 129.361H61.5337C61.866 129.361 62.1846 129.493 62.4198 129.728C62.655 129.962 62.7874 130.281 62.7882 130.613C62.7882 130.817 62.8693 131.013 63.0136 131.157C63.1579 131.301 63.3536 131.382 63.5576 131.382C63.7617 131.382 63.9574 131.301 64.1017 131.157C64.246 131.013 64.3271 130.817 64.3271 130.613C64.3264 129.873 64.0317 129.163 63.508 128.639C62.9842 128.116 62.2741 127.822 61.5337 127.822H60.1791C59.4389 127.823 58.7292 128.117 58.2056 128.64C57.682 129.163 57.3872 129.873 57.3857 130.613V135.333C57.3872 136.073 57.682 136.782 58.2056 137.305C58.7292 137.828 59.4389 138.123 60.1791 138.123H61.5337C62.2741 138.123 62.9842 137.829 63.508 137.306C64.0317 136.783 64.3264 136.073 64.3271 135.333C64.3271 135.129 64.246 134.933 64.1017 134.789C63.9574 134.644 63.7617 134.563 63.5576 134.563C63.3536 134.563 63.1579 134.644 63.0136 134.789C62.8693 134.933 62.7882 135.129 62.7882 135.333C62.7874 135.665 62.655 135.983 62.4198 136.218C62.1846 136.453 61.866 136.584 61.5337 136.584H60.1791C59.8468 136.584 59.5282 136.453 59.293 136.218C59.0578 135.983 58.9254 135.665 58.9246 135.333V130.613C58.9254 130.281 59.0578 129.962 59.293 129.728C59.5282 129.493 59.8468 129.361 60.1791 129.361Z" fill="#265285"/>
<path d="M69.5477 127.822H68.193C67.4531 127.823 66.7437 128.117 66.2205 128.64C65.6973 129.164 65.4031 129.873 65.4023 130.613V135.333C65.4031 136.072 65.6973 136.782 66.2205 137.305C66.7437 137.828 67.4531 138.123 68.193 138.123H69.5477C70.2876 138.123 70.9969 137.828 71.5201 137.305C72.0433 136.782 72.3375 136.072 72.3383 135.333V130.613C72.3375 129.873 72.0433 129.164 71.5201 128.64C70.9969 128.117 70.2876 127.823 69.5477 127.822ZM70.7994 135.333C70.7994 135.665 70.6675 135.983 70.4328 136.218C70.198 136.452 69.8796 136.584 69.5477 136.584H68.193C67.861 136.584 67.5426 136.452 67.3079 136.218C67.0731 135.983 66.9413 135.665 66.9413 135.333V130.613C66.9413 130.281 67.0731 129.963 67.3079 129.728C67.5426 129.493 67.861 129.361 68.193 129.361H69.5477C69.8796 129.361 70.198 129.493 70.4328 129.728C70.6675 129.963 70.7994 130.281 70.7994 130.613V135.333Z" fill="#265285"/>
</svg>
