<svg width="149" height="153" viewBox="0 0 149 153" fill="none" xmlns="http://www.w3.org/2000/svg">
<path d="M67.3317 16.4575C67.3644 16.4598 67.3972 16.4598 67.4299 16.4575C69.355 16.1722 71.3199 15.9757 73.2778 15.8704C73.3665 15.8681 73.4539 15.8481 73.5347 15.8114C73.6155 15.7748 73.6882 15.7224 73.7484 15.6572C73.8087 15.592 73.8552 15.5154 73.8854 15.432C73.9155 15.3485 73.9287 15.2598 73.924 15.1712C73.9193 15.0826 73.8969 14.9958 73.8581 14.916C73.8193 14.8361 73.7649 14.7649 73.6982 14.7065C73.6314 14.648 73.5536 14.6035 73.4693 14.5756C73.3851 14.5477 73.2961 14.537 73.2076 14.5441C71.2147 14.6494 69.2077 14.8505 67.2428 15.1429C67.0768 15.1673 66.9261 15.2535 66.8211 15.3844C66.716 15.5152 66.6644 15.681 66.6765 15.8483C66.6887 16.0157 66.7637 16.1722 66.8866 16.2865C67.0094 16.4008 67.1709 16.4644 67.3387 16.4645L67.3317 16.4575Z" fill="#265285"/>
<path d="M79.1586 15.7993C80.7446 15.832 83.0042 15.9139 84.7726 16.1127H84.8474C85.0214 16.1193 85.1909 16.0574 85.3196 15.9402C85.4484 15.8231 85.526 15.6601 85.5358 15.4863C85.5456 15.3125 85.4868 15.1419 85.3721 15.011C85.2573 14.8801 85.0958 14.7995 84.9223 14.7864C83.1118 14.5829 80.8077 14.4987 79.1961 14.466C79.0199 14.4622 78.8494 14.5287 78.7222 14.6506C78.595 14.7726 78.5214 14.9401 78.5177 15.1162C78.514 15.2924 78.5804 15.4629 78.7024 15.5901C78.8243 15.7173 78.9918 15.7909 79.168 15.7946L79.1586 15.7993Z" fill="#265285"/>
<path d="M37.7518 127.577C35.8684 126.083 34.0721 124.483 32.3718 122.784C32.3127 122.713 32.2394 122.655 32.1568 122.614C32.0741 122.573 31.9838 122.55 31.8916 122.546C31.7994 122.541 31.7073 122.557 31.6213 122.59C31.5352 122.623 31.4571 122.674 31.3919 122.739C31.3266 122.805 31.2756 122.883 31.2423 122.969C31.2089 123.055 31.1938 123.147 31.1979 123.239C31.2021 123.331 31.2254 123.422 31.2664 123.504C31.3075 123.587 31.3652 123.66 31.4361 123.719C33.1717 125.454 35.0055 127.088 36.9284 128.613C37.0448 128.707 37.1902 128.758 37.3401 128.758C37.4784 128.758 37.6134 128.716 37.7263 128.636C37.8392 128.556 37.9244 128.443 37.9699 128.313C38.0155 128.182 38.0192 128.041 37.9805 127.908C37.9418 127.775 37.8627 127.658 37.7541 127.572L37.7518 127.577Z" fill="#265285"/>
<path d="M17.2827 98.5203C17.2556 98.4366 17.2121 98.3591 17.1548 98.2923C17.0976 98.2256 17.0276 98.1708 16.949 98.1313C16.8704 98.0918 16.7847 98.0683 16.697 98.0622C16.6092 98.056 16.5211 98.0674 16.4377 98.0956C16.3544 98.1238 16.2775 98.1682 16.2115 98.2264C16.1455 98.2845 16.0917 98.3552 16.0532 98.4344C16.0147 98.5135 15.9924 98.5994 15.9874 98.6873C15.9824 98.7751 15.9949 98.8631 16.0242 98.946C16.8095 101.271 17.7279 103.548 18.775 105.767C18.8293 105.88 18.9145 105.976 19.0209 106.043C19.1273 106.11 19.2505 106.146 19.3762 106.146C19.4749 106.147 19.5724 106.125 19.6616 106.083C19.8206 106.007 19.9432 105.872 20.0024 105.706C20.0616 105.54 20.0526 105.358 19.9773 105.199C18.9514 103.026 18.0516 100.796 17.2827 98.5203Z" fill="#265285"/>
<path d="M14.285 84.4534C14.2767 84.3665 14.2513 84.282 14.2104 84.2049C14.1695 84.1277 14.1138 84.0594 14.0464 84.0038C13.9791 83.9482 13.9015 83.9064 13.818 83.8808C13.7345 83.8552 13.6468 83.8463 13.5598 83.8546C13.4729 83.8629 13.3884 83.8882 13.3113 83.9291C13.2342 83.9701 13.1658 84.0258 13.1102 84.0931C13.0546 84.1605 13.0129 84.2381 12.9873 84.3216C12.9616 84.4051 12.9527 84.4928 12.961 84.5797C13.1928 87.0225 13.5653 89.4499 14.0768 91.8498C14.108 91.9989 14.1898 92.1328 14.3082 92.2286C14.4267 92.3245 14.5747 92.3766 14.7271 92.3761C14.7734 92.3759 14.8196 92.3712 14.8651 92.362C15.037 92.3244 15.1871 92.2206 15.283 92.073C15.3789 91.9255 15.4128 91.7461 15.3774 91.5737C14.8775 89.2231 14.5127 86.8458 14.285 84.4534Z" fill="#265285"/>
<path d="M49.9744 135.17C47.8002 134.143 45.6869 132.993 43.6448 131.724C43.495 131.631 43.3143 131.601 43.1426 131.641C42.9708 131.682 42.8221 131.788 42.729 131.938C42.6359 132.088 42.6062 132.269 42.6464 132.44C42.6865 132.612 42.7932 132.761 42.943 132.854C45.0255 134.15 47.1811 135.325 49.399 136.372C49.4871 136.415 49.5839 136.438 49.6821 136.437C49.808 136.437 49.9312 136.401 50.0376 136.333C50.1439 136.266 50.2291 136.17 50.2832 136.056C50.3597 135.898 50.3701 135.715 50.3122 135.549C50.2543 135.383 50.1329 135.246 49.9744 135.17Z" fill="#265285"/>
<path d="M23.4341 111.521C23.3385 111.377 23.1906 111.276 23.0218 111.24C22.853 111.203 22.6767 111.234 22.5301 111.325C22.3835 111.416 22.2782 111.561 22.2365 111.728C22.1948 111.896 22.2199 112.073 22.3067 112.223C23.603 114.306 25.0182 116.313 26.5452 118.234C26.6547 118.372 26.8145 118.461 26.9895 118.481C27.1646 118.501 27.3405 118.451 27.4785 118.342C27.6165 118.232 27.7054 118.072 27.7256 117.897C27.7457 117.722 27.6956 117.547 27.5861 117.408C26.0903 115.527 24.7041 113.561 23.4341 111.521Z" fill="#265285"/>
<path d="M132.268 108.833C132.192 108.79 132.108 108.763 132.022 108.753C131.935 108.742 131.847 108.749 131.763 108.773C131.679 108.797 131.6 108.837 131.532 108.891C131.463 108.945 131.406 109.012 131.363 109.088C130.186 111.184 128.889 113.211 127.48 115.158C127.428 115.229 127.39 115.31 127.369 115.396C127.348 115.481 127.344 115.57 127.358 115.658C127.372 115.745 127.403 115.828 127.45 115.903C127.497 115.978 127.558 116.043 127.63 116.094C127.742 116.177 127.879 116.221 128.018 116.22C128.123 116.221 128.227 116.196 128.321 116.149C128.414 116.101 128.495 116.032 128.556 115.947C129.996 113.958 131.319 111.888 132.521 109.748C132.565 109.671 132.594 109.587 132.605 109.499C132.617 109.412 132.61 109.323 132.587 109.237C132.563 109.152 132.523 109.073 132.468 109.003C132.414 108.934 132.346 108.876 132.268 108.833Z" fill="#265285"/>
<path d="M137.734 95.3598C137.65 95.3352 137.563 95.3274 137.476 95.337C137.389 95.3465 137.305 95.3731 137.229 95.4153C137.153 95.4575 137.085 95.5145 137.031 95.5828C136.977 95.6512 136.937 95.7296 136.913 95.8136C136.248 98.1236 135.45 100.393 134.523 102.611C134.489 102.692 134.471 102.778 134.471 102.865C134.47 102.953 134.487 103.039 134.52 103.12C134.553 103.201 134.602 103.274 134.663 103.336C134.725 103.398 134.798 103.448 134.878 103.481C134.959 103.515 135.045 103.533 135.132 103.533C135.219 103.534 135.306 103.517 135.387 103.484C135.468 103.451 135.541 103.402 135.603 103.341C135.665 103.279 135.714 103.206 135.748 103.126C136.696 100.86 137.511 98.541 138.19 96.1809C138.239 96.0115 138.218 95.8299 138.132 95.6759C138.047 95.5219 137.903 95.4083 137.734 95.3598Z" fill="#265285"/>
<path d="M139.966 80.9894C139.878 80.9843 139.79 80.9967 139.707 81.0258C139.625 81.0549 139.548 81.1001 139.483 81.1588C139.418 81.2175 139.365 81.2886 139.327 81.3679C139.29 81.4473 139.268 81.5333 139.264 81.6209C139.144 84.0211 138.887 86.4125 138.494 88.7834C138.48 88.8696 138.483 88.9577 138.503 89.0428C138.522 89.128 138.559 89.2083 138.609 89.2794C138.66 89.3504 138.725 89.4108 138.799 89.4569C138.873 89.5031 138.956 89.5341 139.042 89.5483C139.078 89.5506 139.114 89.5506 139.149 89.5483C139.307 89.5487 139.459 89.4932 139.579 89.3916C139.699 89.29 139.779 89.149 139.804 88.9939C140.206 86.5728 140.468 84.1306 140.59 81.6794C140.597 81.5055 140.536 81.3358 140.419 81.2068C140.302 81.0777 140.139 80.9997 139.966 80.9894Z" fill="#265285"/>
<path d="M112.07 130.179C110.087 131.538 108.028 132.781 105.904 133.903C105.773 133.974 105.67 134.085 105.61 134.22C105.55 134.356 105.537 134.507 105.572 134.651C105.608 134.795 105.691 134.923 105.807 135.014C105.923 135.106 106.067 135.156 106.215 135.157C106.323 135.157 106.43 135.13 106.526 135.08C108.695 133.933 110.797 132.662 112.82 131.274C112.896 131.227 112.962 131.164 113.013 131.091C113.064 131.017 113.1 130.934 113.118 130.846C113.136 130.759 113.137 130.668 113.119 130.58C113.102 130.493 113.066 130.409 113.016 130.335C112.965 130.262 112.9 130.199 112.824 130.151C112.749 130.103 112.664 130.07 112.576 130.056C112.487 130.041 112.397 130.045 112.31 130.066C112.223 130.087 112.141 130.126 112.07 130.179Z" fill="#265285"/>
<path d="M122.927 120.742C121.305 122.515 119.582 124.195 117.769 125.773C117.703 125.83 117.649 125.9 117.609 125.978C117.57 126.056 117.546 126.141 117.54 126.228C117.533 126.315 117.544 126.402 117.571 126.485C117.599 126.568 117.642 126.645 117.699 126.711C117.756 126.777 117.826 126.832 117.904 126.871C117.982 126.91 118.066 126.934 118.154 126.941C118.241 126.947 118.328 126.936 118.411 126.909C118.494 126.882 118.571 126.838 118.637 126.781C120.49 125.168 122.249 123.45 123.905 121.635C124.024 121.505 124.087 121.333 124.079 121.157C124.071 120.981 123.994 120.815 123.864 120.696C123.734 120.577 123.562 120.514 123.386 120.522C123.21 120.53 123.044 120.607 122.925 120.737L122.927 120.742Z" fill="#265285"/>
<path d="M88.5114 67.1713V33.4666C82.5026 31.8925 76.2397 31.5355 70.0909 32.4164C63.9421 33.2973 58.0315 35.3985 52.7063 38.5963V41.3659C57.2021 41.7121 61.4172 43.7822 64.6359 47.2441C67.9523 50.7779 69.804 55.4386 69.8171 60.2848L69.7703 72.8483C69.7696 73.0241 69.6994 73.1925 69.5749 73.3166C69.4504 73.4407 69.2817 73.5103 69.106 73.5103C68.9304 73.5091 68.7624 73.4386 68.6384 73.3142C68.5145 73.1899 68.4446 73.0216 68.444 72.846H62.016C62.016 73.0222 61.9461 73.1912 61.8215 73.3158C61.6969 73.4403 61.5279 73.5103 61.3517 73.5103C61.1756 73.5103 61.0066 73.4403 60.882 73.3158C60.7574 73.1912 60.6874 73.0222 60.6874 72.846H50.9918C50.9918 73.0222 50.9217 73.1912 50.7972 73.3158C50.6726 73.4403 50.5036 73.5103 50.3274 73.5103C50.1512 73.5103 49.9823 73.4403 49.8577 73.3158C49.7331 73.1912 49.6631 73.0222 49.6631 72.846H44.5498C44.5498 73.0222 44.4798 73.1912 44.3552 73.3158C44.2306 73.4403 44.0617 73.5103 43.8855 73.5103C43.7093 73.5103 43.5403 73.4403 43.4157 73.3158C43.2912 73.1912 43.2211 73.0222 43.2211 72.846H33.3056C33.3056 73.0222 33.2356 73.1912 33.111 73.3158C32.9864 73.4403 32.8174 73.5103 32.6413 73.5103C32.4651 73.5103 32.2961 73.4403 32.1715 73.3158C32.0469 73.1912 31.977 73.0222 31.977 72.846H30.5127C30.2889 74.709 30.1764 76.5836 30.1758 78.4599C30.1686 84.8435 31.4793 91.1597 34.026 97.0133C36.5726 102.867 40.3002 108.132 44.9755 112.478C44.2184 108.698 43.7903 104.859 43.696 101.005C43.6744 100.307 43.8358 99.6164 44.1641 99.0008C44.4924 98.3853 44.9762 97.8664 45.5673 97.4958L75.2041 79.2038C75.8514 78.8013 76.5985 78.5879 77.3608 78.5879C78.123 78.5879 78.8701 78.8013 79.5174 79.2038L109.152 97.4958C109.743 97.8664 110.227 98.3853 110.555 99.0008C110.883 99.6164 111.045 100.307 111.023 101.005C110.941 104.31 110.615 107.604 110.05 110.862C114.794 105.974 118.407 100.105 120.635 93.6685C122.864 87.2322 123.653 80.3854 122.948 73.6109H94.9393C93.2331 73.609 91.5974 72.9296 90.392 71.722C89.1866 70.5144 88.5101 68.8775 88.5114 67.1713Z" fill="#78B0ED" fill-opacity="0.5"/>
<path d="M127.708 7.22335C127.706 5.8723 127.169 4.57705 126.214 3.62128C125.259 2.66551 123.964 2.12712 122.613 2.12402H94.9391C93.5873 2.12588 92.2914 2.66372 91.3355 3.61963C90.3796 4.57554 89.8417 5.87149 89.8398 7.22335V8.28765H127.708V7.22335Z" fill="#265285"/>
<path d="M94.9391 72.2792H127.5C124.692 70.9786 122.371 68.8194 120.871 66.1133H89.8398V67.1799C89.8417 68.5318 90.3796 69.8277 91.3355 70.7836C92.2914 71.7395 93.5873 72.2774 94.9391 72.2792Z" fill="#265285"/>
<path d="M119.063 59.1007C119.059 56.9365 119.543 54.7992 120.48 52.8482H108.784C107.385 52.8463 106.044 52.2897 105.055 51.3005C104.066 50.3113 103.509 48.9701 103.507 47.5711V21.0523C103.509 19.6533 104.066 18.3121 105.055 17.3228C106.044 16.3336 107.385 15.777 108.784 15.7752H127.717V9.61621H89.8398V64.7755H120.218C119.453 62.9814 119.06 61.0509 119.063 59.1007Z" fill="white"/>
<path d="M141.054 17.1104H108.774C107.73 17.1141 106.73 17.5307 105.992 18.2691C105.255 19.0076 104.839 20.008 104.837 21.0518V47.5706C104.838 48.6174 105.255 49.621 105.995 50.3612C106.735 51.1015 107.739 51.5178 108.785 51.5191H121.211C122.435 49.5208 124.125 47.8493 126.137 46.648C128.149 45.4468 130.422 44.7517 132.762 44.6224C135.101 44.4931 137.437 44.9335 139.569 45.9058C141.701 46.8781 143.566 48.3532 145.002 50.2045V40.7427H137.599C135.811 40.6393 134.13 39.8562 132.901 38.5537C131.671 37.2512 130.986 35.528 130.986 33.7369C130.986 31.9459 131.671 30.2227 132.901 28.9202C134.13 27.6177 135.811 26.8346 137.599 26.7312H145.002V21.0518C145 20.006 144.583 19.0039 143.842 18.265C143.102 17.5262 142.099 17.111 141.054 17.1104Z" fill="#47A1D9" fill-opacity="0.5"/>
<path d="M131.92 33.7371C131.922 35.2422 132.52 36.6851 133.585 37.7493C134.649 38.8136 136.092 39.4123 137.597 39.4142H145V28.0693H137.597C136.093 28.0706 134.651 28.6678 133.587 29.7302C132.523 30.7925 131.924 32.2334 131.92 33.7371Z" fill="#265285"/>
<path d="M146.73 59.101C146.73 56.4963 145.958 53.9502 144.511 51.7845C143.064 49.6188 141.007 47.9309 138.601 46.9341C136.194 45.9373 133.546 45.6765 130.992 46.1847C128.437 46.6928 126.091 47.9471 124.249 49.7889C122.407 51.6306 121.153 53.9772 120.645 56.5318C120.137 59.0864 120.397 61.7343 121.394 64.1407C122.391 66.5471 124.079 68.6038 126.244 70.0509C128.41 71.498 130.956 72.2703 133.561 72.2703C137.052 72.2666 140.4 70.878 142.869 68.409C145.338 65.9401 146.727 62.5926 146.73 59.101ZM132.295 65.2319C132.171 65.3558 132.003 65.4256 131.828 65.426C131.652 65.4249 131.484 65.3552 131.36 65.2319L126.56 60.432C126.489 60.3729 126.431 60.2996 126.39 60.217C126.349 60.1343 126.326 60.044 126.322 59.9518C126.318 59.8596 126.333 59.7675 126.366 59.6815C126.399 59.5954 126.45 59.5173 126.516 59.452C126.581 59.3868 126.659 59.3358 126.745 59.3024C126.831 59.2691 126.923 59.254 127.015 59.2581C127.108 59.2623 127.198 59.2856 127.281 59.3266C127.363 59.3677 127.436 59.4254 127.496 59.4963L131.825 63.8261L141.806 53.845C141.865 53.7741 141.939 53.7163 142.021 53.6753C142.104 53.6343 142.194 53.6109 142.287 53.6068C142.379 53.6026 142.471 53.6177 142.557 53.6511C142.643 53.6845 142.721 53.7354 142.786 53.8007C142.852 53.8659 142.902 53.9441 142.936 54.0301C142.969 54.1162 142.984 54.2082 142.98 54.3004C142.976 54.3926 142.953 54.4829 142.912 54.5656C142.871 54.6483 142.813 54.7215 142.742 54.7806L132.295 65.2319Z" fill="white"/>
<path d="M146.324 52.2302C146.325 52.2147 146.325 52.199 146.324 52.1835V21.0519C146.322 19.6529 145.766 18.3117 144.777 17.3224C143.787 16.3332 142.446 15.7766 141.047 15.7748H129.031V7.22288C129.029 5.52067 128.353 3.88854 127.15 2.6838C125.948 1.47906 124.317 0.799871 122.615 0.794922H94.9406C93.2364 0.796779 91.6025 1.4746 90.3975 2.67968C89.1924 3.88475 88.5146 5.51865 88.5127 7.22288V67.1703C88.5146 68.8746 89.1924 70.5085 90.3975 71.7135C91.6025 72.9186 93.2364 73.5964 94.9406 73.5983H130.68C130.857 73.5958 131.025 73.5234 131.148 73.3971C133.226 73.7466 135.356 73.6388 137.389 73.0814C139.421 72.5239 141.308 71.5302 142.917 70.1693C144.526 68.8085 145.82 67.1132 146.707 65.2016C147.594 63.29 148.055 61.2079 148.055 59.1003C148.06 56.7018 147.465 54.3403 146.324 52.2302ZM89.8413 9.61581H127.71V15.7794H108.777C107.378 15.7813 106.038 16.3372 105.049 17.3255C104.06 18.3137 103.503 19.6537 103.5 21.0519V47.5707C103.501 48.9697 104.058 50.3109 105.047 51.3001C106.036 52.2893 107.378 52.8459 108.777 52.8478H120.472C119.585 54.7039 119.103 56.7276 119.057 58.7844C119.012 60.8412 119.405 62.8841 120.21 64.7774H89.8413V9.61581ZM89.8413 7.22288C89.8432 5.87102 90.3811 4.57507 91.337 3.61916C92.2929 2.66325 93.5888 2.12541 94.9406 2.12355H122.615C123.967 2.12541 125.263 2.66325 126.219 3.61916C127.175 4.57507 127.712 5.87102 127.714 7.22288V8.28718H89.8413V7.22288ZM145 28.0693V39.4141H137.597C136.842 39.4294 136.091 39.294 135.389 39.0156C134.687 38.7372 134.048 38.3216 133.508 37.793C132.969 37.2645 132.54 36.6336 132.248 35.9373C131.955 35.241 131.805 34.4934 131.805 33.7382C131.805 32.983 131.955 32.2353 132.248 31.5391C132.54 30.8428 132.969 30.2119 133.508 29.6833C134.048 29.1548 134.687 28.7391 135.389 28.4608C136.091 28.1824 136.842 28.0469 137.597 28.0623L145 28.0693ZM145 26.7383H137.597C135.739 26.7383 133.957 27.4764 132.643 28.7902C131.329 30.1041 130.591 31.886 130.591 33.744C130.591 35.6021 131.329 37.384 132.643 38.6978C133.957 40.0117 135.739 40.7498 137.597 40.7498H145V50.2116C143.564 48.3604 141.701 46.8852 139.569 45.9127C137.438 44.9402 135.102 44.4993 132.763 44.6278C130.424 44.7564 128.151 45.4506 126.139 46.6509C124.127 47.8512 122.436 49.5217 121.211 51.5191H108.779C107.733 51.5161 106.732 51.0988 105.993 50.3588C105.254 49.6188 104.839 48.6163 104.837 47.5707V21.0519C104.839 20.0053 105.255 19.0019 105.995 18.2621C106.736 17.5222 107.739 17.1064 108.786 17.1057H141.066C142.11 17.1101 143.11 17.5276 143.847 18.267C144.585 19.0065 144.999 20.0077 145 21.0519V26.7383ZM89.8413 66.1037H120.872C122.371 68.8133 124.692 70.9759 127.501 72.279H94.9406C93.5888 72.2772 92.2929 71.7393 91.337 70.7834C90.3811 69.8275 89.8432 68.5315 89.8413 67.1797V66.1037ZM120.393 59.1003C120.393 56.4956 121.165 53.9495 122.612 51.7838C124.059 49.6181 126.116 47.9302 128.522 46.9334C130.929 45.9366 133.577 45.6758 136.131 46.184C138.686 46.6921 141.032 47.9464 142.874 49.7882C144.716 51.6299 145.97 53.9765 146.478 56.5311C146.986 59.0857 146.726 61.7336 145.729 64.14C144.732 66.5464 143.044 68.6031 140.878 70.0502C138.713 71.4973 136.167 72.2696 133.562 72.2696C130.07 72.2659 126.723 70.8773 124.254 68.4083C121.785 65.9394 120.396 62.5919 120.393 59.1003Z" fill="#265285"/>
<path d="M142.747 53.8401C142.623 53.7167 142.455 53.6475 142.279 53.6475C142.104 53.6475 141.936 53.7167 141.811 53.8401L131.83 63.8212L127.501 59.4915C127.442 59.4206 127.368 59.3628 127.286 59.3218C127.203 59.2808 127.113 59.2575 127.02 59.2533C126.928 59.2491 126.836 59.2642 126.75 59.2976C126.664 59.331 126.586 59.382 126.521 59.4472C126.455 59.5125 126.405 59.5906 126.371 59.6767C126.338 59.7627 126.323 59.8547 126.327 59.9469C126.331 60.0391 126.354 60.1295 126.395 60.2121C126.436 60.2948 126.494 60.368 126.565 60.4271L131.365 65.2271C131.489 65.3504 131.657 65.4201 131.833 65.4212C132.008 65.4208 132.176 65.351 132.301 65.2271L142.752 54.7758C142.875 54.6507 142.943 54.4822 142.942 54.307C142.941 54.1317 142.871 53.9639 142.747 53.8401Z" fill="#265285"/>
<path d="M104.256 124.881C105.112 123.053 105.867 121.179 106.515 119.267C107.24 117.131 107.839 114.954 108.307 112.748C109.122 108.866 109.579 104.919 109.673 100.954C109.69 100.49 109.585 100.03 109.369 99.6199C109.152 99.2095 108.832 98.8629 108.44 98.6147L78.8037 80.3226C78.366 80.0505 77.8608 79.9062 77.3453 79.9062C76.8298 79.9062 76.3246 80.0505 75.8869 80.3226L46.2524 98.6147C45.8599 98.8624 45.5392 99.2088 45.3225 99.6193C45.1058 100.03 45.0006 100.49 45.0174 100.954C45.1126 104.919 45.5699 108.866 46.3834 112.748C46.8529 114.954 47.4512 117.131 48.1752 119.267C48.8239 121.179 49.5782 123.053 50.4348 124.881C57.8428 140.656 70.6378 148.078 75.7933 150.537C76.2778 150.769 76.8081 150.889 77.3453 150.889C77.8825 150.889 78.4128 150.769 78.8973 150.537C84.0551 148.069 96.8478 140.656 104.256 124.881ZM58.8112 114.549C58.8107 110.883 59.8974 107.299 61.9338 104.251C63.9702 101.202 66.8649 98.8261 70.2517 97.4228C73.6386 96.0196 77.3655 95.6522 80.9611 96.3671C84.5567 97.082 87.8596 98.8471 90.452 101.439C93.0445 104.031 94.8101 107.334 95.5254 110.93C96.2408 114.525 95.8739 118.252 94.4711 121.639C93.0682 125.026 90.6925 127.921 87.6443 129.958C84.5962 131.995 81.0125 133.082 77.3465 133.082C72.4327 133.076 67.7218 131.122 64.247 127.648C60.7723 124.173 58.8174 119.463 58.8112 114.549Z" fill="#47A1D9" fill-opacity="0.5"/>
<path d="M109.137 97.489L79.503 79.1969C78.8557 78.7944 78.1086 78.5811 77.3463 78.5811C76.5841 78.5811 75.837 78.7944 75.1897 79.1969L45.5529 97.489C44.9618 97.8595 44.478 98.3784 44.1497 98.994C43.8214 99.6096 43.66 100.3 43.6816 100.998C43.7759 104.852 44.204 108.691 44.9611 112.471C44.9985 112.658 45.0383 112.845 45.0781 113.033C45.5569 115.29 46.1685 117.518 46.9096 119.704C47.5747 121.66 48.3478 123.578 49.2253 125.449C56.8158 141.615 69.929 149.219 75.2154 151.738C75.8781 152.057 76.604 152.222 77.3393 152.222C78.0746 152.222 78.8006 152.057 79.4633 151.738C84.7474 149.219 97.8605 141.615 105.453 125.449C106.329 123.578 107.101 121.66 107.767 119.704C108.509 117.518 109.121 115.29 109.601 113.033C109.753 112.314 109.893 111.587 110.022 110.855C110.587 107.597 110.912 104.303 110.995 100.998C111.018 100.302 110.859 99.6118 110.533 98.9963C110.207 98.3809 109.726 97.8613 109.137 97.489ZM75.7932 150.536C70.6471 148.078 57.8427 140.655 50.4347 124.88C49.5781 123.052 48.8237 121.178 48.1751 119.266C47.4511 117.13 46.8528 114.953 46.3833 112.747C45.5698 108.866 45.1125 104.918 45.0172 100.953C45.0004 100.489 45.1057 100.029 45.3224 99.6188C45.5391 99.2083 45.8598 98.8619 46.2523 98.6141L75.8867 80.3221C76.3245 80.0499 76.8297 79.9057 77.3452 79.9057C77.8606 79.9057 78.3658 80.0499 78.8036 80.3221L108.44 98.6141C108.832 98.8623 109.152 99.2089 109.369 99.6193C109.585 100.03 109.69 100.49 109.673 100.953C109.579 104.918 109.122 108.866 108.307 112.747C107.839 114.954 107.24 117.13 106.515 119.266C105.867 121.178 105.112 123.052 104.256 124.88C96.8477 140.655 84.055 148.078 78.8972 150.536C78.4127 150.768 77.8824 150.888 77.3452 150.888C76.808 150.888 76.2776 150.768 75.7932 150.536Z" fill="#265285"/>
<path d="M94.5434 114.547C94.5434 111.144 93.5343 107.818 91.6439 104.989C89.7535 102.16 87.0665 99.9545 83.9229 98.6524C80.7792 97.3502 77.32 97.0095 73.9827 97.6734C70.6454 98.3372 67.5799 99.9758 65.1738 102.382C62.7677 104.788 61.1292 107.853 60.4653 111.191C59.8015 114.528 60.1422 117.987 61.4444 121.131C62.7465 124.275 64.9516 126.962 67.7809 128.852C70.6101 130.743 73.9364 131.752 77.3391 131.752C81.9004 131.747 86.2735 129.932 89.4989 126.707C92.7242 123.482 94.5384 119.109 94.5434 114.547ZM77.3391 127.412C77.1629 127.412 76.9939 127.342 76.8693 127.218C76.7447 127.093 76.6748 126.924 76.6748 126.748V124.119H75.3111C73.1193 124.119 71.3345 122.582 71.3345 120.692V120.554C71.3345 120.378 71.4045 120.209 71.5291 120.084C71.6537 119.96 71.8227 119.89 71.9988 119.89C72.175 119.89 72.344 119.96 72.4686 120.084C72.5932 120.209 72.6631 120.378 72.6631 120.554V120.699C72.6631 121.855 73.8491 122.804 75.3087 122.804H79.3648C80.822 122.804 82.008 121.869 82.008 120.699V117.307C82.008 116.152 80.822 115.202 79.3648 115.202H75.3087C73.117 115.202 71.3322 113.665 71.3322 111.775V108.402C71.3322 106.512 73.1146 104.975 75.3087 104.975H76.6724V102.344C76.6724 102.168 76.7424 101.999 76.867 101.874C76.9916 101.75 77.1605 101.68 77.3367 101.68C77.5129 101.68 77.6819 101.75 77.8065 101.874C77.9311 101.999 78.0011 102.168 78.0011 102.344V104.975H79.3648C81.5542 104.975 83.3413 106.512 83.3413 108.402C83.3312 108.572 83.2567 108.731 83.133 108.848C83.0093 108.964 82.8458 109.029 82.6758 109.029C82.5058 109.029 82.3423 108.964 82.2186 108.848C82.0949 108.731 82.0204 108.572 82.0103 108.402C82.0103 107.247 80.8244 106.297 79.3671 106.297H75.3111C73.8514 106.297 72.6655 107.233 72.6655 108.402V111.785C72.6655 112.943 73.8514 113.89 75.3111 113.89H79.3671C81.5565 113.89 83.3436 115.427 83.3436 117.314V120.699C83.3436 122.589 81.5589 124.126 79.3671 124.126H78.0034V126.757C78.0016 126.931 77.9317 127.097 77.8089 127.22C77.686 127.343 77.5198 127.413 77.3461 127.415L77.3391 127.412Z" fill="white"/>
<path d="M95.8801 114.547C95.8806 110.881 94.7938 107.297 92.7573 104.249C90.7208 101.2 87.826 98.8243 84.4391 97.4211C81.0521 96.018 77.3251 95.6507 73.7294 96.3658C70.1337 97.0809 66.8308 98.8463 64.2384 101.439C61.6461 104.031 59.8807 107.334 59.1656 110.93C58.4505 114.525 58.8178 118.252 60.2209 121.639C61.6241 125.026 64.0002 127.921 67.0487 129.958C70.0971 131.994 73.6811 133.081 77.3472 133.08C82.2607 133.075 86.9714 131.121 90.4458 127.646C93.9202 124.172 95.8745 119.461 95.8801 114.547ZM77.3472 131.752C73.9442 131.753 70.6172 130.745 67.7871 128.856C64.9569 126.966 62.7507 124.28 61.4475 121.136C60.1443 117.993 59.8025 114.533 60.4656 111.195C61.1286 107.858 62.7666 104.791 65.1724 102.385C67.5782 99.9778 70.6437 98.3386 73.9812 97.6742C77.3187 97.0098 80.7783 97.3501 83.9224 98.652C87.0664 99.954 89.7538 102.159 91.6445 104.988C93.5353 107.818 94.5445 111.144 94.5445 114.547C94.5395 119.108 92.7263 123.48 89.5025 126.705C86.2786 129.93 81.9073 131.745 77.3472 131.752Z" fill="#265285"/>
<path d="M78.011 124.12H79.3748C81.5642 124.12 83.3513 122.583 83.3513 120.693V117.308C83.3513 115.421 81.5665 113.884 79.3748 113.884H75.3187C73.8591 113.884 72.6731 112.948 72.6731 111.779V108.403C72.6731 107.248 73.8591 106.298 75.3187 106.298H79.3748C80.832 106.298 82.0179 107.234 82.0179 108.403C82.028 108.573 82.1025 108.732 82.2262 108.849C82.3499 108.966 82.5135 109.031 82.6835 109.031C82.8534 109.031 83.017 108.966 83.1407 108.849C83.2644 108.732 83.3389 108.573 83.3489 108.403C83.3489 106.513 81.5642 104.977 79.3724 104.977H78.0087V102.345C78.0087 102.169 77.9387 102 77.8141 101.875C77.6895 101.751 77.5206 101.681 77.3444 101.681C77.1682 101.681 76.9992 101.751 76.8746 101.875C76.7501 102 76.6801 102.169 76.6801 102.345V104.977H75.3164C73.1246 104.977 71.3398 106.513 71.3398 108.403V111.786C71.3398 113.676 73.1223 115.213 75.3164 115.213H79.3724C80.8297 115.213 82.0156 116.148 82.0156 117.318V120.7C82.0156 121.856 80.8297 122.805 79.3724 122.805H75.3164C73.8567 122.805 72.6708 121.87 72.6708 120.7V120.562C72.6708 120.386 72.6008 120.217 72.4762 120.092C72.3516 119.968 72.1827 119.898 72.0065 119.898C71.8303 119.898 71.6613 119.968 71.5368 120.092C71.4122 120.217 71.3422 120.386 71.3422 120.562V120.7C71.3422 122.59 73.1246 124.127 75.3187 124.127H76.6824V126.759C76.6824 126.935 76.7524 127.104 76.877 127.228C77.0016 127.353 77.1705 127.423 77.3467 127.423C77.5229 127.423 77.6919 127.353 77.8165 127.228C77.941 127.104 78.011 126.935 78.011 126.759V124.12Z" fill="#265285"/>
<path d="M7.06109 54.6489C7.09027 54.6513 7.1192 54.656 7.14764 54.6629L15.8024 56.5646C15.9503 56.5967 16.0828 56.6785 16.1777 56.7964C16.2726 56.9143 16.3243 57.0612 16.324 57.2126V60.6043H23.1707V54.7565C23.1748 54.0556 22.9062 53.3806 22.4217 52.8742C21.9371 52.3679 21.2746 52.0698 20.5743 52.0431L7.80261 51.7764C7.67509 51.7736 7.55097 51.7347 7.44471 51.6641L2.97698 48.6537C2.85719 48.5729 2.72221 48.5173 2.58025 48.4903C2.43829 48.4634 2.29232 48.4656 2.15126 48.4969C2.00547 48.5298 1.86798 48.5922 1.74728 48.6803C1.62658 48.7684 1.52523 48.8804 1.44952 49.0092C1.31513 49.26 1.27383 49.5502 1.33291 49.8285C1.39199 50.1067 1.54765 50.3551 1.77232 50.5297L6.45058 54.4033C6.62235 54.5487 6.83646 54.6349 7.06109 54.6489Z" fill="white"/>
<path d="M31.9697 57.1681C31.9697 56.9919 32.0397 56.823 32.1643 56.6984C32.2888 56.5738 32.4578 56.5038 32.634 56.5038C32.8102 56.5038 32.9791 56.5738 33.1037 56.6984C33.2283 56.823 33.2983 56.9919 33.2983 57.1681V72.8403H43.2139V59.0067C43.2139 58.369 43.371 57.7411 43.6712 57.1785C43.9715 56.6159 44.4057 56.136 44.9355 55.781C44.4056 55.4262 43.9713 54.9463 43.671 54.3836C43.3707 53.821 43.2137 53.1931 43.2139 52.5553V52.0875L41.9718 53.4068C41.9095 53.4726 41.8344 53.525 41.7511 53.5608C41.6679 53.5965 41.5782 53.615 41.4876 53.615C41.4456 53.6184 41.4033 53.6184 41.3613 53.615C41.2509 53.5929 41.1478 53.5434 41.0616 53.471C40.9754 53.3987 40.9087 53.3058 40.8677 53.2009L37.1415 43.5684C30.0118 45.9964 24.5102 52.8781 24.5102 60.2862L24.5266 64.7516L24.5102 69.4509C24.5096 69.6267 24.4393 69.7951 24.3148 69.9192C24.1903 70.0432 24.0217 70.1129 23.8459 70.1129C23.6697 70.1129 23.5007 70.0429 23.3762 69.9183C23.2516 69.7938 23.1816 69.6248 23.1816 69.4486V61.94H16.3232V72.8403H31.9697V57.1681Z" fill="white"/>
<path d="M48.4629 47.5057L50.7693 49.8893L50.7927 49.9127L52.5493 51.7255L55.6043 43.2041C54.6398 42.9421 53.6532 42.7698 52.657 42.6895C52.5153 43.818 52.0407 44.8788 51.2937 45.7366C50.5468 46.5944 49.5613 47.2103 48.4629 47.5057Z" fill="white"/>
<path d="M68.4832 60.2763C68.4832 52.6671 63.5897 46.0076 56.874 43.6006L53.4426 53.1794C53.4044 53.2855 53.34 53.3802 53.2553 53.4547C53.1707 53.5291 53.0685 53.5809 52.9583 53.6051C52.9121 53.6144 52.8651 53.6191 52.818 53.6191C52.6417 53.6161 52.4736 53.5438 52.3502 53.418L50.9935 52.0145V52.5525C50.9932 53.1904 50.8358 53.8184 50.5351 54.381C50.2344 54.9436 49.7997 55.4235 49.2695 55.7781C49.7996 56.133 50.2341 56.6129 50.5348 57.1754C50.8355 57.738 50.993 58.3659 50.9935 59.0038V72.8398H60.6892V57.1676C60.6892 56.9914 60.7592 56.8224 60.8837 56.6979C61.0083 56.5733 61.1773 56.5033 61.3535 56.5033C61.5297 56.5033 61.6986 56.5733 61.8232 56.6979C61.9478 56.8224 62.0178 56.9914 62.0178 57.1676V72.8398H68.4457L68.4832 60.2763Z" fill="white"/>
<path d="M45.571 47.5221C44.4598 47.235 43.4603 46.6209 42.7021 45.7593C41.9439 44.8976 41.4619 43.8282 41.3185 42.6895C40.3394 42.7692 39.3691 42.9328 38.418 43.1783L41.7278 51.7326L43.3863 49.9712L45.571 47.5221Z" fill="white"/>
<path d="M16.3235 61.9334H23.1702V69.442C23.1702 69.6182 23.2402 69.7872 23.3648 69.9118C23.4893 70.0364 23.6583 70.1063 23.8345 70.1063C24.0103 70.1063 24.1789 70.0367 24.3034 69.9126C24.4279 69.7885 24.4982 69.6201 24.4988 69.4444L24.5152 64.745L24.4988 60.2796C24.4988 52.8716 30.0122 45.9898 37.1301 43.5618L40.8563 53.1944C40.8973 53.2992 40.964 53.3921 41.0502 53.4645C41.1365 53.5368 41.2395 53.5863 41.3499 53.6084C41.3919 53.6119 41.4342 53.6119 41.4762 53.6084C41.5668 53.6084 41.6565 53.59 41.7398 53.5542C41.823 53.5184 41.8981 53.466 41.9604 53.4002L43.2025 52.0809V52.5488C43.2023 53.1865 43.3593 53.8144 43.6596 54.3771C43.9599 54.9397 44.3942 55.4196 44.9241 55.7744C44.3943 56.1294 43.9601 56.6094 43.6599 57.172C43.3596 57.7345 43.2025 58.3624 43.2025 59.0001V72.8408C43.2025 73.017 43.2725 73.186 43.3971 73.3105C43.5217 73.4351 43.6906 73.5051 43.8668 73.5051C44.043 73.5051 44.212 73.4351 44.3365 73.3105C44.4611 73.186 44.5311 73.017 44.5311 72.8408V59.0071C44.5311 58.3291 44.8005 57.6788 45.28 57.1993C45.7594 56.7198 46.4097 56.4504 47.0878 56.4504C47.7659 56.4504 48.4162 56.7198 48.8956 57.1993C49.3751 57.6788 49.6445 58.3291 49.6445 59.0071V72.8408C49.6445 73.017 49.7145 73.186 49.839 73.3105C49.9636 73.4351 50.1326 73.5051 50.3088 73.5051C50.485 73.5051 50.6539 73.4351 50.7785 73.3105C50.9031 73.186 50.9731 73.017 50.9731 72.8408V59.0071C50.9726 58.3693 50.8151 57.7413 50.5144 57.1788C50.2138 56.6162 49.7792 56.1363 49.2491 55.7815C49.7794 55.4268 50.214 54.9469 50.5147 54.3843C50.8154 53.8217 50.9728 53.1937 50.9731 52.5558V52.0178L52.3298 53.4213C52.4533 53.5472 52.6213 53.6194 52.7976 53.6224C52.8447 53.6224 52.8918 53.6177 52.938 53.6084C53.0481 53.5842 53.1503 53.5324 53.235 53.458C53.3196 53.3835 53.384 53.2888 53.4221 53.1827L56.8841 43.6016C63.5997 46.0155 68.4932 52.6681 68.4932 60.2773L68.4464 72.8385C68.447 73.0141 68.5169 73.1823 68.6408 73.3067C68.7648 73.4311 68.9328 73.5015 69.1084 73.5028C69.2841 73.5028 69.4528 73.4331 69.5773 73.309C69.7018 73.185 69.7721 73.0166 69.7727 72.8408L69.8195 60.2773C69.8009 55.4349 67.9469 50.7798 64.6313 47.2506C61.4173 43.7887 57.2022 41.7185 52.7017 41.3724V36.4204C54.5346 35.5576 56.0907 34.2009 57.1952 32.5026C58.2996 30.8044 58.9088 28.8318 58.9542 26.8065C59.8831 26.683 60.7633 26.3175 61.5065 25.7466C62.2496 25.1758 62.8298 24.4196 63.1887 23.554C63.5476 22.6883 63.6727 21.7435 63.5515 20.8143C63.4303 19.885 63.067 19.0039 62.498 18.2593V9.9507C62.4949 7.31175 61.4449 4.78184 59.5784 2.91626C57.712 1.05068 55.1816 0.00185703 52.5426 0L35.9348 0C35.7586 0 35.5897 0.0699902 35.4651 0.194574C35.3405 0.319157 35.2705 0.488128 35.2705 0.664316C35.2717 1.47094 35.4306 2.26954 35.7383 3.01515C33.1863 4.14495 31.5747 6.77415 31.5747 9.92029V18.147C30.978 18.8915 30.5908 19.7817 30.453 20.7258C30.3152 21.6699 30.4318 22.6336 30.7908 23.5176C31.1498 24.4015 31.7382 25.1737 32.4953 25.7543C33.2523 26.3349 34.1506 26.703 35.0974 26.8206C35.145 28.8313 35.7482 30.7896 36.8402 32.4786C37.9322 34.1676 39.4704 35.5214 41.2844 36.39V41.3607C36.7769 41.7115 32.2881 43.8238 28.887 47.2202C26.9574 49.1174 25.439 51.3914 24.4263 53.9008C24.2381 53.022 23.7611 52.2315 23.0714 51.6553C22.3816 51.0792 21.5188 50.7506 20.6205 50.7219L8.04302 50.4599L3.7367 47.5547C3.468 47.3723 3.16478 47.2469 2.84577 47.1862C2.52675 47.1254 2.19868 47.1306 1.88176 47.2015C1.5598 47.2731 1.25601 47.4102 0.989225 47.6041C0.722444 47.7981 0.498374 48.0448 0.330916 48.329C0.0335306 48.8525 -0.0678775 49.4647 0.0448353 50.0561C0.157548 50.6475 0.477028 51.1796 0.946109 51.557L5.62437 55.4306C5.98827 55.7344 6.43463 55.9226 6.90621 55.9709L15.0066 57.7487V72.8408C15.0066 73.017 15.0766 73.186 15.2012 73.3105C15.3258 73.4351 15.4948 73.5051 15.6709 73.5051C15.8471 73.5051 16.0161 73.4351 16.1407 73.3105C16.2653 73.186 16.3353 73.017 16.3353 72.8408L16.3235 61.9334ZM1.44669 49.012C1.52239 48.8831 1.62374 48.7712 1.74445 48.6831C1.86515 48.595 2.00264 48.5326 2.14842 48.4997C2.28949 48.4684 2.43546 48.4662 2.57742 48.4931C2.71938 48.5201 2.85436 48.5756 2.97414 48.6564L7.44188 51.6716C7.54814 51.7421 7.67225 51.7811 7.79977 51.7839L20.5714 52.0505C21.2718 52.0772 21.9343 52.3753 22.4188 52.8817C22.9034 53.3881 23.172 54.0631 23.1678 54.7639V60.6118H16.3235V57.22C16.3238 57.0687 16.2721 56.9218 16.1772 56.8039C16.0823 56.686 15.9498 56.6042 15.8019 56.5721L7.14714 54.6704C7.11871 54.6634 7.08977 54.6587 7.0606 54.6563C6.84301 54.6422 6.63526 54.5604 6.46645 54.4224L1.78819 50.5488C1.55639 50.3762 1.39436 50.126 1.33167 49.8439C1.26898 49.5618 1.3098 49.2665 1.44669 49.012ZM35.7454 25.5317C34.6923 25.5063 33.691 25.0702 32.9552 24.3165C32.2194 23.5628 31.8075 22.5512 31.8075 21.4979C31.8075 20.4445 32.2194 19.433 32.9552 18.6792C33.691 17.9255 34.6923 17.4894 35.7454 17.464C35.8326 17.464 35.919 17.4468 35.9996 17.4134C36.0802 17.3801 36.1534 17.3311 36.2151 17.2694C36.2768 17.2078 36.3257 17.1345 36.3591 17.0539C36.3925 16.9733 36.4097 16.8869 36.4097 16.7997V15.5529C36.4121 13.2513 37.3274 11.0445 38.9547 9.41677C40.582 7.78902 42.7885 6.87315 45.0902 6.87005H48.9474C51.2491 6.87315 53.4556 7.78902 55.0829 9.41677C56.7102 11.0445 57.6255 13.2513 57.6279 15.5529V16.802C57.6279 16.9768 57.6965 17.1447 57.819 17.2693C57.9415 17.394 58.1081 17.4656 58.2829 17.4687C59.3347 17.494 60.3349 17.9297 61.0698 18.6825C61.8047 19.4354 62.2161 20.4458 62.2161 21.4979C62.2161 22.55 61.8047 23.5604 61.0698 24.3132C60.3349 25.0661 59.3347 25.5017 58.2829 25.527C58.1085 25.5301 57.9423 25.6014 57.8198 25.7255C57.6974 25.8497 57.6285 26.0169 57.6279 26.1913V26.575C57.6255 29.1068 56.6187 31.5343 54.8287 33.3248C53.0386 35.1153 50.6114 36.1226 48.0796 36.1257H45.9603C43.4281 36.1232 41.0003 35.1162 39.2097 33.3256C37.4192 31.535 36.4121 29.1072 36.4097 26.575V26.1984C36.4103 26.0226 36.3412 25.8537 36.2176 25.7288C36.0939 25.6038 35.9258 25.5329 35.75 25.5317H35.7454ZM61.1647 17.0196C60.5761 16.6313 59.9161 16.3641 59.2232 16.2336C59.1343 16.2149 59.0454 16.2009 58.9542 16.1892V15.5529C58.9511 12.8991 57.8957 10.3548 56.0193 8.47797C54.143 6.60118 51.5989 5.54514 48.9451 5.54142H45.0949H44.7861H41.4809C40.3019 5.54105 39.1627 5.11481 38.273 4.34116C37.3833 3.56751 36.803 2.49852 36.6389 1.33097H52.545C54.8309 1.33345 57.0226 2.24264 58.639 3.85905C60.2554 5.47547 61.1646 7.66708 61.167 9.95304L61.1647 17.0196ZM40.3043 6.76479C38.7261 7.62679 37.4089 8.8975 36.4907 10.4437C35.5725 11.9899 35.0873 13.7547 35.0857 15.5529V16.1751C34.3065 16.274 33.5584 16.5423 32.8939 16.9611V9.92029C32.8939 7.23262 34.2109 5.08295 36.3652 4.18706C37.2889 5.53013 38.7038 6.45601 40.3043 6.76479ZM45.965 37.4543H48.0843C49.2012 37.4549 50.3115 37.2821 51.3754 36.942V41.9852C51.3754 43.1484 50.9133 44.264 50.0908 45.0865C49.2683 45.909 48.1527 46.3711 46.9895 46.3711C45.8263 46.3711 44.7108 45.909 43.8883 45.0865C43.0658 44.264 42.6037 43.1484 42.6037 41.9852V36.921C43.6891 37.2743 44.8235 37.4542 45.965 37.4543ZM49.6562 52.5558C49.6562 53.2339 49.3868 53.8842 48.9073 54.3636C48.4279 54.8431 47.7776 55.1125 47.0995 55.1125C46.4214 55.1125 45.7711 54.8431 45.2916 54.3636C44.8122 53.8842 44.5428 53.2339 44.5428 52.5558V50.6728L47.0012 47.9173L49.6562 50.647V52.5558ZM41.7288 51.7324L38.419 43.1782C39.3701 42.9326 40.3405 42.7691 41.3195 42.6893C41.4629 43.828 41.9449 44.8975 42.7031 45.7591C43.4613 46.6208 44.4608 47.2349 45.572 47.522L43.3873 49.971L41.7288 51.7324ZM52.552 51.7324L50.7953 49.9196L50.7719 49.8962L48.4632 47.5056C49.5616 47.2101 50.5471 46.5942 51.294 45.7364C52.041 44.8787 52.5156 43.8179 52.6573 42.6893C53.6535 42.7696 54.6401 42.9419 55.6046 43.2039L52.552 51.7324Z" fill="#265285"/>
<path d="M33.2993 57.1682C33.2993 56.992 33.2293 56.8231 33.1047 56.6985C32.9802 56.5739 32.8112 56.5039 32.635 56.5039C32.4588 56.5039 32.2899 56.5739 32.1653 56.6985C32.0407 56.8231 31.9707 56.992 31.9707 57.1682V72.8405C31.9707 73.0166 32.0407 73.1856 32.1653 73.3102C32.2899 73.4348 32.4588 73.5048 32.635 73.5048C32.8112 73.5048 32.9802 73.4348 33.1047 73.3102C33.2293 73.1856 33.2993 73.0166 33.2993 72.8405V57.1682Z" fill="#265285"/>
<path d="M61.345 56.5039C61.1688 56.5039 60.9998 56.5739 60.8752 56.6985C60.7506 56.8231 60.6807 56.992 60.6807 57.1682V72.8405C60.6807 73.0166 60.7506 73.1856 60.8752 73.3102C60.9998 73.4348 61.1688 73.5048 61.345 73.5048C61.5212 73.5048 61.6901 73.4348 61.8147 73.3102C61.9393 73.1856 62.0093 73.0166 62.0093 72.8405V57.1682C62.0093 56.992 61.9393 56.8231 61.8147 56.6985C61.6901 56.5739 61.5212 56.5039 61.345 56.5039Z" fill="#265285"/>
<path d="M49.6573 72.8415V59.0078C49.6573 58.3298 49.3879 57.6795 48.9085 57.2C48.429 56.7205 47.7787 56.4512 47.1006 56.4512C46.4226 56.4512 45.7722 56.7205 45.2928 57.2C44.8133 57.6795 44.5439 58.3298 44.5439 59.0078V72.8415H49.6573Z" fill="#265285"/>
<path d="M47.0024 47.917L44.5439 50.6725V52.5555C44.5439 53.2336 44.8133 53.8839 45.2928 54.3633C45.7722 54.8428 46.4226 55.1122 47.1006 55.1122C47.7787 55.1122 48.429 54.8428 48.9085 54.3633C49.3879 53.8839 49.6573 53.2336 49.6573 52.5555V50.6468L47.0024 47.917Z" fill="#265285"/>
<path d="M42.6162 41.9851C42.6162 43.1483 43.0783 44.2639 43.9008 45.0864C44.7233 45.9089 45.8389 46.371 47.0021 46.371C48.1653 46.371 49.2809 45.9089 50.1034 45.0864C50.9259 44.2639 51.3879 43.1483 51.3879 41.9851V36.9419C50.324 37.282 49.2138 37.4548 48.0968 37.4542H45.9775C44.836 37.4542 43.7017 37.2742 42.6162 36.9209V41.9851Z" fill="white"/>
<path d="M32.8945 9.92093V16.9617C33.559 16.5429 34.3071 16.2746 35.0863 16.1758V15.5536C35.0878 13.7553 35.5731 11.9906 36.4913 10.4444C37.4095 8.89814 38.7267 7.62743 40.3049 6.76544C38.7051 6.45781 37.2904 5.53368 36.3658 4.19238C34.2115 5.08359 32.8945 7.23326 32.8945 9.92093Z" fill="white"/>
<path d="M52.5418 1.3291H36.6357C36.7998 2.49665 37.3801 3.56564 38.2698 4.33929C39.1595 5.11294 40.2987 5.53918 41.4778 5.53955H44.7829H45.0917H48.9489C51.6028 5.54327 54.1469 6.59932 56.0232 8.4761C57.8995 10.3529 58.955 12.8972 58.9581 15.5511V16.0002L59.2271 16.2341C59.9176 16.3655 60.5751 16.6326 61.1615 17.02V9.95117C61.1591 7.66562 60.2502 5.47435 58.6343 3.85801C57.0184 2.24166 54.8274 1.3322 52.5418 1.3291Z" fill="white"/>
<path d="M45.9653 36.1257H48.0846C50.6164 36.1226 53.0436 35.1153 54.8337 33.3248C56.6237 31.5343 57.6304 29.1069 57.6329 26.575V26.1984C57.6335 26.024 57.7024 25.8568 57.8248 25.7326C57.9473 25.6084 58.1135 25.5372 58.2879 25.5341C59.3397 25.5088 60.3399 25.0731 61.0748 24.3203C61.8097 23.5674 62.2211 22.557 62.2211 21.5049C62.2211 20.4528 61.8097 19.4424 61.0748 18.6896C60.3399 17.9367 59.3397 17.5011 58.2879 17.4758C58.1131 17.4727 57.9465 17.4011 57.824 17.2764C57.7015 17.1517 57.6329 16.9839 57.6329 16.8091V15.553C57.6304 13.2513 56.7152 11.0446 55.0879 9.41684C53.4606 7.78908 51.2541 6.87321 48.9524 6.87012H45.0952C42.7935 6.87321 40.587 7.78908 38.9597 9.41684C37.3324 11.0446 36.4171 13.2513 36.4147 15.553V16.7998C36.4147 16.887 36.3975 16.9734 36.3641 17.054C36.3307 17.1346 36.2818 17.2078 36.2201 17.2695C36.1584 17.3312 36.0852 17.3801 36.0046 17.4135C35.924 17.4469 35.8376 17.4641 35.7504 17.4641C34.6973 17.4894 33.696 17.9256 32.9602 18.6793C32.2244 19.433 31.8125 20.4446 31.8125 21.4979C31.8125 22.5513 32.2244 23.5628 32.9602 24.3166C33.696 25.0703 34.6973 25.5064 35.7504 25.5318C35.9265 25.5318 36.0955 25.6018 36.2201 25.7263C36.3447 25.8509 36.4147 26.0199 36.4147 26.1961V26.575C36.4171 29.1073 37.4242 31.5351 39.2147 33.3257C41.0053 35.1162 43.4331 36.1232 45.9653 36.1257ZM51.3594 29.2487C50.7859 29.8226 50.1049 30.2779 49.3553 30.5886C48.6058 30.8992 47.8024 31.0591 46.991 31.0591C46.1797 31.0591 45.3763 30.8992 44.6267 30.5886C43.8772 30.2779 43.1962 29.8226 42.6227 29.2487C42.5518 29.1896 42.4941 29.1163 42.4531 29.0336C42.4121 28.951 42.3887 28.8606 42.3846 28.7685C42.3804 28.6763 42.3955 28.5842 42.4288 28.4982C42.4622 28.4121 42.5132 28.334 42.5784 28.2687C42.6437 28.2035 42.7218 28.1525 42.8079 28.1191C42.8939 28.0858 42.986 28.0707 43.0782 28.0748C43.1704 28.079 43.2607 28.1023 43.3434 28.1433C43.426 28.1843 43.4993 28.2421 43.5584 28.313C44.4677 29.2219 45.7007 29.7325 46.9864 29.7325C48.272 29.7325 49.505 29.2219 50.4144 28.313C50.5417 28.2068 50.7042 28.1521 50.8698 28.1596C51.0355 28.167 51.1923 28.2362 51.3096 28.3535C51.4268 28.4707 51.496 28.6276 51.5035 28.7932C51.5109 28.9589 51.4562 29.1213 51.35 29.2487H51.3594Z" fill="white"/>
<path d="M50.4192 28.3043C49.5099 29.2132 48.2768 29.7238 46.9912 29.7238C45.7055 29.7238 44.4725 29.2132 43.5632 28.3043C43.5041 28.2334 43.4309 28.1756 43.3482 28.1346C43.2655 28.0936 43.1752 28.0703 43.083 28.0661C42.9908 28.0619 42.8987 28.077 42.8127 28.1104C42.7266 28.1438 42.6485 28.1947 42.5833 28.26C42.518 28.3253 42.467 28.4034 42.4337 28.4894C42.4003 28.5755 42.3852 28.6675 42.3893 28.7597C42.3935 28.8519 42.4168 28.9422 42.4578 29.0249C42.4989 29.1076 42.5567 29.1808 42.6275 29.2399C43.201 29.8139 43.882 30.2692 44.6315 30.5798C45.3811 30.8905 46.1845 31.0504 46.9959 31.0504C47.8072 31.0504 48.6106 30.8905 49.3602 30.5798C50.1097 30.2692 50.7907 29.8139 51.3642 29.2399C51.4704 29.1126 51.5251 28.9501 51.5176 28.7845C51.5102 28.6188 51.441 28.462 51.3237 28.3447C51.2065 28.2275 51.0496 28.1583 50.884 28.1508C50.7183 28.1433 50.5559 28.1981 50.4285 28.3043H50.4192Z" fill="#265285"/>
<path d="M10.6259 34.2589H11.8166V24.9141H10.6259C10.3354 24.9147 10.057 25.0305 9.85174 25.2362C9.64651 25.4419 9.53125 25.7206 9.53125 26.0111V33.1642C9.53187 33.4544 9.6474 33.7324 9.85257 33.9376C10.0577 34.1428 10.3358 34.2583 10.6259 34.2589Z" fill="white"/>
<path d="M14.5566 41.1914C16.8517 41.1914 19.0953 40.5108 21.0037 39.2357C22.912 37.9605 24.3994 36.1482 25.2777 34.0277C26.156 31.9073 26.3858 29.574 25.938 27.323C25.4903 25.0719 24.385 23.0042 22.7621 21.3813C21.1392 19.7584 19.0715 18.6532 16.8205 18.2054C14.5695 17.7576 12.2362 17.9874 10.1158 18.8658C7.99533 19.7441 6.18297 21.2315 4.90786 23.1398C3.63275 25.0481 2.95215 27.2917 2.95215 29.5869C2.95586 32.6635 4.17966 35.6129 6.35511 37.7884C8.53056 39.9638 11.4801 41.1877 14.5566 41.1914ZM8.20117 26.0104C8.20117 25.3674 8.45642 24.7508 8.91082 24.296C9.36522 23.8411 9.98158 23.5853 10.6245 23.5847H11.8151V21.987C11.8151 21.8108 11.8851 21.6419 12.0097 21.5173C12.1343 21.3927 12.3033 21.3227 12.4794 21.3227C12.6556 21.3227 12.8246 21.3927 12.9492 21.5173C13.0738 21.6419 13.1438 21.8108 13.1438 21.987V23.594H15.9671V21.987C15.9671 21.8108 16.0371 21.6419 16.1617 21.5173C16.2862 21.3927 16.4552 21.3227 16.6314 21.3227C16.8076 21.3227 16.9766 21.3927 17.1011 21.5173C17.2257 21.6419 17.2957 21.8108 17.2957 21.987V23.594H18.4863C19.1295 23.5946 19.7461 23.8504 20.2009 24.3052C20.6556 24.7599 20.9114 25.3766 20.912 26.0197C20.912 26.1959 20.842 26.3649 20.7174 26.4895C20.5928 26.614 20.4239 26.684 20.2477 26.684C20.0715 26.684 19.9025 26.614 19.778 26.4895C19.6534 26.3649 19.5834 26.1959 19.5834 26.0197C19.5834 25.7288 19.4678 25.4497 19.2621 25.244C19.0563 25.0382 18.7773 24.9227 18.4863 24.9227H17.2957V34.2792H18.4863C18.7769 34.2792 19.0556 34.1639 19.2612 33.9587C19.4669 33.7535 19.5828 33.475 19.5834 33.1845C19.5834 33.0083 19.6534 32.8393 19.778 32.7147C19.9025 32.5902 20.0715 32.5202 20.2477 32.5202C20.4239 32.5202 20.5928 32.5902 20.7174 32.7147C20.842 32.8393 20.912 33.0083 20.912 33.1845C20.9108 33.8272 20.6547 34.4433 20.2 34.8975C19.7453 35.3518 19.1291 35.6072 18.4863 35.6078H17.2957V37.1914C17.2957 37.3676 17.2257 37.5366 17.1011 37.6612C16.9766 37.7858 16.8076 37.8557 16.6314 37.8557C16.4552 37.8557 16.2862 37.7858 16.1617 37.6612C16.0371 37.5366 15.9671 37.3676 15.9671 37.1914V35.5821H13.1414V37.1914C13.1414 37.3676 13.0714 37.5366 12.9468 37.6612C12.8223 37.7858 12.6533 37.8557 12.4771 37.8557C12.3009 37.8557 12.132 37.7858 12.0074 37.6612C11.8828 37.5366 11.8128 37.3676 11.8128 37.1914V35.5821H10.6222C9.97965 35.5815 9.36364 35.326 8.90931 34.8716C8.45498 34.4173 8.19945 33.8013 8.19883 33.1588L8.20117 26.0104Z" fill="white"/>
<path d="M15.9698 24.9141H13.1465V34.2589H15.9698V24.9141Z" fill="white"/>
<path d="M14.5575 42.5213C17.1159 42.5213 19.6169 41.7626 21.7442 40.3411C23.8715 38.9196 25.5294 36.8993 26.5084 34.5355C27.4874 32.1717 27.7434 29.5707 27.2441 27.0614C26.7448 24.5521 25.5126 22.2472 23.7033 20.4383C21.894 18.6293 19.589 17.3975 17.0796 16.8987C14.5702 16.3998 11.9693 16.6563 9.60566 17.6357C7.24207 18.6151 5.22201 20.2735 3.80093 22.401C2.37985 24.5285 1.62161 27.0297 1.62207 29.5882C1.6264 33.0173 2.99069 36.3047 5.41568 38.7293C7.84066 41.1539 11.1283 42.5176 14.5575 42.5213ZM14.5575 17.9837C16.8526 17.9837 19.0962 18.6643 21.0045 19.9394C22.9129 21.2145 24.4002 23.0269 25.2785 25.1473C26.1569 27.2678 26.3867 29.601 25.9389 31.8521C25.4912 34.1031 24.3859 36.1709 22.763 37.7938C21.1401 39.4167 19.0724 40.5219 16.8214 40.9697C14.5703 41.4174 12.2371 41.1876 10.1166 40.3093C7.9962 39.431 6.18384 37.9436 4.90873 36.0353C3.63362 34.1269 2.95302 31.8833 2.95302 29.5882C2.95674 26.5116 4.18053 23.5621 6.35598 21.3867C8.53143 19.2112 11.4809 17.9874 14.5575 17.9837Z" fill="#265285"/>
<path d="M10.6268 35.5873H11.8175V37.192C11.8175 37.3681 11.8875 37.5371 12.0121 37.6617C12.1366 37.7863 12.3056 37.8563 12.4818 37.8563C12.658 37.8563 12.8269 37.7863 12.9515 37.6617C13.0761 37.5371 13.1461 37.3681 13.1461 37.192V35.5826H15.9694V37.192C15.9694 37.3681 16.0394 37.5371 16.164 37.6617C16.2886 37.7863 16.4576 37.8563 16.6337 37.8563C16.8099 37.8563 16.9789 37.7863 17.1035 37.6617C17.2281 37.5371 17.2981 37.3681 17.2981 37.192V35.5826H18.4887C19.1314 35.582 19.7477 35.3266 20.2024 34.8723C20.6571 34.418 20.9131 33.802 20.9143 33.1593C20.9143 32.9831 20.8444 32.8141 20.7198 32.6895C20.5952 32.565 20.4262 32.495 20.25 32.495C20.0738 32.495 19.9049 32.565 19.7803 32.6895C19.6557 32.8141 19.5857 32.9831 19.5857 33.1593C19.5851 33.4498 19.4693 33.7283 19.2636 33.9335C19.0579 34.1387 18.7792 34.254 18.4887 34.254H17.2981V24.9138H18.4887C18.6327 24.9138 18.7754 24.9422 18.9085 24.9973C19.0416 25.0525 19.1625 25.1333 19.2644 25.2351C19.3663 25.337 19.4471 25.4579 19.5022 25.591C19.5573 25.7242 19.5857 25.8668 19.5857 26.0109C19.5857 26.1871 19.6557 26.356 19.7803 26.4806C19.9049 26.6052 20.0738 26.6752 20.25 26.6752C20.4262 26.6752 20.5952 26.6052 20.7198 26.4806C20.8444 26.356 20.9143 26.1871 20.9143 26.0109C20.9137 25.3677 20.658 24.7511 20.2032 24.2963C19.7484 23.8416 19.1318 23.5858 18.4887 23.5852H17.2981V21.9876C17.2981 21.8114 17.2281 21.6424 17.1035 21.5178C16.9789 21.3932 16.8099 21.3232 16.6337 21.3232C16.4576 21.3232 16.2886 21.3932 16.164 21.5178C16.0394 21.6424 15.9694 21.8114 15.9694 21.9876V23.5945H13.1438V21.9876C13.1438 21.8114 13.0738 21.6424 12.9492 21.5178C12.8246 21.3932 12.6556 21.3232 12.4795 21.3232C12.3033 21.3232 12.1343 21.3932 12.0097 21.5178C11.8851 21.6424 11.8151 21.8114 11.8151 21.9876V23.5945H10.6245C9.98158 23.5952 9.36522 23.851 8.91082 24.3058C8.45642 24.7607 8.20117 25.3773 8.20117 26.0202V33.1733C8.20426 33.8146 8.46119 34.4286 8.91576 34.881C9.37033 35.3334 9.98554 35.5873 10.6268 35.5873ZM15.9694 24.9138V34.2704H13.1438V24.9138H15.9694ZM9.53215 26.0109C9.53215 25.7203 9.64741 25.4416 9.85264 25.236C10.0579 25.0303 10.3363 24.9144 10.6268 24.9138H11.8175V34.2704H10.6268C10.3367 34.2698 10.0586 34.1542 9.85347 33.9491C9.6483 33.7439 9.53277 33.4658 9.53215 33.1757V26.0109Z" fill="#265285"/>
</svg>
