<svg width="156" height="152" viewBox="0 0 156 152" fill="none" xmlns="http://www.w3.org/2000/svg">
<path d="M83.9729 1.67684C86.8109 1.97606 89.6291 2.43974 92.4133 3.06552C92.4709 3.07747 92.5295 3.08397 92.5883 3.08496C92.7844 3.08777 92.9746 3.01739 93.1217 2.88756C93.2687 2.75772 93.3621 2.57775 93.3836 2.38276C93.4051 2.18778 93.3532 1.99177 93.2379 1.833C93.1227 1.67423 92.9525 1.56409 92.7605 1.52408C89.92 0.886008 87.0454 0.411228 84.1507 0.102071C83.9426 0.0799725 83.7342 0.141442 83.5715 0.272958C83.4087 0.404475 83.3048 0.595265 83.2827 0.803356C83.2606 1.01145 83.3221 1.21979 83.4536 1.38256C83.5851 1.54533 83.776 1.64918 83.9841 1.67128L83.9729 1.67684Z" fill="#265285"/>
<path d="M115.993 12.8953C118.4 14.4294 120.718 16.0985 122.936 17.8946C123.099 18.0264 123.307 18.0883 123.515 18.0667C123.723 18.0451 123.914 17.9417 124.046 17.7793C124.178 17.6169 124.24 17.4087 124.218 17.2007C124.196 16.9926 124.093 16.8016 123.93 16.6697C121.67 14.8309 119.306 13.1229 116.851 11.5538C116.675 11.4411 116.461 11.4031 116.256 11.4482C116.052 11.4932 115.874 11.6177 115.761 11.7941C115.648 11.9705 115.61 12.1845 115.655 12.3889C115.7 12.5933 115.825 12.7715 116.001 12.8842L115.993 12.8953Z" fill="#265285"/>
<path d="M100.638 5.41789C103.329 6.36434 105.965 7.46413 108.531 8.71185C108.638 8.76527 108.756 8.79286 108.875 8.79239C109.054 8.79369 109.229 8.73389 109.369 8.62285C109.51 8.51181 109.609 8.35616 109.649 8.18152C109.69 8.00689 109.669 7.82369 109.592 7.66212C109.514 7.50054 109.384 7.37021 109.222 7.29261C106.604 6.01919 103.915 4.89624 101.168 3.92922C100.971 3.85998 100.754 3.872 100.565 3.96263C100.377 4.05326 100.232 4.21508 100.163 4.41248C100.093 4.60989 100.105 4.82672 100.196 5.01527C100.287 5.20382 100.448 5.34865 100.646 5.41789H100.638Z" fill="#265285"/>
<path d="M3.62471 55.1167C3.52459 55.0894 3.42009 55.0821 3.31714 55.0952C3.21419 55.1083 3.11481 55.1417 3.02476 55.1933C2.93471 55.2449 2.85577 55.3137 2.79239 55.3959C2.729 55.4781 2.68245 55.572 2.65542 55.6722C1.95937 58.2378 1.39848 60.8382 0.975105 63.4627C0.958447 63.565 0.962092 63.6696 0.985886 63.7705C1.00968 63.8714 1.05315 63.9666 1.11377 64.0507C1.17439 64.1348 1.25096 64.2061 1.33916 64.2606C1.42736 64.315 1.52548 64.3516 1.62781 64.3681C1.66937 64.3722 1.71122 64.3722 1.75278 64.3681C1.94027 64.3684 2.12171 64.3017 2.26431 64.18C2.40691 64.0582 2.5013 63.8895 2.53045 63.7043C2.94672 61.1353 3.49644 58.5896 4.1774 56.0777C4.23096 55.877 4.20285 55.6632 4.09929 55.4832C3.99572 55.3031 3.82512 55.1714 3.62471 55.1167Z" fill="#265285"/>
<path d="M9.19875 41.0611C9.1063 41.0141 9.00547 40.9859 8.90209 40.9779C8.79872 40.97 8.69482 40.9825 8.59629 41.0147C8.49775 41.0469 8.40651 41.0983 8.32784 41.1658C8.24917 41.2334 8.18459 41.3157 8.13778 41.4082C7.02684 43.5829 6.03254 45.8354 5.14934 48.1017C5.07347 48.2969 5.07825 48.5142 5.16263 48.7059C5.24701 48.8976 5.40404 49.0479 5.59924 49.1238C5.79444 49.1996 6.01179 49.1949 6.20346 49.1105C6.39514 49.0261 6.54548 48.869 6.62135 48.6738C7.48511 46.4519 8.4683 44.2495 9.54592 42.122C9.59286 42.0296 9.62109 41.9288 9.62905 41.8254C9.637 41.722 9.62454 41.6181 9.59229 41.5196C9.56005 41.421 9.50868 41.3298 9.44115 41.2511C9.37363 41.1725 9.29126 41.1079 9.19875 41.0611Z" fill="#265285"/>
<path d="M2.44073 87.042C2.42881 86.9365 2.39568 86.8344 2.34336 86.742C2.29104 86.6496 2.22057 86.5687 2.13621 86.5041C2.05185 86.4396 1.95534 86.3927 1.85244 86.3664C1.74954 86.3401 1.6424 86.3348 1.53741 86.3509C1.43242 86.367 1.33179 86.4041 1.2415 86.4601C1.15122 86.516 1.07313 86.5896 1.01198 86.6765C0.95083 86.7633 0.907884 86.8616 0.885655 86.9655C0.863425 87.0694 0.86236 87.1766 0.882603 87.2809C1.28635 89.908 1.82778 92.5122 2.5046 95.0825C2.54872 95.2509 2.64727 95.3999 2.78491 95.5064C2.92256 95.6129 3.09156 95.6709 3.26559 95.6713C3.33395 95.6713 3.40204 95.6629 3.46834 95.6463C3.67009 95.5917 3.84195 95.4592 3.9461 95.278C4.05025 95.0968 4.07817 94.8816 4.02381 94.6798C3.36394 92.1631 2.83554 89.6137 2.44073 87.042Z" fill="#265285"/>
<path d="M0.91376 80.1044C1.01788 80.0994 1.11996 80.0738 1.21414 80.0292C1.30833 79.9845 1.39272 79.9216 1.46245 79.8441C1.53218 79.7667 1.58591 79.6761 1.62044 79.5778C1.65497 79.4794 1.66962 79.3752 1.66363 79.2712C1.60809 78.0741 1.57752 76.8576 1.57752 75.6606C1.57752 74.2719 1.61645 72.861 1.69421 71.4751C1.706 71.2659 1.63418 71.0606 1.49459 70.9043C1.355 70.7481 1.15903 70.6537 0.949833 70.6419C0.740639 70.6301 0.535363 70.7019 0.379106 70.8415C0.22285 70.9811 0.128413 71.177 0.116627 71.3862C0.0388613 72.8027 0 74.2413 0 75.6606C0 76.8909 0.0305699 78.1352 0.0888943 79.3572C0.0981895 79.5594 0.185099 79.7502 0.331506 79.8898C0.477913 80.0295 0.672557 80.1074 0.874907 80.1071L0.91376 80.1044Z" fill="#265285"/>
<path d="M83.4953 149.711C80.6559 149.995 77.8027 150.117 74.9494 150.078C74.8458 150.077 74.743 150.096 74.6467 150.134C74.5505 150.172 74.4627 150.229 74.3884 150.301C74.3141 150.373 74.2548 150.46 74.2138 150.555C74.1728 150.65 74.151 150.752 74.1495 150.856C74.148 150.959 74.167 151.062 74.2053 151.158C74.2436 151.255 74.3004 151.342 74.3726 151.417C74.4449 151.491 74.531 151.55 74.6262 151.591C74.7213 151.632 74.8236 151.654 74.9272 151.656H75.9937C78.5489 151.656 81.1262 151.525 83.6536 151.272C83.7583 151.264 83.8603 151.235 83.9536 151.187C84.0469 151.139 84.1296 151.072 84.1969 150.992C84.2642 150.911 84.3147 150.818 84.3455 150.717C84.3763 150.617 84.3867 150.511 84.3761 150.407C84.3656 150.302 84.3343 150.201 84.2841 150.109C84.2339 150.017 84.1657 149.935 84.0837 149.87C84.0016 149.804 83.9073 149.756 83.8063 149.727C83.7053 149.699 83.5996 149.69 83.4953 149.703V149.711Z" fill="#265285"/>
<path d="M128.897 127.995C126.891 130.024 124.769 131.936 122.543 133.721C122.38 133.853 122.276 134.044 122.254 134.252C122.231 134.46 122.292 134.669 122.423 134.832C122.497 134.925 122.591 134.999 122.698 135.05C122.805 135.101 122.922 135.127 123.04 135.127C123.219 135.128 123.393 135.066 123.532 134.952C125.804 133.128 127.97 131.176 130.019 129.105C130.146 128.954 130.211 128.761 130.202 128.565C130.193 128.368 130.111 128.182 129.971 128.043C129.832 127.903 129.646 127.821 129.449 127.812C129.253 127.803 129.06 127.868 128.908 127.995H128.897Z" fill="#265285"/>
<path d="M100.176 146.059C97.4776 146.985 94.7281 147.755 91.9411 148.364C91.7496 148.404 91.5798 148.514 91.4646 148.672C91.3494 148.83 91.2972 149.026 91.3179 149.22C91.3387 149.415 91.431 149.595 91.577 149.725C91.7229 149.855 91.9121 149.927 92.1077 149.925C92.1647 149.924 92.2214 149.918 92.2771 149.906C95.1232 149.284 97.9311 148.498 100.687 147.553C100.885 147.486 101.048 147.342 101.14 147.154C101.233 146.966 101.246 146.749 101.179 146.551C101.111 146.353 100.967 146.189 100.779 146.097C100.591 146.005 100.374 145.991 100.176 146.059Z" fill="#265285"/>
<path d="M115.577 138.687C113.158 140.206 110.655 141.585 108.078 142.817C107.915 142.894 107.784 143.024 107.705 143.185C107.626 143.347 107.605 143.531 107.645 143.706C107.685 143.881 107.783 144.038 107.924 144.15C108.065 144.261 108.24 144.321 108.42 144.32C108.537 144.32 108.653 144.293 108.759 144.242C111.387 142.983 113.941 141.575 116.407 140.023C116.571 139.907 116.683 139.732 116.723 139.535C116.762 139.339 116.724 139.134 116.618 138.964C116.512 138.794 116.345 138.67 116.151 138.619C115.957 138.568 115.751 138.592 115.574 138.687H115.577Z" fill="#265285"/>
<path d="M93.8308 114.361C93.8322 113.226 94.2839 112.137 95.0867 111.335C95.8896 110.532 96.978 110.08 98.1134 110.079H99.4688V38.5919C99.4695 37.7939 99.7865 37.0287 100.35 36.4639C100.914 35.8991 101.679 35.5807 102.477 35.5785H106.126V29.696C106.126 29.5933 106.126 29.4933 106.14 29.3933C97.3345 23.6401 87.0625 20.5361 76.5445 20.4502C76.9016 20.8243 77.1006 21.3217 77.1 21.8389V25.3384H82.8769C83.0861 25.3384 83.2867 25.4215 83.4346 25.5694C83.5825 25.7173 83.6656 25.9179 83.6656 26.1271C83.6725 26.4394 83.7512 26.746 83.8957 27.0229C84.0402 27.2999 84.2466 27.5398 84.4988 27.7241C85.6709 28.6295 86.3152 30.0321 86.3152 31.6763V36.7533C86.3151 36.897 86.2754 37.0378 86.2004 37.1603C86.1255 37.2828 86.0182 37.3822 85.8903 37.4477C86.3646 37.8985 86.7076 38.4698 86.8824 39.1004C87.0572 39.731 87.0573 40.3973 86.8827 41.028C86.7081 41.6587 86.3654 42.2301 85.8912 42.681C85.417 43.132 84.8292 43.4457 84.1906 43.5884C84.067 45.3337 83.287 46.9675 82.0075 48.1609C80.728 49.3543 79.044 50.0188 77.2944 50.0208H76.0223C74.2704 50.0186 72.5846 49.3521 71.3048 48.1558C70.0249 46.9595 69.2464 45.3223 69.1262 43.5745C68.497 43.4308 67.9181 43.1201 67.4505 42.6752C66.9829 42.2302 66.6439 41.6675 66.4691 41.0462C66.2943 40.4248 66.2901 39.7679 66.4571 39.1444C66.6242 38.5209 66.9561 37.954 67.4181 37.5032C67.2908 37.4371 67.184 37.3374 67.1092 37.2151C67.0343 37.0928 66.9942 36.9523 66.9932 36.8089V31.7096C66.9954 30.0242 67.6659 28.4085 68.8576 27.2167C70.0494 26.025 71.6652 25.3545 73.3506 25.3522H75.5307V21.8528C75.53 21.7332 75.482 21.6187 75.3972 21.5344C75.3123 21.4501 75.1977 21.4028 75.0781 21.4028H65.7045C61.3957 22.2154 57.1997 23.5413 53.2064 25.3522H57.253C57.4622 25.3522 57.6628 25.4353 57.8107 25.5833C57.9587 25.7312 58.0417 25.9318 58.0417 26.141C58.0482 26.4534 58.1267 26.7601 58.2713 27.0371C58.4158 27.3141 58.6224 27.554 58.875 27.738C60.0442 28.6434 60.6914 30.046 60.6914 31.6902V36.7672C60.6907 36.9107 60.6507 37.0513 60.5758 37.1737C60.5009 37.2961 60.3939 37.3956 60.2664 37.4616C60.7408 37.9126 61.0836 38.484 61.2582 39.1149C61.4329 39.7457 61.4328 40.4121 61.2579 41.0428C61.083 41.6736 60.74 42.2449 60.2655 42.6957C59.7909 43.1466 59.2028 43.4599 58.5639 43.6023C58.4404 45.3476 57.6603 46.9813 56.3808 48.1748C55.1014 49.3682 53.4174 50.0327 51.6677 50.0347H50.3985C48.6464 50.0331 46.9602 49.3669 45.6802 48.1704C44.4003 46.974 43.6219 45.3364 43.5023 43.5884C42.8698 43.4478 42.287 43.1386 41.8159 42.6937C41.3447 42.2487 41.0027 41.6846 40.8262 41.0611C40.6497 40.4376 40.6452 39.7779 40.8132 39.152C40.9812 38.5261 41.3153 37.9573 41.7803 37.506C41.6534 37.4397 41.547 37.34 41.4726 37.2176C41.3982 37.0952 41.3586 36.9549 41.3582 36.8117V32.6456C39.1979 34.3895 37.1713 36.2927 35.2952 38.3392C35.5894 38.8694 35.7433 39.4659 35.7424 40.0723C35.7471 40.8963 35.4697 41.6972 34.9564 42.3418C34.4431 42.9865 33.7247 43.4362 32.9206 43.6162C32.8099 45.1705 32.1785 46.642 31.1282 47.7931C30.0779 48.9442 28.6702 49.7075 27.1326 49.9597C26.7623 50.6688 26.404 51.3854 26.0578 52.1094C27.6541 52.2395 29.2031 52.7147 30.5977 53.5021C31.9924 54.2895 33.1994 55.3704 34.1354 56.67C35.0714 57.9696 35.7141 59.457 36.0189 61.0293C36.3238 62.6016 36.2836 64.2214 35.9012 65.7766C35.5187 67.3319 34.8031 68.7856 33.8038 70.0372C32.8046 71.2888 31.5454 72.3085 30.1134 73.0258C28.6814 73.7431 27.1108 74.1409 25.51 74.1917C23.9092 74.2425 22.3165 73.9452 20.8419 73.3201C20.8086 74.1006 20.7891 74.8838 20.7891 75.6725C20.7833 79.4175 21.1555 83.1535 21.9001 86.8237C28.5277 81.5425 36.7555 78.6746 45.2298 78.6915H45.3076C55.0241 78.6568 64.3706 82.4144 71.3591 89.165C71.4949 89.2962 71.5793 89.4715 71.5971 89.6594C71.615 89.8474 71.565 90.0355 71.4564 90.1898L67.5681 95.6835L53.7563 115.228L66.5321 130.076C68.8468 130.475 71.1845 130.726 73.5311 130.828L60.3331 115.275C60.2207 115.142 60.1553 114.976 60.1467 114.803C60.1382 114.629 60.1871 114.457 60.2859 114.314L77.1555 90.0704C77.2199 89.976 77.3043 89.8969 77.4027 89.8389C77.5011 89.7808 77.6111 89.7451 77.7249 89.7343C77.8385 89.7236 77.9531 89.7374 78.0609 89.7748C78.1687 89.8122 78.2672 89.8722 78.3498 89.951C83.6457 95.0151 87.1867 101.638 88.457 108.854C89.7274 116.071 88.6608 123.505 85.4126 130.073C94.6619 128.481 103.35 124.548 110.648 118.647H98.1134C96.9776 118.645 95.8886 118.193 95.0857 117.39C94.2828 116.586 93.8315 115.497 93.8308 114.361ZM59.7387 69.8623C58.1798 71.893 55.9649 73.3203 53.4716 73.901C50.9782 74.4817 48.3607 74.1798 46.065 73.0469C43.7692 71.9139 41.9373 70.0199 40.8816 67.6877C39.8258 65.3554 39.6114 62.7292 40.2749 60.2566C40.9384 57.784 42.4388 55.618 44.5203 54.1276C46.6019 52.6373 49.1358 51.9148 51.6903 52.0834C54.2448 52.2519 56.6619 53.3011 58.5295 55.052C60.3972 56.803 61.6 59.1474 61.9328 61.6857C62.1224 63.126 62.0263 64.5894 61.6498 65.9924C61.2733 67.3955 60.6239 68.7105 59.7387 69.8623ZM85.5459 69.8623C83.9868 71.8909 81.7725 73.3162 79.2803 73.8953C76.7881 74.4744 74.1723 74.1715 71.8784 73.0382C69.5845 71.9049 67.7546 70.0113 66.7003 67.68C65.646 65.3488 65.4326 62.7241 66.0965 60.2532C66.7604 57.7822 68.2605 55.6179 70.3412 54.129C72.4219 52.64 74.9545 51.9186 77.5074 52.0875C80.0604 52.2565 82.4759 53.3054 84.3422 55.0556C86.2085 56.8057 87.4103 59.1489 87.7428 61.6857C87.9321 63.1261 87.8356 64.5898 87.4586 65.9928C87.0817 67.3958 86.4317 68.7108 85.5459 69.8623Z" fill="#47A1D9" fill-opacity="0.5"/>
<path d="M17.2917 36.7477C17.4664 36.6753 17.6466 36.6167 17.8305 36.5727V36.5144C17.8305 34.8202 18.5035 33.1954 19.7015 31.9974C20.8994 30.7994 22.5242 30.1264 24.2184 30.1264H26.532C28.2261 30.1264 29.8509 30.7994 31.0489 31.9974C32.2469 33.1954 32.9199 34.8202 32.9199 36.5144V36.5616C33.1017 36.6019 33.28 36.6567 33.4531 36.7255V31.6901C33.4764 31.1765 33.3797 30.6646 33.1704 30.1949C32.9612 29.7253 32.6452 29.311 32.2478 28.9849C31.5764 28.4746 31.1008 27.749 30.9007 26.9297H22.0632C20.7964 26.9319 19.5822 27.4363 18.6867 28.3323C17.7913 29.2283 17.2876 30.4428 17.2861 31.7095L17.2917 36.7477Z" fill="white"/>
<path d="M34.1637 40.0777C34.163 39.5402 33.9491 39.0249 33.5691 38.6449C33.189 38.2648 32.6737 38.051 32.1362 38.0502C31.9271 38.0502 31.7265 37.9671 31.5785 37.8192C31.4306 37.6713 31.3475 37.4706 31.3475 37.2615V36.5143C31.3468 35.2376 30.8391 34.0133 29.936 33.1107C29.0329 32.2082 27.8083 31.7012 26.5316 31.7012H24.2208C22.9442 31.7019 21.7202 32.2092 20.8172 33.1116C19.9143 34.014 19.4064 35.2378 19.4049 36.5143V37.2642C19.4049 37.4715 19.3233 37.6705 19.1778 37.8181C19.0323 37.9657 18.8345 38.0501 18.6272 38.053C18.1029 38.0724 17.6065 38.2944 17.2423 38.6722C16.8782 39.0501 16.6748 39.5544 16.6748 40.0791C16.6748 40.6038 16.8782 41.1081 17.2423 41.486C17.6065 41.8638 18.1029 42.0858 18.6272 42.1052C18.8347 42.1074 19.0329 42.1915 19.1786 42.3393C19.3243 42.4871 19.4056 42.6864 19.4049 42.8939V43.1217C19.4064 44.5363 19.969 45.8925 20.9692 46.8927C21.9694 47.893 23.3256 48.4555 24.7402 48.457H26.0122C27.4265 48.4555 28.7824 47.8929 29.7822 46.8925C30.782 45.8922 31.344 44.536 31.3447 43.1217V42.8967C31.3447 42.6873 31.4277 42.4864 31.5756 42.338C31.7234 42.1896 31.924 42.1059 32.1335 42.1052C32.4 42.1055 32.6639 42.0534 32.9102 41.9516C33.1565 41.8499 33.3804 41.7006 33.5689 41.5123C33.7575 41.324 33.9071 41.1004 34.0091 40.8542C34.1112 40.6081 34.1637 40.3442 34.1637 40.0777Z" fill="white"/>
<path d="M32.9193 43.6151C33.7222 43.438 34.4407 42.9922 34.9558 42.3513C35.4709 41.7104 35.7519 40.9129 35.7522 40.0907C35.7531 39.4843 35.5993 38.8878 35.3051 38.3576C35.1242 38.0298 34.8936 37.7318 34.6218 37.4744C34.7492 37.4085 34.8563 37.3089 34.9312 37.1865C35.0061 37.0641 35.046 36.9235 35.0467 36.78V31.6891C35.0467 30.0449 34.4024 28.634 33.2304 27.7369C32.9783 27.5525 32.772 27.3125 32.6275 27.0356C32.483 26.7587 32.4043 26.4522 32.3972 26.1399C32.3972 25.9308 32.314 25.7301 32.1661 25.5822C32.0182 25.4343 31.8176 25.3512 31.6084 25.3512H26.9146V21.8517C26.9143 21.7922 26.9256 21.7333 26.9481 21.6782C26.9705 21.6232 27.0035 21.5731 27.0453 21.5308C27.0871 21.4885 27.1368 21.4548 27.1915 21.4317C27.2463 21.4086 27.3051 21.3966 27.3646 21.3962H50.2417V25.3456H47.7143C46.0291 25.3478 44.4137 26.0184 43.2224 27.2103C42.031 28.4021 41.3611 30.0179 41.3596 31.703V36.8161C41.3601 36.9594 41.3996 37.0997 41.474 37.2221C41.5484 37.3445 41.6549 37.4442 41.7818 37.5105C41.3198 37.9614 40.988 38.5286 40.8211 39.1522C40.6543 39.7759 40.6586 40.433 40.8337 41.0544C41.0088 41.6758 41.3482 42.2385 41.8161 42.6832C42.284 43.128 42.8632 43.4384 43.4927 43.5818C43.6123 45.3298 44.3906 46.9673 45.6706 48.1638C46.9505 49.3603 48.6367 50.0265 50.3888 50.0281H51.6581C53.4042 50.0258 55.0849 49.3636 56.3633 48.1743C57.6417 46.985 58.4233 45.3565 58.5515 43.6151C59.1904 43.4728 59.7785 43.1594 60.253 42.7086C60.7276 42.2577 61.0706 41.6864 61.2455 41.0556C61.4203 40.4249 61.4204 39.7585 61.2458 39.1277C61.0712 38.4969 60.7283 37.9254 60.254 37.4744C60.3815 37.4085 60.4885 37.3089 60.5634 37.1865C60.6383 37.0641 60.6782 36.9235 60.6789 36.78V31.6891C60.6789 30.0449 60.0318 28.634 58.8625 27.7369C58.61 27.5529 58.4034 27.3131 58.2589 27.0361C58.1143 26.759 58.0358 26.4523 58.0293 26.1399C58.0293 26.0364 58.009 25.9338 57.9693 25.8381C57.9297 25.7424 57.8716 25.6554 57.7983 25.5822C57.7251 25.509 57.6381 25.4509 57.5424 25.4112C57.4467 25.3716 57.3442 25.3512 57.2406 25.3512H51.8053V21.3962H75.0712C75.1908 21.3962 75.3055 21.4435 75.3903 21.5278C75.4751 21.6121 75.5232 21.7266 75.5239 21.8461V25.3456H73.3437C71.6583 25.3478 70.0425 26.0183 68.8508 27.2101C67.659 28.4019 66.9885 30.0176 66.9863 31.703V36.8161C66.9873 36.9596 67.0274 37.1 67.1023 37.2224C67.1772 37.3447 67.284 37.4443 67.4112 37.5105C66.9493 37.9612 66.6173 38.5282 66.4503 39.1516C66.2833 39.7751 66.2874 40.4321 66.4622 41.0534C66.637 41.6748 66.9761 42.2375 67.4437 42.6824C67.9113 43.1274 68.4901 43.4381 69.1194 43.5818C69.2396 45.3296 70.0181 46.9667 71.2979 48.1631C72.5777 49.3594 74.2636 50.0259 76.0155 50.0281H77.2875C79.036 50.0293 80.7201 49.3687 82.0014 48.179C83.2828 46.9894 84.0665 45.3589 84.1948 43.6151C84.8335 43.4724 85.4213 43.1587 85.8955 42.7078C86.3697 42.2568 86.7124 41.6854 86.887 41.0547C87.0615 40.424 87.0614 39.7577 86.8866 39.1271C86.7118 38.4965 86.3689 37.9252 85.8946 37.4744C86.0224 37.4089 86.1297 37.3095 86.2047 37.187C86.2797 37.0645 86.3194 36.9237 86.3195 36.78V31.6891C86.3195 30.0449 85.6751 28.634 84.5031 27.7369C84.2509 27.5526 84.0445 27.3127 83.9 27.0358C83.7555 26.7588 83.6767 26.4523 83.6699 26.1399C83.6699 25.9308 83.5868 25.7301 83.4389 25.5822C83.2909 25.4343 83.0903 25.3512 82.8811 25.3512H77.1043V21.8517C77.1013 21.3144 76.8864 20.8 76.5062 20.4203C76.126 20.0406 75.6113 19.8264 75.074 19.8242H27.3646C26.8268 19.825 26.3113 20.0387 25.9308 20.4187C25.5502 20.7987 25.3358 21.3139 25.3343 21.8517V25.3512H22.0709C20.386 25.3541 18.771 26.0249 17.5798 27.2166C16.3887 28.4083 15.7186 30.0236 15.7164 31.7086V36.8217C15.7168 36.9649 15.7564 37.1053 15.8308 37.2277C15.9052 37.35 16.0116 37.4497 16.1385 37.516C15.6775 37.9674 15.3463 38.5345 15.18 39.1579C15.0137 39.7814 15.0183 40.4381 15.1933 41.0591C15.3683 41.6801 15.7073 42.2426 16.1746 42.6875C16.642 43.1323 17.2205 43.4432 17.8494 43.5874C17.9696 45.3351 18.7481 46.9723 20.0279 48.1686C21.3077 49.3649 22.9937 50.0314 24.7456 50.0336H26.0175C27.7667 50.0359 29.4517 49.3748 30.7325 48.1837C32.0134 46.9925 32.7949 45.3599 32.9193 43.6151ZM57.9155 28.9979C58.312 29.3246 58.627 29.7392 58.8357 30.2087C59.0444 30.6781 59.1411 31.1897 59.1181 31.703V36.7384C58.9461 36.6692 58.7686 36.6144 58.5876 36.5745V36.5273C58.5876 34.8331 57.9146 33.2083 56.7166 32.0103C55.5186 30.8124 53.8939 30.1394 52.1997 30.1394H49.8612C48.167 30.1394 46.5422 30.8124 45.3442 32.0103C44.1463 33.2083 43.4732 34.8331 43.4732 36.5273V36.5856C43.2892 36.6292 43.109 36.6878 42.9345 36.7606V31.7086C42.9359 30.4418 43.4396 29.2273 44.3351 28.3313C45.2305 27.4353 46.4447 26.9309 47.7115 26.9287H56.549C56.748 27.7485 57.2238 28.4744 57.896 28.984L57.9155 28.9979ZM57.7989 42.1181C57.5894 42.1189 57.3888 42.2026 57.2409 42.3509C57.0931 42.4993 57.0101 42.7002 57.0101 42.9097V43.1346C57.0086 44.5492 56.446 45.9054 55.4458 46.9057C54.4455 47.9059 53.0893 48.4685 51.6748 48.47H50.4055C48.991 48.4685 47.6348 47.9059 46.6345 46.9057C45.6343 45.9054 45.0717 44.5492 45.0702 43.1346V42.9069C45.0702 42.6996 44.9887 42.5007 44.8431 42.353C44.6976 42.2054 44.4998 42.121 44.2926 42.1181C43.7682 42.0987 43.2718 41.8768 42.9077 41.4989C42.5436 41.1211 42.3401 40.6168 42.3401 40.092C42.3401 39.5673 42.5436 39.063 42.9077 38.6852C43.2718 38.3073 43.7682 38.0854 44.2926 38.066C44.4998 38.063 44.6976 37.9786 44.8431 37.831C44.9887 37.6834 45.0702 37.4845 45.0702 37.2772V36.5273C45.068 35.2526 45.5709 34.029 46.4688 33.1243C47.3667 32.2196 48.5865 31.7076 49.8612 31.7002H52.1747C53.4508 31.7017 54.6742 32.2093 55.5765 33.1116C56.4788 34.0139 56.9864 35.2373 56.9878 36.5134V37.2605C56.9878 37.3641 57.0083 37.4667 57.0479 37.5624C57.0875 37.6581 57.1456 37.745 57.2188 37.8183C57.2921 37.8915 57.379 37.9496 57.4747 37.9892C57.5704 38.0289 57.673 38.0493 57.7766 38.0493C58.3143 38.0493 58.83 38.2629 59.2103 38.6431C59.5905 39.0233 59.8041 39.539 59.8041 40.0768C59.8041 40.6145 59.5905 41.1302 59.2103 41.5104C58.83 41.8906 58.3143 42.1042 57.7766 42.1042L57.7989 42.1181ZM83.5588 28.9979C83.9553 29.3246 84.2703 29.7392 84.479 30.2087C84.6877 30.6781 84.7844 31.1897 84.7614 31.703V36.7384C84.5892 36.6696 84.4119 36.6148 84.2309 36.5745V36.5273C84.2309 34.8331 83.5579 33.2083 82.3599 32.0103C81.162 30.8124 79.5372 30.1394 77.843 30.1394H75.5322C73.838 30.1394 72.2133 30.8124 71.0153 32.0103C69.8173 33.2083 69.1443 34.8331 69.1443 36.5273V36.5856C68.9603 36.6292 68.7801 36.6878 68.6055 36.7606V31.7086C68.6063 30.4416 69.1097 29.2267 70.0053 28.3305C70.901 27.4343 72.1156 26.9302 73.3826 26.9287H82.2201C82.4118 27.7445 82.8775 28.47 83.5394 28.984L83.5588 28.9979ZM82.6339 42.8958V43.1208C82.6325 44.5353 82.0699 45.8915 81.0696 46.8918C80.0694 47.892 78.7132 48.4546 77.2987 48.4561H76.0266C74.6123 48.4546 73.2564 47.8919 72.2566 46.8916C71.2568 45.8913 70.6948 44.5351 70.6941 43.1208V42.893C70.6941 42.6857 70.6125 42.4868 70.467 42.3392C70.3215 42.1916 70.1237 42.1072 69.9164 42.1042C69.3921 42.0848 68.8957 41.8629 68.5315 41.485C68.1674 41.1072 67.964 40.6029 67.964 40.0782C67.964 39.5534 68.1674 39.0491 68.5315 38.6713C68.8957 38.2934 69.3921 38.0715 69.9164 38.0521C70.1237 38.0491 70.3215 37.9648 70.467 37.8172C70.6125 37.6695 70.6941 37.4706 70.6941 37.2633V36.5134C70.6948 35.2371 71.2022 34.0133 72.1047 33.1108C73.0072 32.2083 74.231 31.701 75.5073 31.7002H77.818C79.0945 31.701 80.3187 32.2082 81.2216 33.1106C82.1245 34.013 82.6325 35.2368 82.6339 36.5134V37.2605C82.6339 37.3641 82.6543 37.4667 82.6939 37.5624C82.7336 37.6581 82.7917 37.745 82.865 37.8183C82.9382 37.8915 83.0252 37.9496 83.1209 37.9892C83.2166 38.0289 83.3192 38.0493 83.4227 38.0493C83.9604 38.0493 84.4761 38.2629 84.8564 38.6431C85.2366 39.0233 85.4501 39.539 85.4501 40.0768C85.4501 40.6145 85.2366 41.1302 84.8564 41.5104C84.4761 41.8906 83.9604 42.1042 83.4227 42.1042C83.2133 42.105 83.0127 42.1887 82.8648 42.3371C82.717 42.4854 82.6339 42.6863 82.6339 42.8958ZM32.1361 42.1042C31.9266 42.105 31.726 42.1887 31.5782 42.3371C31.4303 42.4854 31.3473 42.6863 31.3473 42.8958V43.1208C31.3466 44.5351 30.7846 45.8913 29.7848 46.8916C28.785 47.8919 27.4291 48.4546 26.0148 48.4561H24.7428C23.3282 48.4546 21.972 47.892 20.9718 46.8918C19.9715 45.8915 19.409 44.5353 19.4075 43.1208V42.893C19.4082 42.6855 19.3268 42.4861 19.1812 42.3384C19.0355 42.1906 18.8373 42.1064 18.6298 42.1042C18.1055 42.0848 17.6091 41.8629 17.2449 41.485C16.8808 41.1072 16.6773 40.6029 16.6773 40.0782C16.6773 39.5534 16.8808 39.0491 17.2449 38.6713C17.6091 38.2934 18.1055 38.0715 18.6298 38.0521C18.8371 38.0491 19.0349 37.9648 19.1804 37.8172C19.3259 37.6695 19.4075 37.4706 19.4075 37.2633V36.5134C19.409 35.2368 19.9169 34.013 20.8198 33.1106C21.7228 32.2082 22.9468 31.701 24.2234 31.7002H26.5314C27.8077 31.701 29.0315 32.2083 29.934 33.1108C30.8365 34.0133 31.3438 35.2371 31.3446 36.5134V37.2605C31.3446 37.4697 31.4277 37.6703 31.5756 37.8183C31.7235 37.9662 31.9241 38.0493 32.1333 38.0493C32.3995 38.0493 32.6632 38.1017 32.9092 38.2036C33.1552 38.3055 33.3786 38.4549 33.5669 38.6431C33.7552 38.8314 33.9045 39.0549 34.0064 39.3009C34.1083 39.5469 34.1608 39.8105 34.1608 40.0768C34.1608 40.343 34.1083 40.6067 34.0064 40.8526C33.9045 41.0986 33.7552 41.3221 33.5669 41.5104C33.3786 41.6987 33.1552 41.848 32.9092 41.9499C32.6632 42.0518 32.3995 42.1042 32.1333 42.1042H32.1361ZM22.0682 26.9287H30.9057C31.1058 27.748 31.5814 28.4736 32.2528 28.984C32.6502 29.3101 32.9662 29.7244 33.1754 30.194C33.3847 30.6636 33.4814 31.1755 33.4581 31.6891V36.7245C33.285 36.6557 33.1067 36.6009 32.9249 36.5606V36.5134C32.9249 34.8192 32.2518 33.1944 31.0539 31.9965C29.8559 30.7985 28.2311 30.1255 26.5369 30.1255H24.2262C22.532 30.1255 20.9072 30.7985 19.7092 31.9965C18.5113 33.1944 17.8382 34.8192 17.8382 36.5134V36.5717C17.6543 36.6158 17.4742 36.6743 17.2995 36.7467V31.7086C17.3009 30.4432 17.8035 29.23 18.6972 28.3342C19.5908 27.4385 20.8028 26.9331 22.0682 26.9287Z" fill="#265285"/>
<path d="M73.3552 26.9297C72.0882 26.9312 70.8736 27.4353 69.978 28.3315C69.0824 29.2276 68.5789 30.4425 68.5781 31.7095V36.7477C68.7527 36.6748 68.9329 36.6163 69.117 36.5727V36.5144C69.117 34.8202 69.79 33.1954 70.988 31.9974C72.1859 30.7994 73.8107 30.1264 75.5049 30.1264H77.8156C79.5098 30.1264 81.1346 30.7994 82.3326 31.9974C83.5306 33.1954 84.2035 34.8202 84.2035 36.5144V36.5616C84.3845 36.6019 84.5619 36.6567 84.734 36.7255V31.6901C84.757 31.1768 84.6603 30.6652 84.4516 30.1957C84.2429 29.7262 83.9279 29.3117 83.5314 28.9849C82.8592 28.4754 82.3834 27.7494 82.1844 26.9297H73.3552Z" fill="white"/>
<path d="M85.4508 40.0777C85.4494 39.5404 85.2353 39.0256 84.8554 38.6457C84.4755 38.2658 83.9607 38.0517 83.4234 38.0502C83.2142 38.0502 83.0136 37.9671 82.8656 37.8192C82.7177 37.6713 82.6346 37.4706 82.6346 37.2615V36.5143C82.6332 35.2378 82.1252 34.014 81.2223 33.1116C80.3194 32.2092 79.0952 31.7019 77.8187 31.7012H75.508C74.2312 31.7012 73.0066 32.2082 72.1035 33.1107C71.2005 34.0133 70.6927 35.2376 70.692 36.5143V37.2642C70.692 37.4715 70.6105 37.6705 70.4649 37.8181C70.3194 37.9657 70.1216 38.0501 69.9143 38.053C69.39 38.0724 68.8936 38.2944 68.5295 38.6722C68.1653 39.0501 67.9619 39.5544 67.9619 40.0791C67.9619 40.6038 68.1653 41.1081 68.5295 41.486C68.8936 41.8638 69.39 42.0858 69.9143 42.1052C70.1216 42.1081 70.3194 42.1925 70.4649 42.3401C70.6105 42.4877 70.692 42.6867 70.692 42.8939V43.1217C70.6927 44.536 71.2547 45.8922 72.2545 46.8925C73.2543 47.8929 74.6102 48.4555 76.0245 48.457H77.2966C78.7116 48.4563 80.0685 47.894 81.0693 46.8937C82.0702 45.8934 82.6332 44.5367 82.6346 43.1217V42.8967C82.6346 42.6873 82.7177 42.4864 82.8655 42.338C83.0134 42.1896 83.214 42.1059 83.4234 42.1052C83.9609 42.1044 84.4762 41.8906 84.8562 41.5105C85.2363 41.1305 85.4501 40.6152 85.4508 40.0777Z" fill="white"/>
<path d="M47.7126 26.9297C46.4458 26.9319 45.2316 27.4363 44.3362 28.3323C43.4407 29.2283 42.937 30.4428 42.9355 31.7095V36.7477C43.1101 36.6748 43.2903 36.6163 43.4743 36.5727V36.5144C43.4743 34.8202 44.1474 33.1954 45.3453 31.9974C46.5433 30.7994 48.1681 30.1264 49.8623 30.1264H52.1758C53.87 30.1264 55.4948 30.7994 56.6927 31.9974C57.8907 33.1954 58.5637 34.8202 58.5637 36.5144V36.5616C58.7448 36.6015 58.9222 36.6563 59.0942 36.7255V31.6901C59.1172 31.1768 59.0205 30.6652 58.8118 30.1957C58.6031 29.7262 58.288 29.3117 57.8916 28.9849C57.2193 28.4754 56.7436 27.7494 56.5446 26.9297H47.7126Z" fill="white"/>
<path d="M57.7799 38.061C57.5707 38.061 57.37 37.9779 57.2221 37.8299C57.0742 37.682 56.9911 37.4814 56.9911 37.2722V36.5251C56.9896 35.249 56.4821 34.0256 55.5798 33.1233C54.6774 32.221 53.454 31.7134 52.178 31.7119H49.8616C48.5856 31.7134 47.3622 32.221 46.4598 33.1233C45.5575 34.0256 45.0499 35.249 45.0485 36.5251V37.275C45.0485 37.4823 44.9669 37.6812 44.8214 37.8288C44.6758 37.9764 44.4781 38.0608 44.2708 38.0637C43.7465 38.0832 43.25 38.3051 42.8859 38.683C42.5218 39.0608 42.3184 39.5651 42.3184 40.0898C42.3184 40.6146 42.5218 41.1189 42.8859 41.4967C43.25 41.8745 43.7465 42.0965 44.2708 42.1159C44.4781 42.1188 44.6758 42.2032 44.8214 42.3508C44.9669 42.4984 45.0485 42.6974 45.0485 42.9047V43.1324C45.0499 44.547 45.6125 45.9032 46.6127 46.9035C47.613 47.9037 48.9692 48.4663 50.3837 48.4678H51.653C53.0676 48.4663 54.4238 47.9037 55.424 46.9035C56.4242 45.9032 56.9868 44.547 56.9883 43.1324V42.9075C56.9883 42.698 57.0713 42.4971 57.2192 42.3487C57.367 42.2004 57.5676 42.1167 57.7771 42.1159C58.3148 42.1159 58.8305 41.9023 59.2107 41.5221C59.5909 41.1419 59.8046 40.6262 59.8046 40.0884C59.8046 39.5507 59.5909 39.035 59.2107 38.6548C58.8305 38.2746 58.3148 38.061 57.7771 38.061H57.7799Z" fill="white"/>
<path d="M60.3684 61.891C60.2101 60.655 59.8079 59.4627 59.1853 58.3833C58.5626 57.3039 57.7318 56.3589 56.7411 55.6031C55.0926 54.3284 53.0676 53.6368 50.9837 53.6367C50.5648 53.6369 50.1463 53.6647 49.7311 53.72C47.8711 53.9639 46.1252 54.7539 44.7142 55.99C43.3032 57.2262 42.2904 58.853 41.804 60.6647C41.3175 62.4764 41.3792 64.3917 41.9813 66.1684C42.5833 67.945 43.6988 69.5032 45.1864 70.646C46.6741 71.7887 48.4671 72.4647 50.339 72.5883C52.2108 72.712 54.0773 72.2778 55.7023 71.3407C57.3274 70.4036 58.638 69.0056 59.4686 67.3236C60.2991 65.6416 60.6123 63.751 60.3684 61.891ZM55.2052 60.8051C55.2052 60.9087 55.1849 61.0112 55.1452 61.1069C55.1056 61.2026 55.0475 61.2896 54.9742 61.3629C54.901 61.4361 54.814 61.4942 54.7183 61.5338C54.6226 61.5735 54.52 61.5939 54.4164 61.5939C54.3129 61.5939 54.2103 61.5735 54.1146 61.5338C54.0189 61.4942 53.932 61.4361 53.8587 61.3629C53.7855 61.2896 53.7274 61.2026 53.6877 61.1069C53.6481 61.0112 53.6277 60.9087 53.6277 60.8051V59.7969C53.627 59.5217 53.5173 59.2579 53.3226 59.0632C53.128 58.8686 52.8642 58.7589 52.589 58.7582H49.3395C49.0645 58.7589 48.801 58.8687 48.6068 59.0634C48.4126 59.2581 48.3035 59.5219 48.3035 59.7969V61.2967C48.3035 61.5714 48.4126 61.835 48.6069 62.0292C48.8012 62.2235 49.0647 62.3327 49.3395 62.3327H52.589C53.2824 62.3341 53.947 62.6102 54.4373 63.1006C54.9276 63.5909 55.2038 64.2555 55.2052 64.9489V66.4487C55.2038 67.1421 54.9276 67.8067 54.4373 68.2971C53.947 68.7874 53.2824 69.0635 52.589 69.065H51.7558V70.7092C51.7558 70.9184 51.6727 71.119 51.5248 71.2669C51.3768 71.4149 51.1762 71.498 50.967 71.498C50.7578 71.498 50.5572 71.4149 50.4093 71.2669C50.2614 71.119 50.1782 70.9184 50.1782 70.7092V69.065H49.345C48.6516 69.0635 47.987 68.7874 47.4966 68.2971C47.0063 67.8067 46.7302 67.1421 46.7287 66.4487V65.4072C46.7407 65.2057 46.8292 65.0164 46.976 64.878C47.1229 64.7396 47.3171 64.6625 47.5189 64.6625C47.7207 64.6625 47.9149 64.7396 48.0618 64.878C48.2087 65.0164 48.2971 65.2057 48.309 65.4072V66.4487C48.309 66.7237 48.4181 66.9875 48.6123 67.1822C48.8065 67.3769 49.07 67.4867 49.345 67.4874H52.5945C52.8698 67.4867 53.1336 67.377 53.3282 67.1824C53.5228 66.9878 53.6325 66.724 53.6333 66.4487V64.9489C53.6325 64.6739 53.5227 64.4104 53.328 64.2162C53.1333 64.022 52.8695 63.913 52.5945 63.913H49.345C48.6516 63.9115 47.987 63.6354 47.4966 63.1451C47.0063 62.6547 46.7302 61.9901 46.7287 61.2967V59.7969C46.7302 59.1035 47.0063 58.4389 47.4966 57.9486C47.987 57.4582 48.6516 57.1821 49.345 57.1806H50.1782V55.5364C50.1782 55.3272 50.2614 55.1266 50.4093 54.9787C50.5572 54.8308 50.7578 54.7477 50.967 54.7477C51.1762 54.7477 51.3768 54.8308 51.5248 54.9787C51.6727 55.1266 51.7558 55.3272 51.7558 55.5364V57.1806H52.589C53.2824 57.1821 53.947 57.4582 54.4373 57.9486C54.9276 58.4389 55.2038 59.1035 55.2052 59.7969V60.8051Z" fill="white"/>
<path d="M57.7016 54.35C55.6715 52.7904 53.1634 51.983 50.6047 52.0653C48.046 52.1476 45.595 53.1146 43.6694 54.8015C41.7438 56.4884 40.4626 58.7908 40.0443 61.3164C39.6259 63.842 40.0963 66.4346 41.3752 68.6523C42.6541 70.8699 44.6623 72.5756 47.0578 73.4785C49.4533 74.3815 52.0878 74.4258 54.5123 73.6041C56.9369 72.7823 59.0014 71.1453 60.3543 68.9719C61.7071 66.7985 62.2645 64.2233 61.9315 61.6851C61.7461 60.2436 61.2769 58.8531 60.5508 57.5941C59.8248 56.335 58.8564 55.2324 57.7016 54.35ZM50.9526 72.6029C49.4448 72.6025 47.9588 72.2427 46.6178 71.5532C45.2769 70.8638 44.1196 69.8645 43.242 68.6384C42.3644 67.4123 41.7919 65.9946 41.5717 64.5029C41.3516 63.0113 41.4902 61.4886 41.9762 60.0613C42.4622 58.6339 43.2814 57.343 44.366 56.2955C45.4507 55.2481 46.7694 54.4744 48.2128 54.0385C49.6563 53.6026 51.1828 53.5171 52.6659 53.7891C54.149 54.0611 55.5458 54.6828 56.7406 55.6026C58.3134 56.8092 59.4684 58.4784 60.0431 60.3756C60.6178 62.2727 60.5833 64.3024 59.9444 66.1789C59.3055 68.0554 58.0944 69.6844 56.4814 70.8367C54.8685 71.9891 52.9349 72.6068 50.9526 72.6029Z" fill="#265285"/>
<path d="M52.5897 57.18H51.7565V55.5358C51.7565 55.3267 51.6734 55.126 51.5255 54.9781C51.3776 54.8302 51.1769 54.7471 50.9677 54.7471C50.7585 54.7471 50.558 54.8302 50.41 54.9781C50.2621 55.126 50.1789 55.3267 50.1789 55.5358V57.18H49.3457C48.6523 57.1815 47.9877 57.4576 47.4974 57.948C47.0071 58.4383 46.731 59.1029 46.7295 59.7963V61.2961C46.731 61.9895 47.0071 62.6541 47.4974 63.1445C47.9877 63.6348 48.6523 63.9109 49.3457 63.9124H52.5953C52.8703 63.9124 53.134 64.0214 53.3288 64.2156C53.5235 64.4098 53.6333 64.6733 53.634 64.9483V66.4481C53.6333 66.7234 53.5236 66.9872 53.329 67.1818C53.1343 67.3764 52.8706 67.4861 52.5953 67.4869H49.3457C49.0707 67.4861 48.8073 67.3763 48.6131 67.1816C48.4189 66.9869 48.3098 66.7231 48.3098 66.4481V65.4066C48.2978 65.2051 48.2094 65.0158 48.0626 64.8774C47.9157 64.739 47.7215 64.6619 47.5196 64.6619C47.3178 64.6619 47.1237 64.739 46.9768 64.8774C46.8299 65.0158 46.7414 65.2051 46.7295 65.4066V66.4481C46.731 67.1415 47.0071 67.8062 47.4974 68.2965C47.9877 68.7868 48.6523 69.0629 49.3457 69.0644H50.1789V70.7086C50.1789 70.9178 50.2621 71.1184 50.41 71.2663C50.558 71.4143 50.7585 71.4974 50.9677 71.4974C51.1769 71.4974 51.3776 71.4143 51.5255 71.2663C51.6734 71.1184 51.7565 70.9178 51.7565 70.7086V69.0644H52.5897C53.2832 69.0629 53.9477 68.7868 54.4381 68.2965C54.9284 67.8062 55.2045 67.1415 55.206 66.4481V64.9483C55.2045 64.2549 54.9284 63.5903 54.4381 63.1C53.9477 62.6096 53.2832 62.3335 52.5897 62.3321H49.3402C49.0655 62.3321 48.8019 62.2229 48.6077 62.0286C48.4134 61.8344 48.3042 61.5709 48.3042 61.2961V59.7963C48.3042 59.5213 48.4133 59.2575 48.6075 59.0628C48.8017 58.8681 49.0652 58.7583 49.3402 58.7576H52.5897C52.865 58.7583 53.1288 58.868 53.3234 59.0626C53.518 59.2573 53.6277 59.5211 53.6285 59.7963V60.8045C53.6285 60.9081 53.6488 61.0107 53.6885 61.1064C53.7281 61.2021 53.7862 61.289 53.8595 61.3623C53.9327 61.4355 54.0197 61.4936 54.1154 61.5332C54.2111 61.5729 54.3136 61.5933 54.4172 61.5933C54.5208 61.5933 54.6234 61.5729 54.7191 61.5332C54.8148 61.4936 54.9017 61.4355 54.975 61.3623C55.0482 61.289 55.1063 61.2021 55.146 61.1064C55.1856 61.0107 55.206 60.9081 55.206 60.8045V59.7963C55.2045 59.1029 54.9284 58.4383 54.4381 57.948C53.9477 57.4576 53.2832 57.1815 52.5897 57.18Z" fill="#265285"/>
<path d="M19.3776 70.642C21.3755 72.1253 23.8763 72.7641 26.3408 72.4206C28.8053 72.0771 31.0361 70.7789 32.5523 68.8058C34.0684 66.8327 34.7485 64.3428 34.4458 61.873C34.1431 59.4031 32.882 57.1511 30.9342 55.6025C29.9489 54.8192 28.8175 54.2398 27.6061 53.8981C26.3946 53.5564 25.1272 53.4593 23.8778 53.6124C22.6284 53.7655 21.422 54.1658 20.3289 54.7899C19.2357 55.414 18.2778 56.2495 17.5108 57.2476C16.7439 58.2457 16.1832 59.3865 15.8616 60.6035C15.54 61.8204 15.4639 63.0892 15.6377 64.3359C15.8114 65.5826 16.2316 66.7823 16.8737 67.8649C17.5158 68.9476 18.367 69.8916 19.3776 70.642ZM20.9163 65.4066C20.9163 65.1974 20.9994 64.9968 21.1473 64.8489C21.2952 64.701 21.4959 64.6179 21.7051 64.6179C21.9143 64.6179 22.1149 64.701 22.2628 64.8489C22.4107 64.9968 22.4938 65.1974 22.4938 65.4066V66.4481C22.4938 66.7232 22.6029 66.9869 22.7971 67.1817C22.9913 67.3764 23.2547 67.4861 23.5297 67.4869H26.782C27.0568 67.4854 27.3199 67.3754 27.5139 67.1809C27.708 66.9863 27.8172 66.7229 27.818 66.4481V64.9484C27.8172 64.6738 27.7079 64.4108 27.5138 64.2166C27.3197 64.0225 27.0565 63.9131 26.782 63.9124H23.5297C22.8366 63.9109 22.1722 63.6347 21.6824 63.1443C21.1925 62.6539 20.917 61.9893 20.9163 61.2961V59.7964C20.917 59.1032 21.1925 58.4386 21.6824 57.9482C22.1722 57.4578 22.8366 57.1815 23.5297 57.1801H24.3629V55.5359C24.3749 55.3344 24.4634 55.1451 24.6102 55.0067C24.7571 54.8683 24.9513 54.7912 25.1531 54.7912C25.3549 54.7912 25.5492 54.8683 25.696 55.0067C25.8429 55.1451 25.9313 55.3344 25.9432 55.5359V57.1801H26.7765C27.4696 57.1815 28.134 57.4578 28.6238 57.9482C29.1137 58.4386 29.3893 59.1032 29.39 59.7964V60.8045C29.39 61.0137 29.3069 61.2144 29.159 61.3623C29.011 61.5102 28.8104 61.5933 28.6012 61.5933C28.392 61.5933 28.1914 61.5102 28.0435 61.3623C27.8956 61.2144 27.8125 61.0137 27.8125 60.8045V59.7964C27.8117 59.5216 27.7024 59.2582 27.5084 59.0636C27.3143 58.8691 27.0512 58.7591 26.7765 58.7576H23.5242C23.2492 58.7584 22.9857 58.8681 22.7915 59.0628C22.5973 59.2576 22.4882 59.5213 22.4882 59.7964V61.2961C22.4882 61.5709 22.5974 61.8344 22.7917 62.0287C22.9859 62.2229 23.2494 62.3321 23.5242 62.3321H26.7765C27.4696 62.3336 28.134 62.6098 28.6238 63.1002C29.1137 63.5906 29.3893 64.2552 29.39 64.9484V66.4481C29.3893 67.1413 29.1137 67.8059 28.6238 68.2963C28.134 68.7868 27.4696 69.063 26.7765 69.0644H25.9432V70.7086C25.9313 70.9101 25.8429 71.0994 25.696 71.2378C25.5492 71.3762 25.3549 71.4533 25.1531 71.4533C24.9513 71.4533 24.7571 71.3762 24.6102 71.2378C24.4634 71.0994 24.3749 70.9101 24.3629 70.7086V69.0644H23.5297C22.8366 69.063 22.1722 68.7868 21.6824 68.2963C21.1925 67.8059 20.917 67.1413 20.9163 66.4481V65.4066Z" fill="white"/>
<path d="M33.9273 69.8615C35.4557 67.8785 36.268 65.4365 36.2319 62.933C36.1957 60.4296 35.3133 58.012 33.7282 56.0739C32.1431 54.1359 29.9488 52.7913 27.5023 52.2592C25.0557 51.727 22.5012 52.0386 20.2543 53.1433C18.0074 54.2479 16.2006 56.0805 15.1278 58.3427C14.0551 60.605 13.7796 63.1638 14.3463 65.6025C14.913 68.0413 16.2885 70.2164 18.2488 71.774C20.2091 73.3315 22.6388 74.1796 25.1425 74.1803C26.8409 74.1878 28.5179 73.8018 30.042 73.0525C31.5662 72.3032 32.896 71.211 33.9273 69.8615ZM23.9288 53.7195C25.1637 53.5541 26.4192 53.6353 27.6225 53.9586C28.8259 54.2818 29.9531 54.8406 30.9389 55.6026C32.679 56.9394 33.9017 58.8383 34.3987 60.9757C34.8957 63.113 34.6363 65.3565 33.6645 67.324C32.6928 69.2915 31.0689 70.8612 29.0696 71.7656C27.0703 72.67 24.8192 72.8531 22.7 72.2839C20.5808 71.7146 18.7245 70.4281 17.4474 68.6436C16.1704 66.8591 15.5517 64.687 15.6966 62.4974C15.8415 60.3079 16.7412 58.2363 18.2423 56.6357C19.7434 55.0351 21.753 54.0045 23.9288 53.7195Z" fill="#265285"/>
<path d="M23.5295 69.0642H24.3627V70.7084C24.3746 70.9099 24.4631 71.0992 24.61 71.2376C24.7568 71.376 24.951 71.4531 25.1528 71.4531C25.3547 71.4531 25.5489 71.376 25.6958 71.2376C25.8426 71.0992 25.931 70.9099 25.943 70.7084V69.0642H26.7762C27.4694 69.0628 28.1337 68.7866 28.6236 68.2962C29.1135 67.8058 29.389 67.1411 29.3897 66.448V64.9482C29.389 64.255 29.1135 63.5904 28.6236 63.1C28.1337 62.6096 27.4694 62.3334 26.7762 62.3319H23.5239C23.2492 62.3319 22.9857 62.2228 22.7914 62.0285C22.5971 61.8342 22.488 61.5707 22.488 61.296V59.7962C22.488 59.5212 22.5971 59.2574 22.7913 59.0627C22.9855 58.8679 23.2489 58.7582 23.5239 58.7574H26.7762C27.051 58.7589 27.3141 58.8689 27.5081 59.0635C27.7021 59.258 27.8115 59.5214 27.8122 59.7962V60.8044C27.8122 61.0136 27.8953 61.2142 28.0432 61.3621C28.1911 61.51 28.3917 61.5931 28.6009 61.5931C28.8101 61.5931 29.0108 61.51 29.1587 61.3621C29.3066 61.2142 29.3897 61.0136 29.3897 60.8044V59.7962C29.389 59.103 29.1135 58.4384 28.6236 57.948C28.1337 57.4576 27.4694 57.1814 26.7762 57.1799H25.943V55.5357C25.931 55.3342 25.8426 55.1449 25.6958 55.0065C25.5489 54.8681 25.3547 54.791 25.1528 54.791C24.951 54.791 24.7568 54.8681 24.61 55.0065C24.4631 55.1449 24.3746 55.3342 24.3627 55.5357V57.1799H23.5295C22.8363 57.1814 22.172 57.4576 21.6821 57.948C21.1922 58.4384 20.9167 59.103 20.916 59.7962V61.296C20.9167 61.9891 21.1922 62.6537 21.6821 63.1441C22.172 63.6346 22.8363 63.9108 23.5295 63.9122H26.7818C27.0563 63.913 27.3194 64.0223 27.5135 64.2165C27.7076 64.4106 27.817 64.6737 27.8177 64.9482V66.448C27.817 66.7227 27.7077 66.9861 27.5137 67.1807C27.3196 67.3752 27.0565 67.4852 26.7818 67.4867H23.5295C23.2545 67.486 22.991 67.3762 22.7968 67.1815C22.6026 66.9868 22.4935 66.723 22.4935 66.448V65.4065C22.4935 65.1973 22.4104 64.9966 22.2625 64.8487C22.1146 64.7008 21.914 64.6177 21.7048 64.6177C21.4956 64.6177 21.295 64.7008 21.147 64.8487C20.9991 64.9966 20.916 65.1973 20.916 65.4065V66.448C20.9167 67.1411 21.1922 67.8058 21.6821 68.2962C22.172 68.7866 22.8363 69.0628 23.5295 69.0642Z" fill="#265285"/>
<path d="M86.1766 61.8905C86.0188 60.6546 85.6172 59.4624 84.995 58.383C84.3728 57.3036 83.5425 56.3585 82.5521 55.6025C80.8118 54.2646 78.6615 53.5716 76.4674 53.6415C74.2734 53.7115 72.1715 54.5401 70.5199 55.9861C68.8684 57.4321 67.7693 59.4061 67.4101 61.5717C67.0509 63.7372 67.4538 65.9603 68.55 67.8622C69.6463 69.764 71.368 71.2268 73.422 72.0014C75.4759 72.776 77.7349 72.8144 79.814 72.11C81.893 71.4056 83.6635 70.0021 84.8237 68.1386C85.9839 66.2752 86.462 64.067 86.1766 61.8905ZM81.0135 60.8046C81.0135 61.0137 80.9304 61.2144 80.7825 61.3623C80.6345 61.5102 80.4339 61.5933 80.2247 61.5933C80.0155 61.5933 79.8149 61.5102 79.667 61.3623C79.519 61.2144 79.4359 61.0137 79.4359 60.8046V59.7964C79.436 59.5214 79.3269 59.2576 79.1327 59.0629C78.9385 58.8681 78.675 58.7584 78.4 58.7576H75.1366C74.8618 58.7591 74.5987 58.8691 74.4047 59.0637C74.2107 59.2582 74.1014 59.5216 74.1007 59.7964V61.2961C74.1014 61.5707 74.2108 61.8337 74.4049 62.0279C74.599 62.222 74.8621 62.3314 75.1366 62.3321H78.3889C79.0821 62.3336 79.7464 62.6098 80.2363 63.1002C80.7262 63.5906 81.0017 64.2552 81.0024 64.9484V66.4482C81.0017 67.1413 80.7262 67.8059 80.2363 68.2964C79.7464 68.7868 79.0821 69.063 78.3889 69.0644H77.5557V70.7086C77.5557 70.9178 77.4726 71.1185 77.3247 71.2664C77.1767 71.4143 76.9761 71.4974 76.7669 71.4974C76.5578 71.4974 76.3571 71.4143 76.2092 71.2664C76.0613 71.1185 75.9782 70.9178 75.9782 70.7086V69.0644H75.145C74.4518 69.063 73.7874 68.7868 73.2976 68.2964C72.8077 67.8059 72.5322 67.1413 72.5315 66.4482V65.4066C72.5315 65.1974 72.6146 64.9968 72.7625 64.8489C72.9104 64.701 73.111 64.6179 73.3202 64.6179C73.5294 64.6179 73.7301 64.701 73.878 64.8489C74.0259 64.9968 74.109 65.1974 74.109 65.4066V66.4482C74.106 66.7239 74.2125 66.9896 74.4052 67.1869C74.5978 67.3842 74.8609 67.4971 75.1366 67.5008H78.3889C78.6639 67.5 78.9274 67.3903 79.1216 67.1956C79.3158 67.0008 79.4248 66.7371 79.4248 66.462V64.9623C79.4248 64.6875 79.3157 64.424 79.1214 64.2297C78.9271 64.0355 78.6636 63.9263 78.3889 63.9263H75.1366C74.4434 63.9248 73.7791 63.6486 73.2892 63.1582C72.7993 62.6678 72.5239 62.0032 72.5231 61.31V59.8103C72.5239 59.1171 72.7993 58.4525 73.2892 57.9621C73.7791 57.4717 74.4434 57.1954 75.1366 57.194H75.9698V55.5498C75.9698 55.3406 76.0529 55.14 76.2008 54.992C76.3488 54.8441 76.5494 54.761 76.7586 54.761C76.9678 54.761 77.1684 54.8441 77.3163 54.992C77.4642 55.14 77.5473 55.3406 77.5473 55.5498V57.194H78.3805C79.0737 57.1954 79.738 57.4717 80.2279 57.9621C80.7178 58.4525 80.9933 59.1171 80.9941 59.8103L81.0135 60.8046Z" fill="white"/>
<path d="M83.513 54.3494C81.4838 52.7911 78.977 51.9846 76.4198 52.0673C73.8626 52.15 71.4132 53.1167 69.4889 54.8028C67.5645 56.489 66.2843 58.7901 65.8664 61.3143C65.4484 63.8385 65.9185 66.4295 67.1967 68.6459C68.4748 70.8623 70.4819 72.567 72.8759 73.4695C75.27 74.372 77.903 74.4166 80.3262 73.5956C82.7494 72.7745 84.8129 71.1387 86.1653 68.9668C87.5177 66.7949 88.0752 64.2213 87.7429 61.6845C87.5575 60.243 87.0882 58.8526 86.3622 57.5936C85.6361 56.3346 84.6677 55.232 83.513 54.3494ZM76.7641 72.6023C75.2563 72.6019 73.7702 72.2421 72.4293 71.5526C71.0883 70.8632 69.9311 69.8639 69.0535 68.6378C68.176 67.4117 67.6033 65.994 67.3832 64.5023C67.1631 63.0107 67.3017 61.488 67.7877 60.0607C68.2736 58.6333 69.093 57.3424 70.1776 56.2949C71.2622 55.2475 72.5809 54.4738 74.0243 54.0379C75.4677 53.602 76.9943 53.5165 78.4774 53.7885C79.9604 54.0605 81.3573 54.6822 82.5521 55.602C84.1249 56.8086 85.2799 58.4778 85.8546 60.375C86.4293 62.2721 86.3948 64.3018 85.7559 66.1783C85.117 68.0548 83.9059 69.6838 82.293 70.8361C80.68 71.9885 78.7464 72.6062 76.7641 72.6023Z" fill="#265285"/>
<path d="M78.3993 57.18H77.5661V55.5358C77.5661 55.4323 77.5457 55.3297 77.5061 55.234C77.4665 55.1383 77.4083 55.0513 77.3351 54.9781C77.2619 54.9049 77.1749 54.8468 77.0792 54.8071C76.9835 54.7675 76.8809 54.7471 76.7773 54.7471C76.6737 54.7471 76.5712 54.7675 76.4755 54.8071C76.3798 54.8468 76.2929 54.9049 76.2196 54.9781C76.1464 55.0513 76.0882 55.1383 76.0486 55.234C76.009 55.3297 75.9886 55.4323 75.9886 55.5358V57.18H75.1554C74.4622 57.1815 73.7979 57.4577 73.308 57.9481C72.8181 58.4385 72.5426 59.1032 72.5419 59.7963V61.2961C72.5426 61.9893 72.8181 62.6539 73.308 63.1443C73.7979 63.6347 74.4622 63.9109 75.1554 63.9124H78.4077C78.6824 63.9124 78.9459 64.0215 79.1402 64.2158C79.3345 64.4101 79.4436 64.6736 79.4436 64.9483V66.4481C79.4436 66.7231 79.3346 66.9869 79.1404 67.1816C78.9462 67.3763 78.6827 67.4861 78.4077 67.4868H75.1359C74.8611 67.4854 74.5981 67.3754 74.404 67.1808C74.21 66.9863 74.1007 66.7229 74.1 66.4481V65.4066C74.1 65.1974 74.0169 64.9968 73.869 64.8489C73.721 64.7009 73.5204 64.6178 73.3112 64.6178C73.102 64.6178 72.9014 64.7009 72.7535 64.8489C72.6056 64.9968 72.5225 65.1974 72.5225 65.4066V66.4481C72.5232 67.1413 72.7987 67.8059 73.2885 68.2963C73.7784 68.7867 74.4428 69.0629 75.1359 69.0644H75.9691V70.7086C75.9691 70.9178 76.0522 71.1184 76.2002 71.2663C76.3481 71.4143 76.5487 71.4974 76.7579 71.4974C76.9671 71.4974 77.1677 71.4143 77.3156 71.2663C77.4636 71.1184 77.5467 70.9178 77.5467 70.7086V69.0644H78.3799C79.073 69.0629 79.7374 68.7867 80.2272 68.2963C80.7171 67.8059 80.9927 67.1413 80.9934 66.4481V64.9483C80.9927 64.2552 80.7171 63.5906 80.2272 63.1001C79.7374 62.6097 79.073 62.3335 78.3799 62.3321H75.1359C74.8614 62.3313 74.5983 62.2219 74.4042 62.0278C74.2101 61.8337 74.1007 61.5706 74.1 61.2961V59.7963C74.1007 59.5215 74.21 59.2582 74.404 59.0636C74.5981 58.8691 74.8611 58.7591 75.1359 58.7576H78.3882C78.6632 58.7583 78.9267 58.8681 79.1209 59.0628C79.3151 59.2575 79.4241 59.5213 79.4241 59.7963V60.8045C79.4241 60.9081 79.4446 61.0107 79.4842 61.1064C79.5239 61.2021 79.5819 61.289 79.6552 61.3623C79.7284 61.4355 79.8154 61.4936 79.9111 61.5332C80.0068 61.5729 80.1094 61.5933 80.2129 61.5933C80.3165 61.5933 80.419 61.5729 80.5147 61.5332C80.6104 61.4936 80.6974 61.4355 80.7706 61.3623C80.8439 61.289 80.902 61.2021 80.9417 61.1064C80.9813 61.0107 81.0017 60.9081 81.0017 60.8045V59.7963C81.001 59.1051 80.727 58.4421 80.2395 57.952C79.752 57.4619 79.0906 57.1844 78.3993 57.18Z" fill="#265285"/>
<path d="M29.3567 6.28561C29.1676 6.28275 28.9813 6.33073 28.8171 6.42454C28.653 6.51835 28.517 6.65454 28.4235 6.81886C28.2976 7.0234 28.2296 7.25825 28.2267 7.4984C28.2237 7.73855 28.286 7.97499 28.4068 8.18255C28.5176 8.36945 28.6754 8.52415 28.8644 8.63133C29.0534 8.7385 29.2671 8.79443 29.4844 8.79357H30.8148C31.024 8.79357 31.2246 8.87667 31.3725 9.02459C31.5205 9.17252 31.6036 9.37314 31.6036 9.58234V13.4179C31.6032 13.4261 31.6045 13.4344 31.6074 13.4421C31.6103 13.4499 31.6147 13.4569 31.6204 13.4629C31.6262 13.4689 31.6331 13.4736 31.6407 13.4769C31.6483 13.4801 31.6564 13.4818 31.6647 13.4818H43.51V10.3711H43.249C42.7588 10.3677 42.2777 10.2382 41.852 9.995C41.4264 9.75178 41.0706 9.40306 40.8188 8.98243C40.5583 8.54107 40.4188 8.03879 40.4144 7.52628C40.41 7.01377 40.5409 6.50917 40.7938 6.06342C41.0209 5.64532 41.3574 5.29695 41.7675 5.05572C42.1775 4.81449 42.6455 4.6895 43.1212 4.69418H43.51V1.5752H31.6647C31.6484 1.5752 31.6329 1.58163 31.6215 1.59309C31.61 1.60455 31.6036 1.62009 31.6036 1.6363V5.49684C31.6036 5.70603 31.5205 5.90666 31.3725 6.05458C31.2246 6.20251 31.024 6.28561 30.8148 6.28561H29.3567Z" fill="#265285"/>
<path d="M29.485 10.3707H30.0266V13.4258C30.0266 13.8606 30.1991 14.2777 30.5064 14.5855C30.8136 14.8932 31.2304 15.0665 31.6652 15.0672H48.2294V15.5005C48.2247 15.9762 48.3497 16.4442 48.591 16.8543C48.8322 17.2643 49.1805 17.6009 49.5986 17.8279C50.0489 18.073 50.5525 18.2037 51.0651 18.2084C51.5771 18.2079 52.0794 18.0677 52.5176 17.8029C52.9383 17.5511 53.287 17.1953 53.5302 16.7697C53.7734 16.344 53.9029 15.8629 53.9063 15.3727V15.0672H70.4676C70.9027 15.0665 71.3198 14.8933 71.6275 14.5856C71.9351 14.278 72.1084 13.8609 72.1091 13.4258V10.3707H72.5868C73.0625 10.3754 73.5305 10.2504 73.9406 10.0091C74.3506 9.7679 74.6872 9.41954 74.9142 9.00144C75.1677 8.55587 75.2989 8.05119 75.2945 7.53857C75.2901 7.02595 75.1503 6.5236 74.8892 6.08243C74.6379 5.66143 74.2821 5.31242 73.8563 5.06915C73.4306 4.82588 72.9494 4.69658 72.459 4.69375H72.1091V1.63865C72.1084 1.20379 71.9351 0.787006 71.6273 0.479779C71.3196 0.172553 70.9025 -6.22494e-07 70.4676 0H31.6652C31.2309 0.000734355 30.8145 0.173614 30.5074 0.480761C30.2002 0.787907 30.0274 1.20428 30.0266 1.63865V4.70764H29.3572C28.8815 4.70296 28.4135 4.82794 28.0035 5.06918C27.5934 5.31041 27.2568 5.65878 27.0298 6.07687C26.7763 6.52245 26.6451 7.02712 26.6495 7.53974C26.6539 8.05237 26.7937 8.55472 27.0548 8.99589C27.3083 9.41393 27.6649 9.75989 28.0904 10.0006C28.5159 10.2413 28.9961 10.3688 29.485 10.3707ZM31.6041 5.49641V1.63587C31.6041 1.61966 31.6106 1.60412 31.622 1.59266C31.6335 1.5812 31.649 1.57477 31.6652 1.57477H43.5106V4.70764H43.1218C42.6461 4.70296 42.1781 4.82794 41.7681 5.06918C41.358 5.31041 41.0214 5.65878 40.7944 6.07687C40.5415 6.52263 40.4106 7.02723 40.415 7.53974C40.4194 8.05225 40.5588 8.55453 40.8194 8.99589C41.0712 9.41652 41.427 9.76523 41.8526 10.0085C42.2783 10.2517 42.7594 10.3812 43.2496 10.3846H43.5106V13.4952H31.6652C31.657 13.4952 31.6488 13.4936 31.6412 13.4903C31.6336 13.4871 31.6267 13.4823 31.621 13.4764C31.6153 13.4704 31.6108 13.4633 31.6079 13.4556C31.605 13.4478 31.6038 13.4396 31.6041 13.4313V9.58191C31.6041 9.37271 31.521 9.17209 31.3731 9.02417C31.2252 8.87624 31.0245 8.79314 30.8153 8.79314H29.485C29.2677 8.794 29.054 8.73808 28.865 8.6309C28.6759 8.52373 28.5182 8.36902 28.4074 8.18212C28.2866 7.97456 28.2243 7.73812 28.2272 7.49797C28.2302 7.25782 28.2982 7.02297 28.4241 6.81843C28.5176 6.65411 28.6535 6.51792 28.8177 6.42411C28.9819 6.33031 29.1682 6.28232 29.3572 6.28518H30.8153C31.0245 6.28518 31.2252 6.20208 31.3731 6.05415C31.521 5.90623 31.6041 5.7056 31.6041 5.49641ZM70.5177 1.63587V5.47419C70.5177 5.68338 70.6008 5.88401 70.7487 6.03193C70.8966 6.17986 71.0972 6.26296 71.3064 6.26296H72.4451C72.6624 6.26209 72.8762 6.31802 73.0652 6.4252C73.2542 6.53237 73.4119 6.68707 73.5227 6.87398C73.6436 7.08153 73.7058 7.31798 73.7029 7.55813C73.7 7.79827 73.6319 8.03313 73.506 8.23767C73.4125 8.40199 73.2766 8.53818 73.1124 8.63198C72.9483 8.72579 72.7619 8.77378 72.5729 8.77092H71.3064C71.0972 8.77092 70.8966 8.85402 70.7487 9.00195C70.6008 9.14987 70.5177 9.3505 70.5177 9.55969V13.4174C70.5177 13.4344 70.5109 13.4506 70.499 13.4626C70.487 13.4746 70.4707 13.4813 70.4537 13.4813H58.5723V10.3707H58.9249C59.4148 10.3676 59.8957 10.2382 60.3209 9.99496C60.7462 9.75168 61.1015 9.40278 61.3524 8.982C61.6142 8.54117 61.7546 8.03891 61.7595 7.52624C61.7644 7.01356 61.6335 6.50872 61.3801 6.06299C61.1531 5.64489 60.8166 5.29653 60.4065 5.05529C59.9965 4.81406 59.5285 4.68907 59.0528 4.69375H58.5723V1.57477H70.4537C70.462 1.57439 70.4703 1.57569 70.478 1.57859C70.4857 1.5815 70.4928 1.58594 70.4988 1.59165C70.5047 1.59736 70.5095 1.60423 70.5127 1.61183C70.516 1.61943 70.5177 1.6276 70.5177 1.63587ZM52.3149 15.3644C52.3158 15.5817 52.2598 15.7954 52.1526 15.9844C52.0455 16.1734 51.8907 16.3312 51.7038 16.442C51.4963 16.5628 51.2599 16.6251 51.0197 16.6222C50.7796 16.6192 50.5447 16.5512 50.3402 16.4253C50.1758 16.3318 50.0397 16.1959 49.9459 16.0317C49.8521 15.8675 49.8041 15.6812 49.8069 15.4921V14.2701C49.8069 14.1665 49.7865 14.064 49.7469 13.9683C49.7072 13.8726 49.6492 13.7856 49.5759 13.7124C49.5027 13.6391 49.4157 13.581 49.32 13.5414C49.2243 13.5017 49.1217 13.4813 49.0181 13.4813H45.0882V9.59302C45.0882 9.38382 45.0051 9.1832 44.8572 9.03527C44.7093 8.88735 44.5086 8.80425 44.2994 8.80425H43.2496C43.0323 8.80511 42.8186 8.74919 42.6295 8.64201C42.4405 8.53484 42.2828 8.38013 42.172 8.19323C42.052 7.98538 41.9902 7.74906 41.9932 7.5091C41.9961 7.26913 42.0637 7.03439 42.1887 6.82954C42.2822 6.66522 42.4181 6.52903 42.5823 6.43522C42.7464 6.34142 42.9328 6.29343 43.1218 6.29629H44.3078C44.517 6.29629 44.7176 6.21318 44.8655 6.06526C45.0135 5.91734 45.0965 5.71671 45.0965 5.50752V1.57477H57.003V5.49641C57.003 5.7056 57.0861 5.90623 57.234 6.05415C57.382 6.20208 57.5826 6.28518 57.7918 6.28518H59.0611C59.2501 6.28232 59.4365 6.33031 59.6006 6.42411C59.7648 6.51792 59.9007 6.65411 59.9942 6.81843C60.12 7.02312 60.1877 7.25814 60.1901 7.49835C60.1926 7.73856 60.1297 7.97491 60.0081 8.18212C59.8982 8.36918 59.7411 8.52408 59.5524 8.63132C59.3638 8.73855 59.1503 8.79435 58.9333 8.79314H57.7918C57.5826 8.79314 57.382 8.87624 57.234 9.02417C57.0861 9.17209 57.003 9.37271 57.003 9.58191V13.4702H53.1147C53.0112 13.4702 52.9086 13.4906 52.8129 13.5303C52.7172 13.5699 52.6303 13.628 52.557 13.7012C52.4838 13.7745 52.4257 13.8614 52.386 13.9571C52.3464 14.0528 52.326 14.1554 52.326 14.259L52.3149 15.3644Z" fill="#265285"/>
<path d="M58.5723 4.70813H59.0527C59.5285 4.70345 59.9965 4.82844 60.4065 5.06967C60.8165 5.31091 61.1531 5.65927 61.3801 6.07737C61.6335 6.52309 61.7644 7.02794 61.7595 7.54062C61.7546 8.05329 61.6142 8.55555 61.3524 8.99638C61.1015 9.41716 60.7462 9.76606 60.3209 10.0093C59.8957 10.2526 59.4148 10.382 58.9249 10.3851H58.5723V13.4957H70.4537C70.4707 13.4957 70.487 13.489 70.499 13.477C70.5109 13.465 70.5177 13.4488 70.5177 13.4318V9.56018C70.5177 9.4566 70.538 9.35403 70.5777 9.25833C70.6173 9.16264 70.6754 9.07568 70.7487 9.00244C70.8219 8.92919 70.9089 8.87109 71.0046 8.83145C71.1003 8.79181 71.2028 8.77141 71.3064 8.77141H72.5729C72.7619 8.77427 72.9483 8.72628 73.1124 8.63248C73.2766 8.53867 73.4125 8.40248 73.506 8.23816C73.6319 8.03362 73.6999 7.79876 73.7029 7.55862C73.7058 7.31847 73.6435 7.08203 73.5227 6.87447C73.4119 6.68757 73.2542 6.53286 73.0652 6.42569C72.8761 6.31851 72.6624 6.26259 72.4451 6.26345H71.3064C71.2028 6.26345 71.1003 6.24305 71.0046 6.20341C70.9089 6.16377 70.8219 6.10567 70.7487 6.03243C70.6754 5.95918 70.6173 5.87223 70.5777 5.77653C70.538 5.68083 70.5177 5.57826 70.5177 5.47468V1.63636C70.5177 1.6281 70.516 1.61992 70.5127 1.61232C70.5095 1.60472 70.5047 1.59785 70.4988 1.59214C70.4928 1.58643 70.4857 1.58199 70.478 1.57909C70.4703 1.57619 70.462 1.57488 70.4537 1.57526H58.5723V4.70813Z" fill="white"/>
<path d="M53.1035 13.4818H56.9918V9.59345C56.9918 9.38425 57.0749 9.18363 57.2229 9.0357C57.3708 8.88778 57.5714 8.80468 57.7806 8.80468H58.9222C59.1391 8.80589 59.3526 8.75009 59.5412 8.64285C59.7299 8.53562 59.887 8.38072 59.997 8.19366C60.1185 7.98645 60.1814 7.7501 60.179 7.50989C60.1765 7.26968 60.1088 7.03466 59.9831 6.82997C59.8895 6.66565 59.7536 6.52946 59.5894 6.43565C59.4253 6.34184 59.239 6.29386 59.0499 6.29672H57.7806C57.5714 6.29672 57.3708 6.21361 57.2229 6.06569C57.0749 5.91777 56.9918 5.71714 56.9918 5.50795V1.5752H45.0854V5.49684C45.0854 5.70603 45.0023 5.90666 44.8543 6.05458C44.7064 6.20251 44.5058 6.28561 44.2966 6.28561H43.119C42.9299 6.28275 42.7436 6.33073 42.5794 6.42454C42.4153 6.51835 42.2793 6.65454 42.1858 6.81886C42.0608 7.02371 41.9933 7.25845 41.9903 7.49842C41.9874 7.73838 42.0492 7.9747 42.1691 8.18255C42.28 8.36945 42.4377 8.52415 42.6267 8.63133C42.8157 8.7385 43.0294 8.79443 43.2467 8.79357H44.3077C44.5169 8.79357 44.7175 8.87667 44.8655 9.02459C45.0134 9.17252 45.0965 9.37314 45.0965 9.58234V13.4706H49.0292C49.1328 13.4706 49.2354 13.4911 49.3311 13.5307C49.4268 13.5703 49.5137 13.6284 49.587 13.7017C49.6602 13.7749 49.7183 13.8619 49.7579 13.9576C49.7975 14.0533 49.818 14.1558 49.818 14.2594V15.4815C49.8151 15.6705 49.8631 15.8569 49.9569 16.021C50.0507 16.1852 50.1869 16.3211 50.3512 16.4147C50.5558 16.5405 50.7906 16.6085 51.0308 16.6115C51.2709 16.6144 51.5073 16.5522 51.7149 16.4313C51.9018 16.3205 52.0565 16.1628 52.1637 15.9737C52.2709 15.7847 52.3268 15.571 52.3259 15.3537V14.2594C52.3288 14.0541 52.4117 13.8579 52.5569 13.7127C52.7021 13.5675 52.8982 13.4846 53.1035 13.4818Z" fill="#78B0ED" fill-opacity="0.5"/>
<path d="M61.9404 114.717L79.8377 135.8C85.0392 129.526 87.7227 121.542 87.3671 113.399C87.0114 105.257 83.6418 97.5373 77.913 91.7402L61.9404 114.717Z" fill="#265285"/>
<path d="M78.3593 89.9516C78.2767 89.8729 78.1782 89.8128 78.0704 89.7754C77.9626 89.738 77.848 89.7243 77.7344 89.735C77.6206 89.7457 77.5106 89.7814 77.4122 89.8395C77.3138 89.8976 77.2294 89.9766 77.165 90.071L60.2954 114.315C60.1966 114.458 60.1477 114.629 60.1562 114.803C60.1648 114.977 60.2302 115.143 60.3426 115.276L73.5406 130.829L79.2369 137.539C79.3104 137.625 79.4014 137.694 79.5039 137.742C79.6065 137.79 79.7181 137.816 79.8312 137.817C79.9444 137.816 80.056 137.79 80.1585 137.742C80.2611 137.694 80.3522 137.625 80.4256 137.539C85.938 131.233 88.9755 123.141 88.9743 114.765C88.9748 110.126 88.0343 105.535 86.2097 101.27C84.3852 97.0053 81.7145 93.1548 78.3593 89.9516ZM87.4023 114.765C87.4092 122.444 84.7332 129.884 79.8368 135.8L61.9395 114.717L77.9121 91.7402C83.9874 97.8636 87.3983 106.139 87.4023 114.765Z" fill="#265285"/>
<path d="M45.3564 145.445H45.2925C28.47 145.445 14.7416 131.966 14.7138 115.402C14.7026 111.434 15.487 107.504 17.0207 103.845C18.5544 100.186 20.8062 96.8708 23.643 94.0967C29.3938 88.4272 37.1396 85.2405 45.2151 85.2218C53.2907 85.2031 61.0511 88.3539 66.8281 93.9967L69.772 89.8307C63.1257 83.6456 54.3742 80.2227 45.2953 80.2571H45.2203C35.7865 80.2391 26.7284 83.952 20.0213 90.5861C16.7185 93.8194 14.0974 97.6822 12.3133 101.946C10.5292 106.21 9.6181 110.788 9.63399 115.41C9.67288 134.732 25.6621 150.424 45.2897 150.424H45.3647C50.3588 150.423 55.2977 149.381 59.8661 147.363C64.4345 145.345 68.532 142.397 71.8968 138.707L68.5639 134.843C65.6853 138.175 62.1219 140.847 58.1169 142.676C54.1119 144.506 49.7594 145.45 45.3564 145.445Z" fill="#78B0ED" fill-opacity="0.5"/>
<path d="M41.628 104.545H35.4678V124.653H41.628V104.545Z" fill="white"/>
<path d="M52.0533 114.924C52.0728 114.885 52.0951 114.847 52.1199 114.81L65.9068 95.302C60.4378 89.8759 53.0505 86.8243 45.3465 86.8087C37.6425 86.7931 30.2429 89.8148 24.752 95.2187C22.0653 97.8461 19.9324 100.985 18.4794 104.451C17.0264 107.917 16.2826 111.638 16.2921 115.396C16.3282 131.097 29.3457 143.867 45.2933 143.867H45.3571C49.5742 143.873 53.742 142.961 57.5708 141.193C61.3997 139.426 64.7978 136.846 67.5288 133.632L52.1672 115.779C52.0669 115.664 52.0026 115.521 51.9824 115.369C51.9621 115.217 51.9868 115.062 52.0533 114.924ZM46.5292 126.231H43.1963V130.061C43.1963 130.27 43.1132 130.471 42.9653 130.618C42.8174 130.766 42.6167 130.849 42.4076 130.849C42.1984 130.849 41.9978 130.766 41.8498 130.618C41.7019 130.471 41.6188 130.27 41.6188 130.061V126.231H35.4586V130.061C35.4586 130.27 35.3755 130.471 35.2276 130.618C35.0797 130.766 34.8791 130.849 34.6699 130.849C34.4607 130.849 34.26 130.766 34.1121 130.618C33.9642 130.471 33.8811 130.27 33.8811 130.061V126.231H30.5483C29.391 126.23 28.2814 125.77 27.4629 124.952C26.6443 124.134 26.1837 123.025 26.1823 121.867V107.331C26.1837 106.174 26.6443 105.064 27.4629 104.246C28.2814 103.428 29.391 102.968 30.5483 102.968H33.8811V99.1375C33.8811 98.9283 33.9642 98.7277 34.1121 98.5798C34.26 98.4318 34.4607 98.3487 34.6699 98.3487C34.8791 98.3487 35.0797 98.4318 35.2276 98.5798C35.3755 98.7277 35.4586 98.9283 35.4586 99.1375V102.968H41.6188V99.1375C41.6188 99.0339 41.6392 98.9314 41.6788 98.8357C41.7185 98.74 41.7766 98.653 41.8498 98.5798C41.9231 98.5065 42.01 98.4484 42.1057 98.4088C42.2014 98.3692 42.304 98.3487 42.4076 98.3487C42.5111 98.3487 42.6137 98.3692 42.7094 98.4088C42.8051 98.4484 42.8921 98.5065 42.9653 98.5798C43.0386 98.653 43.0967 98.74 43.1363 98.8357C43.176 98.9314 43.1963 99.0339 43.1963 99.1375V102.968H46.5292C47.6859 102.969 48.7949 103.429 49.6128 104.247C50.4307 105.065 50.8909 106.174 50.8924 107.331C50.8924 107.54 50.8093 107.741 50.6614 107.888C50.5134 108.036 50.3129 108.12 50.1037 108.12C49.8945 108.12 49.6938 108.036 49.5459 107.888C49.398 107.741 49.3149 107.54 49.3149 107.331C49.3149 106.594 49.0222 105.888 48.5014 105.367C47.9805 104.846 47.2741 104.553 46.5375 104.553H43.2047V124.661H46.5375C47.2741 124.661 47.9805 124.369 48.5014 123.848C49.0222 123.327 49.3149 122.621 49.3149 121.884C49.3149 121.781 49.3352 121.678 49.3749 121.582C49.4145 121.487 49.4726 121.4 49.5459 121.326C49.6191 121.253 49.7061 121.195 49.8018 121.155C49.8975 121.116 50.0001 121.095 50.1037 121.095C50.2072 121.095 50.3098 121.116 50.4055 121.155C50.5012 121.195 50.5881 121.253 50.6614 121.326C50.7346 121.4 50.7927 121.487 50.8324 121.582C50.872 121.678 50.8924 121.781 50.8924 121.884C50.8865 123.038 50.4244 124.143 49.607 124.957C48.7895 125.771 47.683 126.229 46.5292 126.231Z" fill="white"/>
<path d="M33.8885 104.545H30.5557C29.8191 104.545 29.1126 104.838 28.5918 105.358C28.0709 105.879 27.7783 106.586 27.7783 107.322V121.859C27.7783 122.596 28.0709 123.302 28.5918 123.823C29.1126 124.344 29.8191 124.636 30.5557 124.636H33.8885V104.545Z" fill="white"/>
<path d="M67.5764 95.6755L71.4647 90.1818C71.5733 90.0275 71.6232 89.8394 71.6054 89.6515C71.5876 89.4635 71.5032 89.2882 71.3674 89.157C64.377 82.4017 55.0258 78.6418 45.3048 78.678H45.227C36.7526 78.661 28.5248 81.529 21.8972 86.8101C20.8551 87.641 19.8575 88.5264 18.9088 89.4625C15.4612 92.8464 12.7245 96.8852 10.8596 101.342C8.9947 105.798 8.03907 110.582 8.0489 115.413C8.05874 120.244 9.0338 125.024 10.9168 129.473C12.7999 133.921 15.553 137.949 19.0143 141.319C26.0217 148.2 35.4613 152.039 45.2825 152H45.3631C50.6977 151.998 55.9704 150.857 60.8288 148.653C65.6872 146.45 70.0196 143.236 73.5365 139.225C73.661 139.081 73.7296 138.897 73.7296 138.707C73.7296 138.516 73.661 138.332 73.5365 138.189L69.1511 133.1L66.5349 130.045L53.759 115.198L67.5764 95.6755ZM71.8979 138.705C68.5331 142.396 64.4357 145.344 59.8673 147.361C55.2989 149.379 50.36 150.422 45.3659 150.423H45.2909C25.6633 150.423 9.67405 134.731 9.63517 115.409C9.61928 110.787 10.5303 106.208 12.3145 101.944C14.0986 97.6807 16.7197 93.8179 20.0225 90.5846C26.7296 83.9505 35.7877 80.2375 45.2214 80.2555H45.2964C54.3754 80.2211 63.1269 83.6441 69.7732 89.8291L66.8293 93.9952C61.0492 88.3583 53.2899 85.2116 45.2163 85.2303C37.1427 85.2489 29.3981 88.4315 23.6442 94.0951C20.8074 96.8693 18.5556 100.184 17.0219 103.843C15.4882 107.503 14.7037 111.433 14.715 115.4C14.7538 131.965 28.4712 145.443 45.2937 145.443H45.3575C49.7617 145.449 54.1154 144.505 58.1214 142.675C62.1275 140.845 65.6917 138.172 68.5707 134.839L71.8979 138.705ZM67.5292 133.634C64.7992 136.849 61.4016 139.431 57.5727 141.201C53.7438 142.97 49.5755 143.884 45.3575 143.879H45.2937C29.3378 143.879 16.3286 131.104 16.2925 115.409C16.283 111.651 17.0268 107.929 18.4798 104.463C19.9328 100.998 22.0657 97.8586 24.7524 95.2311C30.2433 89.8272 37.6429 86.8055 45.3469 86.8211C53.0509 86.8367 60.4382 89.8884 65.9072 95.3144L52.1203 114.823C52.0955 114.859 52.0732 114.897 52.0537 114.936C51.9872 115.075 51.9625 115.229 51.9828 115.381C52.003 115.533 52.0673 115.676 52.1676 115.792L67.5292 133.634Z" fill="#265285"/>
<path d="M50.1095 121.076C49.9 121.077 49.6994 121.16 49.5516 121.309C49.4037 121.457 49.3208 121.658 49.3208 121.867C49.3208 122.604 49.0282 123.31 48.5073 123.831C47.9864 124.352 47.28 124.645 46.5434 124.645H43.2106V104.537H46.5434C47.28 104.537 47.9864 104.829 48.5073 105.35C49.0282 105.871 49.3208 106.577 49.3208 107.314C49.3208 107.523 49.4039 107.724 49.5518 107.872C49.6997 108.02 49.9003 108.103 50.1095 108.103C50.3187 108.103 50.5194 108.02 50.6673 107.872C50.8152 107.724 50.8983 107.523 50.8983 107.314C50.8924 106.159 50.4295 105.054 49.6108 104.239C48.7922 103.425 47.6844 102.967 46.5295 102.967H43.1967V99.1374C43.1967 99.0338 43.1763 98.9313 43.1367 98.8356C43.097 98.7399 43.0389 98.6529 42.9657 98.5797C42.8924 98.5064 42.8055 98.4483 42.7098 98.4087C42.6141 98.369 42.5115 98.3486 42.4079 98.3486C42.3043 98.3486 42.2018 98.369 42.1061 98.4087C42.0104 98.4483 41.9234 98.5064 41.8502 98.5797C41.7769 98.6529 41.7188 98.7399 41.6792 98.8356C41.6395 98.9313 41.6192 99.0338 41.6192 99.1374V102.967H35.459V99.1374C35.459 98.9282 35.3759 98.7276 35.2279 98.5797C35.08 98.4317 34.8794 98.3486 34.6702 98.3486C34.461 98.3486 34.2604 98.4317 34.1125 98.5797C33.9645 98.7276 33.8814 98.9282 33.8814 99.1374V102.967H30.5486C29.3914 102.968 28.2818 103.428 27.4632 104.246C26.6447 105.064 26.1841 106.173 26.1826 107.331V121.867C26.1841 123.025 26.6447 124.134 27.4632 124.952C28.2818 125.77 29.3914 126.23 30.5486 126.231H33.8814V130.061C33.8814 130.27 33.9645 130.47 34.1125 130.618C34.2604 130.766 34.461 130.849 34.6702 130.849C34.8794 130.849 35.08 130.766 35.2279 130.618C35.3759 130.47 35.459 130.27 35.459 130.061V126.231H41.6192V130.061C41.6192 130.27 41.7023 130.47 41.8502 130.618C41.9981 130.766 42.1987 130.849 42.4079 130.849C42.6171 130.849 42.8178 130.766 42.9657 130.618C43.1136 130.47 43.1967 130.27 43.1967 130.061V126.231H46.5295C47.6863 126.229 48.7952 125.769 49.6132 124.951C50.4311 124.133 50.8913 123.024 50.8927 121.867C50.8927 121.659 50.8105 121.459 50.6639 121.311C50.5172 121.162 50.318 121.078 50.1095 121.076ZM30.5597 124.653C29.8231 124.653 29.1167 124.36 28.5959 123.84C28.075 123.319 27.7824 122.612 27.7824 121.876V107.331C27.7824 106.594 28.075 105.888 28.5959 105.367C29.1167 104.846 29.8231 104.553 30.5597 104.553H33.8926V124.661L30.5597 124.653ZM35.4673 124.653V104.545H41.6275V124.653H35.4673Z" fill="#265285"/>
<path d="M115.088 97.7249C115.088 97.5157 115.171 97.3151 115.319 97.1672C115.467 97.0192 115.668 96.9361 115.877 96.9361H133.46C133.669 96.9361 133.87 97.0192 134.018 97.1672C134.166 97.3151 134.249 97.5157 134.249 97.7249V110.079H148.291V38.592C148.291 38.2124 148.141 37.8483 147.873 37.5796C147.604 37.3109 147.241 37.1596 146.861 37.1589H142.417C142.208 37.1582 142.007 37.0744 141.859 36.9261C141.711 36.7777 141.628 36.5768 141.628 36.3673V29.7017C141.628 29.3218 141.476 28.9577 141.208 28.6891C140.939 28.4205 140.575 28.2693 140.195 28.2686H109.136C108.756 28.2686 108.392 28.4195 108.123 28.6883C107.854 28.9571 107.703 29.3216 107.703 29.7017V36.3673C107.703 36.5768 107.62 36.7777 107.472 36.9261C107.324 37.0744 107.124 37.1582 106.914 37.1589H102.471C102.283 37.1593 102.097 37.1966 101.923 37.2688C101.75 37.3411 101.592 37.4467 101.46 37.5798C101.327 37.7129 101.222 37.8708 101.151 38.0444C101.079 38.2181 101.043 38.4042 101.043 38.592V110.079H115.083L115.088 97.7249ZM120.296 33.34H128.761C129.154 33.3408 129.531 33.4972 129.809 33.7752C130.087 34.0532 130.243 34.43 130.244 34.8231V37.8782H136.354C136.755 37.879 137.139 38.0384 137.422 38.3216C137.705 38.6048 137.864 38.9886 137.865 39.3891V55.059C137.864 55.4595 137.705 55.8434 137.422 56.1266C137.139 56.4097 136.755 56.5692 136.354 56.5699H112.986C112.585 56.5692 112.201 56.4097 111.918 56.1266C111.635 55.8434 111.475 55.4595 111.475 55.059V39.378C111.475 38.9775 111.635 38.5937 111.918 38.3105C112.201 38.0273 112.585 37.8679 112.986 37.8671H118.818V34.812C118.822 34.4218 118.979 34.0487 119.255 33.7732C119.532 33.4978 119.905 33.3422 120.296 33.34ZM108.889 92.6979V61.6691C108.889 61.4597 108.972 61.2588 109.12 61.1104C109.268 60.9621 109.468 60.8783 109.678 60.8776H139.648C139.858 60.8783 140.058 60.9621 140.206 61.1104C140.354 61.2588 140.437 61.4597 140.437 61.6691V92.6979C140.437 92.9071 140.354 93.1077 140.206 93.2556C140.058 93.4035 139.857 93.4866 139.648 93.4866H109.678C109.469 93.4866 109.268 93.4035 109.12 93.2556C108.972 93.1077 108.889 92.9071 108.889 92.6979Z" fill="white"/>
<path d="M138.859 62.4424H130.446V71.8799H138.859V62.4424Z" fill="#265285"/>
<path d="M138.859 83.4707H130.446V91.9056H138.859V83.4707Z" fill="#265285"/>
<path d="M128.87 83.4707H120.457V91.9056H128.87V83.4707Z" fill="#265285"/>
<path d="M138.859 73.459H130.446V81.8938H138.859V73.459Z" fill="#265285"/>
<path d="M118.879 62.4424H110.467V71.8799H118.879V62.4424Z" fill="#265285"/>
<path d="M128.87 62.4424H120.457V71.8799H128.87V62.4424Z" fill="#265285"/>
<path d="M118.879 83.4707H110.467V91.9056H118.879V83.4707Z" fill="#265285"/>
<path d="M128.87 73.459H120.457V81.8938H128.87V73.459Z" fill="#265285"/>
<path d="M118.879 73.459H110.467V81.8938H118.879V73.459Z" fill="#265285"/>
<path d="M119.665 93.486H139.662C139.871 93.486 140.072 93.4029 140.219 93.255C140.367 93.107 140.45 92.9064 140.45 92.6972V61.6685C140.45 61.4591 140.368 61.2581 140.22 61.1098C140.072 60.9614 139.871 60.8777 139.662 60.877H109.677C109.468 60.8777 109.267 60.9614 109.12 61.1098C108.972 61.2581 108.889 61.4591 108.889 61.6685V92.6972C108.889 92.8008 108.909 92.9034 108.949 92.9991C108.988 93.0948 109.046 93.1817 109.12 93.255C109.193 93.3282 109.28 93.3863 109.376 93.4259C109.471 93.4656 109.574 93.486 109.677 93.486H119.665ZM110.466 83.4708H118.879V91.9085H110.466V83.4708ZM128.869 62.4434V71.8864H120.456V62.4434H128.869ZM128.869 81.8849H120.456V73.4584H128.869V81.8849ZM118.87 81.8849H110.458V73.4584H118.87V81.8849ZM130.438 81.8849V73.4584H138.851V81.8933L130.438 81.8849ZM118.87 71.8725H110.458V62.4295H118.87V71.8725ZM120.448 83.4625H128.861V91.9001H120.448V83.4625ZM130.446 91.9001V83.4708H138.859V91.9085L130.446 91.9001ZM138.859 71.8725H130.446V62.4295H138.859V71.8725Z" fill="#265285"/>
<path d="M132.657 98.5127H116.665V110.078H132.657V98.5127Z" fill="#78B0ED" fill-opacity="0.5"/>
<path d="M151.21 111.662H98.1124C97.4096 111.684 96.7431 111.979 96.2539 112.484C95.7647 112.989 95.4912 113.665 95.4912 114.368C95.4912 115.071 95.7647 115.747 96.2539 116.252C96.7431 116.757 97.4096 117.052 98.1124 117.075H151.21C151.573 117.086 151.934 117.025 152.272 116.894C152.611 116.763 152.92 116.566 153.18 116.313C153.441 116.061 153.648 115.759 153.79 115.424C153.932 115.09 154.004 114.731 154.004 114.368C154.004 114.005 153.932 113.646 153.79 113.312C153.648 112.978 153.441 112.675 153.18 112.423C152.92 112.17 152.611 111.973 152.272 111.842C151.934 111.711 151.573 111.65 151.21 111.662Z" fill="white"/>
<path d="M151.21 110.078H149.847V38.5915C149.846 37.7935 149.529 37.0283 148.965 36.4634C148.401 35.8986 147.637 35.5803 146.839 35.5781H143.192V29.6956C143.194 28.8971 142.878 28.1306 142.316 27.5641C141.753 26.9977 140.988 26.6775 140.19 26.6738H109.136C108.39 26.6741 107.671 26.9512 107.117 27.4514C106.563 27.9517 106.215 28.6395 106.139 29.3818C106.139 29.4817 106.126 29.5817 106.126 29.6845V35.567H102.476C101.678 35.5692 100.913 35.8875 100.35 36.4523C99.7859 37.0171 99.469 37.7824 99.4682 38.5804V110.078H98.1129C96.9955 110.107 95.9336 110.57 95.1534 111.371C94.3732 112.171 93.9365 113.244 93.9365 114.362C93.9365 115.48 94.3732 116.553 95.1534 117.354C95.9336 118.154 96.9955 118.618 98.1129 118.646H151.21C151.782 118.661 152.351 118.561 152.883 118.352C153.416 118.143 153.901 117.83 154.311 117.431C154.72 117.032 155.046 116.554 155.268 116.027C155.49 115.5 155.605 114.934 155.605 114.362C155.605 113.79 155.49 113.224 155.268 112.697C155.046 112.17 154.72 111.693 154.311 111.294C153.901 110.894 153.416 110.581 152.883 110.372C152.351 110.164 151.782 110.064 151.21 110.078ZM151.21 117.069H98.1129C97.4101 117.046 96.7435 116.751 96.2544 116.246C95.7652 115.741 95.4917 115.065 95.4917 114.362C95.4917 113.659 95.7652 112.983 96.2544 112.478C96.7435 111.973 97.4101 111.678 98.1129 111.656H151.21C151.573 111.644 151.934 111.705 152.273 111.836C152.611 111.967 152.92 112.164 153.181 112.417C153.442 112.669 153.649 112.972 153.79 113.306C153.932 113.64 154.005 113.999 154.005 114.362C154.005 114.725 153.932 115.084 153.79 115.418C153.649 115.753 153.442 116.055 153.181 116.307C152.92 116.56 152.611 116.757 152.273 116.888C151.934 117.019 151.573 117.08 151.21 117.069ZM101.049 38.5915C101.048 38.4037 101.085 38.2176 101.156 38.0439C101.228 37.8702 101.333 37.7124 101.465 37.5793C101.598 37.4462 101.756 37.3405 101.929 37.2683C102.102 37.1961 102.288 37.1587 102.476 37.1584H106.92C107.129 37.1576 107.33 37.0739 107.478 36.9256C107.626 36.7772 107.709 36.5763 107.709 36.3668V29.7012C107.709 29.3211 107.86 28.9565 108.128 28.6878C108.397 28.419 108.762 28.268 109.142 28.268H140.195C140.575 28.2688 140.939 28.42 141.208 28.6886C141.476 28.9572 141.628 29.3213 141.628 29.7012V36.3668C141.628 36.5763 141.711 36.7772 141.859 36.9256C142.007 37.0739 142.208 37.1576 142.417 37.1584H146.861C147.241 37.1591 147.604 37.3104 147.873 37.5791C148.141 37.8478 148.291 38.2119 148.291 38.5915V110.078H134.249V97.7244C134.248 97.5161 134.164 97.3169 134.016 97.1702C133.868 97.0235 133.668 96.9412 133.46 96.9412H115.891C115.787 96.9412 115.685 96.9616 115.589 97.0012C115.493 97.0408 115.406 97.0989 115.333 97.1722C115.26 97.2454 115.202 97.3324 115.162 97.4281C115.122 97.5238 115.102 97.6263 115.102 97.7299V110.078H101.049V38.5915ZM132.658 110.078H116.666V98.5131H132.658V110.078Z" fill="#265285"/>
<path d="M136.279 54.9803V44.543L135.213 46.5177L134.718 47.4842C134.251 48.3549 133.555 49.0812 132.704 49.5845C131.854 50.0878 130.882 50.3488 129.894 50.3393H119.429C118.445 50.3475 117.478 50.088 116.631 49.5884C115.783 49.0889 115.088 48.3682 114.619 47.5036L114.099 46.4899L113.044 44.5457V54.9859L136.279 54.9803Z" fill="#78B0ED" fill-opacity="0.5"/>
<path d="M129.455 39.4492H113.044V41.2267L115.494 45.7594V45.7733L116.013 46.7926C116.349 47.3993 116.844 47.9034 117.444 48.2511C118.044 48.5989 118.727 48.7773 119.421 48.7673H129.886C130.583 48.7783 131.271 48.5984 131.873 48.2469C132.476 47.8954 132.971 47.3857 133.305 46.7731L133.805 45.7955C133.804 45.7909 133.804 45.7862 133.805 45.7816L136.263 41.2267V39.4492H129.439H129.455Z" fill="#78B0ED" fill-opacity="0.5"/>
<path d="M112.978 37.8663C112.577 37.8671 112.193 38.0265 111.91 38.3097C111.627 38.5929 111.468 38.9767 111.467 39.3772V55.0471C111.468 55.4476 111.627 55.8315 111.91 56.1147C112.193 56.3979 112.577 56.5573 112.978 56.558H136.346C136.747 56.5573 137.131 56.3979 137.414 56.1147C137.697 55.8315 137.856 55.4476 137.857 55.0471V39.3772C137.856 38.9767 137.697 38.5929 137.414 38.3097C137.131 38.0265 136.747 37.8671 136.346 37.8663H130.236V34.8112C130.235 34.4181 130.079 34.0413 129.801 33.7633C129.523 33.4853 129.146 33.3289 128.753 33.3281H120.296C119.903 33.3289 119.526 33.4853 119.248 33.7633C118.97 34.0413 118.814 34.4181 118.813 34.8112V37.8663H112.978ZM120.39 34.9168H128.667V37.8663H120.39V34.9168ZM113.044 44.5403L114.1 46.4845L114.619 47.4982C115.089 48.3618 115.785 49.0813 116.632 49.5799C117.479 50.0784 118.446 50.3371 119.429 50.3284H129.894C130.883 50.3378 131.854 50.0768 132.705 49.5735C133.555 49.0703 134.252 48.344 134.719 47.4732L135.213 46.5067L136.28 44.532V54.9694H113.044V44.5403ZM136.28 41.2075L133.822 45.7624C133.821 45.767 133.821 45.7717 133.822 45.7763L133.322 46.7539C132.988 47.3665 132.493 47.8762 131.89 48.2277C131.288 48.5792 130.6 48.7591 129.903 48.7481H119.438C118.744 48.7581 118.061 48.5797 117.461 48.2319C116.861 47.8842 116.366 47.3801 116.03 46.7733L115.511 45.7541V45.7402L113.061 41.2075V39.4494H136.296L136.28 41.2075Z" fill="#265285"/>
<path d="M128.666 34.916H120.39V37.8656H128.666V34.916Z" fill="white"/>
</svg>
