<svg width="15" height="13" viewBox="0 0 15 13" fill="none" xmlns="http://www.w3.org/2000/svg">
<path d="M14.65 1.29999V2.59999C14.65 2.94477 14.5131 3.27543 14.2693 3.51922C14.0255 3.76302 13.6948 3.89998 13.35 3.89998C13.0053 3.89998 12.6746 3.76302 12.4308 3.51922C12.187 3.27543 12.05 2.94477 12.05 2.59999V1.29999C12.05 0.955215 12.187 0.624556 12.4308 0.38076C12.6746 0.136963 13.0053 0 13.35 0C13.6948 0 14.0255 0.136963 14.2693 0.38076C14.5131 0.624556 14.65 0.955215 14.65 1.29999ZM1.00009 2.59999H10.1001C10.2724 2.59999 10.4378 2.53151 10.5597 2.40961C10.6816 2.28771 10.7501 2.12238 10.7501 1.94999C10.7501 1.7776 10.6816 1.61227 10.5597 1.49037C10.4378 1.36848 10.2724 1.29999 10.1001 1.29999H1.00009C0.827705 1.29999 0.662376 1.36848 0.540477 1.49037C0.418579 1.61227 0.350098 1.7776 0.350098 1.94999C0.350098 2.12238 0.418579 2.28771 0.540477 2.40961C0.662376 2.53151 0.827705 2.59999 1.00009 2.59999ZM14 5.84998H7.50007C7.32768 5.84998 7.16235 5.91846 7.04045 6.04036C6.91855 6.16225 6.85007 6.32758 6.85007 6.49997C6.85007 6.67236 6.91855 6.83769 7.04045 6.95959C7.16235 7.08149 7.32768 7.14997 7.50007 7.14997H14C14.1724 7.14997 14.3378 7.08149 14.4597 6.95959C14.5816 6.83769 14.65 6.67236 14.65 6.49997C14.65 6.32758 14.5816 6.16225 14.4597 6.04036C14.3378 5.91846 14.1724 5.84998 14 5.84998ZM1.00009 7.14997H2.95009C2.95009 7.49475 3.08705 7.82541 3.33085 8.0692C3.57464 8.313 3.9053 8.44996 4.25008 8.44996C4.59486 8.44996 4.92552 8.313 5.16932 8.0692C5.41311 7.82541 5.55008 7.49475 5.55008 7.14997V5.84998C5.55008 5.5052 5.41311 5.17454 5.16932 4.93074C4.92552 4.68694 4.59486 4.54998 4.25008 4.54998C3.9053 4.54998 3.57464 4.68694 3.33085 4.93074C3.08705 5.17454 2.95009 5.5052 2.95009 5.84998H1.00009C0.827705 5.84998 0.662376 5.91846 0.540477 6.04036C0.418579 6.16225 0.350098 6.32758 0.350098 6.49997C0.350098 6.67236 0.418579 6.83769 0.540477 6.95959C0.662376 7.08149 0.827705 7.14997 1.00009 7.14997ZM7.50007 10.4H1.00009C0.827705 10.4 0.662376 10.4684 0.540477 10.5903C0.418579 10.7122 0.350098 10.8776 0.350098 11.05C0.350098 11.2223 0.418579 11.3877 0.540477 11.5096C0.662376 11.6315 0.827705 11.7 1.00009 11.7H7.50007C7.67246 11.7 7.83779 11.6315 7.95968 11.5096C8.08158 11.3877 8.15006 11.2223 8.15006 11.05C8.15006 10.8776 8.08158 10.7122 7.95968 10.5903C7.83779 10.4684 7.67246 10.4 7.50007 10.4ZM14 10.4H12.05C12.05 10.0552 11.9131 9.72452 11.6693 9.48072C11.4255 9.23693 11.0948 9.09996 10.7501 9.09996C10.4053 9.09996 10.0746 9.23693 9.83082 9.48072C9.58702 9.72452 9.45006 10.0552 9.45006 10.4V11.7C9.45006 12.0447 9.58702 12.3754 9.83082 12.6192C10.0746 12.863 10.4053 12.9999 10.7501 12.9999C11.0948 12.9999 11.4255 12.863 11.6693 12.6192C11.9131 12.3754 12.05 12.0447 12.05 11.7H14C14.1724 11.7 14.3378 11.6315 14.4597 11.5096C14.5816 11.3877 14.65 11.2223 14.65 11.05C14.65 10.8776 14.5816 10.7122 14.4597 10.5903C14.3378 10.4684 14.1724 10.4 14 10.4Z" fill="black"/>
</svg>
