<svg width="47" height="47" viewBox="0 0 47 47" fill="none" xmlns="http://www.w3.org/2000/svg">
<path d="M34.9266 0V1.51855C37.5436 1.52156 40.0524 2.56247 41.9029 4.4129C43.7533 6.26334 44.7942 8.77221 44.7972 11.3891H46.3158C46.3123 8.36959 45.1113 5.47471 42.9762 3.33957C40.8411 1.20444 37.9462 0.00341634 34.9266 0Z" fill="url(#paint0_linear_1866_2498)"/>
<path d="M34.9266 3.03711V4.55566C36.7384 4.55767 38.4753 5.27827 39.7564 6.55936C41.0375 7.84045 41.7581 9.5774 41.7601 11.3891H43.2787C43.2761 9.17484 42.3953 7.05199 40.8295 5.48625C39.2638 3.9205 37.1409 3.03972 34.9266 3.03711Z" fill="url(#paint1_linear_1866_2498)"/>
<path d="M38.723 11.3891H40.2416C40.24 9.98003 39.6795 8.62909 38.6831 7.6327C37.6867 6.63631 36.3357 6.07583 34.9266 6.07422V7.59277C35.9331 7.59397 36.898 7.99434 37.6097 8.70603C38.3214 9.41773 38.7218 10.3827 38.723 11.3891Z" fill="url(#paint2_linear_1866_2498)"/>
<path d="M34.9266 12.9082C35.7653 12.9082 36.4452 12.2283 36.4452 11.3896C36.4452 10.551 35.7653 9.87109 34.9266 9.87109C34.088 9.87109 33.4081 10.551 33.4081 11.3896C33.4081 12.2283 34.088 12.9082 34.9266 12.9082Z" fill="url(#paint3_linear_1866_2498)"/>
<path d="M37.2045 37.205L35.9646 34.7244C35.5007 33.7966 35.0861 32.8483 34.6989 31.89H18.2226C17.6185 31.89 17.0391 31.6501 16.6119 31.2229C16.1848 30.7957 15.9448 30.2163 15.9448 29.6122V20.5009C15.9448 19.8968 16.1848 19.3174 16.6119 18.8903C17.0391 18.4631 17.6185 18.2231 18.2226 18.2231H31.9047C31.8994 17.9703 31.8896 17.7174 31.8896 17.4638C31.8879 14.7724 30.9921 12.1578 29.3429 10.0308C27.6937 7.90385 25.3845 6.38513 22.7783 5.71328V3.79687C22.7783 2.99138 22.4583 2.21888 21.8887 1.64931C21.3191 1.07975 20.5466 0.759766 19.7412 0.759766C18.9357 0.759766 18.1632 1.07975 17.5936 1.64931C17.024 2.21888 16.7041 2.99138 16.7041 3.79687V5.71328C14.0978 6.38513 11.7887 7.90385 10.1394 10.0308C8.4902 12.1578 7.59439 14.7724 7.59275 17.4638C7.59302 23.4557 6.19782 29.3653 3.51772 34.7244L2.27783 37.205C1.67371 37.205 1.09433 37.445 0.66716 37.8721C0.239985 38.2993 0 38.8787 0 39.4828C0 40.0869 0.239985 40.6663 0.66716 41.0935C1.09433 41.5206 1.67371 41.7606 2.27783 41.7606H15.1855C15.1855 42.9689 15.6655 44.1276 16.5198 44.982C17.3742 45.8363 18.5329 46.3163 19.7412 46.3163C20.9494 46.3163 22.1081 45.8363 22.9625 44.982C23.8168 44.1276 24.2968 42.9689 24.2968 41.7606H37.2045C37.8086 41.7606 38.388 41.5206 38.8152 41.0935C39.2423 40.6663 39.4823 40.0869 39.4823 39.4828C39.4823 38.8787 39.2423 38.2993 38.8152 37.8721C38.388 37.445 37.8086 37.205 37.2045 37.205Z" fill="url(#paint4_linear_1866_2498)"/>
<path d="M41.0009 19.7402H18.2227C18.0213 19.7402 17.8282 19.8202 17.6858 19.9626C17.5434 20.105 17.4634 20.2981 17.4634 20.4995V29.6108C17.4634 29.8122 17.5434 30.0053 17.6858 30.1477C17.8282 30.2901 18.0213 30.3701 18.2227 30.3701H41.0009C41.2023 30.3701 41.3954 30.2901 41.5378 30.1477C41.6802 30.0053 41.7602 29.8122 41.7602 29.6108V20.4995C41.7602 20.2981 41.6802 20.105 41.5378 19.9626C41.3954 19.8202 41.2023 19.7402 41.0009 19.7402ZM20.5005 26.5737C20.2001 26.5737 19.9065 26.4847 19.6568 26.3178C19.4071 26.1509 19.2125 25.9138 19.0975 25.6363C18.9826 25.3588 18.9525 25.0535 19.0111 24.7589C19.0697 24.4643 19.2143 24.1938 19.4267 23.9814C19.6391 23.769 19.9097 23.6244 20.2042 23.5658C20.4988 23.5072 20.8041 23.5373 21.0816 23.6522C21.3591 23.7671 21.5962 23.9618 21.7631 24.2115C21.93 24.4612 22.019 24.7548 22.019 25.0552C22.019 25.4579 21.859 25.8442 21.5743 26.1289C21.2895 26.4137 20.9032 26.5737 20.5005 26.5737ZM27.334 28.8515H23.5376C23.3362 28.8515 23.1431 28.7715 23.0007 28.6292C22.8583 28.4868 22.7783 28.2936 22.7783 28.0923V21.2588H24.2969V27.333H27.334V28.8515ZM29.6118 28.8515H28.0932V21.2588H29.6118V28.8515ZM34.9267 25.0552C34.9267 25.1174 34.9191 25.1793 34.9039 25.2397L34.1447 28.2768C34.1035 28.441 34.0087 28.5867 33.8753 28.6908C33.7418 28.795 33.5774 28.8515 33.4082 28.8515H31.8896C31.7203 28.8515 31.5559 28.795 31.4225 28.6908C31.2891 28.5867 31.1942 28.441 31.1531 28.2768L30.3938 25.2397C30.3787 25.1793 30.3711 25.1174 30.3711 25.0552V21.2588H31.8896V24.9618L32.4826 27.333H32.8152L33.4082 24.9618V21.2588H34.9267V25.0552ZM40.2416 22.7773H37.2045V24.2959H40.2416V25.8144H37.2045V27.333H40.2416V28.8515H36.4453C36.2439 28.8515 36.0508 28.7715 35.9084 28.6292C35.766 28.4868 35.686 28.2936 35.686 28.0923V22.0181C35.686 21.8167 35.766 21.6236 35.9084 21.4812C36.0508 21.3388 36.2439 21.2588 36.4453 21.2588H40.2416V22.7773Z" fill="url(#paint5_linear_1866_2498)"/>
<defs>
<linearGradient id="paint0_linear_1866_2498" x1="40.6212" y1="9.83547e-09" x2="40.9512" y2="31.7602" gradientUnits="userSpaceOnUse">
<stop stop-color="#265285"/>
<stop offset="1" stop-color="#CE0695"/>
</linearGradient>
<linearGradient id="paint1_linear_1866_2498" x1="39.1026" y1="3.03711" x2="39.3447" y2="26.3279" gradientUnits="userSpaceOnUse">
<stop stop-color="#265285"/>
<stop offset="1" stop-color="#CE0695"/>
</linearGradient>
<linearGradient id="paint2_linear_1866_2498" x1="37.5841" y1="6.07422" x2="37.7381" y2="20.8956" gradientUnits="userSpaceOnUse">
<stop stop-color="#265285"/>
<stop offset="1" stop-color="#CE0695"/>
</linearGradient>
<linearGradient id="paint3_linear_1866_2498" x1="34.9266" y1="9.87109" x2="35.0146" y2="18.3405" gradientUnits="userSpaceOnUse">
<stop stop-color="#265285"/>
<stop offset="1" stop-color="#CE0695"/>
</linearGradient>
<linearGradient id="paint4_linear_1866_2498" x1="19.7412" y1="0.759766" x2="21.2643" y2="127.796" gradientUnits="userSpaceOnUse">
<stop stop-color="#265285"/>
<stop offset="1" stop-color="#CE0695"/>
</linearGradient>
<linearGradient id="paint5_linear_1866_2498" x1="29.6118" y1="19.7402" x2="29.7466" y2="49.3857" gradientUnits="userSpaceOnUse">
<stop stop-color="#265285"/>
<stop offset="1" stop-color="#CE0695"/>
</linearGradient>
</defs>
</svg>
