<svg width="42" height="46" viewBox="0 0 42 46" fill="none" xmlns="http://www.w3.org/2000/svg">
<path d="M37.1538 30.1379V20.6207C37.1538 19.7848 37.0828 18.9663 36.9552 18.1652C35.7905 18.7157 34.4917 19.0345 33.1154 19.0345C28.2175 19.0345 24.2308 15.1213 24.2308 10.3103C24.2308 8.50207 24.7945 6.82228 25.7573 5.428C25.7928 5.20593 25.8462 4.98545 25.8462 4.75862C25.8462 2.13503 23.6718 0 21 0C18.3282 0 16.1538 2.13503 16.1538 4.75862C16.1538 4.99655 16.212 5.22655 16.2475 5.46131C9.65354 7.45834 4.84615 13.497 4.84615 20.6207V30.1379C2.17431 30.1379 0 32.273 0 34.8966C0 37.5201 2.17431 39.6552 4.84615 39.6552H37.1538C39.8257 39.6552 42 37.5201 42 34.8966C42 32.273 39.8257 30.1379 37.1538 30.1379ZM22.6041 4.83793C22.0758 4.78717 21.5412 4.75862 21 4.75862C20.4588 4.75862 19.9242 4.78717 19.3959 4.83793C19.3959 4.81097 19.3846 4.78559 19.3846 4.75862C19.3846 3.88462 20.1083 3.17241 21 3.17241C21.8917 3.17241 22.6154 3.88462 22.6154 4.75862C22.6154 4.78559 22.6057 4.81097 22.6041 4.83793ZM14.5788 42.8276H27.4195C25.9431 44.7421 23.6266 46 21 46C18.3734 46 16.0553 44.7421 14.5805 42.8276H14.5788ZM27.4599 10.3103C27.4599 7.24421 29.9912 4.75862 33.1138 4.75862C36.2363 4.75862 38.7676 7.24421 38.7676 10.3103C38.7676 13.3765 36.2363 15.8621 33.1138 15.8621C29.9912 15.8621 27.4599 13.3765 27.4599 10.3103Z" fill="url(#paint0_linear_1866_2506)"/>
<defs>
<linearGradient id="paint0_linear_1866_2506" x1="21" y1="3.97249e-08" x2="22.4599" y2="128.275" gradientUnits="userSpaceOnUse">
<stop stop-color="#265285"/>
<stop offset="1" stop-color="#CE0695"/>
</linearGradient>
</defs>
</svg>
