<svg width="20" height="20" viewBox="0 0 20 20" fill="none" xmlns="http://www.w3.org/2000/svg">
<path d="M15.7648 3.31891H14.8521C14.6596 2.38249 14.15 1.54109 13.4094 0.936529C12.6689 0.331966 11.7425 0.00120686 10.7865 0L9.12701 0C8.171 0.00120686 7.24462 0.331966 6.50403 0.936529C5.76344 1.54109 5.25392 2.38249 5.06134 3.31891H4.14864C3.04876 3.32023 1.9943 3.75774 1.21656 4.53548C0.438828 5.31321 0.00131749 6.36767 0 7.46756L0 9.95674H19.9135V7.46756C19.9122 6.36767 19.4747 5.31321 18.6969 4.53548C17.9192 3.75774 16.8647 3.32023 15.7648 3.31891ZM6.7905 3.31891C6.96149 2.83526 7.27774 2.41624 7.69598 2.1192C8.11422 1.82215 8.61402 1.66158 9.12701 1.65946H10.7865C11.2995 1.66158 11.7993 1.82215 12.2175 2.1192C12.6357 2.41624 12.952 2.83526 13.123 3.31891H6.7905Z" fill="#3A3A3A"/>
<path d="M10.7865 12.4469C10.7865 12.667 10.6991 12.878 10.5434 13.0336C10.3878 13.1892 10.1768 13.2766 9.95674 13.2766C9.73668 13.2766 9.52564 13.1892 9.37003 13.0336C9.21443 12.878 9.12701 12.667 9.12701 12.4469V11.6172H0V15.7658C0.00131749 16.8657 0.438828 17.9202 1.21656 18.6979C1.9943 19.4756 3.04876 19.9132 4.14864 19.9145H15.7648C16.8647 19.9132 17.9192 19.4756 18.6969 18.6979C19.4747 17.9202 19.9122 16.8657 19.9135 15.7658V11.6172H10.7865V12.4469Z" fill="#3A3A3A"/>
</svg>
