<svg width="17" height="17" viewBox="0 0 17 17" fill="none" xmlns="http://www.w3.org/2000/svg">
<path d="M12.75 8.85417C12.75 9.44137 12.274 9.91667 11.6875 9.91667H5.3125C4.726 9.91667 4.25 9.44137 4.25 8.85417C4.25 8.26696 4.726 7.79167 5.3125 7.79167H11.6875C12.274 7.79167 12.75 8.26696 12.75 8.85417ZM8.14583 11.3333H5.3125C4.726 11.3333 4.25 11.8086 4.25 12.3958C4.25 12.983 4.726 13.4583 5.3125 13.4583H8.14583C8.73233 13.4583 9.20833 12.983 9.20833 12.3958C9.20833 11.8086 8.73233 11.3333 8.14583 11.3333ZM17 5.3125V13.1042C17 15.2525 15.2518 17 13.1042 17H3.89583C1.74817 17 0 15.2525 0 13.1042V5.3125C0 3.16412 1.74817 1.41667 3.89583 1.41667H4.25V1.0625C4.25 0.475292 4.726 0 5.3125 0C5.899 0 6.375 0.475292 6.375 1.0625V1.41667H10.625V1.0625C10.625 0.475292 11.101 0 11.6875 0C12.274 0 12.75 0.475292 12.75 1.0625V1.41667H13.1042C15.2518 1.41667 17 3.16412 17 5.3125ZM14.875 13.1042V6.375H2.125V13.1042C2.125 14.0802 2.91904 14.875 3.89583 14.875H13.1042C14.081 14.875 14.875 14.0802 14.875 13.1042Z" fill="#265285"/>
</svg>
