<svg width="46" height="46" viewBox="0 0 46 46" fill="none" xmlns="http://www.w3.org/2000/svg">
<path d="M0 36.416C0.00304339 38.9567 1.01369 41.3925 2.81025 43.189C4.60681 44.9856 7.04259 45.9963 9.58331 45.9993H36.4166C38.9573 45.9963 41.3931 44.9856 43.1897 43.189C44.9862 41.3925 45.9969 38.9567 45.9999 36.416V19.166H0V36.416ZM32.5833 27.791C33.1519 27.791 33.7077 27.9596 34.1805 28.2755C34.6533 28.5914 35.0218 29.0404 35.2394 29.5658C35.457 30.0911 35.514 30.6692 35.403 31.2269C35.2921 31.7846 35.0183 32.2968 34.6162 32.6989C34.2141 33.101 33.7018 33.3748 33.1441 33.4857C32.5865 33.5967 32.0084 33.5397 31.4831 33.3221C30.9577 33.1045 30.5087 32.736 30.1928 32.2633C29.8769 31.7905 29.7083 31.2346 29.7083 30.666C29.7083 29.9035 30.0112 29.1722 30.5503 28.6331C31.0895 28.0939 31.8208 27.791 32.5833 27.791ZM23 27.791C23.5686 27.791 24.1244 27.9596 24.5972 28.2755C25.07 28.5914 25.4385 29.0404 25.6561 29.5658C25.8737 30.0911 25.9306 30.6692 25.8197 31.2269C25.7088 31.7846 25.435 32.2968 25.0329 32.6989C24.6308 33.101 24.1185 33.3748 23.5608 33.4857C23.0031 33.5967 22.4251 33.5397 21.8997 33.3221C21.3744 33.1045 20.9254 32.736 20.6095 32.2633C20.2936 31.7905 20.125 31.2346 20.125 30.666C20.125 29.9035 20.4279 29.1722 20.967 28.6331C21.5062 28.0939 22.2375 27.791 23 27.791ZM13.4166 27.791C13.9853 27.791 14.5411 27.9596 15.0139 28.2755C15.4867 28.5914 15.8552 29.0404 16.0728 29.5658C16.2904 30.0911 16.3473 30.6692 16.2364 31.2269C16.1255 31.7846 15.8516 32.2968 15.4496 32.6989C15.0475 33.101 14.5352 33.3748 13.9775 33.4857C13.4198 33.5967 12.8418 33.5397 12.3164 33.3221C11.7911 33.1045 11.3421 32.736 11.0262 32.2633C10.7103 31.7905 10.5416 31.2346 10.5416 30.666C10.5416 29.9035 10.8445 29.1722 11.3837 28.6331C11.9229 28.0939 12.6541 27.791 13.4166 27.791Z" fill="#265285"/>
<path d="M36.4166 3.83333H34.4999V1.91666C34.4999 1.40833 34.298 0.920821 33.9386 0.561378C33.5791 0.201934 33.0916 0 32.5833 0C32.0749 0 31.5874 0.201934 31.228 0.561378C30.8685 0.920821 30.6666 1.40833 30.6666 1.91666V3.83333H15.3333V1.91666C15.3333 1.40833 15.1314 0.920821 14.7719 0.561378C14.4125 0.201934 13.925 0 13.4166 0C12.9083 0 12.4208 0.201934 12.0614 0.561378C11.7019 0.920821 11.5 1.40833 11.5 1.91666V3.83333H9.58331C7.04259 3.83637 4.60681 4.84701 2.81025 6.64357C1.01369 8.44014 0.00304339 10.8759 0 13.4166L0 15.3333H45.9999V13.4166C45.9969 10.8759 44.9862 8.44014 43.1897 6.64357C41.3931 4.84701 38.9573 3.83637 36.4166 3.83333Z" fill="#265285"/>
</svg>
