<svg width="30" height="30" viewBox="0 0 30 30" fill="none" xmlns="http://www.w3.org/2000/svg">
<circle cx="15" cy="15" r="15" fill="#47A1D9"/>
<path d="M13.1056 13.9512L14.3944 12.7704C14.7468 12.4469 14.9945 12.0254 15.1057 11.5602C15.2168 11.0949 15.1864 10.607 15.0184 10.1592L14.4688 8.69156C14.2635 8.14367 13.857 7.69466 13.3321 7.43603C12.8073 7.1774 12.2036 7.1286 11.644 7.29956C9.58478 7.92956 8.00198 9.84356 8.48918 12.1164C8.80958 13.6116 9.42278 15.4884 10.5844 17.4852C11.7484 19.4868 13.078 20.9652 14.218 22.0044C15.9388 23.5704 18.3988 23.1792 19.9816 21.7032C20.4059 21.3076 20.6633 20.7651 20.7014 20.1862C20.7396 19.6074 20.5555 19.0358 20.1868 18.588L19.1788 17.364C18.8748 16.9938 18.467 16.7231 18.0078 16.5867C17.5487 16.4502 17.0592 16.4543 16.6024 16.5984L14.9368 17.1228C14.5066 16.6789 14.1297 16.1863 13.8136 15.6552C13.5085 15.118 13.2707 14.5453 13.1056 13.95V13.9512Z" fill="white"/>
</svg>
