<svg width="100" height="100" viewBox="0 0 100 100" fill="none" xmlns="http://www.w3.org/2000/svg">
<circle cx="50" cy="50" r="48.5" stroke="#265285" stroke-width="3"/>
<g clip-path="url(#clip0_932_632)">
<path d="M50.5 37.6094C43.3921 37.6094 37.6094 43.3921 37.6094 50.5C37.6094 57.6079 43.3921 63.3906 50.5 63.3906C57.6079 63.3906 63.3906 57.6079 63.3906 50.5C63.3906 43.3921 57.6079 37.6094 50.5 37.6094ZM50.5 61.6719C44.34 61.6719 39.3281 56.66 39.3281 50.5C39.3281 44.34 44.34 39.3281 50.5 39.3281C56.66 39.3281 61.6719 44.34 61.6719 50.5C61.6719 56.66 56.66 61.6719 50.5 61.6719ZM54.7969 46.2031V45.3438C54.7969 42.9745 52.8693 41.0469 50.5 41.0469C48.1307 41.0469 46.2031 42.9745 46.2031 45.3438V46.2031C45.2552 46.2031 44.4844 46.974 44.4844 47.9219V56.5156C44.4844 57.4635 45.2552 58.2344 46.2031 58.2344H54.7969C55.7448 58.2344 56.5156 57.4635 56.5156 56.5156V47.9219C56.5156 46.974 55.7448 46.2031 54.7969 46.2031ZM47.9219 45.3438C47.9219 43.9223 49.0786 42.7656 50.5 42.7656C51.9214 42.7656 53.0781 43.9223 53.0781 45.3438V46.2031H47.9219V45.3438ZM46.2031 56.5156V47.9219H54.7969L54.7977 56.5156H46.2031ZM50.5 48.7812C49.0786 48.7812 47.9219 49.938 47.9219 51.3594C47.9219 52.4783 48.6429 53.4236 49.6406 53.7794V55.6562H51.3594V53.7794C52.3571 53.4236 53.0781 52.4783 53.0781 51.3594C53.0781 49.938 51.9214 48.7812 50.5 48.7812ZM50.5 52.2188C50.0256 52.2188 49.6406 51.8329 49.6406 51.3594C49.6406 50.8859 50.0256 50.5 50.5 50.5C50.9744 50.5 51.3594 50.8859 51.3594 51.3594C51.3594 51.8329 50.9744 52.2188 50.5 52.2188ZM70.2656 40.1875H74.9922C76.1773 40.1875 77.1406 39.2233 77.1406 38.0391C77.1406 37.5776 76.9885 37.1204 76.7109 36.75L75.4219 35.0312V26.4375C75.4219 25.0161 74.2652 23.8594 72.8438 23.8594H64.25C62.8286 23.8594 61.6719 25.0161 61.6719 26.4375V35.0312L60.382 36.7509C60.2548 36.921 60.1568 37.1109 60.0855 37.3103C58.9889 36.5111 57.7944 35.8442 56.5156 35.3346V34.0138C57.5134 33.658 58.2344 32.7127 58.2344 31.5938C58.2344 30.1723 57.0777 29.0156 55.6562 29.0156C54.2348 29.0156 53.0781 30.1723 53.0781 31.5938C53.0781 32.7127 53.7991 33.658 54.7969 34.0138V34.7648C53.6926 34.4623 52.5436 34.2776 51.3594 34.2157V28.8575C52.3571 28.5017 53.0781 27.5564 53.0781 26.4375C53.0781 25.0161 51.9214 23.8594 50.5 23.8594C49.0786 23.8594 47.9219 25.0161 47.9219 26.4375C47.9219 27.5564 48.6429 28.5017 49.6406 28.8575V34.2157C47.8282 34.3111 46.094 34.6944 44.4844 35.3346V32.295C45.4821 31.9392 46.2031 30.9939 46.2031 29.875C46.2031 28.4536 45.0464 27.2969 43.625 27.2969C42.2036 27.2969 41.0469 28.4536 41.0469 29.875C41.0469 30.9939 41.7679 31.9392 42.7656 32.295V36.1252C38.3777 38.4954 35.2109 42.8206 34.3962 47.9219H32.4531V41.0469H34.7898C35.3226 41.0469 35.8159 40.8063 36.1441 40.386C36.4724 39.9658 36.5867 39.4287 36.457 38.9105L36.1312 37.6094H36.75C38.1714 37.6094 39.3281 36.4527 39.3281 35.0312V26.4375C39.3281 25.0161 38.1714 23.8594 36.75 23.8594H26.4375C25.0161 23.8594 23.8594 25.0161 23.8594 26.4375V35.0312C23.8594 36.4527 25.0161 37.6094 26.4375 37.6094H27.0554L26.7297 38.9122C26.6016 39.4295 26.7151 39.9675 27.0434 40.3869C27.3716 40.8062 27.8649 41.0469 28.3977 41.0469H30.7344V49.6406H34.2157C34.2002 49.9268 34.1719 50.2095 34.1719 50.5C34.1719 50.7905 34.2002 51.0732 34.2157 51.3594H30.7344V58.2344H26.4375C25.0161 58.2344 23.8594 59.3911 23.8594 60.8125V74.5625C23.8594 75.9839 25.0161 77.1406 26.4375 77.1406H35.0312C36.4527 77.1406 37.6094 75.9839 37.6094 74.5625V60.8125C37.6094 60.6827 37.5896 60.5581 37.5707 60.4335C38.9715 62.252 40.7332 63.7765 42.7656 64.8748V68.705C41.7679 69.0608 41.0469 70.0061 41.0469 71.125C41.0469 72.5464 42.2036 73.7031 43.625 73.7031C45.0464 73.7031 46.2031 72.5464 46.2031 71.125C46.2031 70.0061 45.4821 69.0608 44.4844 68.705V65.6654C46.094 66.3065 47.8282 66.6898 49.6406 66.7843V72.1425C48.6429 72.4983 47.9219 73.4436 47.9219 74.5625C47.9219 75.9839 49.0786 77.1406 50.5 77.1406C51.9214 77.1406 53.0781 75.9839 53.0781 74.5625C53.0781 73.4436 52.3571 72.4983 51.3594 72.1425V66.7843C52.5436 66.7224 53.6926 66.5368 54.7969 66.2352V66.9862C53.7991 67.342 53.0781 68.2873 53.0781 69.4062C53.0781 70.8277 54.2348 71.9844 55.6562 71.9844C57.0777 71.9844 58.2344 70.8277 58.2344 69.4062C58.2344 68.2873 57.5134 67.342 56.5156 66.9862V65.6654C59.2682 64.5697 61.6478 62.747 63.4293 60.4335C63.4104 60.5581 63.3906 60.6827 63.3906 60.8125V74.5625C63.3906 75.9839 64.5473 77.1406 65.9688 77.1406H74.5625C75.9839 77.1406 77.1406 75.9839 77.1406 74.5625V60.8125C77.1406 59.3911 75.9839 58.2344 74.5625 58.2344H70.2656V51.3594H66.7843C66.7998 51.0732 66.8281 50.7905 66.8281 50.5C66.8281 50.2095 66.7998 49.9268 66.7843 49.6406H70.2656V40.1875ZM55.6562 30.7344C56.1306 30.7344 56.5156 31.1202 56.5156 31.5938C56.5156 32.0673 56.1306 32.4531 55.6562 32.4531C55.1819 32.4531 54.7969 32.0673 54.7969 31.5938C54.7969 31.1202 55.1819 30.7344 55.6562 30.7344ZM43.625 29.0156C44.0994 29.0156 44.4844 29.4015 44.4844 29.875C44.4844 30.3485 44.0994 30.7344 43.625 30.7344C43.1506 30.7344 42.7656 30.3485 42.7656 29.875C42.7656 29.4015 43.1506 29.0156 43.625 29.0156ZM26.4375 25.5781H36.75C37.2244 25.5781 37.6094 25.964 37.6094 26.4375V32.4531H25.5781V26.4375C25.5781 25.964 25.9631 25.5781 26.4375 25.5781ZM25.5781 35.0312V34.1719H37.6094V35.0312C37.6094 35.5048 37.2244 35.8906 36.75 35.8906H26.4375C25.9631 35.8906 25.5781 35.5048 25.5781 35.0312ZM28.3969 39.3281L28.8266 37.6094H34.3601L34.7889 39.3281H28.3969ZM43.625 71.9844C43.1506 71.9844 42.7656 71.5985 42.7656 71.125C42.7656 70.6515 43.1506 70.2656 43.625 70.2656C44.0994 70.2656 44.4844 70.6515 44.4844 71.125C44.4844 71.5985 44.0994 71.9844 43.625 71.9844ZM55.6562 70.2656C55.1819 70.2656 54.7969 69.8798 54.7969 69.4062C54.7969 68.9327 55.1819 68.5469 55.6562 68.5469C56.1306 68.5469 56.5156 68.9327 56.5156 69.4062C56.5156 69.8798 56.1306 70.2656 55.6562 70.2656ZM63.3906 26.4375C63.3906 25.964 63.7756 25.5781 64.25 25.5781H72.8438C73.3181 25.5781 73.7031 25.964 73.7031 26.4375V34.1719H63.3906V26.4375ZM61.7578 37.7813L63.1758 35.8906H73.918L75.3351 37.7804C75.3918 37.856 75.4219 37.9454 75.4219 38.0391C75.4219 38.2762 75.2285 38.4688 74.9922 38.4688H68.5469H62.1016C61.8652 38.4688 61.6719 38.2762 61.6719 38.0391C61.6719 37.9454 61.702 37.856 61.7578 37.7813ZM50.5 25.5781C50.9744 25.5781 51.3594 25.964 51.3594 26.4375C51.3594 26.911 50.9744 27.2969 50.5 27.2969C50.0256 27.2969 49.6406 26.911 49.6406 26.4375C49.6406 25.964 50.0256 25.5781 50.5 25.5781ZM35.8906 74.5625C35.8906 75.036 35.5056 75.4219 35.0312 75.4219H26.4375C25.9631 75.4219 25.5781 75.036 25.5781 74.5625V60.8125C25.5781 60.339 25.9631 59.9531 26.4375 59.9531H35.0312C35.5056 59.9531 35.8906 60.339 35.8906 60.8125V74.5625ZM35.0312 58.2344H32.4531V53.0781H34.3962C34.7133 55.0624 35.381 56.9281 36.347 58.6073C35.9602 58.3762 35.5134 58.2344 35.0312 58.2344ZM50.5 75.4219C50.0256 75.4219 49.6406 75.036 49.6406 74.5625C49.6406 74.089 50.0256 73.7031 50.5 73.7031C50.9744 73.7031 51.3594 74.089 51.3594 74.5625C51.3594 75.036 50.9744 75.4219 50.5 75.4219ZM50.5 65.1094C42.4442 65.1094 35.8906 58.5558 35.8906 50.5C35.8906 42.4442 42.4442 35.8906 50.5 35.8906C58.5558 35.8906 65.1094 42.4442 65.1094 50.5C65.1094 58.5558 58.5558 65.1094 50.5 65.1094ZM65.1094 63.3906H75.4219V71.9844H65.1094V63.3906ZM74.5625 75.4219H65.9688C65.4944 75.4219 65.1094 75.036 65.1094 74.5625V73.7031H75.4219V74.5625C75.4219 75.036 75.0369 75.4219 74.5625 75.4219ZM75.4219 60.8125V61.6719H65.1094V60.8125C65.1094 60.339 65.4944 59.9531 65.9688 59.9531H74.5625C75.0369 59.9531 75.4219 60.339 75.4219 60.8125ZM68.5469 53.0781V58.2344H65.9688C65.4866 58.2344 65.0398 58.3762 64.653 58.6073C65.619 56.9281 66.2867 55.0624 66.6038 53.0781H68.5469ZM68.5469 47.9219H66.6038C66.1406 45.0206 64.9272 42.3686 63.1448 40.1875H68.5469V47.9219ZM65.1094 32.4531H71.9844V27.2969H65.1094V32.4531ZM66.8281 29.0156H70.2656V30.7344H66.8281V29.0156ZM27.2969 70.2656H34.1719V61.6719H27.2969V70.2656ZM29.0156 63.3906H32.4531V68.5469H29.0156V63.3906ZM29.0156 71.9844H32.4531V73.7031H29.0156V71.9844Z" fill="#265285"/>
</g>
<defs>
<clipPath id="clip0_932_632">
<rect x="23" y="23" width="55" height="55" rx="10" fill="white"/>
</clipPath>
</defs>
</svg>
