<svg width="100" height="100" viewBox="0 0 100 100" fill="none" xmlns="http://www.w3.org/2000/svg">
<circle cx="50" cy="50" r="48.5" stroke="#265285" stroke-width="3"/>
<g clip-path="url(#clip0_932_633)">
<path d="M34.8906 34.2641V36.6094H31.295C30.9392 35.6116 29.9939 34.8906 28.875 34.8906C27.4536 34.8906 26.2969 36.0473 26.2969 37.4688C26.2969 38.8902 27.4536 40.0469 28.875 40.0469C29.9939 40.0469 30.9392 39.3259 31.295 38.3281H34.8906V40.6734L37.2402 41.4262C37.4541 42.0913 37.7188 42.7324 38.0299 43.3417L36.9024 45.5323L41.4348 50.0646L43.6253 48.9371C44.2355 49.2491 44.8766 49.5129 45.5409 49.7269L46.2954 52.0781H52.7055L53.4583 49.7286C54.1226 49.5146 54.7645 49.2508 55.3738 48.9388L57.5644 50.0663L62.0967 45.534L60.9692 43.3434C61.2803 42.7341 61.545 42.093 61.759 41.4279L64.1094 40.6734V38.3281H67.705C68.0608 39.3259 69.0061 40.0469 70.125 40.0469C71.5464 40.0469 72.7031 38.8902 72.7031 37.4688C72.7031 36.0473 71.5464 34.8906 70.125 34.8906C69.0061 34.8906 68.0608 35.6116 67.705 36.6094H64.1094V34.2641L61.7598 33.5113C61.5459 32.8462 61.2812 32.2051 60.9701 31.5958L62.0976 29.4052L57.5652 24.8729L55.3747 26.0004C54.7637 25.6884 54.1226 25.4238 53.4591 25.2106L52.7046 22.8594H46.2945L45.5417 25.2089C44.8783 25.422 44.2363 25.6867 43.6262 25.9987L41.4356 24.8712L36.9033 29.4035L38.0308 31.5941C37.7197 32.2034 37.455 32.8445 37.241 33.5096L34.8906 34.2641ZM28.875 38.3281C28.4006 38.3281 28.0156 37.9423 28.0156 37.4688C28.0156 36.9952 28.4006 36.6094 28.875 36.6094C29.3494 36.6094 29.7344 36.9952 29.7344 37.4688C29.7344 37.9423 29.3494 38.3281 28.875 38.3281ZM70.125 36.6094C70.5994 36.6094 70.9844 36.9952 70.9844 37.4688C70.9844 37.9423 70.5994 38.3281 70.125 38.3281C69.6506 38.3281 69.2656 37.9423 69.2656 37.4688C69.2656 36.9952 69.6506 36.6094 70.125 36.6094ZM57.2352 47.9634L55.3489 46.9932L54.9467 47.2184C54.2008 47.636 53.3921 47.9703 52.543 48.2092L52.0987 48.3347L51.4516 50.3594H47.5492L46.9012 48.3347L46.457 48.2092C45.6079 47.9695 44.7992 47.636 44.0533 47.2184L43.6511 46.9932L41.7648 47.9634L39.0045 45.204L39.8896 43.4844H59.1104L59.9955 45.204L57.2352 47.9634ZM43.4844 41.7656H41.7656V34.8906H43.4844V41.7656ZM50.3594 41.7656H48.6406V29.7344H50.3594V41.7656ZM57.2344 41.7656H55.5156V33.1719H57.2344V41.7656ZM38.6341 34.8691L38.7595 34.4248C39.0002 33.5749 39.3336 32.7671 39.7495 32.022L39.9755 31.6198L39.0045 29.7335L41.7648 26.9741L43.6502 27.9443L44.0533 27.7191C44.8009 27.3006 45.6096 26.9672 46.457 26.7283L46.9012 26.6028L47.5484 24.5781H51.4508L52.0987 26.6028L52.543 26.7283C53.3904 26.9672 54.1991 27.3015 54.9467 27.7191L55.3498 27.9443L57.2352 26.9741L59.9955 29.7335L59.0245 31.6198L59.2505 32.022C59.6664 32.7671 59.9998 33.5749 60.2405 34.4248L60.3659 34.8691L62.3906 35.5171V39.4195L60.3659 40.0684L60.2405 40.5127C60.1184 40.9423 59.9732 41.36 59.8048 41.7656H58.9531V31.4531H53.7969V41.7656H52.0781V28.0156H46.9219V41.7656H45.2031V33.1719H40.0469V41.7656H39.1944C39.0268 41.36 38.8807 40.9423 38.7587 40.5127L38.6332 40.0684L36.6094 39.4204V35.518L38.6341 34.8691ZM67.5469 72.7152H65.8281V70.9964H67.5469V72.7152ZM70.9844 72.7152H69.2656V70.9964H70.9844V72.7152ZM62.3906 72.7152V70.9964H64.1094V72.7152H62.3906ZM72.7031 47.7812H70.9844V67.5589H28.0156V47.7812H26.2969V67.5589H22.8594V71.8558C22.8594 74.2251 24.787 76.1527 27.1562 76.1527H71.8438C74.213 76.1527 76.1406 74.2251 76.1406 71.8558V67.5589H72.7031V47.7812ZM54.9845 69.2777L54.1252 70.9964H44.8748L44.0155 69.2777H54.9845ZM74.4219 71.8558C74.4219 73.2772 73.2652 74.4339 71.8438 74.4339H27.1562C25.7348 74.4339 24.5781 73.2772 24.5781 71.8558V69.2777H42.0939L43.8127 72.7152H55.1873L56.9061 69.2777H74.4219V71.8558ZM31.4531 47.7812V64.1214H67.5469V47.7812H69.2656V64.1214C69.2656 65.0693 68.4948 65.8402 67.5469 65.8402H31.4531C30.5052 65.8402 29.7344 65.0693 29.7344 64.1214V47.7812H31.4531ZM73.5625 28.875C72.4436 28.875 71.4983 29.596 71.1425 30.5938H63.25V32.3125H71.1425C71.4983 33.3102 72.4436 34.0312 73.5625 34.0312C74.9839 34.0312 76.1406 32.8745 76.1406 31.4531C76.1406 30.0317 74.9839 28.875 73.5625 28.875ZM73.5625 32.3125C73.0881 32.3125 72.7031 31.9266 72.7031 31.4531C72.7031 30.9796 73.0881 30.5938 73.5625 30.5938C74.0369 30.5938 74.4219 30.9796 74.4219 31.4531C74.4219 31.9266 74.0369 32.3125 73.5625 32.3125ZM73.5625 40.9062C72.4436 40.9062 71.4983 41.6273 71.1425 42.625H63.25V44.3438H71.1425C71.4983 45.3415 72.4436 46.0625 73.5625 46.0625C74.9839 46.0625 76.1406 44.9058 76.1406 43.4844C76.1406 42.063 74.9839 40.9062 73.5625 40.9062ZM73.5625 44.3438C73.0881 44.3438 72.7031 43.9579 72.7031 43.4844C72.7031 43.0109 73.0881 42.625 73.5625 42.625C74.0369 42.625 74.4219 43.0109 74.4219 43.4844C74.4219 43.9579 74.0369 44.3438 73.5625 44.3438ZM25.4375 28.875C24.0161 28.875 22.8594 30.0317 22.8594 31.4531C22.8594 32.8745 24.0161 34.0312 25.4375 34.0312C26.5564 34.0312 27.5017 33.3102 27.8575 32.3125H35.75V30.5938H27.8575C27.5017 29.596 26.5564 28.875 25.4375 28.875ZM25.4375 32.3125C24.9631 32.3125 24.5781 31.9266 24.5781 31.4531C24.5781 30.9796 24.9631 30.5938 25.4375 30.5938C25.9119 30.5938 26.2969 30.9796 26.2969 31.4531C26.2969 31.9266 25.9119 32.3125 25.4375 32.3125ZM25.4375 46.0625C26.5564 46.0625 27.5017 45.3415 27.8575 44.3438H35.75V42.625H27.8575C27.5017 41.6273 26.5564 40.9062 25.4375 40.9062C24.0161 40.9062 22.8594 42.063 22.8594 43.4844C22.8594 44.9058 24.0161 46.0625 25.4375 46.0625ZM25.4375 42.625C25.9119 42.625 26.2969 43.0109 26.2969 43.4844C26.2969 43.9579 25.9119 44.3438 25.4375 44.3438C24.9631 44.3438 24.5781 43.9579 24.5781 43.4844C24.5781 43.0109 24.9631 42.625 25.4375 42.625ZM33.1719 52.0781V62.3906H45.2031V52.0781H33.1719ZM43.4844 60.6719H34.8906V53.7969H43.4844V60.6719ZM46.9219 53.7969H65.8281V55.5156H46.9219V53.7969ZM65.8281 58.9531H64.1094V57.2344H65.8281V58.9531ZM62.3906 57.2344V58.9531H46.9219V57.2344H62.3906ZM46.9219 60.6719H65.8281V62.3906H46.9219V60.6719Z" fill="#265285"/>
</g>
<defs>
<clipPath id="clip0_932_633">
<rect x="22" y="22" width="55" height="55" rx="10" fill="white"/>
</clipPath>
</defs>
</svg>
