<svg width="100" height="100" viewBox="0 0 100 100" fill="none" xmlns="http://www.w3.org/2000/svg">
<circle cx="50" cy="50" r="48.5" stroke="#265285" stroke-width="3"/>
<path d="M73.4356 57.0527C74.2026 56.1966 74.6699 55.0665 74.6699 53.8301C74.6699 51.1649 72.5011 48.9961 69.8359 48.9961H60.4537C61.3829 46.1763 61.7793 42.4348 61.7793 40.831V39.2207C61.7793 35.6672 58.8875 32.7754 55.334 32.7754H53.7227C52.9836 32.7754 52.3391 33.2781 52.1597 33.9957L51.282 37.5073C50.0521 42.4251 46.1473 47.851 42.1061 48.8371C41.3981 47.0453 39.6504 45.7734 37.6094 45.7734H27.9414C27.052 45.7734 26.3301 46.4953 26.3301 47.3848V76.3887C26.3301 77.2781 27.052 78 27.9414 78H37.6094C39.5312 78 41.194 76.8731 41.9729 75.2446L47.5094 77.0901C49.3194 77.6938 51.2058 78 53.1146 78H66.6133C69.2784 78 71.4473 75.8312 71.4473 73.166C71.4473 72.5376 71.327 71.936 71.1078 71.385C73.1574 70.8253 74.6699 68.9465 74.6699 66.7207C74.6699 65.4843 74.2026 64.3542 73.4356 63.498C74.2026 62.6419 74.6699 61.5118 74.6699 60.2754C74.6699 59.039 74.2026 57.9089 73.4356 57.0527ZM39.2207 73.166C39.2207 74.0544 38.4978 74.7773 37.6094 74.7773H29.5527V48.9961H37.6094C38.4978 48.9961 39.2207 49.719 39.2207 50.6074V73.166ZM66.6133 58.6641H69.8359C70.7243 58.6641 71.4473 59.387 71.4473 60.2754C71.4473 61.1638 70.7243 61.8867 69.8359 61.8867H66.6133C65.7238 61.8867 65.002 62.6086 65.002 63.498C65.002 64.3875 65.7238 65.1094 66.6133 65.1094H69.8359C70.7243 65.1094 71.4473 65.8323 71.4473 66.7207C71.4473 67.6091 70.7243 68.332 69.8359 68.332H66.6133C65.7238 68.332 65.002 69.0539 65.002 69.9434C65.002 70.8328 65.7238 71.5547 66.6133 71.5547C67.5017 71.5547 68.2246 72.2776 68.2246 73.166C68.2246 74.0544 67.5017 74.7773 66.6133 74.7773H53.1146C51.5527 74.7773 50.0091 74.5271 48.5277 74.0329L42.4434 72.0048V52.0662C44.971 51.586 47.4449 49.9855 49.6782 47.3654C51.8589 44.8066 53.6271 41.4143 54.408 38.2894L54.9806 35.998H55.334C57.1107 35.998 58.5566 37.4439 58.5566 39.2207V40.831C58.5566 42.9944 57.8799 47.1441 57.0141 48.9961H53.7227C52.8332 48.9961 52.1113 49.718 52.1113 50.6074C52.1113 51.4969 52.8332 52.2188 53.7227 52.2188H69.8359C70.7243 52.2188 71.4473 52.9417 71.4473 53.8301C71.4473 54.7185 70.7243 55.4414 69.8359 55.4414H66.6133C65.7238 55.4414 65.002 56.1633 65.002 57.0527C65.002 57.9422 65.7238 58.6641 66.6133 58.6641Z" fill="#265285"/>
<path d="M34.3867 71.5547C35.2766 71.5547 35.998 70.8333 35.998 69.9434C35.998 69.0534 35.2766 68.332 34.3867 68.332C33.4968 68.332 32.7754 69.0534 32.7754 69.9434C32.7754 70.8333 33.4968 71.5547 34.3867 71.5547Z" fill="#265285"/>
<path d="M56.9453 23C56.0554 23 55.334 23.7214 55.334 24.6113V27.9414C55.334 28.8313 56.0554 29.5527 56.9453 29.5527C57.8352 29.5527 58.5566 28.8313 58.5566 27.9414V24.6113C58.5566 23.7214 57.8352 23 56.9453 23Z" fill="#265285"/>
<path d="M50.109 30.1062L47.8303 27.8274C47.2011 27.1981 46.1808 27.1981 45.5515 27.8274C44.9223 28.4567 44.9223 29.4769 45.5515 30.1062L47.8303 32.3849C48.4595 33.0141 49.4799 33.0142 50.109 32.3849C50.7383 31.7556 50.7383 30.7354 50.109 30.1062Z" fill="#265285"/>
<path d="M68.3391 27.8274C67.71 27.1981 66.6897 27.1981 66.0604 27.8274L63.7817 30.1061C63.1524 30.7353 63.1524 31.7555 63.7817 32.3848C64.4108 33.0141 65.4311 33.0142 66.0604 32.3849L68.3391 30.1062C68.9684 29.4769 68.9684 28.4567 68.3391 27.8274Z" fill="#265285"/>
</svg>
