<svg width="100" height="100" viewBox="0 0 100 100" fill="none" xmlns="http://www.w3.org/2000/svg">
<circle cx="50" cy="50" r="48.5" stroke="#265285" stroke-width="3"/>
<g clip-path="url(#clip0_933_638)">
<path fill-rule="evenodd" clip-rule="evenodd" d="M70.3594 31.9519C65.3852 37.2176 59.6894 41.6638 53.2731 45.2916C46.6467 49.0371 39.2547 51.907 31.0993 53.9013C30.6989 53.9981 30.2952 53.7517 30.1984 53.3513C30.1115 52.9938 30.2985 52.6352 30.623 52.4922L30.6219 52.4911C37.4265 49.487 43.6569 46.5555 49.6321 42.7924C55.4225 39.1459 60.994 34.7063 66.6502 28.642L65.0783 27.2395C64.7692 26.9645 64.7417 26.4915 65.0167 26.1835C65.108 26.0812 65.2202 26.0097 65.3412 25.9701L74.2292 23.0375C74.6219 22.9088 75.0454 23.1222 75.1741 23.5149C75.2214 23.6601 75.2225 23.8086 75.1851 23.9461L73.2909 33.0651C73.2073 33.4688 72.8113 33.7284 72.4076 33.6448C72.2745 33.6173 72.1579 33.5557 72.0633 33.471L72.0622 33.4721L70.3594 31.9519ZM52.5416 43.9925C59.0206 40.3306 64.7483 35.8151 69.7247 30.4482C69.7346 30.4361 69.7445 30.424 69.7555 30.4119C70.0305 30.1028 70.5035 30.0753 70.8115 30.3503L72.0908 31.4921L73.468 24.8657L67.0407 26.9865L68.2144 28.0337L68.2232 28.0425C68.5268 28.3219 68.5466 28.7949 68.2672 29.0985C62.3371 35.5533 56.5027 40.2316 50.4285 44.0574C47.3386 46.0033 44.1915 47.7259 40.9421 49.3473C45.0451 47.8293 48.9116 46.044 52.5416 43.9925ZM28.8124 60.5508H35.1484C35.562 60.5508 35.8975 60.8863 35.8975 61.2999V70.3859C35.8975 70.7995 35.562 71.135 35.1484 71.135H28.8124C28.3988 71.135 28.0633 70.7995 28.0633 70.3859V61.2999C28.0633 60.8863 28.3988 60.5508 28.8124 60.5508ZM34.3993 62.049H29.5615V69.6368H34.3993V62.049ZM73.7936 52.3481V43.3292C73.7936 42.9156 73.4581 42.5801 73.0445 42.5801H66.7085C66.2949 42.5801 65.9594 42.9156 65.9594 43.3292V70.3859C65.9594 70.7995 66.2949 71.135 66.7085 71.135H73.0445C73.4581 71.135 73.7936 70.7995 73.7936 70.3859V52.3481ZM72.2954 69.6368V44.0783H67.4576V69.6368H72.2954ZM59.663 50.3131H54.8252V69.6368H59.663V50.3131ZM54.0761 48.8149C53.6625 48.8149 53.327 49.1504 53.327 49.564V70.3859C53.327 70.7995 53.6625 71.135 54.0761 71.135H60.4121C60.8257 71.135 61.1612 70.7995 61.1612 70.3859V49.564C61.1612 49.1504 60.8257 48.8149 60.4121 48.8149H54.0761ZM41.4448 54.9584H47.7808C48.1944 54.9584 48.5299 55.2939 48.5299 55.7075V70.3859C48.5299 70.7995 48.1944 71.135 47.7808 71.135H41.4448C41.0312 71.135 40.6957 70.7995 40.6957 70.3859V55.7075C40.6957 55.2928 41.0312 54.9584 41.4448 54.9584ZM47.0317 56.4555H42.1939V69.6357H47.0317V56.4555ZM48.3429 34.8284L49.7113 36.5829C49.7916 36.7028 49.9082 36.8018 50.0523 36.8601C50.4351 37.0152 50.8718 36.8304 51.0269 36.4476L54.5403 27.773H54.5392C54.5865 27.6553 54.6052 27.5244 54.5865 27.3902C54.5304 26.981 54.1531 26.6961 53.7439 26.7522L44.4742 28.0469V28.048C44.3477 28.0656 44.2245 28.1151 44.1167 28.1987C43.7922 28.4528 43.7339 28.9214 43.988 29.2459L45.3399 30.9795C43.5227 32.7142 41.4008 34.4533 38.5639 36.4575C35.4597 38.6498 31.5052 41.1567 26.1669 44.3148C25.8655 44.4842 25.7126 44.8461 25.8204 45.1893C25.9436 45.5831 26.3627 45.8042 26.7565 45.681C30.8243 44.4138 34.704 42.8408 38.3967 40.962C41.8705 39.1943 45.1859 37.1505 48.3429 34.8284ZM37.7202 39.6266C41.3436 37.7819 44.7778 35.6424 48.025 33.207C48.3495 32.9529 48.8192 33.0112 49.0722 33.3357L50.126 34.6876L52.6681 28.4121L45.9625 29.3482L46.9118 30.5659C47.1637 30.8618 47.1472 31.3051 46.8667 31.5823C44.8834 33.5326 42.5833 35.451 39.4263 37.6807C37.7323 38.8775 35.7897 40.1645 33.516 41.5967C34.9427 40.984 36.3441 40.3273 37.7202 39.6266ZM28.8124 73.5473H73.0445C73.4581 73.5473 73.7936 73.8828 73.7936 74.2964V77.251C73.7936 77.6646 73.4581 78.0001 73.0445 78.0001H28.8124C28.3988 78.0001 28.0633 77.6646 28.0633 77.251V74.2964C28.0633 73.8828 28.3988 73.5473 28.8124 73.5473ZM72.2954 75.0455H29.5615V76.5019H72.2954V75.0455Z" fill="#265285"/>
</g>
<defs>
<clipPath id="clip0_933_638">
<rect x="23" y="23" width="55" height="55" rx="10" fill="white"/>
</clipPath>
</defs>
</svg>
