<svg width="30" height="30" viewBox="0 0 30 30" fill="none" xmlns="http://www.w3.org/2000/svg">
<circle cx="15" cy="15" r="15" fill="#47A1D9"/>
<path d="M10.3333 5C9.71449 5 9.121 5.25022 8.68342 5.69562C8.24583 6.14102 8 6.74511 8 7.375V23.2083C8 23.4183 8.08194 23.6197 8.22781 23.7681C8.37367 23.9166 8.5715 24 8.77778 24H11.1111V20.0417C11.1111 19.8317 11.1931 19.6303 11.3389 19.4819C11.4848 19.3334 11.6826 19.25 11.8889 19.25H18.1111C18.3174 19.25 18.5152 19.3334 18.6611 19.4819C18.8069 19.6303 18.8889 19.8317 18.8889 20.0417V24H21.2222C21.4285 24 21.6263 23.9166 21.7722 23.7681C21.9181 23.6197 22 23.4183 22 23.2083V15.2917C22 14.6618 21.7542 14.0577 21.3166 13.6123C20.879 13.1669 20.2855 12.9167 19.6667 12.9167H18.8889V7.375C18.8889 6.74511 18.6431 6.14102 18.2055 5.69562C17.7679 5.25022 17.1744 5 16.5556 5H10.3333ZM12.6667 8.95833C12.6667 9.1683 12.5847 9.36966 12.4389 9.51813C12.293 9.66659 12.0952 9.75 11.8889 9.75C11.6826 9.75 11.4848 9.66659 11.3389 9.51813C11.1931 9.36966 11.1111 9.1683 11.1111 8.95833C11.1111 8.74837 11.1931 8.54701 11.3389 8.39854C11.4848 8.25007 11.6826 8.16667 11.8889 8.16667C12.0952 8.16667 12.293 8.25007 12.4389 8.39854C12.5847 8.54701 12.6667 8.74837 12.6667 8.95833ZM12.6667 12.9167C12.6667 13.1266 12.5847 13.328 12.4389 13.4765C12.293 13.6249 12.0952 13.7083 11.8889 13.7083C11.6826 13.7083 11.4848 13.6249 11.3389 13.4765C11.1931 13.328 11.1111 13.1266 11.1111 12.9167C11.1111 12.7067 11.1931 12.5053 11.3389 12.3569C11.4848 12.2084 11.6826 12.125 11.8889 12.125C12.0952 12.125 12.293 12.2084 12.4389 12.3569C12.5847 12.5053 12.6667 12.7067 12.6667 12.9167ZM12.6667 16.875C12.6667 17.085 12.5847 17.2863 12.4389 17.4348C12.293 17.5833 12.0952 17.6667 11.8889 17.6667C11.6826 17.6667 11.4848 17.5833 11.3389 17.4348C11.1931 17.2863 11.1111 17.085 11.1111 16.875C11.1111 16.665 11.1931 16.4637 11.3389 16.3152C11.4848 16.1667 11.6826 16.0833 11.8889 16.0833C12.0952 16.0833 12.293 16.1667 12.4389 16.3152C12.5847 16.4637 12.6667 16.665 12.6667 16.875ZM15.7778 8.95833C15.7778 9.1683 15.6958 9.36966 15.55 9.51813C15.4041 9.66659 15.2063 9.75 15 9.75C14.7937 9.75 14.5959 9.66659 14.45 9.51813C14.3042 9.36966 14.2222 9.1683 14.2222 8.95833C14.2222 8.74837 14.3042 8.54701 14.45 8.39854C14.5959 8.25007 14.7937 8.16667 15 8.16667C15.2063 8.16667 15.4041 8.25007 15.55 8.39854C15.6958 8.54701 15.7778 8.74837 15.7778 8.95833ZM15.7778 12.9167C15.7778 13.1266 15.6958 13.328 15.55 13.4765C15.4041 13.6249 15.2063 13.7083 15 13.7083C14.7937 13.7083 14.5959 13.6249 14.45 13.4765C14.3042 13.328 14.2222 13.1266 14.2222 12.9167C14.2222 12.7067 14.3042 12.5053 14.45 12.3569C14.5959 12.2084 14.7937 12.125 15 12.125C15.2063 12.125 15.4041 12.2084 15.55 12.3569C15.6958 12.5053 15.7778 12.7067 15.7778 12.9167ZM15.7778 16.875C15.7778 17.085 15.6958 17.2863 15.55 17.4348C15.4041 17.5833 15.2063 17.6667 15 17.6667C14.7937 17.6667 14.5959 17.5833 14.45 17.4348C14.3042 17.2863 14.2222 17.085 14.2222 16.875C14.2222 16.665 14.3042 16.4637 14.45 16.3152C14.5959 16.1667 14.7937 16.0833 15 16.0833C15.2063 16.0833 15.4041 16.1667 15.55 16.3152C15.6958 16.4637 15.7778 16.665 15.7778 16.875ZM18.8889 16.875C18.8889 17.085 18.8069 17.2863 18.6611 17.4348C18.5152 17.5833 18.3174 17.6667 18.1111 17.6667C17.9048 17.6667 17.707 17.5833 17.5611 17.4348C17.4153 17.2863 17.3333 17.085 17.3333 16.875C17.3333 16.665 17.4153 16.4637 17.5611 16.3152C17.707 16.1667 17.9048 16.0833 18.1111 16.0833C18.3174 16.0833 18.5152 16.1667 18.6611 16.3152C18.8069 16.4637 18.8889 16.665 18.8889 16.875ZM17.3333 24V20.8333H15.7824V24H17.3333ZM14.2269 24V20.8333H12.6667V24H14.2269Z" fill="white"/>
</svg>
