<svg width="84" height="100" viewBox="0 0 84 100" fill="none" xmlns="http://www.w3.org/2000/svg">
<path d="M21.4844 21.4844H1.71622L21.4844 1.71622V21.4844ZM81.055 0H74.2189V100H81.055C82.6728 100 83.9848 98.6884 83.9848 97.0702V2.9298C83.9844 1.31159 82.6728 0 81.055 0ZM54.6877 41.9921C54.6877 37.7434 52.2093 33.9573 48.4106 32.2272C47.0497 32.852 45.5384 33.203 43.9454 33.203C42.3523 33.203 40.8411 32.852 39.4801 32.2272C35.6815 33.9573 33.203 37.7434 33.203 41.9921V42.9685H54.6874V41.9921H54.6877ZM43.9454 27.3437C46.6378 27.3437 48.8282 25.1533 48.8282 22.4609C48.8282 19.7685 46.6378 17.5781 43.9454 17.5781C41.253 17.5781 39.0626 19.7685 39.0626 22.4609C39.0626 25.1533 41.253 27.3437 43.9454 27.3437ZM27.344 0H68.3596V100H2.9298C1.31192 100 0 98.6884 0 97.0702V27.3437H24.4139C26.0318 27.3437 27.3437 26.0321 27.3437 24.4139V0H27.344ZM60.547 83.0079C60.547 81.3901 59.2354 80.0781 57.6172 80.0781H38.0861C36.4682 80.0781 35.1563 81.3897 35.1563 83.0079C35.1563 84.6262 36.4679 85.9378 38.0861 85.9378H57.6172C59.2354 85.9374 60.547 84.6258 60.547 83.0079ZM60.547 71.2891C60.547 69.6712 59.2354 68.3593 57.6172 68.3593H10.7424C9.1245 68.3593 7.81258 69.6709 7.81258 71.2891C7.81258 72.9073 9.12417 74.2189 10.7424 74.2189H57.6172C59.2354 74.2189 60.547 72.907 60.547 71.2891ZM60.547 59.5702C60.547 57.9523 59.2354 56.6404 57.6172 56.6404H10.7424C9.1245 56.6404 7.81258 57.952 7.81258 59.5702C7.81258 61.1884 9.12417 62.5 10.7424 62.5H57.6172C59.2354 62.5 60.547 61.1884 60.547 59.5702ZM34.8228 28.1238C30.2272 31.1371 27.3437 36.2947 27.3437 41.9921V45.8983C27.3437 47.5162 28.6553 48.8281 30.2735 48.8281H57.6172C59.2351 48.8281 60.547 47.5166 60.547 45.8983V41.9921C60.547 36.2947 57.6639 31.1371 53.0679 28.1238C54.093 26.4785 54.6874 24.5381 54.6874 22.4609C54.6874 16.5377 49.8685 11.7189 43.9454 11.7189C38.0222 11.7189 33.2033 16.5377 33.2033 22.4609C33.2033 24.5384 33.7977 26.4785 34.8228 28.1238Z" fill="#265285"/>
</svg>
