<svg width="16" height="14" viewBox="0 0 16 14" fill="none" xmlns="http://www.w3.org/2000/svg">
<path d="M14.4167 13.5H1.58333C1.2625 13.5 1 13.2563 1 12.9583C1 12.6604 1.2625 12.4167 1.58333 12.4167H14.4167C14.7375 12.4167 15 12.6604 15 12.9583C15 13.2563 14.7375 13.5 14.4167 13.5ZM9.61583 10.7158L13.32 7.05958C13.8275 6.58833 13.9733 5.91667 13.6992 5.30458C13.425 4.6925 12.8125 4.30792 12.095 4.3025H10.8875L10.87 2.65042C10.87 1.46417 9.83167 0.5 8.55417 0.5H7.39917C6.12167 0.5 5.08333 1.46417 5.08333 2.65583V4.29167H3.8875C3.17 4.29167 2.5575 4.67625 2.28333 5.29375C2.00917 5.90583 2.155 6.58292 2.65083 7.03792L6.34333 10.7213C6.7925 11.1383 7.3875 11.3496 7.9825 11.3496C8.5775 11.3496 9.16667 11.1383 9.62167 10.7213L9.61583 10.7158ZM5.66667 5.375C5.82417 5.375 5.97 5.31542 6.08083 5.21792C6.19167 5.115 6.25 4.97958 6.25 4.83333V2.65042C6.25 2.06 6.76333 1.58333 7.39917 1.58333H8.55417C9.19 1.58333 9.70333 2.06542 9.70333 2.65583L9.72083 4.84958C9.72083 5.1475 9.98333 5.38583 10.3042 5.38583H12.0833C12.4392 5.38583 12.5792 5.64042 12.6083 5.71625C12.6433 5.79208 12.7367 6.06292 12.4683 6.30667L8.77583 9.95208C8.32667 10.3638 7.60333 10.3583 7.17167 9.9575L3.47917 6.27417C3.22833 6.04125 3.32167 5.77042 3.35667 5.69458C3.39167 5.61875 3.53167 5.36417 3.88167 5.36417H5.66667V5.375Z" fill="white" stroke="white" stroke-width="0.5"/>
</svg>
