<svg width="30" height="30" viewBox="0 0 30 30" fill="none" xmlns="http://www.w3.org/2000/svg">
<circle cx="15" cy="15" r="15" fill="#47A1D9"/>
<path d="M23 11.373V18.5C23 19.163 22.7366 19.7989 22.2678 20.2678C21.7989 20.7366 21.163 21 20.5 21H9.5C8.83696 21 8.20107 20.7366 7.73223 20.2678C7.26339 19.7989 7 19.163 7 18.5V11.373L14.746 15.931C14.823 15.9764 14.9107 16.0003 15 16.0003C15.0893 16.0003 15.177 15.9764 15.254 15.931L23 11.373ZM20.5 8C21.1151 7.9999 21.7087 8.22661 22.1672 8.63674C22.6257 9.04687 22.9168 9.61164 22.985 10.223L15 14.92L7.015 10.223C7.08316 9.61164 7.37432 9.04687 7.83279 8.63674C8.29127 8.22661 8.88485 7.9999 9.5 8H20.5Z" fill="white"/>
</svg>
