<svg width="14" height="15" viewBox="0 0 14 15" fill="none" xmlns="http://www.w3.org/2000/svg">
<path d="M0.769492 7.85818L2.8473 9.42503L2.0582 11.9483C1.93068 12.3396 1.92906 12.763 2.05359 13.1554C2.17813 13.5478 2.42214 13.8881 2.74925 14.1256C3.07075 14.3707 3.46037 14.502 3.86003 14.5C4.25969 14.4979 4.64802 14.3626 4.96713 14.1141L6.99883 12.5702L9.03112 14.1123C9.35204 14.3561 9.73955 14.4884 10.1379 14.4904C10.5363 14.4924 10.9251 14.364 11.2483 14.1235C11.5715 13.883 11.8125 13.5429 11.9367 13.152C12.0609 12.7612 12.0619 12.3397 11.9395 11.9483L11.1504 9.42503L13.2282 7.85818C13.5487 7.61622 13.7869 7.27588 13.9089 6.88576C14.0309 6.49564 14.0303 6.07569 13.9074 5.68591C13.7844 5.29613 13.5452 4.95645 13.2241 4.71538C12.903 4.47431 12.5163 4.3442 12.1192 4.34361H9.56691L8.7924 1.85111C8.67061 1.45877 8.43128 1.11651 8.10892 0.873681C7.78657 0.63085 7.39786 0.5 6.99883 0.5C6.59981 0.5 6.21109 0.63085 5.88874 0.873681C5.56639 1.11651 5.32706 1.45877 5.20526 1.85111L4.43075 4.34361H1.88077C1.48373 4.3442 1.09703 4.47431 0.7759 4.71538C0.454767 4.95645 0.215628 5.29613 0.0926406 5.68591C-0.0303466 6.07569 -0.0308909 6.49564 0.0910853 6.88576C0.213062 7.27588 0.451319 7.61622 0.771826 7.85818H0.769492Z" fill="#47A1D9"/>
</svg>
