<svg width="18" height="19" viewBox="0 0 18 19" fill="none" xmlns="http://www.w3.org/2000/svg">
<path d="M17.9294 9.23636L16.8649 7.39249V5.26367C16.8649 5.07527 16.7644 4.90114 16.6012 4.80695L14.7574 3.74256L13.6931 1.89876C13.5989 1.7356 13.4248 1.63509 13.2364 1.63509H11.1075L9.26364 0.570625C9.10051 0.476476 8.89953 0.476441 8.73633 0.570625L6.89249 1.63505H4.76368C4.57527 1.63505 4.40115 1.73556 4.30696 1.89876L3.24261 3.74256L1.39877 4.80695C1.23557 4.90114 1.13506 5.07523 1.13506 5.26367V7.39249L0.0706376 9.23636C-0.0235459 9.39952 -0.0235459 9.60047 0.0706376 9.76363L1.13503 11.6075V13.7363C1.13503 13.9247 1.23554 14.0989 1.39873 14.193L3.24257 15.2574L4.30696 17.1012C4.40115 17.2644 4.57524 17.3649 4.76368 17.3649H6.89253L8.73637 18.4294C8.81793 18.4764 8.90898 18.5 9.00004 18.5C9.09109 18.5 9.18211 18.4764 9.26367 18.4294L11.1075 17.3649H13.2363C13.4247 17.3649 13.5989 17.2644 13.693 17.1013L14.7574 15.2575L16.6012 14.1931C16.7644 14.0989 16.8649 13.9248 16.8649 13.7364V11.6075L17.9293 9.76367C18.0236 9.60047 18.0236 9.39952 17.9294 9.23636ZM6.4207 11.1945C6.4207 11.4269 6.26857 11.6319 6.04618 11.6992C5.82209 11.767 5.58261 11.679 5.45457 11.487L4.16131 9.54714V11.1945C4.16131 11.4858 3.9252 11.7219 3.63397 11.7219C3.34273 11.7219 3.10662 11.4858 3.10662 11.1945V7.80547C3.10662 7.57308 3.25874 7.36812 3.48114 7.30076C3.70358 7.23347 3.94383 7.31961 4.07275 7.51297L5.36601 9.45285V7.80547C5.36601 7.51423 5.60212 7.27812 5.89335 7.27812C6.18459 7.27812 6.4207 7.51423 6.4207 7.80547V11.1945ZM8.71759 8.97265C9.00883 8.97265 9.24494 9.20876 9.24494 9.5C9.24494 9.79123 9.00883 10.0273 8.71759 10.0273H8.11526V10.6672H9.28245C9.57368 10.6672 9.80979 10.9033 9.80979 11.1945C9.80979 11.4858 9.57368 11.7219 9.28245 11.7219H7.58792C7.29668 11.7219 7.06057 11.4858 7.06057 11.1945V7.80547C7.06057 7.51423 7.29668 7.27812 7.58792 7.27812H9.28245C9.57368 7.27812 9.80979 7.51423 9.80979 7.80547C9.80979 8.0967 9.57368 8.33281 9.28245 8.33281H8.11526V8.97265H8.71759ZM15.16 7.93336L14.3128 11.3224C14.2559 11.5499 14.0557 11.7125 13.8214 11.7215C13.8146 11.7218 13.8078 11.7219 13.801 11.7219C13.5749 11.7219 13.3729 11.5773 13.3009 11.3613L12.6715 9.47307L12.0421 11.3613C11.9679 11.5837 11.7558 11.7299 11.5215 11.7215C11.2873 11.7125 11.0871 11.5499 11.0302 11.3224L10.1829 7.93336C10.1123 7.65081 10.284 7.3645 10.5666 7.29391C10.8492 7.22314 11.1355 7.39502 11.2061 7.6776L11.6141 9.3098L12.1711 7.63875C12.2429 7.42342 12.4444 7.27816 12.6714 7.27816C12.8984 7.27816 13.0999 7.42342 13.1717 7.63875L13.7287 9.3098L14.1367 7.6776C14.2074 7.39505 14.4937 7.22321 14.7762 7.29391C15.0589 7.3645 15.2307 7.65078 15.16 7.93336Z" fill="#47A1D9"/>
</svg>
