<svg width="100" height="100" viewBox="0 0 100 100" fill="none" xmlns="http://www.w3.org/2000/svg">
<path d="M5.88245 0C2.63675 0 0 2.63973 0 5.88245V14.706C0 16.3305 1.31689 17.647 2.94106 17.647H11.7646V5.88245C11.7646 2.63973 9.12815 0 5.88245 0ZM97.0589 88.2354H40.8834C39.5162 94.9391 33.5709 100 26.4705 100H94.1175C97.3666 100 100 97.3662 100 94.1175V91.1765C100 89.552 98.6831 88.2354 97.0589 88.2354ZM48.1272 31.2815C48.1285 31.2828 48.1285 31.2844 48.1301 31.2858L54.3666 37.5232L58.5298 33.3609L46.048 20.8834L41.8887 25.0427L48.1228 31.2785C48.1245 31.2801 48.1258 31.2801 48.1272 31.2815ZM35.294 85.294V82.353H88.2351V8.82351C88.2351 3.95033 84.2848 0 79.4116 0H16.0106C17.0238 1.73742 17.647 3.73013 17.647 5.88245V85.2944C17.647 90.1599 21.605 94.1179 26.4705 94.1179C31.3361 94.1175 35.294 90.1596 35.294 85.294ZM64.706 8.82351H76.4705C78.0964 8.82351 79.4116 10.1391 79.4116 11.7646C79.4116 13.3901 78.096 14.7056 76.4705 14.7056H64.706C63.0801 14.7056 61.7649 13.3901 61.7649 11.7646C61.7649 10.1391 63.0801 8.82351 64.706 8.82351ZM79.4119 52.9411C79.4119 54.5669 78.0964 55.8821 76.4709 55.8821H58.8238C57.198 55.8821 55.8828 54.5666 55.8828 52.9411C55.8828 51.3156 57.1983 50 58.8238 50H76.4709C78.0964 50 79.4119 51.3156 79.4119 52.9411ZM27.3321 47.9205L41.8884 33.3619L37.7298 29.2023L35.6503 31.2818C34.5013 32.4308 32.6404 32.4308 31.4914 31.2818C30.3424 30.1331 30.3424 28.2719 31.4914 27.1228L48.1275 10.4868C49.2765 9.33775 51.1377 9.33775 52.2864 10.4868C53.4351 11.6358 53.4354 13.4967 52.2864 14.6457L50.2073 16.7248L62.6894 29.2023L64.7692 27.1228C65.9182 25.9738 67.7795 25.9738 68.9281 27.1228C70.0768 28.2719 70.0771 30.1331 68.9281 31.2818C67.6513 32.5586 52.8874 47.3199 52.2864 47.9209C51.1374 49.0695 49.2765 49.0695 48.1275 47.9209C46.9785 46.7719 46.9785 44.9109 48.1275 43.7619L50.2073 41.6824L46.0474 37.5219L31.4914 52.0801C30.3424 53.2288 28.4815 53.2291 27.3325 52.0801C26.1834 50.9311 26.1834 49.0692 27.3321 47.9205ZM29.4119 61.7646H76.4709C78.0967 61.7646 79.4119 63.0801 79.4119 64.7056C79.4119 66.3311 78.0964 67.6467 76.4709 67.6467H29.4119C27.7861 67.6467 26.4709 66.3311 26.4709 64.7056C26.4709 63.0801 27.7861 61.7646 29.4119 61.7646Z" fill="#265285"/>
</svg>
