<svg width="52" height="47" viewBox="0 0 52 47" fill="none" xmlns="http://www.w3.org/2000/svg">
<path fill-rule="evenodd" clip-rule="evenodd" d="M1.08733 36.9013H7.20526V29.0169C7.20526 27.6075 8.32615 26.4615 9.70482 26.4615H26.534C27.9127 26.4615 29.0335 27.6075 29.0335 29.0169V36.9012H35.1515C35.8321 36.9012 36.341 36.2797 36.2213 35.5947C34.6836 26.7996 27.1644 20.1232 18.1194 20.1232C9.07428 20.1232 1.55496 26.7996 0.0175214 35.5949C-0.10224 36.2798 0.406908 36.9013 1.08733 36.9013ZM43.0674 3.52182C44.0521 3.76136 44.9927 4.16056 45.8547 4.7032L47.6659 3.8808L49.8006 6.06313L48.9964 7.91426C49.5274 8.79554 49.9178 9.75749 50.1522 10.7646L52 11.4917V14.578L50.1517 15.3053C49.9174 16.3122 49.527 17.2737 48.9963 18.1549L49.8006 20.0066L47.6659 22.189L45.8552 21.3668C44.9931 21.9096 44.0522 22.3087 43.0672 22.5484L42.356 24.4375H39.3371L38.6258 22.5479C37.6409 22.3084 36.7004 21.9092 35.8385 21.3667L34.0273 22.189L31.8926 20.0066L32.6968 18.1555C32.1658 17.2741 31.7755 16.3122 31.5411 15.3052L29.6933 14.578V11.4917L31.5415 10.7644C31.7759 9.7576 32.1662 8.79588 32.6971 7.9147L31.8928 6.06324L34.0274 3.8808L35.8386 4.7032C36.7007 4.16056 37.6411 3.76136 38.626 3.52182L39.3375 1.63225H42.3563L43.0674 3.52182ZM40.8466 7.65238C37.9386 7.65238 35.5817 10.0619 35.5817 13.035C35.5817 16.0078 37.9386 18.4174 40.8466 18.4174C43.7545 18.4174 46.1114 16.0078 46.1114 13.035C46.1114 10.0619 43.7544 7.65238 40.8466 7.65238ZM9.70493 28.2392H15.0473V35.8935H21.1916V28.2392H26.534C26.953 28.2392 27.2947 28.5886 27.2947 29.0169V45.7493C27.2947 46.4381 26.7452 47 26.0714 47H10.1675C9.49366 47 8.94408 46.4381 8.94408 45.7493V29.0169C8.94419 28.5886 9.28587 28.2392 9.70493 28.2392ZM18.1195 0C23.2548 0 27.4177 4.256 27.4177 9.50595C27.4177 14.7559 23.2548 19.0119 18.1195 19.0119C12.9843 19.0119 8.82139 14.7559 8.82139 9.50595C8.82139 4.256 12.9843 0 18.1195 0Z" fill="url(#paint0_linear_1866_2660)"/>
<defs>
<linearGradient id="paint0_linear_1866_2660" x1="26" y1="4.05885e-08" x2="27.231" y2="131.069" gradientUnits="userSpaceOnUse">
<stop stop-color="#265285"/>
<stop offset="1" stop-color="#CE0695"/>
</linearGradient>
</defs>
</svg>
