<svg width="18" height="18" viewBox="0 0 18 18" fill="none" xmlns="http://www.w3.org/2000/svg">
<path d="M9 0C4.02943 0 0 4.02943 0 9C0 13.9706 4.02943 18 9 18C13.9706 18 18 13.9706 18 9C17.9946 4.03165 13.9684 0.00537891 9 0ZM9 15.75C5.27207 15.75 2.25 12.7279 2.25 9C2.25 5.27207 5.27207 2.25 9 2.25C12.7279 2.25 15.75 5.27207 15.75 9C15.7459 12.7262 12.7262 15.7459 9 15.75Z" fill="#265285"/>
<path d="M9 11.3183C9.62132 11.3183 10.125 10.8147 10.125 10.1933V4.94336C10.125 4.32204 9.62132 3.81836 9 3.81836C8.37868 3.81836 7.875 4.32204 7.875 4.94336V10.1933C7.875 10.8147 8.37868 11.3183 9 11.3183Z" fill="#265285"/>
<path d="M9.00391 14.25C9.62523 14.25 10.1289 13.7463 10.1289 13.125C10.1289 12.5037 9.62523 12 9.00391 12C8.38259 12 7.87891 12.5037 7.87891 13.125C7.87891 13.7463 8.38259 14.25 9.00391 14.25Z" fill="#265285"/>
</svg>
