<svg width="20" height="20" viewBox="0 0 20 20" fill="none" xmlns="http://www.w3.org/2000/svg">
<path d="M14.1054 14.9227V19.9011H17.4243C18.799 19.9011 19.9135 18.7866 19.9135 17.4119V9.84396C19.9137 9.4129 19.7462 8.99868 19.4463 8.68898L12.3953 1.06623C11.1512 -0.27987 9.05142 -0.362519 7.70531 0.881607C7.64137 0.940725 7.57976 1.00229 7.52068 1.06623L0.482085 8.68649C0.173193 8.99748 -0.000116622 9.41807 5.88782e-08 9.8564V17.4119C5.88782e-08 18.7866 1.11445 19.9011 2.48919 19.9011H5.80809V14.9227C5.8236 12.6602 7.65032 10.8126 9.85585 10.7594C12.1352 10.7044 14.088 12.5835 14.1054 14.9227Z" fill="#3A3A3A"/>
</svg>
