<svg width="16" height="16" viewBox="0 0 16 16" fill="none" xmlns="http://www.w3.org/2000/svg">
<path d="M1.89855 11.0799C-0.632729 8.54862 -0.632677 4.42982 1.89855 1.8985C4.42987 -0.632832 8.54862 -0.632832 11.0799 1.8985C13.2274 4.04598 13.5526 7.23984 12.0565 9.7339C12.0565 9.7339 11.949 9.9142 12.0942 10.0592C12.9222 10.8872 15.4065 13.3715 15.4065 13.3715C16.0658 14.0308 16.2227 14.9526 15.638 15.5374L15.5374 15.6379C14.9527 16.2227 14.0308 16.0658 13.3716 15.4065C13.3716 15.4065 10.8926 12.9275 10.0663 12.1012C9.91415 11.9491 9.7339 12.0565 9.7339 12.0565C7.23989 13.5526 4.04603 13.2274 1.89855 11.0799ZM9.88132 9.88132C11.7517 8.01093 11.7517 4.96762 9.88127 3.09723C8.01087 1.22689 4.96757 1.22684 3.09723 3.09723C1.22684 4.96757 1.22684 8.01093 3.09723 9.88132C4.96762 11.7516 8.01087 11.7516 9.88132 9.88132Z" fill="#265285"/>
<path d="M9.46701 6.10336C9.55406 6.10336 9.64256 6.08625 9.72787 6.05022C10.0686 5.906 10.228 5.51283 10.0838 5.17203C9.17739 3.02996 6.69729 2.02472 4.55527 2.93115C4.21452 3.07537 4.0551 3.46854 4.19931 3.80934C4.34358 4.15014 4.73665 4.30946 5.07756 4.1653C6.539 3.54688 8.23126 4.23276 8.84962 5.69421C8.95781 5.94982 9.20594 6.10336 9.46701 6.10336Z" fill="#265285"/>
</svg>
