<svg width="14" height="11" viewBox="0 0 14 11" fill="none" xmlns="http://www.w3.org/2000/svg">
<path d="M2.39446 10.8547C2.28717 10.8547 2.18004 10.8129 2.09959 10.7297C0.745637 9.3297 0 7.47216 0 5.49922C0 3.5267 0.745391 1.66946 2.09882 0.269596C2.25624 0.106764 2.51587 0.102334 2.67881 0.259834C2.84164 0.417279 2.84602 0.676935 2.68857 0.839795C1.48381 2.08588 0.820313 3.74061 0.820313 5.49922C0.820313 7.25822 1.48403 8.91323 2.68926 10.1594C2.84673 10.3222 2.84241 10.5819 2.67958 10.7394C2.59993 10.8164 2.49711 10.8547 2.39446 10.8547Z" fill="white"/>
<path d="M3.7609 9.44091C3.6536 9.44091 3.54647 9.3991 3.46602 9.31589C2.47765 8.29397 1.93335 6.93821 1.93335 5.4984C1.93335 4.05903 2.47738 2.7036 3.46523 1.68173C3.62265 1.51885 3.88233 1.51447 4.04519 1.67192C4.20805 1.82936 4.21242 2.08902 4.05498 2.25188C3.2158 3.11996 2.75363 4.27291 2.75363 5.4984C2.75363 6.72428 3.21602 7.87747 4.05563 8.74564C4.21314 8.90847 4.20879 9.16812 4.04596 9.3256C3.96636 9.40257 3.86354 9.44091 3.7609 9.44091Z" fill="white"/>
<path d="M5.12755 8.02908C5.02025 8.02908 4.91312 7.98728 4.83267 7.90407C4.20992 7.26015 3.86694 6.40618 3.86694 5.49951C3.86694 4.59329 4.20962 3.73964 4.83185 3.09583C4.98921 2.93297 5.2489 2.92846 5.41181 3.08596C5.5747 3.24338 5.57913 3.50304 5.42171 3.66592C4.94809 4.15598 4.68726 4.80714 4.68726 5.49954C4.68726 6.19227 4.94831 6.84368 5.42234 7.33384C5.57984 7.49667 5.57549 7.75633 5.41263 7.9138C5.33301 7.99078 5.23019 8.02908 5.12755 8.02908Z" fill="white"/>
<path d="M11.6048 10.8562C11.5021 10.8562 11.3993 10.8179 11.3197 10.7408C11.1569 10.5833 11.1526 10.3237 11.3101 10.1609C12.5157 8.91461 13.1797 7.25935 13.1797 5.5C13.1797 3.74101 12.516 2.086 11.3108 0.839835C11.1533 0.677003 11.1576 0.417347 11.3205 0.259874C11.4834 0.102347 11.743 0.106749 11.9005 0.269554C13.2544 1.6695 14 3.52704 14 5.5C14 7.47337 13.2541 9.33119 11.8996 10.7312C11.8192 10.8144 11.7121 10.8562 11.6048 10.8562Z" fill="white"/>
<path d="M10.2382 9.44245C10.1355 9.44245 10.0327 9.40411 9.95306 9.32706C9.79028 9.16953 9.78602 8.90987 9.94349 8.7471C10.7836 7.87888 11.2462 6.72541 11.2462 5.49918C11.2462 4.27333 10.7838 3.12011 9.9442 2.25194C9.7867 2.08911 9.79105 1.82946 9.95388 1.67198C10.1167 1.51446 10.3764 1.51886 10.5338 1.68166C11.5222 2.70364 12.0665 4.05937 12.0665 5.49918C12.0665 6.93943 11.5219 8.29549 10.533 9.31751C10.4526 9.40067 10.3455 9.44245 10.2382 9.44245Z" fill="white"/>
<path d="M8.87178 8.03064C8.76905 8.03064 8.66621 7.99231 8.58658 7.9152C8.42381 7.75767 8.41957 7.49801 8.57709 7.33524C9.05154 6.84502 9.31281 6.19336 9.31281 5.5003C9.31281 4.80758 9.05176 4.15617 8.57772 3.666C8.42022 3.50317 8.42457 3.24352 8.5874 3.08604C8.75024 2.92852 9.00992 2.93292 9.16736 3.09575C9.79012 3.73967 10.1331 4.59364 10.1331 5.5003C10.1331 6.40743 9.78982 7.26171 9.16649 7.90571C9.0861 7.98886 8.97899 8.03064 8.87178 8.03064Z" fill="white"/>
<path d="M6.99993 6.73047C6.32733 6.73047 5.78015 6.17848 5.78015 5.5C5.78015 4.82152 6.32735 4.26953 6.99993 4.26953C7.67253 4.26953 8.21971 4.82152 8.21971 5.5C8.21971 6.17848 7.67253 6.73047 6.99993 6.73047Z" fill="white"/>
</svg>
