<svg width="16" height="14" viewBox="0 0 16 14" fill="none" xmlns="http://www.w3.org/2000/svg">
<path d="M12 14H3.33333C1.49333 14 0 12.5745 0 10.8182V3.81818C0 3.46818 0.3 3.18182 0.666667 3.18182C1.03333 3.18182 1.33333 3.46818 1.33333 3.81818V10.8182C1.33333 11.8682 2.23333 12.7273 3.33333 12.7273H12C12.3667 12.7273 12.6667 13.0136 12.6667 13.3636C12.6667 13.7136 12.3667 14 12 14ZM7.92 5.16727C8.7 5.91182 9.96667 5.91182 10.7467 5.16727L15.0933 1.01818C14.4867 0.394545 13.6267 0 12.6667 0H6C5.04 0 4.18 0.394545 3.57333 1.01818L7.92 5.16727ZM11.6933 6.06455C11.0467 6.68182 10.1867 6.99364 9.33333 6.99364C8.48 6.99364 7.62667 6.68182 6.97333 6.06455L2.86667 2.14455C2.74667 2.46909 2.66667 2.81909 2.66667 3.18182V8.27273C2.66667 10.0291 4.16 11.4545 6 11.4545H12.6667C14.5067 11.4545 16 10.0291 16 8.27273V3.18182C16 2.81909 15.92 2.46909 15.8 2.14455L11.6867 6.07091L11.6933 6.06455Z" fill="black"/>
</svg>
