<svg width="15" height="19" viewBox="0 0 15 19" fill="none" xmlns="http://www.w3.org/2000/svg">
<path d="M13.5832 0H0.556641C0.249227 0 0 0.249227 0 0.556641V18.4434C0 18.7508 0.249227 19 0.556641 19H13.5832C13.8906 19 14.1398 18.7508 14.1398 18.4434V0.556641C14.1398 0.249227 13.8906 0 13.5832 0ZM5.84388 10.897L4.15306 12.5877C4.04867 12.6921 3.9071 12.7508 3.75948 12.7508C3.61186 12.7508 3.47025 12.6921 3.3659 12.5877L2.56905 11.7908C2.35166 11.5735 2.35166 11.221 2.56905 11.0036C2.78643 10.7863 3.1389 10.7863 3.35625 11.0036C3.57895 11.2263 3.94001 11.2263 4.16271 11.0036L5.05668 10.1097C5.27403 9.89233 5.62649 9.89229 5.84388 10.1097C6.06127 10.3271 6.06127 10.6796 5.84388 10.897ZM5.84388 7.51981L4.15306 9.21063C4.04867 9.31502 3.9071 9.37365 3.75948 9.37365C3.61186 9.37365 3.47025 9.31502 3.3659 9.21059L2.56905 8.41374C2.35166 8.19635 2.35166 7.84393 2.56905 7.62654C2.78643 7.40915 3.1389 7.40919 3.35625 7.62654C3.57895 7.84924 3.94001 7.84924 4.16271 7.62654L5.05668 6.73257C5.27403 6.51519 5.62649 6.51519 5.84388 6.73257C6.06127 6.94996 6.06127 7.30243 5.84388 7.51981ZM5.84388 4.14267L4.15306 5.83349C4.04867 5.93788 3.9071 5.99651 3.75948 5.99651C3.61186 5.99651 3.47025 5.93788 3.3659 5.83345L2.56905 5.0366C2.35166 4.81921 2.35166 4.46679 2.56905 4.2494C2.78643 4.03201 3.1389 4.03205 3.35625 4.2494C3.57895 4.4721 3.94001 4.4721 4.16271 4.2494L5.05668 3.35543C5.27403 3.13805 5.62649 3.13805 5.84388 3.35543C6.06127 3.57286 6.06127 3.92528 5.84388 4.14267ZM11.1492 15.5926H7.61415C7.30673 15.5926 7.0575 15.3433 7.0575 15.0359C7.0575 14.7285 7.30673 14.4793 7.61415 14.4793H11.1492C11.4566 14.4793 11.7058 14.7285 11.7058 15.0359C11.7058 15.3433 11.4566 15.5926 11.1492 15.5926ZM11.1492 12.0861H7.61415C7.30673 12.0861 7.0575 11.8369 7.0575 11.5294C7.0575 11.222 7.30673 10.9728 7.61415 10.9728H11.1492C11.4566 10.9728 11.7058 11.222 11.7058 11.5294C11.7058 11.8369 11.4566 12.0861 11.1492 12.0861ZM11.1492 8.70898H7.61415C7.30673 8.70898 7.0575 8.45976 7.0575 8.15234C7.0575 7.84493 7.30673 7.5957 7.61415 7.5957H11.1492C11.4566 7.5957 11.7058 7.84493 11.7058 8.15234C11.7058 8.45976 11.4566 8.70898 11.1492 8.70898ZM11.1492 5.33184H7.61415C7.30673 5.33184 7.0575 5.08262 7.0575 4.7752C7.0575 4.46779 7.30673 4.21856 7.61415 4.21856H11.1492C11.4566 4.21856 11.7058 4.46779 11.7058 4.7752C11.7058 5.08262 11.4566 5.33184 11.1492 5.33184Z" fill="#3A3A3A"/>
</svg>
