<svg width="30" height="30" viewBox="0 0 30 30" fill="none" xmlns="http://www.w3.org/2000/svg">
<path d="M29.5385 21.5136L27.5228 11.9518C26.2645 7.4644 22.123 4.32198 17.4319 4.32198C12.4841 4.32198 8.28162 7.67227 7.20656 12.5021L5.31299 21.587C5.05644 22.7486 5.33742 23.9468 6.08264 24.8761C6.82785 25.8054 7.93956 26.3312 9.12457 26.3312H13.2171C13.5103 28.3976 15.2817 29.9993 17.4319 29.9993C19.582 29.9993 21.3534 28.3976 21.6466 26.3312H25.7391C26.8753 26.3312 27.9259 25.8543 28.6589 25.0228L28.8544 24.7905C29.5996 23.8123 29.8439 22.5651 29.5385 21.5014V21.5136ZM25.959 22.5651C25.9102 22.6385 25.8491 22.6752 25.7636 22.6752H9.12457C9.03905 22.6752 8.97797 22.6507 8.9291 22.5896C8.88024 22.5285 8.86802 22.4673 8.89245 22.3817L10.786 13.2968C11.4824 10.1789 14.2189 8.00241 17.4319 8.00241C20.486 8.00241 23.1737 10.0321 23.9677 12.8322L25.9835 22.394C25.9957 22.4551 25.9835 22.5162 25.959 22.5774V22.5651ZM6.75455 7.52554C5.86274 8.84609 5.17861 10.3623 4.81211 12.013L2.93075 21.0734C2.83302 21.5014 2.78415 21.9415 2.78415 22.3695C2.17332 22.125 1.62358 21.7459 1.196 21.2201C0.450783 20.2909 0.169802 19.0926 0.42635 17.931L2.30771 8.84609C3.39498 4.0163 7.59749 0.666016 12.5452 0.666016C14.2922 0.666016 15.9781 1.1062 17.4563 1.88875C17.4563 1.88875 17.4441 1.88875 17.4319 1.88875C13.4492 1.88875 9.85756 3.67394 7.47533 6.57181C7.45089 6.59626 7.43868 6.62072 7.41425 6.64517C7.21878 6.87749 7.03553 7.12204 6.8645 7.37881C6.82785 7.43995 6.7912 7.48886 6.75455 7.53777V7.52554Z" fill="#265285"/>
</svg>
