<svg width="30" height="38" viewBox="0 0 30 38" fill="none" xmlns="http://www.w3.org/2000/svg">
<path d="M29.25 33.25V10.6875L18.5625 0H5.5C4.24022 0 3.03204 0.500445 2.14124 1.39124C1.25044 2.28204 0.75 3.49022 0.75 4.75V33.25C0.75 34.5098 1.25044 35.718 2.14124 36.6088C3.03204 37.4996 4.24022 38 5.5 38H24.5C25.7598 38 26.968 37.4996 27.8588 36.6088C28.7496 35.718 29.25 34.5098 29.25 33.25ZM18.5625 7.125C18.5625 8.06983 18.9378 8.97597 19.6059 9.64407C20.274 10.3122 21.1802 10.6875 22.125 10.6875H26.875V33.25C26.875 33.8799 26.6248 34.484 26.1794 34.9294C25.734 35.3748 25.1299 35.625 24.5 35.625H5.5C4.87011 35.625 4.26602 35.3748 3.82062 34.9294C3.37522 34.484 3.125 33.8799 3.125 33.25V4.75C3.125 4.12011 3.37522 3.51602 3.82062 3.07062C4.26602 2.62522 4.87011 2.375 5.5 2.375H18.5625V7.125Z" fill="#EF7F8B"/>
<path d="M6.93207 33.4557C6.46916 33.2706 6.09621 32.9129 5.89182 32.4582C5.42869 31.5367 5.58307 30.6152 6.08182 29.841C6.55207 29.1118 7.33107 28.492 8.2122 27.9718C9.3283 27.3388 10.5081 26.8254 11.7319 26.44C12.6824 24.7314 13.5248 22.9648 14.2542 21.1508C13.8181 20.1599 13.4762 19.1302 13.2329 18.0752C13.0287 17.1252 12.9503 16.1847 13.1237 15.3772C13.3018 14.5365 13.7744 13.7812 14.6674 13.4226C15.1234 13.2397 15.6174 13.1376 16.0972 13.2397C16.3385 13.2911 16.5654 13.3955 16.7613 13.5455C16.9573 13.6954 17.1174 13.8871 17.2301 14.1066C17.4391 14.4961 17.5151 14.9521 17.5317 15.3843C17.5483 15.8308 17.5032 16.3248 17.4201 16.8426C17.2206 18.0538 16.7788 19.5358 16.1851 21.1033C16.8403 22.5046 17.6192 23.8447 18.5126 25.1076C19.5697 25.0241 20.6329 25.0639 21.6808 25.2263C22.5453 25.3831 23.4241 25.6895 23.9608 26.3307C24.2458 26.6727 24.4192 27.0907 24.4358 27.561C24.4524 28.017 24.3242 28.4682 24.1081 28.8981C23.9209 29.2964 23.6306 29.6375 23.2673 29.8861C22.9082 30.1203 22.4843 30.235 22.0561 30.2138C21.2699 30.1806 20.5028 29.7483 19.8402 29.2235C19.0345 28.5573 18.3084 27.8001 17.6766 26.9672C16.0705 27.1495 14.4835 27.4721 12.9337 27.9315C12.224 29.1901 11.4139 30.3894 10.5112 31.5177C9.8177 32.349 9.06482 33.0757 8.30957 33.3868C7.87563 33.5831 7.38343 33.6077 6.93207 33.4557ZM10.2072 28.9408C9.81294 29.1213 9.44719 29.3113 9.11707 29.5061C8.33807 29.9668 7.83219 30.4157 7.58044 30.8052C7.35719 31.1496 7.35244 31.399 7.48544 31.6626C7.50919 31.7148 7.53294 31.7481 7.54719 31.7671C7.57553 31.7595 7.60331 31.75 7.63032 31.7386C7.95569 31.6056 8.47345 31.1805 9.13845 30.3801C9.51665 29.917 9.87328 29.4368 10.2072 28.9408ZM14.1022 25.7821C14.8953 25.597 15.6955 25.4441 16.5009 25.3237C16.0685 24.6619 15.6644 23.9821 15.2897 23.286C14.9172 24.1281 14.5212 24.9597 14.1022 25.7797V25.7821ZM19.9114 26.8508C20.2677 27.238 20.6144 27.5633 20.9446 27.8246C21.5146 28.2758 21.9112 28.4255 22.1273 28.4326C22.1852 28.4401 22.2439 28.4276 22.2936 28.397C22.3924 28.3189 22.4693 28.2167 22.5168 28.1001C22.6013 27.9554 22.6493 27.7924 22.6569 27.6251C22.6556 27.5693 22.6336 27.516 22.5952 27.4755C22.4717 27.3282 22.1202 27.1145 21.3649 26.9791C20.8845 26.8987 20.3985 26.8566 19.9114 26.8532V26.8508ZM15.1852 18.5241C15.3851 17.8793 15.5437 17.2225 15.6602 16.5576C15.7338 16.1111 15.7623 15.743 15.7504 15.4532C15.7511 15.2933 15.7254 15.1345 15.6744 14.983C15.5556 14.9977 15.4396 15.0297 15.3301 15.078C15.1234 15.1611 14.9548 15.3297 14.8646 15.7501C14.7696 16.2061 14.7933 16.864 14.9738 17.7023C15.0308 17.966 15.1021 18.2415 15.1876 18.5241H15.1852Z" fill="#EF7F8B"/>
</svg>
