<svg width="30" height="30" viewBox="0 0 30 30" fill="none" xmlns="http://www.w3.org/2000/svg">
<circle cx="15" cy="15" r="15" fill="#47A1D9"/>
<path d="M15 23C16.5822 23 18.129 22.5308 19.4446 21.6518C20.7602 20.7727 21.7855 19.5233 22.391 18.0615C22.9965 16.5997 23.155 14.9911 22.8463 13.4393C22.5376 11.8874 21.7757 10.462 20.6569 9.34315C19.538 8.22433 18.1126 7.4624 16.5607 7.15372C15.0089 6.84504 13.4003 7.00347 11.9385 7.60897C10.4767 8.21447 9.22729 9.23985 8.34824 10.5554C7.46919 11.871 7 13.4178 7 15C7.00229 17.121 7.84589 19.1545 9.34568 20.6543C10.8455 22.1541 12.879 22.9977 15 23ZM15 10.3333C15.1978 10.3333 15.3911 10.392 15.5556 10.5019C15.72 10.6117 15.8482 10.7679 15.9239 10.9507C15.9996 11.1334 16.0194 11.3344 15.9808 11.5284C15.9422 11.7224 15.847 11.9006 15.7071 12.0404C15.5673 12.1803 15.3891 12.2755 15.1951 12.3141C15.0011 12.3527 14.8 12.3329 14.6173 12.2572C14.4346 12.1815 14.2784 12.0534 14.1685 11.8889C14.0586 11.7245 14 11.5311 14 11.3333C14 11.0681 14.1054 10.8138 14.2929 10.6262C14.4804 10.4387 14.7348 10.3333 15 10.3333ZM14.3333 13.6667H15C15.3536 13.6667 15.6928 13.8071 15.9428 14.0572C16.1929 14.3072 16.3333 14.6464 16.3333 15V19C16.3333 19.1768 16.2631 19.3464 16.1381 19.4714C16.013 19.5964 15.8435 19.6667 15.6667 19.6667C15.4899 19.6667 15.3203 19.5964 15.1953 19.4714C15.0702 19.3464 15 19.1768 15 19V15H14.3333C14.1565 15 13.987 14.9298 13.8619 14.8047C13.7369 14.6797 13.6667 14.5101 13.6667 14.3333C13.6667 14.1565 13.7369 13.987 13.8619 13.8619C13.987 13.7369 14.1565 13.6667 14.3333 13.6667Z" fill="white"/>
</svg>
