<svg width="10" height="16" viewBox="0 0 10 16" fill="none" xmlns="http://www.w3.org/2000/svg">
<path d="M5.00077 12.6669C4.48252 12.6669 4.06305 12.2189 4.06305 11.6669C4.06305 10.375 4.90825 9.19438 6.50673 8.2551C7.69763 7.55514 8.31402 6.16788 8.07584 4.7213C7.85579 3.38604 6.82743 2.28943 5.57527 2.05478C4.67194 1.88546 3.78424 2.11611 3.07408 2.70408C2.37705 3.28204 1.93882 4.14666 1.87256 5.07661C1.83317 5.62658 1.38182 6.03989 0.866704 5.99789C0.350337 5.95589 -0.0366254 5.47592 0.00275857 4.92529C0.109033 3.43404 0.809191 2.04878 1.92382 1.1255C3.05658 0.186217 4.46877 -0.182429 5.8991 0.084889C7.91455 0.462201 9.5693 2.22677 9.92313 4.37598C10.2963 6.64186 9.28674 8.90506 7.41194 10.007C6.48923 10.549 5.93848 11.1696 5.93848 11.6669C5.93848 12.2189 5.51901 12.6669 5.00077 12.6669ZM4.06305 15.0001C4.06305 15.552 4.48315 16 5.00077 16C5.51838 16 5.93848 15.552 5.93848 15.0001C5.93848 14.4481 5.51838 14.0001 5.00077 14.0001C4.48315 14.0001 4.06305 14.4481 4.06305 15.0001Z" fill="white"/>
</svg>
