<svg width="65" height="48" viewBox="0 0 65 48" fill="none" xmlns="http://www.w3.org/2000/svg">
<path d="M0 0H59C62.3137 0 65 2.68629 65 6V42C65 45.3137 62.3137 48 59 48H0V0Z" fill="#265285"/>
<path d="M32.8615 29.412L37.885 24.8908C37.9915 24.7943 38.0518 24.6597 38.0518 24.517L38.0518 21.5029C38.0518 21.305 37.9352 21.1251 37.7544 21.0438C37.5725 20.9634 37.3605 20.9965 37.2138 21.1292L32.5259 25.3479L27.8389 21.1292C27.6912 20.9965 27.4792 20.9624 27.2984 21.0438C27.1165 21.1251 27 21.305 27 21.5029L27 24.517C27 24.6597 27.0613 24.7943 27.1658 24.8908L32.1893 29.412C32.3802 29.5838 32.6716 29.5838 32.8615 29.412Z" fill="white"/>
</svg>
