<svg width="16" height="16" viewBox="0 0 16 16" fill="none" xmlns="http://www.w3.org/2000/svg">
<path d="M14.0437 0H12.0493C11.7904 0 11.5806 0.209875 11.5806 0.46875C11.5806 0.727625 11.7904 0.9375 12.0493 0.9375H14.0437C14.6056 0.9375 15.0627 1.39462 15.0627 1.95653V3.95091C15.0627 4.20978 15.2726 4.41966 15.5315 4.41966C15.7903 4.41966 16.0002 4.20978 16.0002 3.95091V1.95653C16.0002 0.877688 15.1225 0 14.0437 0Z" fill="white"/>
<path d="M0.46875 4.41966C0.727625 4.41966 0.9375 4.20978 0.9375 3.95091V1.95653C0.9375 1.39462 1.39462 0.9375 1.95653 0.9375H3.95091C4.20978 0.9375 4.41966 0.727625 4.41966 0.46875C4.41966 0.209875 4.20978 0 3.95091 0H1.95653C0.877688 0 0 0.877688 0 1.95653V3.95091C0 4.20978 0.209875 4.41966 0.46875 4.41966Z" fill="white"/>
<path d="M3.95091 15.0622H1.95653C1.39462 15.0622 0.9375 14.6051 0.9375 14.0432V12.0488C0.9375 11.79 0.727625 11.5801 0.46875 11.5801C0.209875 11.5801 0 11.79 0 12.0488V14.0432C0 15.122 0.877688 15.9997 1.95653 15.9997H3.95091C4.20978 15.9997 4.41966 15.7899 4.41966 15.531C4.41966 15.2721 4.20978 15.0622 3.95091 15.0622Z" fill="white"/>
<path d="M15.5315 11.5801C15.2726 11.5801 15.0627 11.79 15.0627 12.0488V14.0432C15.0627 14.6051 14.6056 15.0622 14.0437 15.0622H12.0493C11.7904 15.0622 11.5806 15.2721 11.5806 15.531C11.5806 15.7899 11.7904 15.9997 12.0493 15.9997H14.0437C15.1225 15.9997 16.0002 15.122 16.0002 14.0432V12.0488C16.0002 11.79 15.7903 11.5801 15.5315 11.5801Z" fill="white"/>
<path d="M2.04883 2.51758V13.4824C2.04883 13.7412 2.2587 13.9511 2.51758 13.9511H13.4824C13.7412 13.9511 13.9511 13.7412 13.9511 13.4824V2.51758C13.9511 2.2587 13.7412 2.04883 13.4824 2.04883H2.51758C2.2587 2.04883 2.04883 2.2587 2.04883 2.51758ZM2.98633 13.0136V11.5346H3.95089C4.0752 11.5346 4.19442 11.4853 4.28233 11.3973L6.09892 9.58074L7.23392 10.7157C7.41695 10.8988 7.71377 10.8988 7.89683 10.7157L10.1416 8.47092L11.7716 10.1008C11.8595 10.1887 11.9787 10.2381 12.103 10.2381H13.0136V13.0136H2.98633V13.0136ZM13.0136 2.98633V9.30064H12.2972L10.4731 7.47655C10.2901 7.29348 9.99327 7.29348 9.8102 7.47655L7.56539 9.72133L6.43039 8.58636C6.24736 8.4033 5.95055 8.4033 5.76748 8.58636L3.75673 10.5971H2.98633V2.98633H13.0136Z" fill="white"/>
<path d="M7.99983 6.58169C8.79345 6.58169 9.43911 5.93603 9.43911 5.14241C9.43911 4.34878 8.79345 3.70312 7.99983 3.70312C7.2062 3.70312 6.56055 4.34878 6.56055 5.14241C6.56055 5.93603 7.2062 6.58169 7.99983 6.58169ZM7.99983 4.64063C8.27652 4.64063 8.50161 4.86572 8.50161 5.14241C8.50161 5.41909 8.27652 5.64419 7.99983 5.64419C7.72314 5.64419 7.49805 5.41909 7.49805 5.14241C7.49805 4.86572 7.72314 4.64063 7.99983 4.64063Z" fill="white"/>
</svg>
