<svg width="16" height="10" viewBox="0 0 16 10" fill="none" xmlns="http://www.w3.org/2000/svg">
<path d="M15.2423 4.67485C15.212 4.63649 14.4852 3.72476 13.2392 2.80935C11.5742 1.58606 9.76247 0.939453 7.99995 0.939453C6.2375 0.939453 4.42579 1.58606 2.7607 2.80935C1.51471 3.72473 0.787919 4.63649 0.75761 4.67485L0.5 5.00066L0.757643 5.32651C0.787952 5.36486 1.51474 6.27663 2.76073 7.19204C4.42582 8.4153 6.23753 9.0619 7.99998 9.0619C9.76247 9.0619 11.5742 8.4153 13.2392 7.19204C14.4852 6.27663 15.212 5.36486 15.2423 5.32651L15.5 5.00066L15.2423 4.67485ZM7.99995 7.84577C6.43117 7.84577 5.15485 6.56947 5.15485 5.00066C5.15485 4.75487 5.18617 4.51628 5.24505 4.28861L4.59549 4.1793C4.53185 4.44282 4.4981 4.71787 4.4981 5.00066C4.4981 6.01403 4.93096 6.92809 5.62127 7.56813C4.73265 7.23988 3.97703 6.77927 3.40674 6.3627C2.70021 5.84665 2.17071 5.32474 1.86883 5.00066C2.17084 4.67649 2.70028 4.15464 3.40674 3.63863C3.97703 3.22205 4.73269 2.76144 5.62127 2.43316L6.05702 2.92435C6.56594 2.44781 7.24942 2.15556 7.99995 2.15556C9.56873 2.15556 10.845 3.43185 10.845 5.00066C10.845 6.56947 9.56873 7.84577 7.99995 7.84577ZM12.5932 6.3627C12.0228 6.77927 11.2672 7.23988 10.3786 7.56813C11.0689 6.92812 11.5018 6.01406 11.5018 5.00063C11.5018 3.9872 11.0689 3.07317 10.3786 2.43313C11.2672 2.76141 12.0228 3.22202 12.5932 3.6386C13.2997 4.15464 13.8292 4.67656 14.1311 5.0006C13.8291 5.32483 13.2996 5.84672 12.5932 6.3627Z" fill="white"/>
<path d="M6.18926 4.44716C6.13586 4.62215 6.10693 4.80778 6.10693 5.00024C6.10693 6.04559 6.95437 6.89306 7.99975 6.89306C9.0451 6.89306 9.89254 6.04562 9.89254 5.00024C9.89254 3.95486 9.0451 3.10742 7.99975 3.10742C7.49057 3.10742 7.02871 3.30885 6.68849 3.63591L7.62212 4.68828L6.18926 4.44716Z" fill="white"/>
</svg>
