<svg width="20" height="18" viewBox="0 0 20 18" fill="none" xmlns="http://www.w3.org/2000/svg">
<path d="M18.25 17H1.75C1.3375 17 1 16.7 1 16.3333C1 15.9667 1.3375 15.6667 1.75 15.6667H18.25C18.6625 15.6667 19 15.9667 19 16.3333C19 16.7 18.6625 17 18.25 17ZM12.0775 13.5733L16.84 9.07333C17.4925 8.49333 17.68 7.66667 17.3275 6.91333C16.975 6.16 16.1875 5.68667 15.265 5.68H13.7125L13.69 3.64667C13.69 2.18667 12.355 1 10.7125 1H9.2275C7.585 1 6.25 2.18667 6.25 3.65333V5.66667H4.7125C3.79 5.66667 3.0025 6.14 2.65 6.9C2.2975 7.65333 2.485 8.48667 3.1225 9.04667L7.87 13.58C8.4475 14.0933 9.2125 14.3533 9.9775 14.3533C10.7425 14.3533 11.5 14.0933 12.085 13.58L12.0775 13.5733ZM7 7C7.2025 7 7.39 6.92667 7.5325 6.80667C7.675 6.68 7.75 6.51333 7.75 6.33333V3.64667C7.75 2.92 8.41 2.33333 9.2275 2.33333H10.7125C11.53 2.33333 12.19 2.92667 12.19 3.65333L12.2125 6.35333C12.2125 6.72 12.55 7.01333 12.9625 7.01333H15.25C15.7075 7.01333 15.8875 7.32667 15.925 7.42C15.97 7.51333 16.09 7.84667 15.745 8.14667L10.9975 12.6333C10.42 13.14 9.49 13.1333 8.935 12.64L4.1875 8.10667C3.865 7.82 3.985 7.48667 4.03 7.39333C4.075 7.3 4.255 6.98667 4.705 6.98667H7V7Z" fill="white" stroke="white" stroke-width="0.5"/>
</svg>
