<svg width="16" height="20" viewBox="0 0 16 20" fill="none" xmlns="http://www.w3.org/2000/svg">
<path d="M10.5227 1.30063C10.4417 1.21529 10.3306 1.16406 10.2155 1.16406H3.322C2.04998 1.16406 1 2.20986 1 3.48175V16.5173C1 17.7894 2.04998 18.8351 3.322 18.8351H12.6782C13.9502 18.8351 15.0002 17.7894 15.0002 16.5173V6.16655C15.0002 6.05559 14.949 5.94895 14.8765 5.86779L10.5227 1.30063ZM10.6465 2.67081L13.5618 5.73121H11.6667C11.1033 5.73121 10.6465 5.27876 10.6465 4.71535V2.67081ZM12.6782 17.9815H3.322C2.52387 17.9815 1.85368 17.3199 1.85368 16.5173V3.48175C1.85368 2.68361 2.51955 2.01774 3.322 2.01774H9.7928V4.71535C9.7928 5.75251 10.6295 6.58489 11.6667 6.58489H14.1465V16.5173C14.1465 17.3199 13.4807 17.9815 12.6782 17.9815Z" fill="white" stroke="white" stroke-width="0.8"/>
<path d="M11.5126 15.0371H4.4869C4.25218 15.0371 4.06006 15.2291 4.06006 15.4639C4.06006 15.6987 4.25218 15.8908 4.4869 15.8908H11.5169C11.7517 15.8908 11.9438 15.6987 11.9438 15.4639C11.9438 15.2291 11.7517 15.0371 11.5126 15.0371Z" fill="white" stroke="white" stroke-width="0.8"/>
<path d="M11.5126 12.0371H4.4869C4.25218 12.0371 4.06006 12.2291 4.06006 12.4639C4.06006 12.6987 4.25218 12.8908 4.4869 12.8908H11.5169C11.7517 12.8908 11.9438 12.6987 11.9438 12.4639C11.9438 12.2291 11.7517 12.0371 11.5126 12.0371Z" fill="white" stroke="white" stroke-width="0.8"/>
<path d="M11.5126 9.03711H4.4869C4.25218 9.03711 4.06006 9.22909 4.06006 9.46395C4.06006 9.69867 4.25218 9.89079 4.4869 9.89079H11.5169C11.7517 9.89079 11.9438 9.69867 11.9438 9.46395C11.9438 9.22909 11.7517 9.03711 11.5126 9.03711Z" fill="white" stroke="white" stroke-width="0.8"/>
</svg>
