<svg width="41" height="41" viewBox="0 0 41 41" fill="none" xmlns="http://www.w3.org/2000/svg">
<path d="M39.7408 30.0141L34.0335 24.3069C31.9952 22.2685 28.53 23.084 27.7147 25.7337C27.1032 27.5682 25.0649 28.5874 23.2304 28.1796C19.1538 27.1605 13.6504 21.8609 12.6312 17.5804C12.0197 15.7459 13.2427 13.7076 15.0772 13.0961C17.727 12.2808 18.5423 8.81569 16.504 6.77738L10.7967 1.07011C9.16609 -0.356704 6.72012 -0.356704 5.2933 1.07011L1.42051 4.9429C-2.45228 9.01953 1.82818 19.8226 11.4082 29.4026C20.9883 38.9827 31.7913 43.4671 35.868 39.3904L39.7408 35.5176C41.1677 33.8869 41.1677 31.4409 39.7408 30.0141Z" fill="url(#paint0_linear_1866_2667)"/>
<defs>
<linearGradient id="paint0_linear_1866_2667" x1="20.4055" y1="3.53179e-08" x2="21.593" y2="114.047" gradientUnits="userSpaceOnUse">
<stop stop-color="#265285"/>
<stop offset="1" stop-color="#CE0695"/>
</linearGradient>
</defs>
</svg>
