<svg width="19" height="22" viewBox="0 0 19 22" fill="none" xmlns="http://www.w3.org/2000/svg">
<path d="M13.7222 0.275C14.4672 0.496813 15.1451 0.861505 15.7056 1.342L17.4536 2.86183C18.0076 3.34793 18.4279 3.93641 18.6833 4.58333H13.7222V0.275ZM11.6111 11H7.38889C7.10894 11 6.84045 11.0966 6.6425 11.2685C6.44454 11.4404 6.33333 11.6736 6.33333 11.9167C6.33333 12.1598 6.44454 12.3929 6.6425 12.5648C6.84045 12.7368 7.10894 12.8333 7.38889 12.8333H11.6111C11.8911 12.8333 12.1595 12.7368 12.3575 12.5648C12.5555 12.3929 12.6667 12.1598 12.6667 11.9167C12.6667 11.6736 12.5555 11.4404 12.3575 11.2685C12.1595 11.0966 11.8911 11 11.6111 11ZM13.7222 6.41667C13.1623 6.41667 12.6254 6.22351 12.2294 5.8797C11.8335 5.53588 11.6111 5.06956 11.6111 4.58333V0H5.27778C3.87854 0.00145554 2.53709 0.484808 1.54768 1.34403C0.558264 2.20326 0.00167607 3.3682 0 4.58333V17.4167C0.00167607 18.6318 0.558264 19.7967 1.54768 20.656C2.53709 21.5152 3.87854 21.9985 5.27778 22H13.7222C15.1215 21.9985 16.4629 21.5152 17.4523 20.656C18.4417 19.7967 18.9983 18.6318 19 17.4167V6.41667H13.7222ZM13.7222 18.3333H5.27778C4.99783 18.3333 4.72934 18.2368 4.53139 18.0648C4.33343 17.8929 4.22222 17.6598 4.22222 17.4167C4.22222 17.1736 4.33343 16.9404 4.53139 16.7685C4.72934 16.5966 4.99783 16.5 5.27778 16.5H13.7222C14.0022 16.5 14.2707 16.5966 14.4686 16.7685C14.6666 16.9404 14.7778 17.1736 14.7778 17.4167C14.7778 17.6598 14.6666 17.8929 14.4686 18.0648C14.2707 18.2368 14.0022 18.3333 13.7222 18.3333ZM11.6111 14.6667H7.38889C6.54904 14.6667 5.74358 14.3769 5.14972 13.8612C4.55585 13.3455 4.22222 12.646 4.22222 11.9167C4.22222 11.1873 4.55585 10.4878 5.14972 9.97212C5.74358 9.4564 6.54904 9.16667 7.38889 9.16667H11.6111C12.451 9.16667 13.2564 9.4564 13.8503 9.97212C14.4441 10.4878 14.7778 11.1873 14.7778 11.9167C14.7778 12.646 14.4441 13.3455 13.8503 13.8612C13.2564 14.3769 12.451 14.6667 11.6111 14.6667Z" fill="#265285"/>
</svg>
