<svg width="88" height="100" viewBox="0 0 88 100" fill="none" xmlns="http://www.w3.org/2000/svg">
<path d="M58.5937 6.25V2.9298C58.5937 1.31192 57.2821 0 55.6639 0H2.9298C1.31192 0 0 1.31159 0 2.9298V73.6328C0 75.2507 1.31159 76.5626 2.9298 76.5626H5.8596V15.0391C5.8596 10.1927 9.80231 6.25 14.6487 6.25H58.5937ZM67.3828 58.9844C56.0748 58.9844 46.8748 68.1841 46.8748 79.4924C46.8748 81.8397 47.2679 84.1401 48.042 86.3275C50.9311 94.5053 58.7036 100 67.3828 100C78.6907 100 87.8907 90.8003 87.8907 79.4921C87.8907 68.1841 78.6907 58.9844 67.3828 58.9844ZM75.3139 81.5639C74.742 82.1361 73.992 82.4222 73.2423 82.4222C72.4927 82.4222 71.7427 82.1361 71.1708 81.5639L70.3129 80.706V85.352C70.3129 86.9699 69.0013 88.2818 67.3831 88.2818C65.7649 88.2818 64.4533 86.9702 64.4533 85.352V80.706L63.5953 81.5639C62.4513 82.7083 60.5963 82.7083 59.4523 81.5639C58.3082 80.4199 58.3082 78.5649 59.4523 77.4209L65.3112 71.5619C66.4543 70.4189 68.3155 70.4222 69.4553 71.5619L75.3142 77.4209C76.4579 78.5649 76.4579 80.4195 75.3139 81.5639ZM26.3672 64.8437C24.7493 64.8437 23.4374 63.5321 23.4374 61.9139C23.4374 60.296 24.749 58.9841 26.3672 58.9841H50.8304C55.3589 55.3218 61.1188 53.1248 67.3828 53.1248C68.3731 53.1248 69.3503 53.1815 70.3125 53.2884V15.0391C70.3125 13.4212 69.001 12.1093 67.3828 12.1093H14.6483C13.0305 12.1093 11.7185 13.4209 11.7185 15.0391V85.3517C11.7185 86.9695 13.0301 88.2814 14.6483 88.2814H42.5182C42.5179 88.2808 42.5175 88.2798 42.5172 88.2791C41.5212 85.4652 41.0152 82.5076 41.0152 79.4924C41.0152 74.0762 42.6576 69.0364 45.4695 64.844H26.3672V64.8437ZM26.3672 35.547H55.6642C57.2821 35.547 58.594 36.8586 58.594 38.4768C58.594 40.0947 57.2824 41.4066 55.6642 41.4066H26.3672C24.7493 41.4066 23.4374 40.095 23.4374 38.4768C23.4374 36.8586 24.7493 35.547 26.3672 35.547ZM26.3672 47.2656H55.6642C57.2821 47.2656 58.594 48.5772 58.594 50.1954C58.594 51.8132 57.2824 53.1252 55.6642 53.1252H26.3672C24.7493 53.1252 23.4374 51.8136 23.4374 50.1954C23.4374 48.5772 24.7493 47.2656 26.3672 47.2656Z" fill="#265285"/>
</svg>
