<svg width="16" height="14" viewBox="0 0 16 14" fill="none" xmlns="http://www.w3.org/2000/svg">
<path d="M14.4286 1.16602H1.57143C1.28727 1.16602 1.01475 1.28893 0.813814 1.50772C0.612882 1.72652 0.5 2.02326 0.5 2.33268V11.666C0.5 11.9754 0.612882 12.2722 0.813814 12.491C1.01475 12.7098 1.28727 12.8327 1.57143 12.8327H14.4286C14.7127 12.8327 14.9853 12.7098 15.1862 12.491C15.3871 12.2722 15.5 11.9754 15.5 11.666V2.33268C15.5 2.02326 15.3871 1.72652 15.1862 1.50772C14.9853 1.28893 14.7127 1.16602 14.4286 1.16602ZM13.25 2.33268L8 6.28768L2.75 2.33268H13.25ZM1.57143 11.666V2.86352L7.69464 7.47768C7.78432 7.54542 7.89086 7.58172 8 7.58172C8.10914 7.58172 8.21568 7.54542 8.30536 7.47768L14.4286 2.86352V11.666H1.57143Z" fill="white" stroke="white" stroke-width="0.5"/>
</svg>
