<svg width="22" height="22" viewBox="0 0 22 22" fill="none" xmlns="http://www.w3.org/2000/svg">
<path d="M13.0014 1.78567L12.5317 1.31598C12.3572 1.14147 12.0742 1.14147 11.8997 1.31598L7.57455 5.64115C7.40004 5.81566 7.40004 6.09859 7.57455 6.2731L8.04424 6.74279C8.21875 6.9173 8.50169 6.9173 8.67619 6.74279L13.0014 2.41762C13.1759 2.24311 13.1759 1.96018 13.0014 1.78567Z" fill="#3A3A3A" stroke="#3A3A3A"/>
<path fill-rule="evenodd" clip-rule="evenodd" d="M17.5999 7.62305L14.3763 4.39946L10.7477 8.028L13.9713 11.2516L17.5999 7.62305Z" fill="#3A3A3A" stroke="#3A3A3A"/>
<path d="M20.2143 8.99949L20.684 9.46918C20.8585 9.64369 20.8585 9.92662 20.684 10.1011L16.3589 14.4263C16.1843 14.6008 15.9014 14.6008 15.7269 14.4263L15.2572 13.9566C15.0827 13.7821 15.0827 13.4992 15.2572 13.3247L19.5824 8.99949C19.7569 8.82498 20.0398 8.82498 20.2143 8.99949Z" fill="#3A3A3A" stroke="#3A3A3A"/>
<path fill-rule="evenodd" clip-rule="evenodd" d="M11.4828 9.25977L1.88933 17.8624C-0.412017 19.926 2.24408 22.5811 4.30727 20.2803L12.9099 10.6868L11.4828 9.25977Z" fill="#3A3A3A" stroke="#3A3A3A"/>
<path fill-rule="evenodd" clip-rule="evenodd" d="M17.8499 7.875L14.224 11.5009L15.4034 12.6803L19.0293 9.0544L17.8499 7.875Z" fill="#3A3A3A" stroke="#3A3A3A"/>
<path fill-rule="evenodd" clip-rule="evenodd" d="M10.5001 7.77592L14.1259 4.15006L12.9465 2.9707L9.32068 6.59657L10.5001 7.77592Z" fill="#3A3A3A" stroke="#3A3A3A"/>
<path fill-rule="evenodd" clip-rule="evenodd" d="M15.6002 5.12514L17.0446 6.56956L17.6229 5.96801C17.7721 5.81277 17.7213 5.5194 17.5149 5.31298L16.8568 4.65493C16.6504 4.4485 16.357 4.39764 16.2018 4.54689L15.6002 5.12514Z" fill="#3A3A3A" stroke="#3A3A3A"/>
</svg>
