<svg width="221" height="207" viewBox="0 0 221 207" fill="none" xmlns="http://www.w3.org/2000/svg">
<path d="M195.818 12.7535V167.038L193.563 167.135L185.328 167.487L179.588 167.732L97.4341 171.217L24.3585 174.326L21.9714 174.431L13.6372 174.782L0 7.75781L21.9714 8.32L24.3585 8.38114L195.818 12.7535Z" fill="#265285"/>
<path d="M221 13.3974L203.035 166.734L198.21 166.937V12.8184L221 13.3974Z" fill="#265285"/>
<path d="M155.399 180.606L145.306 183.24H21.9688V174.434L24.3559 174.328V180.606H155.399Z" fill="#00A3FF"/>
<path d="M198.211 0V183.241H145.306L155.399 180.606H195.815V2.63384H24.3559V8.38429L21.9688 8.32315V0H198.211Z" fill="#00A3FF"/>
<path d="M170.705 186.594L168.285 187.717L128.026 206.454L140.399 193.837L142.894 191.291L146.966 187.129L170.705 186.594Z" fill="#00A3FF"/>
<path d="M170.705 186.594L140.399 193.837L142.894 191.291L146.966 187.129L170.705 186.594Z" fill="#00A3FF"/>
<path d="M179.588 167.732L170.708 186.591L105.397 190.147C105.397 190.147 100.177 177.75 97.4348 171.218L179.588 167.732H179.588Z" fill="#265285"/>
<path d="M193.563 167.135L155.402 177.091L145.309 179.725L105.397 190.138C105.397 190.138 103.266 185.081 101.019 179.725C100.962 179.602 100.903 179.479 100.863 179.348L116.928 177.091L185.329 167.486L193.564 167.135H193.563Z" fill="#00A3FF"/>
<path d="M99.9125 177.092L100.028 177.381C99.987 177.284 99.9455 177.188 99.9048 177.092H99.9132H99.9125Z" fill="#00A3FF"/>
<path d="M185.328 167.486L116.928 177.091L100.862 179.348L100.705 178.987L100.028 177.381L99.9125 177.091H99.9041L99.0367 175.036L98.4089 173.544L97.4341 171.217L185.328 167.486Z" fill="#00A3FF"/>
<path d="M51.0528 66.2625V82.6804C51.0528 83.1864 51.4988 83.5968 52.0494 83.5968H55.9703C56.5202 83.5968 56.9669 83.1864 56.9669 82.6804V66.2625C56.9669 65.7565 57.4129 65.3461 57.9635 65.3461H59.9966C60.5465 65.3461 60.9932 64.9357 60.9932 64.4298V60.8578C60.9932 60.3518 60.5472 59.9414 59.9966 59.9414H48.0617C47.5118 59.9414 47.0652 60.3518 47.0652 60.8578V64.4298C47.0652 64.9357 47.5118 65.3461 48.0617 65.3461H50.0563C50.6062 65.3461 51.0528 65.7565 51.0528 66.2625Z" fill="white"/>
<path d="M80.4735 59.9434H76.6291C76.0792 59.9434 75.6326 60.3538 75.6326 60.8597V67.7978C75.6326 68.3038 75.1866 68.7142 74.636 68.7142H71.4469C70.897 68.7142 70.4503 68.3038 70.4503 67.7978V60.8597C70.4503 60.3538 70.0036 59.9434 69.4537 59.9434H65.6094C65.0595 59.9434 64.6128 60.3538 64.6128 60.8597V82.6824C64.6128 83.1883 65.0588 83.5987 65.6094 83.5987H69.4537C70.0036 83.5987 70.4503 83.1883 70.4503 82.6824V74.681C70.4503 74.1751 70.8963 73.7647 71.4469 73.7647H74.636C75.1859 73.7647 75.6326 74.1751 75.6326 74.681V82.6824C75.6326 83.1883 76.0785 83.5987 76.6291 83.5987H80.4735C81.0234 83.5987 81.4701 83.1883 81.4701 82.6824V60.8597C81.4701 60.3538 81.0234 59.9434 80.4735 59.9434Z" fill="white"/>
<path d="M86.0777 83.5973H89.9481C90.4095 83.5973 90.8105 83.3057 90.9173 82.8932L91.5746 80.3507C91.6814 79.9382 92.0824 79.6465 92.5438 79.6465H97.127C97.5912 79.6465 97.9943 79.9417 98.0983 80.3584L98.7261 82.8861C98.8301 83.3029 99.2332 83.598 99.6974 83.598H103.676C104.33 83.598 104.807 83.0281 104.639 82.4469L98.3476 60.625C98.2317 60.223 97.8363 59.9434 97.3847 59.9434H92.3675C91.9159 59.9434 91.5205 60.223 91.4047 60.625L85.1135 82.4469C84.9463 83.0288 85.4232 83.598 86.0763 83.598L86.0777 83.5973ZM94.7609 65.3467H94.8382C95.228 68.1864 95.7926 71.1625 96.5314 74.2763C96.667 74.8476 96.2007 75.3936 95.5651 75.3936H94.046C93.4118 75.3936 92.9469 74.8532 93.0803 74.2833C93.7883 71.2433 94.3487 68.2651 94.7609 65.3474V65.3467Z" fill="white"/>
<path d="M120.588 83.0887C120.757 83.4 121.102 83.5968 121.48 83.5968H125.857C126.407 83.5968 126.854 83.1864 126.854 82.6804V60.8578C126.854 60.3518 126.408 59.9414 125.857 59.9414H122.013C121.463 59.9414 121.017 60.3518 121.017 60.8578V70.9989C121.017 71.0221 121.018 71.0453 121.019 71.0685L121.229 73.5849L114.088 60.4481C113.919 60.1375 113.574 59.9414 113.196 59.9414H108.914C108.364 59.9414 107.917 60.3518 107.917 60.8578V82.6804C107.917 83.1864 108.363 83.5968 108.914 83.5968H112.758C113.308 83.5968 113.755 83.1864 113.755 82.6804V73.1071L113.601 70.1655L120.588 83.088V83.0887Z" fill="white"/>
<path d="M148.403 59.9421H144.466C144.075 59.9421 143.72 60.1515 143.559 60.4783L138.315 71.0692H138.219V60.8578C138.219 60.3518 137.773 59.9414 137.222 59.9414H133.378C132.828 59.9414 132.381 60.3518 132.381 60.8578V82.6804C132.381 83.1864 132.828 83.5968 133.378 83.5968H137.222C137.772 83.5968 138.219 83.1864 138.219 82.6804V73.7627H138.315L143.017 83.0669C143.18 83.3902 143.532 83.5968 143.921 83.5968H148.152C148.877 83.5968 149.358 82.9081 149.059 82.3009L144.165 72.4051C144.046 72.164 144.046 71.8878 144.165 71.6468L149.309 61.2372C149.609 60.6308 149.127 59.9414 148.403 59.9414L148.403 59.9421Z" fill="white"/>
<path d="M79.7522 90.2559H71.0219C70.6111 90.2559 70.2382 90.4962 70.0886 90.8483C67.8763 96.0745 66.2519 100.184 65.2153 103.176H65.0882C64.0509 100.256 62.4054 96.1469 60.1517 90.8455C60.0022 90.4941 59.6306 90.2566 59.2198 90.2566H50.7318C49.9979 90.2566 49.5154 90.9628 49.835 91.5714L60.2128 111.339C60.2782 111.463 60.3119 111.599 60.3119 111.737V128.186C60.3119 128.692 60.7578 129.103 61.3084 129.103H69.0274C69.5773 129.103 70.024 128.692 70.024 128.186V111.74C70.024 111.6 70.0584 111.462 70.1251 111.337L80.6469 91.5763C80.9707 90.9677 80.4889 90.2566 79.7522 90.2566V90.2559Z" fill="white"/>
<path d="M97.894 89.1804C93.086 89.1804 89.335 90.9309 86.6466 94.4326C83.9575 97.9343 82.6147 102.818 82.6147 109.084C82.6147 115.874 83.954 121.068 86.6319 124.666C89.3105 128.264 93.2019 130.063 98.3055 130.063C103.409 130.063 107.04 128.264 109.708 124.666C112.375 121.067 113.712 116.009 113.712 109.491C113.712 102.973 112.355 97.9582 109.645 94.4467C106.935 90.9358 103.019 89.1797 97.8947 89.1797L97.894 89.1804ZM102.021 118.831C101.061 120.441 99.6869 121.247 97.894 121.247C96.2274 121.247 94.9555 120.441 94.0805 118.831C93.2047 117.221 92.7693 114.011 92.7693 109.2C92.7693 101.731 94.4983 97.9969 97.9572 97.9969C101.627 97.9969 103.462 101.79 103.462 109.374C103.462 114.068 102.98 117.221 102.021 118.831V118.831Z" fill="white"/>
<path d="M147.45 90.2559H139.667C139.117 90.2559 138.671 90.6663 138.671 91.1722V117.289C138.671 118.685 138.294 119.781 137.547 120.577C136.798 121.372 135.782 121.77 134.496 121.77C133.21 121.77 132.26 121.397 131.522 120.65C130.784 119.903 130.415 118.889 130.415 117.609V91.1729C130.415 90.667 129.969 90.2566 129.419 90.2566H121.573C121.023 90.2566 120.577 90.667 120.577 91.1729V114.379C120.577 120.102 121.621 124.166 123.708 126.572C125.796 128.977 129.392 130.18 134.496 130.18C137.955 130.18 140.647 129.69 142.576 128.711C144.506 127.731 145.969 126.194 146.959 124.099C147.951 122.004 148.446 119.22 148.446 115.747V91.1736C148.446 90.6677 148 90.2573 147.45 90.2573V90.2559Z" fill="white"/>
<path d="M171.064 114.892C169.271 113.259 167.131 112.443 164.642 112.443C162.154 112.443 160.014 113.251 158.221 114.866C156.428 116.482 155.532 118.433 155.532 120.722C155.532 123.011 156.416 125.022 158.191 126.654C159.965 128.286 162.118 129.102 164.642 129.102C167.167 129.102 169.271 128.286 171.064 126.654C172.857 125.022 173.753 123.045 173.753 120.722C173.753 118.4 172.857 116.524 171.064 114.892Z" fill="white"/>
<path d="M158.69 108.304H170.432C171.6 108.304 172.546 107.433 172.546 106.359V61.8866C172.546 60.8121 171.6 59.9414 170.432 59.9414H158.69C157.522 59.9414 156.575 60.8121 156.575 61.8866V106.359C156.575 107.433 157.522 108.304 158.69 108.304Z" fill="white"/>
</svg>
