<svg width="60" height="61" viewBox="0 0 60 61" fill="none" xmlns="http://www.w3.org/2000/svg">
<path d="M36.2132 2.7974L34.8164 1.40061C34.2974 0.881642 33.456 0.881642 32.937 1.40061L20.0746 14.263C19.5557 14.782 19.5557 15.6234 20.0746 16.1424L21.4714 17.5392C21.9904 18.0581 22.8318 18.0581 23.3508 17.5392L36.2132 4.67674C36.7321 4.15777 36.7321 3.31636 36.2132 2.7974Z" fill="url(#paint0_linear_1866_2544)"/>
<path fill-rule="evenodd" clip-rule="evenodd" d="M49.8885 20.1602L40.3021 10.5737L29.5114 21.3644L39.0978 30.9509L49.8885 20.1602Z" fill="url(#paint1_linear_1866_2544)"/>
<path d="M57.6635 24.2475L59.0603 25.6443C59.5793 26.1633 59.5793 27.0047 59.0603 27.5237L46.1979 40.3861C45.6789 40.905 44.8375 40.905 44.3186 40.3861L42.9218 38.9893C42.4028 38.4703 42.4028 37.6289 42.9218 37.1099L55.7842 24.2475C56.3032 23.7286 57.1446 23.7286 57.6635 24.2475Z" fill="url(#paint2_linear_1866_2544)"/>
<path fill-rule="evenodd" clip-rule="evenodd" d="M31.6974 25.0234L3.16779 50.6064C-3.67606 56.7433 4.22278 64.6392 10.3584 57.797L35.9413 29.2673L31.6974 25.0234Z" fill="url(#paint3_linear_1866_2544)"/>
<path fill-rule="evenodd" clip-rule="evenodd" d="M50.6319 20.9043L39.8491 31.6871L43.3565 35.1944L54.1393 24.4117L50.6319 20.9043Z" fill="url(#paint4_linear_1866_2544)"/>
<path fill-rule="evenodd" clip-rule="evenodd" d="M28.7749 20.6103L39.5577 9.82753L36.0504 6.32031L25.2676 17.1031L28.7749 20.6103Z" fill="url(#paint5_linear_1866_2544)"/>
<path fill-rule="evenodd" clip-rule="evenodd" d="M43.9421 12.7233L48.2375 17.0188L49.9573 15.2298C50.401 14.7682 50.2499 13.8958 49.636 13.2819L47.679 11.3249C47.0653 10.7111 46.1927 10.5598 45.7311 11.0036L43.9421 12.7233Z" fill="url(#paint6_linear_1866_2544)"/>
<defs>
<linearGradient id="paint0_linear_1866_2544" x1="35.5148" y1="2.099" x2="-3.59126" y2="45.0414" gradientUnits="userSpaceOnUse">
<stop stop-color="#265285"/>
<stop offset="1" stop-color="#CE0695"/>
</linearGradient>
<linearGradient id="paint1_linear_1866_2544" x1="45.0953" y1="15.3669" x2="14.6528" y2="45.1056" gradientUnits="userSpaceOnUse">
<stop stop-color="#265285"/>
<stop offset="1" stop-color="#CE0695"/>
</linearGradient>
<linearGradient id="paint2_linear_1866_2544" x1="58.3619" y1="24.9459" x2="15.4195" y2="64.052" gradientUnits="userSpaceOnUse">
<stop stop-color="#265285"/>
<stop offset="1" stop-color="#CE0695"/>
</linearGradient>
<linearGradient id="paint3_linear_1866_2544" x1="18.2322" y1="25.0234" x2="19.2585" y2="123.791" gradientUnits="userSpaceOnUse">
<stop stop-color="#265285"/>
<stop offset="1" stop-color="#CE0695"/>
</linearGradient>
<linearGradient id="paint4_linear_1866_2544" x1="46.9942" y1="20.9043" x2="47.4083" y2="60.7544" gradientUnits="userSpaceOnUse">
<stop stop-color="#265285"/>
<stop offset="1" stop-color="#CE0695"/>
</linearGradient>
<linearGradient id="paint5_linear_1866_2544" x1="32.4126" y1="6.32031" x2="32.8267" y2="46.17" gradientUnits="userSpaceOnUse">
<stop stop-color="#265285"/>
<stop offset="1" stop-color="#CE0695"/>
</linearGradient>
<linearGradient id="paint6_linear_1866_2544" x1="47.0775" y1="10.748" x2="47.2592" y2="28.2349" gradientUnits="userSpaceOnUse">
<stop stop-color="#265285"/>
<stop offset="1" stop-color="#CE0695"/>
</linearGradient>
</defs>
</svg>
