<svg width="23" height="19" viewBox="0 0 23 19" fill="none" xmlns="http://www.w3.org/2000/svg">
<path d="M17.7176 4.74344C17.399 3.46996 16.6641 2.33943 15.6296 1.53135C14.5951 0.723266 13.3202 0.283966 12.0075 0.283204C10.6948 0.282442 9.41944 0.720261 8.38398 1.52714C7.34852 2.33402 6.61231 3.4637 6.29224 4.7368C4.7825 4.87849 3.38536 5.59632 2.39104 6.74119C1.39671 7.88606 0.881633 9.36997 0.952791 10.8847C1.02395 12.3994 1.67587 13.8285 2.77315 14.8751C3.87042 15.9217 5.3287 16.5054 6.84508 16.5049H9.05644C9.25193 16.5049 9.43942 16.4272 9.57766 16.289C9.7159 16.1508 9.79356 15.9633 9.79356 15.7678C9.79356 15.5723 9.7159 15.3848 9.57766 15.2466C9.43942 15.1083 9.25193 15.0307 9.05644 15.0307H6.84508C6.26428 15.0324 5.68884 14.9196 5.1516 14.6989C4.61436 14.4782 4.12586 14.1539 3.71397 13.7444C2.88213 12.9174 2.41289 11.7938 2.40947 10.6209C2.40605 9.44788 2.86873 8.32158 3.69573 7.48974C4.52273 6.65791 5.64631 6.18866 6.81928 6.18524C7.00842 6.19948 7.19611 6.14296 7.34593 6.02664C7.49575 5.91032 7.59703 5.74251 7.63011 5.55574C7.78021 4.50318 8.30501 3.54011 9.10812 2.84339C9.91124 2.14667 10.9388 1.76309 12.002 1.76309C13.0652 1.76309 14.0927 2.14667 14.8958 2.84339C15.6989 3.54011 16.2237 4.50318 16.3738 5.55574C16.4124 5.73602 16.5123 5.89733 16.6565 6.01213C16.8008 6.12694 16.9804 6.18812 17.1647 6.18524C18.3377 6.18524 19.4627 6.6512 20.2921 7.48062C21.1215 8.31004 21.5875 9.43498 21.5875 10.608C21.5875 11.7809 21.1215 12.9059 20.2921 13.7353C19.4627 14.5647 18.3377 15.0307 17.1647 15.0307H14.9534C14.7579 15.0307 14.5704 15.1083 14.4322 15.2466C14.2939 15.3848 14.2163 15.5723 14.2163 15.7678C14.2163 15.9633 14.2939 16.1508 14.4322 16.289C14.5704 16.4272 14.7579 16.5049 14.9534 16.5049H17.1647C18.67 16.4892 20.1123 15.8983 21.196 14.8535C22.2797 13.8086 22.9228 12.3889 22.9935 10.8852C23.0642 9.38144 22.5571 7.90764 21.5762 6.76574C20.5952 5.62384 19.2148 4.90032 17.7176 4.74344Z" fill="white"/>
<path d="M15.1699 11.1292C15.3089 11.2635 15.4951 11.3378 15.6884 11.3361C15.8817 11.3345 16.0665 11.2569 16.2032 11.1203C16.3399 10.9836 16.4174 10.7987 16.4191 10.6054C16.4208 10.4122 16.3465 10.226 16.2122 10.087L12.5266 6.40137C12.3884 6.26318 12.2009 6.18555 12.0055 6.18555C11.81 6.18555 11.6225 6.26318 11.4843 6.40137L7.79871 10.087C7.66444 10.226 7.59015 10.4122 7.59182 10.6054C7.5935 10.7987 7.67103 10.9836 7.80769 11.1203C7.94436 11.2569 8.12924 11.3345 8.32251 11.3361C8.51578 11.3378 8.70198 11.2635 8.841 11.1292L11.2683 8.70191V17.9793C11.2683 18.1748 11.346 18.3623 11.4842 18.5005C11.6225 18.6387 11.81 18.7164 12.0055 18.7164C12.2009 18.7164 12.3884 18.6387 12.5267 18.5005C12.6649 18.3623 12.7426 18.1748 12.7426 17.9793V8.70191L15.1699 11.1292Z" fill="white"/>
</svg>
