<svg width="45" height="45" viewBox="0 0 45 45" fill="none" xmlns="http://www.w3.org/2000/svg">
<path d="M22.5 13.2354C20.3105 13.2354 18.5294 11.4543 18.5294 9.26478C18.5294 7.07528 20.3105 5.29421 22.5 5.29421C24.6895 5.29421 26.4706 7.07528 26.4706 9.26478C26.4706 11.4543 24.6895 13.2354 22.5 13.2354ZM15.8823 17.2059V25.1471C15.8823 25.8787 16.4743 26.4706 17.2058 26.4706H18.5293V38.3823C18.5293 39.1139 19.1213 39.7058 19.8527 39.7058H25.1468C25.8784 39.7058 26.4703 39.1138 26.4703 38.3823V26.4706H27.7938C28.5254 26.4706 29.1172 25.8786 29.1172 25.1471V17.2059C29.1172 15.0164 27.3362 13.2354 25.1467 13.2354H19.8526C17.6634 13.2354 15.8823 15.0164 15.8823 17.2059ZM10.5883 22.5C10.5883 20.3105 8.80719 18.5294 6.61768 18.5294C4.42818 18.5294 2.6471 20.3105 2.6471 22.5C2.6471 24.6895 4.42818 26.4706 6.61768 26.4706C8.80719 26.4706 10.5883 24.6895 10.5883 22.5ZM1.32348 37.0588H11.9117C12.6434 37.0588 13.2352 36.4668 13.2352 35.7354V30.4413C13.2352 28.2518 11.4541 26.4707 9.26464 26.4707H3.97058C1.78108 26.4707 0 28.2518 0 30.4413V35.7354C0 36.4668 0.592004 37.0588 1.32348 37.0588ZM41.0294 26.4706H35.7354C33.5459 26.4706 31.7648 28.2517 31.7648 30.4412V35.7352C31.7648 36.4668 32.3568 37.0587 33.0883 37.0587H43.6765C44.4081 37.0587 45 36.4667 45 35.7352V30.4412C45 28.2517 43.2189 26.4706 41.0294 26.4706ZM42.3529 22.5C42.3529 20.3105 40.5718 18.5294 38.3823 18.5294C36.1928 18.5294 34.4117 20.3105 34.4117 22.5C34.4117 24.6895 36.1928 26.4706 38.3823 26.4706C40.5718 26.4706 42.3529 24.6895 42.3529 22.5ZM13.2354 1.32348V3.97058C13.2354 4.7022 13.8274 5.29406 14.5588 5.29406C15.2905 5.29406 15.8823 4.70205 15.8823 3.97058V2.6471H17.2058C17.9374 2.6471 18.5293 2.0551 18.5293 1.32363C18.5293 0.592004 17.9373 0.000148925 17.2058 0.000148925H14.5587C13.8272 -8.18589e-08 13.2354 0.592004 13.2354 1.32348ZM31.7646 1.32348C31.7646 0.591855 31.1726 0 30.4412 0H27.7941C27.0624 0 26.4706 0.592004 26.4706 1.32348C26.4706 2.0551 27.0626 2.64695 27.7941 2.64695H29.1175V3.97043C29.1175 4.70205 29.7095 5.29391 30.441 5.29391C31.1726 5.29391 31.7645 4.7019 31.7645 3.97043V1.32348H31.7646ZM13.2354 43.6765C13.2354 44.4081 13.8274 45 14.5588 45H17.2059C17.9376 45 18.5294 44.408 18.5294 43.6765C18.5294 42.945 17.9374 42.353 17.2059 42.353H15.8825V41.0296C15.8825 40.2979 15.2905 39.7061 14.559 39.7061C13.8274 39.7061 13.2355 40.2981 13.2355 41.0296V43.6765H13.2354ZM30.4412 39.7059C29.7095 39.7059 29.1177 40.2979 29.1177 41.0294V42.3529H27.7942C27.0626 42.3529 26.4707 42.9449 26.4707 43.6764C26.4707 44.4078 27.0626 45 27.7941 45H30.4412C31.1728 45 31.7646 44.408 31.7646 43.6765V41.0294C31.7646 40.2978 31.1728 39.7059 30.4412 39.7059Z" fill="url(#paint0_linear_937_703)"/>
<defs>
<linearGradient id="paint0_linear_937_703" x1="22.5" y1="45" x2="22.5" y2="0" gradientUnits="userSpaceOnUse">
<stop stop-opacity="0.5"/>
<stop offset="1" stop-opacity="0.2"/>
</linearGradient>
</defs>
</svg>
