<svg width="18" height="18" viewBox="0 0 18 18" fill="none" xmlns="http://www.w3.org/2000/svg">
<path d="M11.1173 8.781C11.1564 8.80241 11.1889 8.83415 11.2113 8.87276C11.2336 8.91138 11.2449 8.95539 11.244 9C11.2463 9.03805 11.2393 9.07609 11.2236 9.11084C11.2079 9.14559 11.184 9.17601 11.154 9.1995L7.125 11.2155C7.08663 11.2367 7.0434 11.2476 6.99956 11.247C6.95572 11.2465 6.91278 11.2345 6.87496 11.2124C6.83713 11.1902 6.80572 11.1586 6.78382 11.1206C6.76191 11.0826 6.75025 11.0396 6.75 10.9958V7.00425C6.74915 6.95975 6.76043 6.91586 6.78263 6.87728C6.80483 6.8387 6.8371 6.80688 6.876 6.78525C6.91181 6.7646 6.95242 6.75373 6.99375 6.75375C7.05422 6.75553 7.11318 6.77311 7.16475 6.80475L11.1173 8.781ZM18 3.75V14.25C17.9988 15.2442 17.6033 16.1973 16.9003 16.9003C16.1973 17.6033 15.2442 17.9988 14.25 18H3.75C2.7558 17.9988 1.80267 17.6033 1.09966 16.9003C0.396661 16.1973 0.00119089 15.2442 0 14.25L0 3.75C0.00119089 2.7558 0.396661 1.80267 1.09966 1.09966C1.80267 0.396661 2.7558 0.00119089 3.75 0L14.25 0C15.2442 0.00119089 16.1973 0.396661 16.9003 1.09966C17.6033 1.80267 17.9988 2.7558 18 3.75ZM12.744 9C12.7443 8.684 12.6589 8.37382 12.497 8.10244C12.3351 7.83107 12.1027 7.60862 11.8245 7.45875L7.866 5.4825C7.59937 5.32953 7.29721 5.24936 6.98982 5.25005C6.68243 5.25074 6.38062 5.33226 6.11469 5.48643C5.84875 5.6406 5.62804 5.86199 5.47469 6.1284C5.32134 6.39481 5.24075 6.69686 5.241 7.00425V10.9958C5.2392 11.3031 5.31908 11.6054 5.47247 11.8717C5.62586 12.138 5.84726 12.3588 6.114 12.5115C6.38401 12.6691 6.69085 12.7527 7.0035 12.7537C7.29275 12.7551 7.57725 12.6803 7.8285 12.537L11.8605 10.5218C12.1301 10.3699 12.3542 10.1488 12.5095 9.88121C12.6649 9.61364 12.7458 9.30939 12.744 9Z" fill="#3A3A3A"/>
</svg>
