<svg width="40" height="48" viewBox="0 0 40 48" fill="none" xmlns="http://www.w3.org/2000/svg">
<path fill-rule="evenodd" clip-rule="evenodd" d="M31.6363 23.1234C32.2779 22.0122 33.7005 21.631 34.8116 22.2726C36.0413 22.9816 37.608 23.8881 38.8377 24.5971C39.9488 25.2387 40.33 26.6613 39.6885 27.7724C37.2965 31.9171 31.9362 41.199 30.6646 43.4026C30.4856 43.7141 30.2346 43.9814 29.9324 44.179C29.1095 44.723 27.3033 45.9155 25.5948 47.0429C24.8603 47.5287 23.9142 47.5566 23.1517 47.1173C22.3893 46.6756 21.9406 45.8434 21.9941 44.9647C22.1173 42.9191 22.2451 40.762 22.3056 39.7764C22.3265 39.416 22.4311 39.065 22.6124 38.7536C23.884 36.5499 29.2443 27.268 31.6363 23.1234ZM17.5217 46.6802C17.3706 46.0363 17.3125 45.3645 17.352 44.6858C17.4752 42.6425 17.6054 40.483 17.6635 39.4974C17.7286 38.4165 18.0447 37.3658 18.5863 36.429L27.6102 20.7988C29.5349 17.4631 33.8004 16.3218 37.1361 18.2465L37.4476 18.4255V7.16307C37.4476 3.31131 34.3258 0.189453 30.474 0.189453H7.22862C5.37829 0.189453 3.60466 0.924002 2.29827 2.23272C0.989554 3.53911 0.255005 5.31274 0.255005 7.16307V39.7066C0.255005 41.557 0.989554 43.3306 2.29827 44.637C3.60466 45.9457 5.37829 46.6802 7.22862 46.6802H17.5217ZM9.55316 32.733H14.609C15.8922 32.733 16.9335 31.6916 16.9335 30.4085C16.9335 29.1253 15.8922 28.0839 14.609 28.0839H9.55316C8.27002 28.0839 7.22862 29.1253 7.22862 30.4085C7.22862 31.6916 8.27002 32.733 9.55316 32.733ZM9.55316 23.4348H19.6649C20.9481 23.4348 21.9895 22.3935 21.9895 21.1103C21.9895 19.8272 20.9481 18.7858 19.6649 18.7858H9.55316C8.27002 18.7858 7.22862 19.8272 7.22862 21.1103C7.22862 22.3935 8.27002 23.4348 9.55316 23.4348ZM9.55316 14.1367H23.5004C24.7835 14.1367 25.8249 13.0953 25.8249 11.8121C25.8249 10.529 24.7835 9.48761 23.5004 9.48761H9.55316C8.27002 9.48761 7.22862 10.529 7.22862 11.8121C7.22862 13.0953 8.27002 14.1367 9.55316 14.1367Z" fill="url(#paint0_linear_1866_2658)"/>
<defs>
<linearGradient id="paint0_linear_1866_2658" x1="20.1275" y1="0.189453" x2="21.7543" y2="131.915" gradientUnits="userSpaceOnUse">
<stop stop-color="#265285"/>
<stop offset="1" stop-color="#CE0695"/>
</linearGradient>
</defs>
</svg>
